M48
;DRILL file {KiCad (2016-03-22 BZR 6643, Git db8c72c)-product} date 3/23/2016 7:30:31 PM
;FORMAT={2:4/ absolute / inch / keep zeros}
FMAT,2
INCH,TZ
T1C0.032
T2C0.036
T3C0.050
T4C0.060
T5C0.070
T6C0.095
%
G90
G05
M72
T1
X087500Y-028000
X088000Y-027500
X088000Y-031000
X088000Y-032969
X088500Y-028000
T2
X030500Y-027500
X030500Y-028500
X030500Y-029500
X030500Y-030500
X030500Y-031500
X031500Y-027500
X031500Y-028500
X031500Y-029500
X031500Y-030500
X031500Y-031500
X034500Y-027000
X034500Y-033000
X035500Y-027000
X035500Y-033000
X035500Y-036000
X036500Y-022500
X036500Y-023500
X036500Y-027000
X036500Y-033000
X037500Y-022500
X037500Y-023500
X037500Y-027000
X037500Y-033000
X038500Y-022500
X038500Y-023500
X038500Y-027000
X038500Y-033000
X039000Y-031000
X039500Y-022500
X039500Y-023500
X039500Y-027000
X039500Y-033000
X040500Y-022500
X040500Y-023500
X040500Y-027000
X040500Y-030000
X040500Y-033000
X041500Y-025500
X041500Y-027000
X041500Y-028500
X041500Y-033000
X042000Y-030500
X042500Y-027000
X042500Y-033000
X042500Y-034500
X043500Y-027000
X043500Y-033000
X043500Y-034500
X044500Y-022500
X044500Y-023500
X044500Y-025500
X044500Y-027000
X044500Y-033000
X045000Y-034500
X045500Y-022500
X045500Y-023500
X045500Y-027000
X045500Y-030500
X045500Y-033000
X046500Y-022500
X046500Y-023500
X046500Y-027000
X046500Y-033000
X047000Y-029500
X047000Y-034500
X047500Y-022500
X047500Y-023500
X047500Y-027000
X047500Y-033000
X047516Y-030016
X048000Y-029000
X048500Y-022500
X048500Y-023500
X048500Y-027000
X048500Y-030250
X048500Y-033000
X048500Y-034500
X049500Y-027000
X049500Y-031000
X049500Y-033000
X049500Y-034500
X050500Y-027000
X050500Y-033000
X051500Y-027000
X051500Y-033000
X052500Y-022500
X052500Y-023500
X052500Y-027000
X052500Y-033000
X053500Y-022500
X053500Y-023500
X053500Y-027000
X053500Y-033000
X054500Y-022500
X054500Y-023500
X054500Y-026000
X055500Y-022500
X055500Y-023500
X055500Y-026000
X056500Y-022500
X056500Y-023500
X057500Y-026500
X057500Y-029500
X060000Y-026500
X060000Y-029500
X060500Y-022500
X060500Y-023500
X061000Y-026500
X061000Y-029500
X061000Y-034000
X061000Y-036000
X061000Y-038000
X061500Y-022500
X061500Y-023500
X062000Y-026500
X062000Y-029500
X062270Y-031977
X062500Y-022500
X062500Y-023500
X063000Y-026500
X063000Y-029500
X063000Y-032000
X063500Y-022500
X063500Y-023500
X064000Y-026500
X064000Y-029500
X064300Y-033550
X064500Y-022500
X064500Y-023500
X065000Y-025500
X065000Y-026500
X065000Y-029500
X065000Y-034000
X065000Y-036000
X065000Y-038000
X065071Y-032963
X066000Y-026500
X066000Y-029500
X070500Y-026500
X070500Y-029500
X072000Y-024000
X072000Y-033000
X072000Y-035000
X073000Y-026500
X073000Y-029500
X074000Y-026500
X074000Y-029500
X075000Y-026500
X075000Y-029500
X076000Y-024000
X076000Y-033000
X076000Y-035000
X076750Y-034000
X079000Y-026500
X079000Y-029500
X081000Y-024000
X081000Y-033000
X081000Y-035000
X082000Y-026500
X082000Y-029500
X083000Y-026500
X083000Y-029500
X084000Y-026500
X084000Y-029500
X085000Y-024000
X085000Y-033000
X085000Y-035000
X086000Y-026500
X086000Y-029500
X086000Y-035750
X091000Y-031000
X091000Y-033000
X091000Y-035000
X095000Y-031000
X095000Y-033000
X095000Y-035000
T3
X060000Y-041500
X061000Y-040500
X061000Y-045500
X062000Y-045500
X063000Y-041500
X063000Y-045500
X064000Y-045500
X065000Y-040500
X065000Y-045500
X066000Y-041500
X070000Y-041500
X071000Y-040500
X071000Y-045500
X072000Y-045500
X073000Y-041500
X073000Y-045500
X074000Y-045500
X075000Y-040500
X075000Y-045500
X076000Y-041500
X080000Y-041500
X081000Y-040500
X081000Y-045500
X082000Y-045500
X083000Y-041500
X083000Y-045500
X084000Y-045500
X085000Y-040500
X085000Y-045500
X086000Y-041500
T4
X033000Y-043780
X034500Y-040780
X035500Y-038780
X043000Y-043780
X044500Y-040780
X045500Y-038780
X053000Y-043780
X054500Y-040780
X055500Y-038780
X093000Y-043780
X094500Y-040780
X095500Y-038780
T5
X090160Y-026500
X091720Y-026500
X093280Y-026500
X094840Y-026500
T6
X031500Y-042780
X033000Y-037780
X034500Y-042780
X041500Y-042780
X043000Y-037780
X044500Y-042780
X051500Y-042780
X053000Y-037780
X054500Y-042780
X091500Y-042780
X093000Y-037780
X094500Y-042780
T0
M30
