G04 #@! TF.FileFunction,Copper,L1,Top,Signal*
%FSLAX46Y46*%
G04 Gerber Fmt 4.6, Leading zero omitted, Abs format (unit mm)*
G04 Created by KiCad (PCBNEW (2016-03-22 BZR 6643, Git db8c72c)-product) date 3/23/2016 7:30:48 PM*
%MOMM*%
G01*
G04 APERTURE LIST*
%ADD10C,0.100000*%
%ADD11O,2.540000X2.032000*%
%ADD12C,2.540000*%
%ADD13C,1.574800*%
%ADD14R,1.574800X1.574800*%
%ADD15C,3.810000*%
%ADD16C,3.048000*%
%ADD17R,1.300000X1.300000*%
%ADD18C,1.300000*%
%ADD19C,3.175000*%
%ADD20C,1.397000*%
%ADD21C,0.304800*%
%ADD22C,1.270000*%
G04 APERTURE END LIST*
D10*
D11*
X190500000Y-115570000D03*
X180340000Y-115570000D03*
X185420000Y-115570000D03*
X182880000Y-115570000D03*
X187960000Y-115570000D03*
D12*
X185420000Y-105410000D03*
X177800000Y-105410000D03*
X193040000Y-105410000D03*
X180340000Y-102870000D03*
X190500000Y-102870000D03*
D11*
X215900000Y-115570000D03*
X205740000Y-115570000D03*
X210820000Y-115570000D03*
X208280000Y-115570000D03*
X213360000Y-115570000D03*
D12*
X210820000Y-105410000D03*
X203200000Y-105410000D03*
X218440000Y-105410000D03*
X205740000Y-102870000D03*
X215900000Y-102870000D03*
D11*
X165100000Y-115570000D03*
X154940000Y-115570000D03*
X160020000Y-115570000D03*
X157480000Y-115570000D03*
X162560000Y-115570000D03*
D12*
X160020000Y-105410000D03*
X152400000Y-105410000D03*
X167640000Y-105410000D03*
X154940000Y-102870000D03*
X165100000Y-102870000D03*
D13*
X241300000Y-88900000D03*
X231140000Y-88900000D03*
X193040000Y-88900000D03*
X182880000Y-88900000D03*
X215900000Y-88900000D03*
X205740000Y-88900000D03*
X182880000Y-60960000D03*
X193040000Y-60960000D03*
X205740000Y-60960000D03*
X215900000Y-60960000D03*
X165100000Y-86360000D03*
X154940000Y-86360000D03*
X154940000Y-96520000D03*
X165100000Y-96520000D03*
X165100000Y-91440000D03*
X154940000Y-91440000D03*
X87630000Y-68580000D03*
D14*
X87630000Y-83820000D03*
D13*
X90170000Y-68580000D03*
X90170000Y-83820000D03*
X92710000Y-68580000D03*
X92710000Y-83820000D03*
X95250000Y-68580000D03*
X95250000Y-83820000D03*
X97790000Y-68580000D03*
X97790000Y-83820000D03*
X100330000Y-68580000D03*
X100330000Y-83820000D03*
X102870000Y-68580000D03*
X102870000Y-83820000D03*
X105410000Y-68580000D03*
X105410000Y-83820000D03*
X107950000Y-68580000D03*
X107950000Y-83820000D03*
X110490000Y-68580000D03*
X110490000Y-83820000D03*
X113030000Y-68580000D03*
X113030000Y-83820000D03*
X115570000Y-68580000D03*
X115570000Y-83820000D03*
X118110000Y-68580000D03*
X118110000Y-83820000D03*
X120650000Y-68580000D03*
X120650000Y-83820000D03*
X123190000Y-68580000D03*
X123190000Y-83820000D03*
X125730000Y-68580000D03*
X125730000Y-83820000D03*
X128270000Y-68580000D03*
X128270000Y-83820000D03*
X130810000Y-68580000D03*
X130810000Y-83820000D03*
X133350000Y-68580000D03*
X133350000Y-83820000D03*
X135890000Y-68580000D03*
X135890000Y-83820000D03*
X185420000Y-67310000D03*
D14*
X185420000Y-74930000D03*
D13*
X187960000Y-67310000D03*
X187960000Y-74930000D03*
X190500000Y-67310000D03*
X190500000Y-74930000D03*
X208280000Y-67310000D03*
D14*
X208280000Y-74930000D03*
D13*
X210820000Y-67310000D03*
X210820000Y-74930000D03*
X213360000Y-67310000D03*
X213360000Y-74930000D03*
X152400000Y-67310000D03*
D14*
X152400000Y-74930000D03*
D13*
X154940000Y-67310000D03*
X154940000Y-74930000D03*
X157480000Y-67310000D03*
X157480000Y-74930000D03*
X160020000Y-67310000D03*
X160020000Y-74930000D03*
X162560000Y-67310000D03*
X162560000Y-74930000D03*
X165100000Y-67310000D03*
X165100000Y-74930000D03*
X167640000Y-67310000D03*
X167640000Y-74930000D03*
X182880000Y-83820000D03*
X193040000Y-83820000D03*
X231140000Y-78740000D03*
X241300000Y-78740000D03*
X231140000Y-83820000D03*
X241300000Y-83820000D03*
X205740000Y-83820000D03*
X215900000Y-83820000D03*
D15*
X236220000Y-111201200D03*
D16*
X240030000Y-108661200D03*
D15*
X240030000Y-103581200D03*
X242570000Y-98501200D03*
D16*
X236220000Y-95961200D03*
X232410000Y-108661200D03*
D15*
X109220000Y-111201200D03*
D16*
X113030000Y-108661200D03*
D15*
X113030000Y-103581200D03*
X115570000Y-98501200D03*
D16*
X109220000Y-95961200D03*
X105410000Y-108661200D03*
D15*
X134620000Y-111201200D03*
D16*
X138430000Y-108661200D03*
D15*
X138430000Y-103581200D03*
X140970000Y-98501200D03*
D16*
X134620000Y-95961200D03*
X130810000Y-108661200D03*
D15*
X83820000Y-111201200D03*
D16*
X87630000Y-108661200D03*
D15*
X87630000Y-103581200D03*
X90170000Y-98501200D03*
D16*
X83820000Y-95961200D03*
X80010000Y-108661200D03*
D13*
X218440000Y-67310000D03*
X218440000Y-74930000D03*
X200660000Y-67310000D03*
X200660000Y-74930000D03*
X179070000Y-67310000D03*
X179070000Y-74930000D03*
X146050000Y-67310000D03*
X146050000Y-74930000D03*
X105410000Y-64770000D03*
X113030000Y-64770000D03*
D17*
X223520000Y-78740000D03*
D18*
X223520000Y-83740000D03*
D19*
X229006400Y-67310000D03*
X232968800Y-67310000D03*
X236931200Y-67310000D03*
X240893600Y-67310000D03*
D13*
X123190000Y-87630000D03*
X125730000Y-87630000D03*
X110490000Y-87630000D03*
X107950000Y-87630000D03*
X119380000Y-87630000D03*
X114300000Y-87630000D03*
D20*
X222250000Y-71120000D03*
X223520000Y-69850000D03*
X224790000Y-71120000D03*
D14*
X92710000Y-59690000D03*
D13*
X92710000Y-57150000D03*
X95250000Y-59690000D03*
X95250000Y-57150000D03*
X97790000Y-59690000D03*
X97790000Y-57150000D03*
X100330000Y-59690000D03*
X100330000Y-57150000D03*
X102870000Y-59690000D03*
X102870000Y-57150000D03*
D14*
X113030000Y-59690000D03*
D13*
X113030000Y-57150000D03*
X115570000Y-59690000D03*
X115570000Y-57150000D03*
X118110000Y-59690000D03*
X118110000Y-57150000D03*
X120650000Y-59690000D03*
X120650000Y-57150000D03*
X123190000Y-59690000D03*
X123190000Y-57150000D03*
D14*
X133350000Y-59690000D03*
D13*
X133350000Y-57150000D03*
X135890000Y-59690000D03*
X135890000Y-57150000D03*
X138430000Y-59690000D03*
X138430000Y-57150000D03*
X140970000Y-59690000D03*
X140970000Y-57150000D03*
X143510000Y-59690000D03*
X143510000Y-57150000D03*
D14*
X153670000Y-59690000D03*
D13*
X153670000Y-57150000D03*
X156210000Y-59690000D03*
X156210000Y-57150000D03*
X158750000Y-59690000D03*
X158750000Y-57150000D03*
X161290000Y-59690000D03*
X161290000Y-57150000D03*
X163830000Y-59690000D03*
X163830000Y-57150000D03*
D14*
X80010000Y-80010000D03*
D13*
X77470000Y-80010000D03*
X80010000Y-77470000D03*
X77470000Y-77470000D03*
X80010000Y-74930000D03*
X77470000Y-74930000D03*
X80010000Y-72390000D03*
X77470000Y-72390000D03*
X80010000Y-69850000D03*
X77470000Y-69850000D03*
X90170000Y-91440000D03*
X160020000Y-81280000D03*
X163322000Y-85216998D03*
X158166700Y-81221844D03*
X165280470Y-83725011D03*
X165100000Y-64770000D03*
X125730000Y-78740000D03*
X120691126Y-76241126D03*
X106680000Y-77470000D03*
X140970000Y-66040000D03*
X138430000Y-66040000D03*
X99060000Y-78740000D03*
X115570000Y-77470000D03*
X102870000Y-76200000D03*
X119380000Y-74930000D03*
X105410000Y-72390000D03*
X121920000Y-73660000D03*
X194945000Y-86360000D03*
X218440000Y-90805000D03*
X123190000Y-76835000D03*
D21*
X242570000Y-98501200D02*
X242570000Y-93345000D01*
X241300000Y-92075000D02*
X241300000Y-88900000D01*
X242570000Y-93345000D02*
X241300000Y-92075000D01*
D22*
X218440000Y-74930000D02*
X218440000Y-71882000D01*
X218440000Y-71882000D02*
X221233999Y-69088001D01*
X221233999Y-69088001D02*
X222758001Y-69088001D01*
X222758001Y-69088001D02*
X223520000Y-69850000D01*
X223520000Y-83740000D02*
X227330000Y-79930000D01*
X227330000Y-79930000D02*
X227330000Y-70993000D01*
X227330000Y-70993000D02*
X225425001Y-69088001D01*
X225425001Y-69088001D02*
X224281999Y-69088001D01*
X224281999Y-69088001D02*
X223520000Y-69850000D01*
X74930000Y-69850000D02*
X77470000Y-69850000D01*
X74930000Y-80010000D02*
X74930000Y-69850000D01*
X77470000Y-80010000D02*
X74930000Y-80010000D01*
X125730000Y-87630000D02*
X125730000Y-97155000D01*
X134620000Y-106045000D02*
X134620000Y-111201200D01*
X125730000Y-97155000D02*
X134620000Y-106045000D01*
X241300000Y-83820000D02*
X246380000Y-83820000D01*
X240588800Y-115570000D02*
X236220000Y-111201200D01*
X243840000Y-115570000D02*
X240588800Y-115570000D01*
X247015000Y-112395000D02*
X243840000Y-115570000D01*
X247015000Y-84455000D02*
X247015000Y-112395000D01*
X246380000Y-83820000D02*
X247015000Y-84455000D01*
X110490000Y-68580000D02*
X110490000Y-67310000D01*
X110490000Y-67310000D02*
X113030000Y-64770000D01*
X113030000Y-83820000D02*
X113030000Y-74930000D01*
X110490000Y-72390000D02*
X110490000Y-68580000D01*
X113030000Y-74930000D02*
X110490000Y-72390000D01*
D21*
X90170000Y-91440000D02*
X90170000Y-83820000D01*
X90170000Y-98501200D02*
X90170000Y-94615000D01*
X95250000Y-89535000D02*
X95250000Y-83820000D01*
X90170000Y-94615000D02*
X95250000Y-89535000D01*
X193040000Y-83820000D02*
X189865000Y-83820000D01*
X180340000Y-102870000D02*
X180340000Y-99060000D01*
X187960000Y-78740000D02*
X187960000Y-74930000D01*
X189865000Y-80645000D02*
X187960000Y-78740000D01*
X189865000Y-84455000D02*
X189865000Y-83820000D01*
X189865000Y-83820000D02*
X189865000Y-80645000D01*
X189865000Y-89535000D02*
X189865000Y-84455000D01*
X180340000Y-99060000D02*
X189865000Y-89535000D01*
X190500000Y-102870000D02*
X190500000Y-99060000D01*
X193040000Y-96520000D02*
X193040000Y-88900000D01*
X190500000Y-99060000D02*
X193040000Y-96520000D01*
X215900000Y-83820000D02*
X215900000Y-81280000D01*
X210820000Y-76200000D02*
X210820000Y-74930000D01*
X215900000Y-81280000D02*
X210820000Y-76200000D01*
X205740000Y-102870000D02*
X205740000Y-97790000D01*
X214630000Y-83820000D02*
X215900000Y-83820000D01*
X211455000Y-86995000D02*
X214630000Y-83820000D01*
X211455000Y-92075000D02*
X211455000Y-86995000D01*
X205740000Y-97790000D02*
X211455000Y-92075000D01*
X215900000Y-102870000D02*
X215900000Y-88900000D01*
X156210000Y-57150000D02*
X154990799Y-58369201D01*
X154990799Y-60275217D02*
X156251126Y-61535544D01*
X154990799Y-58369201D02*
X154990799Y-60275217D01*
X156251126Y-61535544D02*
X156251126Y-77511126D01*
X156251126Y-77511126D02*
X159232601Y-80492601D01*
X159232601Y-80492601D02*
X160020000Y-81280000D01*
X164514763Y-82275686D02*
X163322000Y-83468449D01*
X164514763Y-81047945D02*
X164514763Y-82275686D01*
X163322000Y-83468449D02*
X163322000Y-84103447D01*
X161340799Y-77873981D02*
X164514763Y-81047945D01*
X161340799Y-62280799D02*
X161340799Y-77873981D01*
X158750000Y-59690000D02*
X161340799Y-62280799D01*
X163322000Y-84103447D02*
X163322000Y-85216998D01*
X158750000Y-57150000D02*
X157530799Y-58369201D01*
X162530538Y-80716118D02*
X162530538Y-81944462D01*
X157530799Y-58369201D02*
X157530799Y-60275217D01*
X157530799Y-60275217D02*
X158750000Y-61494418D01*
X158750000Y-61494418D02*
X158750000Y-76935580D01*
X161798000Y-82677000D02*
X159621856Y-82677000D01*
X158750000Y-76935580D02*
X162530538Y-80716118D01*
X162530538Y-81944462D02*
X161798000Y-82677000D01*
X159621856Y-82677000D02*
X158954099Y-82009243D01*
X158954099Y-82009243D02*
X158166700Y-81221844D01*
X163830000Y-63343551D02*
X163830000Y-77470000D01*
X161290000Y-59690000D02*
X161290000Y-60803551D01*
X165280470Y-78920470D02*
X165280470Y-82611460D01*
X165280470Y-82611460D02*
X165280470Y-83725011D01*
X163830000Y-77470000D02*
X165280470Y-78920470D01*
X161290000Y-60803551D02*
X163830000Y-63343551D01*
X162509201Y-58369201D02*
X162077399Y-57937399D01*
X165100000Y-62866016D02*
X162509201Y-60275217D01*
X165100000Y-64770000D02*
X165100000Y-62866016D01*
X162509201Y-60275217D02*
X162509201Y-58369201D01*
X162077399Y-57937399D02*
X161290000Y-57150000D01*
D22*
X146050000Y-67310000D02*
X146050000Y-59690000D01*
X146050000Y-59690000D02*
X143510000Y-57150000D01*
X178282601Y-68097399D02*
X179070000Y-67310000D01*
X168097201Y-78282799D02*
X178282601Y-68097399D01*
X168097201Y-84649057D02*
X168097201Y-78282799D01*
X166386258Y-86360000D02*
X168097201Y-84649057D01*
X165100000Y-86360000D02*
X166386258Y-86360000D01*
X103657399Y-57937399D02*
X102870000Y-57150000D01*
X105410000Y-59690000D02*
X103657399Y-57937399D01*
X105410000Y-64770000D02*
X105410000Y-59690000D01*
X165100000Y-91440000D02*
X165100000Y-86360000D01*
X205740000Y-60960000D02*
X205740000Y-62230000D01*
X205740000Y-62230000D02*
X200660000Y-67310000D01*
X182880000Y-60960000D02*
X182880000Y-63500000D01*
X182880000Y-63500000D02*
X179070000Y-67310000D01*
X110490000Y-83820000D02*
X110490000Y-76200000D01*
X107950000Y-73660000D02*
X107950000Y-68580000D01*
X110490000Y-76200000D02*
X107950000Y-73660000D01*
D21*
X125730000Y-78740000D02*
X128270000Y-76200000D01*
X128270000Y-76200000D02*
X128270000Y-68580000D01*
X123190000Y-74855803D02*
X121804677Y-76241126D01*
X121804677Y-76241126D02*
X120691126Y-76241126D01*
X123190000Y-68580000D02*
X123190000Y-74855803D01*
X107950000Y-78740000D02*
X106680000Y-77470000D01*
X107950000Y-83820000D02*
X107950000Y-78740000D01*
X133350000Y-59690000D02*
X133350000Y-68580000D01*
X130810000Y-68580000D02*
X130810000Y-59690000D01*
X130810000Y-59690000D02*
X133350000Y-57150000D01*
X135255000Y-57150000D02*
X135890000Y-57150000D01*
X140970000Y-66040000D02*
X140970000Y-59690000D01*
X138430000Y-66040000D02*
X139750799Y-64719201D01*
X139750799Y-64719201D02*
X139750799Y-58369201D01*
X139750799Y-58369201D02*
X140182601Y-57937399D01*
X140182601Y-57937399D02*
X140970000Y-57150000D01*
X99060000Y-78740000D02*
X97790000Y-80010000D01*
X97790000Y-80010000D02*
X97790000Y-83820000D01*
X118110000Y-59690000D02*
X116890799Y-60909201D01*
X116890799Y-60909201D02*
X116890799Y-76149201D01*
X116890799Y-76149201D02*
X115570000Y-77470000D01*
X116840000Y-58420000D02*
X109220000Y-58420000D01*
X118110000Y-57150000D02*
X116840000Y-58420000D01*
X109220000Y-58420000D02*
X106654601Y-60985399D01*
X106654601Y-69139817D02*
X100330000Y-75464418D01*
X106654601Y-60985399D02*
X106654601Y-69139817D01*
X100330000Y-75464418D02*
X100330000Y-82706449D01*
X100330000Y-82706449D02*
X100330000Y-83820000D01*
X102870000Y-76200000D02*
X102870000Y-83820000D01*
X120650000Y-59690000D02*
X119380000Y-60960000D01*
X119380000Y-60960000D02*
X119380000Y-74930000D01*
X105410000Y-72390000D02*
X105410000Y-83820000D01*
X121920000Y-58420000D02*
X121920000Y-73660000D01*
X120650000Y-57150000D02*
X121920000Y-58420000D01*
X92710000Y-61595000D02*
X92710000Y-59690000D01*
X87630000Y-66675000D02*
X92710000Y-61595000D01*
X87630000Y-68580000D02*
X87630000Y-66675000D01*
X90170000Y-68580000D02*
X90170000Y-67310000D01*
X90170000Y-67310000D02*
X93929201Y-63550799D01*
X93929201Y-63550799D02*
X93929201Y-58369201D01*
X93929201Y-58369201D02*
X92710000Y-57150000D01*
X95250000Y-63500000D02*
X95250000Y-59690000D01*
X92710000Y-66040000D02*
X95250000Y-63500000D01*
X92710000Y-68580000D02*
X92710000Y-66040000D01*
X95250000Y-57150000D02*
X96520000Y-58420000D01*
X96520000Y-58420000D02*
X96520000Y-64135000D01*
X96520000Y-64135000D02*
X95250000Y-65405000D01*
X95250000Y-65405000D02*
X95250000Y-68580000D01*
X97790000Y-68580000D02*
X97790000Y-59690000D01*
X99060000Y-58420000D02*
X97790000Y-57150000D01*
X99060000Y-65405000D02*
X99060000Y-58420000D01*
X100330000Y-66675000D02*
X99060000Y-65405000D01*
X100330000Y-68580000D02*
X100330000Y-66675000D01*
X100330000Y-64770000D02*
X100330000Y-59690000D01*
X102870000Y-67310000D02*
X100330000Y-64770000D01*
X102870000Y-68580000D02*
X102870000Y-67310000D01*
X105410000Y-68580000D02*
X105410000Y-66675000D01*
X105410000Y-66675000D02*
X101600000Y-62865000D01*
X101600000Y-62865000D02*
X101600000Y-58420000D01*
X101600000Y-58420000D02*
X100330000Y-57150000D01*
X154940000Y-102870000D02*
X154940000Y-102235000D01*
X165100000Y-102870000D02*
X163830001Y-101600001D01*
X163830001Y-101600001D02*
X158215583Y-101600001D01*
X158215583Y-101600001D02*
X153720799Y-97105217D01*
X153720799Y-97105217D02*
X153720799Y-92659201D01*
X153720799Y-92659201D02*
X154152601Y-92227399D01*
X154152601Y-92227399D02*
X154940000Y-91440000D01*
X231140000Y-88900000D02*
X231140000Y-83820000D01*
X182880000Y-88900000D02*
X182880000Y-83820000D01*
X182880000Y-83820000D02*
X182880000Y-81280000D01*
X182880000Y-81280000D02*
X184150000Y-80010000D01*
X184150000Y-80010000D02*
X185420000Y-78740000D01*
X185420000Y-78740000D02*
X185420000Y-74930000D01*
X205740000Y-88900000D02*
X205740000Y-83820000D01*
X205740000Y-83820000D02*
X208280000Y-81280000D01*
X208280000Y-81280000D02*
X208280000Y-74930000D01*
X194945000Y-72390000D02*
X190500000Y-67945000D01*
X194945000Y-77470000D02*
X194945000Y-72390000D01*
X194945000Y-86360000D02*
X194945000Y-77470000D01*
X190500000Y-67945000D02*
X190500000Y-67310000D01*
X193040000Y-60960000D02*
X193040000Y-61595000D01*
X193040000Y-61595000D02*
X190500000Y-64135000D01*
X190500000Y-64135000D02*
X190500000Y-67310000D01*
X213360000Y-70485000D02*
X213360000Y-67310000D01*
X215900000Y-73025000D02*
X213360000Y-70485000D01*
X215900000Y-78105000D02*
X215900000Y-73025000D01*
X218440000Y-80645000D02*
X215900000Y-78105000D01*
X218440000Y-90805000D02*
X218440000Y-80645000D01*
X215900000Y-60960000D02*
X213360000Y-63500000D01*
X213360000Y-63500000D02*
X213360000Y-67310000D01*
X153720799Y-85140799D02*
X153720799Y-76149201D01*
X153720799Y-76149201D02*
X154152601Y-75717399D01*
X154940000Y-86360000D02*
X153720799Y-85140799D01*
X154152601Y-75717399D02*
X154940000Y-74930000D01*
X160020000Y-77379381D02*
X160020000Y-76043551D01*
X154940000Y-96520000D02*
X161848798Y-89611202D01*
X161848798Y-83869782D02*
X162482782Y-83235798D01*
X162482782Y-83235798D02*
X162609782Y-83235798D01*
X163779201Y-81138582D02*
X160020000Y-77379381D01*
X160020000Y-76043551D02*
X160020000Y-74930000D01*
X161848798Y-89611202D02*
X161848798Y-83869782D01*
X163779201Y-82066381D02*
X163779201Y-81138582D01*
X162609782Y-83235798D02*
X163779201Y-82066381D01*
X160020000Y-74930000D02*
X160020000Y-74930000D01*
X110490000Y-87630000D02*
X114300000Y-87630000D01*
X123190000Y-76835000D02*
X123190000Y-83820000D01*
M02*
