G04 #@! TF.FileFunction,Legend,Top*
%FSLAX46Y46*%
G04 Gerber Fmt 4.6, Leading zero omitted, Abs format (unit mm)*
G04 Created by KiCad (PCBNEW (2016-03-22 BZR 6643, Git db8c72c)-product) date 3/23/2016 7:30:48 PM*
%MOMM*%
G01*
G04 APERTURE LIST*
%ADD10C,0.100000*%
%ADD11C,0.444500*%
%ADD12C,0.150000*%
G04 APERTURE END LIST*
D10*
D11*
X181948668Y-91164833D02*
X181102001Y-91164833D01*
X181017335Y-92011500D01*
X181102001Y-91926833D01*
X181271335Y-91842167D01*
X181694668Y-91842167D01*
X181864001Y-91926833D01*
X181948668Y-92011500D01*
X182033335Y-92180833D01*
X182033335Y-92604167D01*
X181948668Y-92773500D01*
X181864001Y-92858167D01*
X181694668Y-92942833D01*
X181271335Y-92942833D01*
X181102001Y-92858167D01*
X181017335Y-92773500D01*
X183134001Y-91164833D02*
X183303334Y-91164833D01*
X183472668Y-91249500D01*
X183557334Y-91334167D01*
X183642001Y-91503500D01*
X183726668Y-91842167D01*
X183726668Y-92265500D01*
X183642001Y-92604167D01*
X183557334Y-92773500D01*
X183472668Y-92858167D01*
X183303334Y-92942833D01*
X183134001Y-92942833D01*
X182964668Y-92858167D01*
X182880001Y-92773500D01*
X182795334Y-92604167D01*
X182710668Y-92265500D01*
X182710668Y-91842167D01*
X182795334Y-91503500D01*
X182880001Y-91334167D01*
X182964668Y-91249500D01*
X183134001Y-91164833D01*
X184827334Y-91164833D02*
X184996667Y-91164833D01*
X185166001Y-91249500D01*
X185250667Y-91334167D01*
X185335334Y-91503500D01*
X185420001Y-91842167D01*
X185420001Y-92265500D01*
X185335334Y-92604167D01*
X185250667Y-92773500D01*
X185166001Y-92858167D01*
X184996667Y-92942833D01*
X184827334Y-92942833D01*
X184658001Y-92858167D01*
X184573334Y-92773500D01*
X184488667Y-92604167D01*
X184404001Y-92265500D01*
X184404001Y-91842167D01*
X184488667Y-91503500D01*
X184573334Y-91334167D01*
X184658001Y-91249500D01*
X184827334Y-91164833D01*
X186182000Y-92265500D02*
X187536667Y-92265500D01*
X189314667Y-92942833D02*
X188298667Y-92942833D01*
X188806667Y-92942833D02*
X188806667Y-91164833D01*
X188637333Y-91418833D01*
X188468000Y-91588167D01*
X188298667Y-91672833D01*
X190415333Y-91164833D02*
X190584666Y-91164833D01*
X190754000Y-91249500D01*
X190838666Y-91334167D01*
X190923333Y-91503500D01*
X191008000Y-91842167D01*
X191008000Y-92265500D01*
X190923333Y-92604167D01*
X190838666Y-92773500D01*
X190754000Y-92858167D01*
X190584666Y-92942833D01*
X190415333Y-92942833D01*
X190246000Y-92858167D01*
X190161333Y-92773500D01*
X190076666Y-92604167D01*
X189992000Y-92265500D01*
X189992000Y-91842167D01*
X190076666Y-91503500D01*
X190161333Y-91334167D01*
X190246000Y-91249500D01*
X190415333Y-91164833D01*
X191854666Y-92942833D02*
X192193333Y-92942833D01*
X192362666Y-92858167D01*
X192447333Y-92773500D01*
X192616666Y-92519500D01*
X192701333Y-92180833D01*
X192701333Y-91503500D01*
X192616666Y-91334167D01*
X192531999Y-91249500D01*
X192362666Y-91164833D01*
X192023999Y-91164833D01*
X191854666Y-91249500D01*
X191769999Y-91334167D01*
X191685333Y-91503500D01*
X191685333Y-91926833D01*
X191769999Y-92096167D01*
X191854666Y-92180833D01*
X192023999Y-92265500D01*
X192362666Y-92265500D01*
X192531999Y-92180833D01*
X192616666Y-92096167D01*
X192701333Y-91926833D01*
X193293999Y-91164833D02*
X194394666Y-91164833D01*
X193801999Y-91842167D01*
X194055999Y-91842167D01*
X194225332Y-91926833D01*
X194309999Y-92011500D01*
X194394666Y-92180833D01*
X194394666Y-92604167D01*
X194309999Y-92773500D01*
X194225332Y-92858167D01*
X194055999Y-92942833D01*
X193547999Y-92942833D01*
X193378666Y-92858167D01*
X193293999Y-92773500D01*
X180339999Y-96054333D02*
X180339999Y-94276333D01*
X180932666Y-95546333D01*
X181525333Y-94276333D01*
X181525333Y-96054333D01*
X182371999Y-96054333D02*
X182371999Y-94869000D01*
X182371999Y-94276333D02*
X182287333Y-94361000D01*
X182371999Y-94445667D01*
X182456666Y-94361000D01*
X182371999Y-94276333D01*
X182371999Y-94445667D01*
X183980666Y-96054333D02*
X183980666Y-94276333D01*
X183980666Y-95969667D02*
X183811333Y-96054333D01*
X183472666Y-96054333D01*
X183303333Y-95969667D01*
X183218666Y-95885000D01*
X183134000Y-95715667D01*
X183134000Y-95207667D01*
X183218666Y-95038333D01*
X183303333Y-94953667D01*
X183472666Y-94869000D01*
X183811333Y-94869000D01*
X183980666Y-94953667D01*
X184827333Y-96054333D02*
X184827333Y-94869000D01*
X184827333Y-94276333D02*
X184742667Y-94361000D01*
X184827333Y-94445667D01*
X184912000Y-94361000D01*
X184827333Y-94276333D01*
X184827333Y-94445667D01*
X187028667Y-96054333D02*
X187028667Y-94276333D01*
X187621334Y-95546333D01*
X188214001Y-94276333D01*
X188214001Y-96054333D01*
X189738001Y-95969667D02*
X189568667Y-96054333D01*
X189230001Y-96054333D01*
X189060667Y-95969667D01*
X188976001Y-95800333D01*
X188976001Y-95123000D01*
X189060667Y-94953667D01*
X189230001Y-94869000D01*
X189568667Y-94869000D01*
X189738001Y-94953667D01*
X189822667Y-95123000D01*
X189822667Y-95292333D01*
X188976001Y-95461667D01*
X190584667Y-96054333D02*
X190584667Y-94869000D01*
X190584667Y-95207667D02*
X190669334Y-95038333D01*
X190754001Y-94953667D01*
X190923334Y-94869000D01*
X191092667Y-94869000D01*
X192447334Y-94869000D02*
X192447334Y-96308333D01*
X192362668Y-96477667D01*
X192278001Y-96562333D01*
X192108668Y-96647000D01*
X191854668Y-96647000D01*
X191685334Y-96562333D01*
X192447334Y-95969667D02*
X192278001Y-96054333D01*
X191939334Y-96054333D01*
X191770001Y-95969667D01*
X191685334Y-95885000D01*
X191600668Y-95715667D01*
X191600668Y-95207667D01*
X191685334Y-95038333D01*
X191770001Y-94953667D01*
X191939334Y-94869000D01*
X192278001Y-94869000D01*
X192447334Y-94953667D01*
X193971335Y-95969667D02*
X193802001Y-96054333D01*
X193463335Y-96054333D01*
X193294001Y-95969667D01*
X193209335Y-95800333D01*
X193209335Y-95123000D01*
X193294001Y-94953667D01*
X193463335Y-94869000D01*
X193802001Y-94869000D01*
X193971335Y-94953667D01*
X194056001Y-95123000D01*
X194056001Y-95292333D01*
X193209335Y-95461667D01*
X194818001Y-96054333D02*
X194818001Y-94869000D01*
X194818001Y-95207667D02*
X194902668Y-95038333D01*
X194987335Y-94953667D01*
X195156668Y-94869000D01*
X195326001Y-94869000D01*
X177545999Y-99165833D02*
X177545999Y-97387833D01*
X177545999Y-98065167D02*
X177715333Y-97980500D01*
X178053999Y-97980500D01*
X178223333Y-98065167D01*
X178307999Y-98149833D01*
X178392666Y-98319167D01*
X178392666Y-98827167D01*
X178307999Y-98996500D01*
X178223333Y-99081167D01*
X178053999Y-99165833D01*
X177715333Y-99165833D01*
X177545999Y-99081167D01*
X178985333Y-97980500D02*
X179408666Y-99165833D01*
X179832000Y-97980500D02*
X179408666Y-99165833D01*
X179239333Y-99589167D01*
X179154666Y-99673833D01*
X178985333Y-99758500D01*
X182372000Y-97387833D02*
X182372000Y-98657833D01*
X182287334Y-98911833D01*
X182118000Y-99081167D01*
X181864000Y-99165833D01*
X181694667Y-99165833D01*
X183218667Y-99165833D02*
X183218667Y-97980500D01*
X183218667Y-97387833D02*
X183134001Y-97472500D01*
X183218667Y-97557167D01*
X183303334Y-97472500D01*
X183218667Y-97387833D01*
X183218667Y-97557167D01*
X184065334Y-99165833D02*
X184065334Y-97980500D01*
X184065334Y-98149833D02*
X184150001Y-98065167D01*
X184319334Y-97980500D01*
X184573334Y-97980500D01*
X184742668Y-98065167D01*
X184827334Y-98234500D01*
X184827334Y-99165833D01*
X184827334Y-98234500D02*
X184912001Y-98065167D01*
X185081334Y-97980500D01*
X185335334Y-97980500D01*
X185504668Y-98065167D01*
X185589334Y-98234500D01*
X185589334Y-99165833D01*
X187790668Y-99165833D02*
X187790668Y-97387833D01*
X188468002Y-97387833D01*
X188637335Y-97472500D01*
X188722002Y-97557167D01*
X188806668Y-97726500D01*
X188806668Y-97980500D01*
X188722002Y-98149833D01*
X188637335Y-98234500D01*
X188468002Y-98319167D01*
X187790668Y-98319167D01*
X190330668Y-99165833D02*
X190330668Y-98234500D01*
X190246002Y-98065167D01*
X190076668Y-97980500D01*
X189738002Y-97980500D01*
X189568668Y-98065167D01*
X190330668Y-99081167D02*
X190161335Y-99165833D01*
X189738002Y-99165833D01*
X189568668Y-99081167D01*
X189484002Y-98911833D01*
X189484002Y-98742500D01*
X189568668Y-98573167D01*
X189738002Y-98488500D01*
X190161335Y-98488500D01*
X190330668Y-98403833D01*
X190923335Y-97980500D02*
X191600669Y-97980500D01*
X191177335Y-97387833D02*
X191177335Y-98911833D01*
X191262002Y-99081167D01*
X191431335Y-99165833D01*
X191600669Y-99165833D01*
X192955335Y-99081167D02*
X192786002Y-99165833D01*
X192447335Y-99165833D01*
X192278002Y-99081167D01*
X192193335Y-98996500D01*
X192108669Y-98827167D01*
X192108669Y-98319167D01*
X192193335Y-98149833D01*
X192278002Y-98065167D01*
X192447335Y-97980500D01*
X192786002Y-97980500D01*
X192955335Y-98065167D01*
X193717335Y-99165833D02*
X193717335Y-97387833D01*
X194479335Y-99165833D02*
X194479335Y-98234500D01*
X194394669Y-98065167D01*
X194225335Y-97980500D01*
X193971335Y-97980500D01*
X193802002Y-98065167D01*
X193717335Y-98149833D01*
X196003336Y-99081167D02*
X195834002Y-99165833D01*
X195495336Y-99165833D01*
X195326002Y-99081167D01*
X195241336Y-98911833D01*
X195241336Y-98234500D01*
X195326002Y-98065167D01*
X195495336Y-97980500D01*
X195834002Y-97980500D01*
X196003336Y-98065167D01*
X196088002Y-98234500D01*
X196088002Y-98403833D01*
X195241336Y-98573167D01*
X197104002Y-99165833D02*
X196934669Y-99081167D01*
X196850002Y-98911833D01*
X196850002Y-97387833D01*
X198035335Y-99165833D02*
X197866002Y-99081167D01*
X197781335Y-98911833D01*
X197781335Y-97387833D01*
D12*
X194310000Y-116840000D02*
X176530000Y-116840000D01*
X176530000Y-116840000D02*
X176530000Y-101600000D01*
X176530000Y-101600000D02*
X194310000Y-101600000D01*
X194310000Y-101600000D02*
X194310000Y-116840000D01*
X219710000Y-116840000D02*
X201930000Y-116840000D01*
X201930000Y-116840000D02*
X201930000Y-101600000D01*
X201930000Y-101600000D02*
X219710000Y-101600000D01*
X219710000Y-101600000D02*
X219710000Y-116840000D01*
X168910000Y-116840000D02*
X151130000Y-116840000D01*
X151130000Y-116840000D02*
X151130000Y-101600000D01*
X151130000Y-101600000D02*
X168910000Y-101600000D01*
X168910000Y-101600000D02*
X168910000Y-116840000D01*
X240030000Y-89916000D02*
X240030000Y-87884000D01*
X232410000Y-89916000D02*
X232410000Y-87884000D01*
X240030000Y-88900000D02*
X240538000Y-88900000D01*
X231775000Y-88900000D02*
X232410000Y-88900000D01*
X240030000Y-87884000D02*
X232410000Y-87884000D01*
X232410000Y-89916000D02*
X240030000Y-89916000D01*
X191770000Y-89916000D02*
X191770000Y-87884000D01*
X184150000Y-89916000D02*
X184150000Y-87884000D01*
X191770000Y-88900000D02*
X192278000Y-88900000D01*
X183515000Y-88900000D02*
X184150000Y-88900000D01*
X191770000Y-87884000D02*
X184150000Y-87884000D01*
X184150000Y-89916000D02*
X191770000Y-89916000D01*
X214630000Y-89916000D02*
X214630000Y-87884000D01*
X207010000Y-89916000D02*
X207010000Y-87884000D01*
X214630000Y-88900000D02*
X215138000Y-88900000D01*
X206375000Y-88900000D02*
X207010000Y-88900000D01*
X214630000Y-87884000D02*
X207010000Y-87884000D01*
X207010000Y-89916000D02*
X214630000Y-89916000D01*
X184150000Y-59944000D02*
X184150000Y-61976000D01*
X191770000Y-59944000D02*
X191770000Y-61976000D01*
X184150000Y-60960000D02*
X183642000Y-60960000D01*
X192405000Y-60960000D02*
X191770000Y-60960000D01*
X184150000Y-61976000D02*
X191770000Y-61976000D01*
X191770000Y-59944000D02*
X184150000Y-59944000D01*
X207010000Y-59944000D02*
X207010000Y-61976000D01*
X214630000Y-59944000D02*
X214630000Y-61976000D01*
X207010000Y-60960000D02*
X206502000Y-60960000D01*
X215265000Y-60960000D02*
X214630000Y-60960000D01*
X207010000Y-61976000D02*
X214630000Y-61976000D01*
X214630000Y-59944000D02*
X207010000Y-59944000D01*
X163830000Y-87376000D02*
X163830000Y-85344000D01*
X156210000Y-87376000D02*
X156210000Y-85344000D01*
X163830000Y-86360000D02*
X164338000Y-86360000D01*
X155575000Y-86360000D02*
X156210000Y-86360000D01*
X163830000Y-85344000D02*
X156210000Y-85344000D01*
X156210000Y-87376000D02*
X163830000Y-87376000D01*
X156210000Y-95504000D02*
X156210000Y-97536000D01*
X163830000Y-95504000D02*
X163830000Y-97536000D01*
X156210000Y-96520000D02*
X155702000Y-96520000D01*
X164465000Y-96520000D02*
X163830000Y-96520000D01*
X156210000Y-97536000D02*
X163830000Y-97536000D01*
X163830000Y-95504000D02*
X156210000Y-95504000D01*
X163830000Y-92456000D02*
X163830000Y-90424000D01*
X156210000Y-92456000D02*
X156210000Y-90424000D01*
X163830000Y-91440000D02*
X164338000Y-91440000D01*
X155575000Y-91440000D02*
X156210000Y-91440000D01*
X163830000Y-90424000D02*
X156210000Y-90424000D01*
X156210000Y-92456000D02*
X163830000Y-92456000D01*
X86342600Y-85107399D02*
X137177400Y-85107400D01*
X137177400Y-85107400D02*
X137177400Y-67292601D01*
X137177400Y-67292601D02*
X86342600Y-67292600D01*
X86342600Y-67292600D02*
X86342600Y-73230867D01*
X86342600Y-73230867D02*
X86792600Y-73230867D01*
X86792600Y-73230867D02*
X86792600Y-79169133D01*
X86792600Y-79169133D02*
X86342600Y-79169133D01*
X86342600Y-79169133D02*
X86342600Y-85107399D01*
X184132600Y-76217400D02*
X191787399Y-76217400D01*
X191787399Y-76217400D02*
X191787400Y-66022600D01*
X191787400Y-66022600D02*
X184132601Y-66022600D01*
X184132601Y-66022600D02*
X184132600Y-69420867D01*
X184132600Y-69420867D02*
X184582600Y-69420867D01*
X184582600Y-69420867D02*
X184582600Y-72819133D01*
X184582600Y-72819133D02*
X184132600Y-72819133D01*
X184132600Y-72819133D02*
X184132600Y-76217400D01*
X206992600Y-76217400D02*
X214647399Y-76217400D01*
X214647399Y-76217400D02*
X214647400Y-66022600D01*
X214647400Y-66022600D02*
X206992601Y-66022600D01*
X206992601Y-66022600D02*
X206992600Y-69420867D01*
X206992600Y-69420867D02*
X207442600Y-69420867D01*
X207442600Y-69420867D02*
X207442600Y-72819133D01*
X207442600Y-72819133D02*
X206992600Y-72819133D01*
X206992600Y-72819133D02*
X206992600Y-76217400D01*
X151112600Y-76217399D02*
X168927400Y-76217400D01*
X168927400Y-76217400D02*
X168927400Y-66022601D01*
X168927400Y-66022601D02*
X151112600Y-66022600D01*
X151112600Y-66022600D02*
X151112600Y-69420867D01*
X151112600Y-69420867D02*
X151562600Y-69420867D01*
X151562600Y-69420867D02*
X151562600Y-72819133D01*
X151562600Y-72819133D02*
X151112600Y-72819133D01*
X151112600Y-72819133D02*
X151112600Y-76217399D01*
X184912000Y-84836000D02*
X184912000Y-82804000D01*
X184150000Y-82804000D02*
X184150000Y-84836000D01*
X191770000Y-82804000D02*
X191770000Y-84836000D01*
X184150000Y-83820000D02*
X183642000Y-83820000D01*
X192405000Y-83820000D02*
X191770000Y-83820000D01*
X184150000Y-84836000D02*
X191770000Y-84836000D01*
X191770000Y-82804000D02*
X184150000Y-82804000D01*
X233172000Y-79756000D02*
X233172000Y-77724000D01*
X232410000Y-77724000D02*
X232410000Y-79756000D01*
X240030000Y-77724000D02*
X240030000Y-79756000D01*
X232410000Y-78740000D02*
X231902000Y-78740000D01*
X240665000Y-78740000D02*
X240030000Y-78740000D01*
X232410000Y-79756000D02*
X240030000Y-79756000D01*
X240030000Y-77724000D02*
X232410000Y-77724000D01*
X233172000Y-84836000D02*
X233172000Y-82804000D01*
X232410000Y-82804000D02*
X232410000Y-84836000D01*
X240030000Y-82804000D02*
X240030000Y-84836000D01*
X232410000Y-83820000D02*
X231902000Y-83820000D01*
X240665000Y-83820000D02*
X240030000Y-83820000D01*
X232410000Y-84836000D02*
X240030000Y-84836000D01*
X240030000Y-82804000D02*
X232410000Y-82804000D01*
X207772000Y-84836000D02*
X207772000Y-82804000D01*
X207010000Y-82804000D02*
X207010000Y-84836000D01*
X214630000Y-82804000D02*
X214630000Y-84836000D01*
X207010000Y-83820000D02*
X206502000Y-83820000D01*
X215265000Y-83820000D02*
X214630000Y-83820000D01*
X207010000Y-84836000D02*
X214630000Y-84836000D01*
X214630000Y-82804000D02*
X207010000Y-82804000D01*
X240919000Y-116840000D02*
X240919000Y-124028200D01*
X240919000Y-124028200D02*
X231521000Y-124028200D01*
X231521000Y-124028200D02*
X231521000Y-116840000D01*
X231775000Y-92151200D02*
X240665000Y-92151200D01*
X240665000Y-92151200D02*
X244475000Y-95961200D01*
X244475000Y-95961200D02*
X244475000Y-116840000D01*
X244475000Y-116840000D02*
X227965000Y-116840000D01*
X227965000Y-116840000D02*
X227965000Y-95961200D01*
X227965000Y-95961200D02*
X231775000Y-92151200D01*
X113919000Y-116840000D02*
X113919000Y-124028200D01*
X113919000Y-124028200D02*
X104521000Y-124028200D01*
X104521000Y-124028200D02*
X104521000Y-116840000D01*
X104775000Y-92151200D02*
X113665000Y-92151200D01*
X113665000Y-92151200D02*
X117475000Y-95961200D01*
X117475000Y-95961200D02*
X117475000Y-116840000D01*
X117475000Y-116840000D02*
X100965000Y-116840000D01*
X100965000Y-116840000D02*
X100965000Y-95961200D01*
X100965000Y-95961200D02*
X104775000Y-92151200D01*
X139319000Y-116840000D02*
X139319000Y-124028200D01*
X139319000Y-124028200D02*
X129921000Y-124028200D01*
X129921000Y-124028200D02*
X129921000Y-116840000D01*
X130175000Y-92151200D02*
X139065000Y-92151200D01*
X139065000Y-92151200D02*
X142875000Y-95961200D01*
X142875000Y-95961200D02*
X142875000Y-116840000D01*
X142875000Y-116840000D02*
X126365000Y-116840000D01*
X126365000Y-116840000D02*
X126365000Y-95961200D01*
X126365000Y-95961200D02*
X130175000Y-92151200D01*
X88519000Y-116840000D02*
X88519000Y-124028200D01*
X88519000Y-124028200D02*
X79121000Y-124028200D01*
X79121000Y-124028200D02*
X79121000Y-116840000D01*
X79375000Y-92151200D02*
X88265000Y-92151200D01*
X88265000Y-92151200D02*
X92075000Y-95961200D01*
X92075000Y-95961200D02*
X92075000Y-116840000D01*
X92075000Y-116840000D02*
X75565000Y-116840000D01*
X75565000Y-116840000D02*
X75565000Y-95961200D01*
X75565000Y-95961200D02*
X79375000Y-92151200D01*
X217805000Y-71755000D02*
G75*
G03X218440000Y-72390000I635000J0D01*
G01*
X218440000Y-72390000D02*
G75*
G03X219075000Y-71755000I0J635000D01*
G01*
X218440000Y-69850000D02*
G75*
G03X217805000Y-70485000I0J-635000D01*
G01*
X219075000Y-70485000D02*
G75*
G03X218440000Y-69850000I-635000J0D01*
G01*
X217805000Y-70485000D02*
X217805000Y-71755000D01*
X219075000Y-70485000D02*
X219075000Y-71755000D01*
X218440000Y-73660000D02*
X218440000Y-72390000D01*
X218440000Y-68580000D02*
X218440000Y-69850000D01*
X200025000Y-71755000D02*
G75*
G03X200660000Y-72390000I635000J0D01*
G01*
X200660000Y-72390000D02*
G75*
G03X201295000Y-71755000I0J635000D01*
G01*
X200660000Y-69850000D02*
G75*
G03X200025000Y-70485000I0J-635000D01*
G01*
X201295000Y-70485000D02*
G75*
G03X200660000Y-69850000I-635000J0D01*
G01*
X200025000Y-70485000D02*
X200025000Y-71755000D01*
X201295000Y-70485000D02*
X201295000Y-71755000D01*
X200660000Y-73660000D02*
X200660000Y-72390000D01*
X200660000Y-68580000D02*
X200660000Y-69850000D01*
X178435000Y-71755000D02*
G75*
G03X179070000Y-72390000I635000J0D01*
G01*
X179070000Y-72390000D02*
G75*
G03X179705000Y-71755000I0J635000D01*
G01*
X179070000Y-69850000D02*
G75*
G03X178435000Y-70485000I0J-635000D01*
G01*
X179705000Y-70485000D02*
G75*
G03X179070000Y-69850000I-635000J0D01*
G01*
X178435000Y-70485000D02*
X178435000Y-71755000D01*
X179705000Y-70485000D02*
X179705000Y-71755000D01*
X179070000Y-73660000D02*
X179070000Y-72390000D01*
X179070000Y-68580000D02*
X179070000Y-69850000D01*
X145415000Y-71755000D02*
G75*
G03X146050000Y-72390000I635000J0D01*
G01*
X146050000Y-72390000D02*
G75*
G03X146685000Y-71755000I0J635000D01*
G01*
X146050000Y-69850000D02*
G75*
G03X145415000Y-70485000I0J-635000D01*
G01*
X146685000Y-70485000D02*
G75*
G03X146050000Y-69850000I-635000J0D01*
G01*
X145415000Y-70485000D02*
X145415000Y-71755000D01*
X146685000Y-70485000D02*
X146685000Y-71755000D01*
X146050000Y-73660000D02*
X146050000Y-72390000D01*
X146050000Y-68580000D02*
X146050000Y-69850000D01*
X109855000Y-65405000D02*
G75*
G03X110490000Y-64770000I0J635000D01*
G01*
X110490000Y-64770000D02*
G75*
G03X109855000Y-64135000I-635000J0D01*
G01*
X107950000Y-64770000D02*
G75*
G03X108585000Y-65405000I635000J0D01*
G01*
X108585000Y-64135000D02*
G75*
G03X107950000Y-64770000I0J-635000D01*
G01*
X108585000Y-65405000D02*
X109855000Y-65405000D01*
X108585000Y-64135000D02*
X109855000Y-64135000D01*
X111760000Y-64770000D02*
X110490000Y-64770000D01*
X106680000Y-64770000D02*
X107950000Y-64770000D01*
X228519000Y-81315000D02*
X218521000Y-81315000D01*
X228515000Y-81455000D02*
X218525000Y-81455000D01*
X228507000Y-81595000D02*
X218533000Y-81595000D01*
X228495000Y-81735000D02*
X218545000Y-81735000D01*
X228480000Y-81875000D02*
X218560000Y-81875000D01*
X228460000Y-82015000D02*
X218580000Y-82015000D01*
X228436000Y-82155000D02*
X218604000Y-82155000D01*
X228407000Y-82295000D02*
X218633000Y-82295000D01*
X228375000Y-82435000D02*
X218665000Y-82435000D01*
X228338000Y-82575000D02*
X218702000Y-82575000D01*
X228297000Y-82715000D02*
X218743000Y-82715000D01*
X228252000Y-82855000D02*
X223986000Y-82855000D01*
X223054000Y-82855000D02*
X218788000Y-82855000D01*
X228202000Y-82995000D02*
X224187000Y-82995000D01*
X222853000Y-82995000D02*
X218838000Y-82995000D01*
X228147000Y-83135000D02*
X224316000Y-83135000D01*
X222724000Y-83135000D02*
X218893000Y-83135000D01*
X228087000Y-83275000D02*
X224405000Y-83275000D01*
X222635000Y-83275000D02*
X218953000Y-83275000D01*
X228022000Y-83415000D02*
X224466000Y-83415000D01*
X222574000Y-83415000D02*
X219018000Y-83415000D01*
X227952000Y-83555000D02*
X224503000Y-83555000D01*
X222537000Y-83555000D02*
X219088000Y-83555000D01*
X227876000Y-83695000D02*
X224519000Y-83695000D01*
X222521000Y-83695000D02*
X219164000Y-83695000D01*
X227794000Y-83835000D02*
X224515000Y-83835000D01*
X222525000Y-83835000D02*
X219246000Y-83835000D01*
X227706000Y-83975000D02*
X224492000Y-83975000D01*
X222548000Y-83975000D02*
X219334000Y-83975000D01*
X227611000Y-84115000D02*
X224447000Y-84115000D01*
X222593000Y-84115000D02*
X219429000Y-84115000D01*
X227509000Y-84255000D02*
X224377000Y-84255000D01*
X222663000Y-84255000D02*
X219531000Y-84255000D01*
X227399000Y-84395000D02*
X224276000Y-84395000D01*
X222764000Y-84395000D02*
X219641000Y-84395000D01*
X227281000Y-84535000D02*
X224127000Y-84535000D01*
X222913000Y-84535000D02*
X219759000Y-84535000D01*
X227153000Y-84675000D02*
X223875000Y-84675000D01*
X223165000Y-84675000D02*
X219887000Y-84675000D01*
X227016000Y-84815000D02*
X220024000Y-84815000D01*
X226866000Y-84955000D02*
X220174000Y-84955000D01*
X226704000Y-85095000D02*
X220336000Y-85095000D01*
X226527000Y-85235000D02*
X220513000Y-85235000D01*
X226331000Y-85375000D02*
X220709000Y-85375000D01*
X226113000Y-85515000D02*
X220927000Y-85515000D01*
X225867000Y-85655000D02*
X221173000Y-85655000D01*
X225582000Y-85795000D02*
X221458000Y-85795000D01*
X225240000Y-85935000D02*
X221800000Y-85935000D01*
X224794000Y-86075000D02*
X222246000Y-86075000D01*
X224019000Y-86215000D02*
X223021000Y-86215000D01*
X224520000Y-83740000D02*
G75*
G03X224520000Y-83740000I-1000000J0D01*
G01*
X228557500Y-81240000D02*
G75*
G03X228557500Y-81240000I-5037500J0D01*
G01*
X226060000Y-65405000D02*
X243840000Y-65405000D01*
X243840000Y-65405000D02*
X243840000Y-54610000D01*
X243840000Y-54610000D02*
X226060000Y-54610000D01*
X226060000Y-54610000D02*
X226060000Y-65405000D01*
X125730000Y-88900000D02*
G75*
G03X127000000Y-87630000I0J1270000D01*
G01*
X127000000Y-87630000D02*
G75*
G03X125730000Y-86360000I-1270000J0D01*
G01*
X123190000Y-86360000D02*
G75*
G03X121920000Y-87630000I0J-1270000D01*
G01*
X121920000Y-87630000D02*
G75*
G03X123190000Y-88900000I1270000J0D01*
G01*
X125730000Y-88900000D02*
X123190000Y-88900000D01*
X123190000Y-86360000D02*
X125730000Y-86360000D01*
X107950000Y-86360000D02*
G75*
G03X106680000Y-87630000I0J-1270000D01*
G01*
X106680000Y-87630000D02*
G75*
G03X107950000Y-88900000I1270000J0D01*
G01*
X110490000Y-88900000D02*
G75*
G03X111760000Y-87630000I0J1270000D01*
G01*
X111760000Y-87630000D02*
G75*
G03X110490000Y-86360000I-1270000J0D01*
G01*
X107950000Y-86360000D02*
X110490000Y-86360000D01*
X110490000Y-88900000D02*
X107950000Y-88900000D01*
X120650000Y-87630000D02*
G75*
G03X119380000Y-86360000I-1270000J0D01*
G01*
X119380000Y-88900000D02*
G75*
G03X120650000Y-87630000I0J1270000D01*
G01*
X114300000Y-86360000D02*
G75*
G03X113030000Y-87630000I0J-1270000D01*
G01*
X113030000Y-87630000D02*
G75*
G03X114300000Y-88900000I1270000J0D01*
G01*
X114300000Y-86360000D02*
X119380000Y-86360000D01*
X119380000Y-88900000D02*
X114300000Y-88900000D01*
X222250000Y-69850000D02*
G75*
G03X222250000Y-72390000I1270000J-1270000D01*
G01*
X224790000Y-69850000D02*
G75*
G03X222250000Y-69850000I-1270000J-1270000D01*
G01*
X224790000Y-72390000D02*
G75*
G03X224790000Y-69850000I-1270000J1270000D01*
G01*
X222250000Y-72390000D02*
X224790000Y-72390000D01*
X88900000Y-55880000D02*
X106680000Y-55880000D01*
X88900000Y-60960000D02*
X106680000Y-60960000D01*
X106680000Y-55880000D02*
X106680000Y-60960000D01*
X88900000Y-60960000D02*
X88900000Y-55880000D01*
X109220000Y-55880000D02*
X127000000Y-55880000D01*
X109220000Y-60960000D02*
X127000000Y-60960000D01*
X127000000Y-55880000D02*
X127000000Y-60960000D01*
X109220000Y-60960000D02*
X109220000Y-55880000D01*
X129540000Y-55880000D02*
X147320000Y-55880000D01*
X129540000Y-60960000D02*
X147320000Y-60960000D01*
X147320000Y-55880000D02*
X147320000Y-60960000D01*
X129540000Y-60960000D02*
X129540000Y-55880000D01*
X149860000Y-55880000D02*
X167640000Y-55880000D01*
X149860000Y-60960000D02*
X167640000Y-60960000D01*
X167640000Y-55880000D02*
X167640000Y-60960000D01*
X149860000Y-60960000D02*
X149860000Y-55880000D01*
X76200000Y-83820000D02*
X76200000Y-66040000D01*
X81280000Y-83820000D02*
X81280000Y-66040000D01*
X76200000Y-66040000D02*
X81280000Y-66040000D01*
X81280000Y-83820000D02*
X76200000Y-83820000D01*
X184681905Y-100782381D02*
X184681905Y-99782381D01*
X185062858Y-99782381D01*
X185158096Y-99830000D01*
X185205715Y-99877619D01*
X185253334Y-99972857D01*
X185253334Y-100115714D01*
X185205715Y-100210952D01*
X185158096Y-100258571D01*
X185062858Y-100306190D01*
X184681905Y-100306190D01*
X186205715Y-100782381D02*
X185634286Y-100782381D01*
X185920000Y-100782381D02*
X185920000Y-99782381D01*
X185824762Y-99925238D01*
X185729524Y-100020476D01*
X185634286Y-100068095D01*
X175712381Y-112553333D02*
X174712381Y-112553333D01*
X175426667Y-112219999D01*
X174712381Y-111886666D01*
X175712381Y-111886666D01*
X175712381Y-111410476D02*
X174712381Y-111410476D01*
X175712381Y-110934286D02*
X174712381Y-110934286D01*
X174712381Y-110696191D01*
X174760000Y-110553333D01*
X174855238Y-110458095D01*
X174950476Y-110410476D01*
X175140952Y-110362857D01*
X175283810Y-110362857D01*
X175474286Y-110410476D01*
X175569524Y-110458095D01*
X175664762Y-110553333D01*
X175712381Y-110696191D01*
X175712381Y-110934286D01*
X175712381Y-109934286D02*
X174712381Y-109934286D01*
X175712381Y-108696191D02*
X174712381Y-108696191D01*
X175712381Y-108220001D02*
X174712381Y-108220001D01*
X175712381Y-107648572D01*
X174712381Y-107648572D01*
X175188571Y-106077143D02*
X175236190Y-105934286D01*
X175283810Y-105886667D01*
X175379048Y-105839048D01*
X175521905Y-105839048D01*
X175617143Y-105886667D01*
X175664762Y-105934286D01*
X175712381Y-106029524D01*
X175712381Y-106410477D01*
X174712381Y-106410477D01*
X174712381Y-106077143D01*
X174760000Y-105981905D01*
X174807619Y-105934286D01*
X174902857Y-105886667D01*
X174998095Y-105886667D01*
X175093333Y-105934286D01*
X175140952Y-105981905D01*
X175188571Y-106077143D01*
X175188571Y-106410477D01*
X210081905Y-100782381D02*
X210081905Y-99782381D01*
X210462858Y-99782381D01*
X210558096Y-99830000D01*
X210605715Y-99877619D01*
X210653334Y-99972857D01*
X210653334Y-100115714D01*
X210605715Y-100210952D01*
X210558096Y-100258571D01*
X210462858Y-100306190D01*
X210081905Y-100306190D01*
X211034286Y-99877619D02*
X211081905Y-99830000D01*
X211177143Y-99782381D01*
X211415239Y-99782381D01*
X211510477Y-99830000D01*
X211558096Y-99877619D01*
X211605715Y-99972857D01*
X211605715Y-100068095D01*
X211558096Y-100210952D01*
X210986667Y-100782381D01*
X211605715Y-100782381D01*
X201112381Y-112481904D02*
X200112381Y-112481904D01*
X200826667Y-112148570D01*
X200112381Y-111815237D01*
X201112381Y-111815237D01*
X201112381Y-111339047D02*
X200112381Y-111339047D01*
X201112381Y-110862857D02*
X200112381Y-110862857D01*
X200112381Y-110624762D01*
X200160000Y-110481904D01*
X200255238Y-110386666D01*
X200350476Y-110339047D01*
X200540952Y-110291428D01*
X200683810Y-110291428D01*
X200874286Y-110339047D01*
X200969524Y-110386666D01*
X201064762Y-110481904D01*
X201112381Y-110624762D01*
X201112381Y-110862857D01*
X201112381Y-109862857D02*
X200112381Y-109862857D01*
X201112381Y-108624762D02*
X200112381Y-108624762D01*
X201112381Y-108148572D02*
X200112381Y-108148572D01*
X201112381Y-107577143D01*
X200112381Y-107577143D01*
X200826667Y-106386667D02*
X200826667Y-105910476D01*
X201112381Y-106481905D02*
X200112381Y-106148572D01*
X201112381Y-105815238D01*
X159916905Y-100782381D02*
X159916905Y-99782381D01*
X160297858Y-99782381D01*
X160393096Y-99830000D01*
X160440715Y-99877619D01*
X160488334Y-99972857D01*
X160488334Y-100115714D01*
X160440715Y-100210952D01*
X160393096Y-100258571D01*
X160297858Y-100306190D01*
X159916905Y-100306190D01*
X161059762Y-100210952D02*
X160964524Y-100163333D01*
X160916905Y-100115714D01*
X160869286Y-100020476D01*
X160869286Y-99972857D01*
X160916905Y-99877619D01*
X160964524Y-99830000D01*
X161059762Y-99782381D01*
X161250239Y-99782381D01*
X161345477Y-99830000D01*
X161393096Y-99877619D01*
X161440715Y-99972857D01*
X161440715Y-100020476D01*
X161393096Y-100115714D01*
X161345477Y-100163333D01*
X161250239Y-100210952D01*
X161059762Y-100210952D01*
X160964524Y-100258571D01*
X160916905Y-100306190D01*
X160869286Y-100401429D01*
X160869286Y-100591905D01*
X160916905Y-100687143D01*
X160964524Y-100734762D01*
X161059762Y-100782381D01*
X161250239Y-100782381D01*
X161345477Y-100734762D01*
X161393096Y-100687143D01*
X161440715Y-100591905D01*
X161440715Y-100401429D01*
X161393096Y-100306190D01*
X161345477Y-100258571D01*
X161250239Y-100210952D01*
X150312381Y-112339047D02*
X149312381Y-112339047D01*
X150026667Y-112005713D01*
X149312381Y-111672380D01*
X150312381Y-111672380D01*
X150312381Y-111196190D02*
X149312381Y-111196190D01*
X150312381Y-110720000D02*
X149312381Y-110720000D01*
X149312381Y-110481905D01*
X149360000Y-110339047D01*
X149455238Y-110243809D01*
X149550476Y-110196190D01*
X149740952Y-110148571D01*
X149883810Y-110148571D01*
X150074286Y-110196190D01*
X150169524Y-110243809D01*
X150264762Y-110339047D01*
X150312381Y-110481905D01*
X150312381Y-110720000D01*
X150312381Y-109720000D02*
X149312381Y-109720000D01*
X149312381Y-108291429D02*
X149312381Y-108100952D01*
X149360000Y-108005714D01*
X149455238Y-107910476D01*
X149645714Y-107862857D01*
X149979048Y-107862857D01*
X150169524Y-107910476D01*
X150264762Y-108005714D01*
X150312381Y-108100952D01*
X150312381Y-108291429D01*
X150264762Y-108386667D01*
X150169524Y-108481905D01*
X149979048Y-108529524D01*
X149645714Y-108529524D01*
X149455238Y-108481905D01*
X149360000Y-108386667D01*
X149312381Y-108291429D01*
X149312381Y-107434286D02*
X150121905Y-107434286D01*
X150217143Y-107386667D01*
X150264762Y-107339048D01*
X150312381Y-107243810D01*
X150312381Y-107053333D01*
X150264762Y-106958095D01*
X150217143Y-106910476D01*
X150121905Y-106862857D01*
X149312381Y-106862857D01*
X149312381Y-106529524D02*
X149312381Y-105958095D01*
X150312381Y-106243810D02*
X149312381Y-106243810D01*
X244181334Y-89098381D02*
X243848000Y-88622190D01*
X243609905Y-89098381D02*
X243609905Y-88098381D01*
X243990858Y-88098381D01*
X244086096Y-88146000D01*
X244133715Y-88193619D01*
X244181334Y-88288857D01*
X244181334Y-88431714D01*
X244133715Y-88526952D01*
X244086096Y-88574571D01*
X243990858Y-88622190D01*
X243609905Y-88622190D01*
X245133715Y-89098381D02*
X244562286Y-89098381D01*
X244848000Y-89098381D02*
X244848000Y-88098381D01*
X244752762Y-88241238D01*
X244657524Y-88336476D01*
X244562286Y-88384095D01*
X235180381Y-88225381D02*
X235799429Y-88225381D01*
X235466095Y-88606333D01*
X235608953Y-88606333D01*
X235704191Y-88653952D01*
X235751810Y-88701571D01*
X235799429Y-88796810D01*
X235799429Y-89034905D01*
X235751810Y-89130143D01*
X235704191Y-89177762D01*
X235608953Y-89225381D01*
X235323238Y-89225381D01*
X235228000Y-89177762D01*
X235180381Y-89130143D01*
X236228000Y-89130143D02*
X236275619Y-89177762D01*
X236228000Y-89225381D01*
X236180381Y-89177762D01*
X236228000Y-89130143D01*
X236228000Y-89225381D01*
X236608952Y-88225381D02*
X237228000Y-88225381D01*
X236894666Y-88606333D01*
X237037524Y-88606333D01*
X237132762Y-88653952D01*
X237180381Y-88701571D01*
X237228000Y-88796810D01*
X237228000Y-89034905D01*
X237180381Y-89130143D01*
X237132762Y-89177762D01*
X237037524Y-89225381D01*
X236751809Y-89225381D01*
X236656571Y-89177762D01*
X236608952Y-89130143D01*
X237656571Y-89225381D02*
X237656571Y-88225381D01*
X238228000Y-89225381D02*
X237799428Y-88653952D01*
X238228000Y-88225381D02*
X237656571Y-88796810D01*
X179538334Y-89352381D02*
X179205000Y-88876190D01*
X178966905Y-89352381D02*
X178966905Y-88352381D01*
X179347858Y-88352381D01*
X179443096Y-88400000D01*
X179490715Y-88447619D01*
X179538334Y-88542857D01*
X179538334Y-88685714D01*
X179490715Y-88780952D01*
X179443096Y-88828571D01*
X179347858Y-88876190D01*
X178966905Y-88876190D01*
X179919286Y-88447619D02*
X179966905Y-88400000D01*
X180062143Y-88352381D01*
X180300239Y-88352381D01*
X180395477Y-88400000D01*
X180443096Y-88447619D01*
X180490715Y-88542857D01*
X180490715Y-88638095D01*
X180443096Y-88780952D01*
X179871667Y-89352381D01*
X180490715Y-89352381D01*
X187229905Y-88320619D02*
X187277524Y-88273000D01*
X187372762Y-88225381D01*
X187610858Y-88225381D01*
X187706096Y-88273000D01*
X187753715Y-88320619D01*
X187801334Y-88415857D01*
X187801334Y-88511095D01*
X187753715Y-88653952D01*
X187182286Y-89225381D01*
X187801334Y-89225381D01*
X188134667Y-88225381D02*
X188801334Y-88225381D01*
X188372762Y-89225381D01*
X189372762Y-88225381D02*
X189468001Y-88225381D01*
X189563239Y-88273000D01*
X189610858Y-88320619D01*
X189658477Y-88415857D01*
X189706096Y-88606333D01*
X189706096Y-88844429D01*
X189658477Y-89034905D01*
X189610858Y-89130143D01*
X189563239Y-89177762D01*
X189468001Y-89225381D01*
X189372762Y-89225381D01*
X189277524Y-89177762D01*
X189229905Y-89130143D01*
X189182286Y-89034905D01*
X189134667Y-88844429D01*
X189134667Y-88606333D01*
X189182286Y-88415857D01*
X189229905Y-88320619D01*
X189277524Y-88273000D01*
X189372762Y-88225381D01*
X203033334Y-89352381D02*
X202700000Y-88876190D01*
X202461905Y-89352381D02*
X202461905Y-88352381D01*
X202842858Y-88352381D01*
X202938096Y-88400000D01*
X202985715Y-88447619D01*
X203033334Y-88542857D01*
X203033334Y-88685714D01*
X202985715Y-88780952D01*
X202938096Y-88828571D01*
X202842858Y-88876190D01*
X202461905Y-88876190D01*
X203366667Y-88352381D02*
X203985715Y-88352381D01*
X203652381Y-88733333D01*
X203795239Y-88733333D01*
X203890477Y-88780952D01*
X203938096Y-88828571D01*
X203985715Y-88923810D01*
X203985715Y-89161905D01*
X203938096Y-89257143D01*
X203890477Y-89304762D01*
X203795239Y-89352381D01*
X203509524Y-89352381D01*
X203414286Y-89304762D01*
X203366667Y-89257143D01*
X210089905Y-88320619D02*
X210137524Y-88273000D01*
X210232762Y-88225381D01*
X210470858Y-88225381D01*
X210566096Y-88273000D01*
X210613715Y-88320619D01*
X210661334Y-88415857D01*
X210661334Y-88511095D01*
X210613715Y-88653952D01*
X210042286Y-89225381D01*
X210661334Y-89225381D01*
X210994667Y-88225381D02*
X211661334Y-88225381D01*
X211232762Y-89225381D01*
X212232762Y-88225381D02*
X212328001Y-88225381D01*
X212423239Y-88273000D01*
X212470858Y-88320619D01*
X212518477Y-88415857D01*
X212566096Y-88606333D01*
X212566096Y-88844429D01*
X212518477Y-89034905D01*
X212470858Y-89130143D01*
X212423239Y-89177762D01*
X212328001Y-89225381D01*
X212232762Y-89225381D01*
X212137524Y-89177762D01*
X212089905Y-89130143D01*
X212042286Y-89034905D01*
X211994667Y-88844429D01*
X211994667Y-88606333D01*
X212042286Y-88415857D01*
X212089905Y-88320619D01*
X212137524Y-88273000D01*
X212232762Y-88225381D01*
X179665334Y-61666381D02*
X179332000Y-61190190D01*
X179093905Y-61666381D02*
X179093905Y-60666381D01*
X179474858Y-60666381D01*
X179570096Y-60714000D01*
X179617715Y-60761619D01*
X179665334Y-60856857D01*
X179665334Y-60999714D01*
X179617715Y-61094952D01*
X179570096Y-61142571D01*
X179474858Y-61190190D01*
X179093905Y-61190190D01*
X180522477Y-60999714D02*
X180522477Y-61666381D01*
X180284381Y-60618762D02*
X180046286Y-61333048D01*
X180665334Y-61333048D01*
X186213905Y-60634619D02*
X186261524Y-60587000D01*
X186356762Y-60539381D01*
X186594858Y-60539381D01*
X186690096Y-60587000D01*
X186737715Y-60634619D01*
X186785334Y-60729857D01*
X186785334Y-60825095D01*
X186737715Y-60967952D01*
X186166286Y-61539381D01*
X186785334Y-61539381D01*
X187118667Y-60539381D02*
X187785334Y-60539381D01*
X187356762Y-61539381D01*
X188356762Y-60539381D02*
X188452001Y-60539381D01*
X188547239Y-60587000D01*
X188594858Y-60634619D01*
X188642477Y-60729857D01*
X188690096Y-60920333D01*
X188690096Y-61158429D01*
X188642477Y-61348905D01*
X188594858Y-61444143D01*
X188547239Y-61491762D01*
X188452001Y-61539381D01*
X188356762Y-61539381D01*
X188261524Y-61491762D01*
X188213905Y-61444143D01*
X188166286Y-61348905D01*
X188118667Y-61158429D01*
X188118667Y-60920333D01*
X188166286Y-60729857D01*
X188213905Y-60634619D01*
X188261524Y-60587000D01*
X188356762Y-60539381D01*
X202525334Y-61666381D02*
X202192000Y-61190190D01*
X201953905Y-61666381D02*
X201953905Y-60666381D01*
X202334858Y-60666381D01*
X202430096Y-60714000D01*
X202477715Y-60761619D01*
X202525334Y-60856857D01*
X202525334Y-60999714D01*
X202477715Y-61094952D01*
X202430096Y-61142571D01*
X202334858Y-61190190D01*
X201953905Y-61190190D01*
X203430096Y-60666381D02*
X202953905Y-60666381D01*
X202906286Y-61142571D01*
X202953905Y-61094952D01*
X203049143Y-61047333D01*
X203287239Y-61047333D01*
X203382477Y-61094952D01*
X203430096Y-61142571D01*
X203477715Y-61237810D01*
X203477715Y-61475905D01*
X203430096Y-61571143D01*
X203382477Y-61618762D01*
X203287239Y-61666381D01*
X203049143Y-61666381D01*
X202953905Y-61618762D01*
X202906286Y-61571143D01*
X209073905Y-60634619D02*
X209121524Y-60587000D01*
X209216762Y-60539381D01*
X209454858Y-60539381D01*
X209550096Y-60587000D01*
X209597715Y-60634619D01*
X209645334Y-60729857D01*
X209645334Y-60825095D01*
X209597715Y-60967952D01*
X209026286Y-61539381D01*
X209645334Y-61539381D01*
X209978667Y-60539381D02*
X210645334Y-60539381D01*
X210216762Y-61539381D01*
X211216762Y-60539381D02*
X211312001Y-60539381D01*
X211407239Y-60587000D01*
X211454858Y-60634619D01*
X211502477Y-60729857D01*
X211550096Y-60920333D01*
X211550096Y-61158429D01*
X211502477Y-61348905D01*
X211454858Y-61444143D01*
X211407239Y-61491762D01*
X211312001Y-61539381D01*
X211216762Y-61539381D01*
X211121524Y-61491762D01*
X211073905Y-61444143D01*
X211026286Y-61348905D01*
X210978667Y-61158429D01*
X210978667Y-60920333D01*
X211026286Y-60729857D01*
X211073905Y-60634619D01*
X211121524Y-60587000D01*
X211216762Y-60539381D01*
X152233334Y-86558381D02*
X151900000Y-86082190D01*
X151661905Y-86558381D02*
X151661905Y-85558381D01*
X152042858Y-85558381D01*
X152138096Y-85606000D01*
X152185715Y-85653619D01*
X152233334Y-85748857D01*
X152233334Y-85891714D01*
X152185715Y-85986952D01*
X152138096Y-86034571D01*
X152042858Y-86082190D01*
X151661905Y-86082190D01*
X153090477Y-85558381D02*
X152900000Y-85558381D01*
X152804762Y-85606000D01*
X152757143Y-85653619D01*
X152661905Y-85796476D01*
X152614286Y-85986952D01*
X152614286Y-86367905D01*
X152661905Y-86463143D01*
X152709524Y-86510762D01*
X152804762Y-86558381D01*
X152995239Y-86558381D01*
X153090477Y-86510762D01*
X153138096Y-86463143D01*
X153185715Y-86367905D01*
X153185715Y-86129810D01*
X153138096Y-86034571D01*
X153090477Y-85986952D01*
X152995239Y-85939333D01*
X152804762Y-85939333D01*
X152709524Y-85986952D01*
X152661905Y-86034571D01*
X152614286Y-86129810D01*
X160313715Y-86685381D02*
X159742286Y-86685381D01*
X160028000Y-86685381D02*
X160028000Y-85685381D01*
X159932762Y-85828238D01*
X159837524Y-85923476D01*
X159742286Y-85971095D01*
X160742286Y-86685381D02*
X160742286Y-85685381D01*
X161313715Y-86685381D02*
X160885143Y-86113952D01*
X161313715Y-85685381D02*
X160742286Y-86256810D01*
X151725334Y-97226381D02*
X151392000Y-96750190D01*
X151153905Y-97226381D02*
X151153905Y-96226381D01*
X151534858Y-96226381D01*
X151630096Y-96274000D01*
X151677715Y-96321619D01*
X151725334Y-96416857D01*
X151725334Y-96559714D01*
X151677715Y-96654952D01*
X151630096Y-96702571D01*
X151534858Y-96750190D01*
X151153905Y-96750190D01*
X152058667Y-96226381D02*
X152725334Y-96226381D01*
X152296762Y-97226381D01*
X158273905Y-96194619D02*
X158321524Y-96147000D01*
X158416762Y-96099381D01*
X158654858Y-96099381D01*
X158750096Y-96147000D01*
X158797715Y-96194619D01*
X158845334Y-96289857D01*
X158845334Y-96385095D01*
X158797715Y-96527952D01*
X158226286Y-97099381D01*
X158845334Y-97099381D01*
X159226286Y-96194619D02*
X159273905Y-96147000D01*
X159369143Y-96099381D01*
X159607239Y-96099381D01*
X159702477Y-96147000D01*
X159750096Y-96194619D01*
X159797715Y-96289857D01*
X159797715Y-96385095D01*
X159750096Y-96527952D01*
X159178667Y-97099381D01*
X159797715Y-97099381D01*
X160416762Y-96099381D02*
X160512001Y-96099381D01*
X160607239Y-96147000D01*
X160654858Y-96194619D01*
X160702477Y-96289857D01*
X160750096Y-96480333D01*
X160750096Y-96718429D01*
X160702477Y-96908905D01*
X160654858Y-97004143D01*
X160607239Y-97051762D01*
X160512001Y-97099381D01*
X160416762Y-97099381D01*
X160321524Y-97051762D01*
X160273905Y-97004143D01*
X160226286Y-96908905D01*
X160178667Y-96718429D01*
X160178667Y-96480333D01*
X160226286Y-96289857D01*
X160273905Y-96194619D01*
X160321524Y-96147000D01*
X160416762Y-96099381D01*
X151598334Y-91892381D02*
X151265000Y-91416190D01*
X151026905Y-91892381D02*
X151026905Y-90892381D01*
X151407858Y-90892381D01*
X151503096Y-90940000D01*
X151550715Y-90987619D01*
X151598334Y-91082857D01*
X151598334Y-91225714D01*
X151550715Y-91320952D01*
X151503096Y-91368571D01*
X151407858Y-91416190D01*
X151026905Y-91416190D01*
X152169762Y-91320952D02*
X152074524Y-91273333D01*
X152026905Y-91225714D01*
X151979286Y-91130476D01*
X151979286Y-91082857D01*
X152026905Y-90987619D01*
X152074524Y-90940000D01*
X152169762Y-90892381D01*
X152360239Y-90892381D01*
X152455477Y-90940000D01*
X152503096Y-90987619D01*
X152550715Y-91082857D01*
X152550715Y-91130476D01*
X152503096Y-91225714D01*
X152455477Y-91273333D01*
X152360239Y-91320952D01*
X152169762Y-91320952D01*
X152074524Y-91368571D01*
X152026905Y-91416190D01*
X151979286Y-91511429D01*
X151979286Y-91701905D01*
X152026905Y-91797143D01*
X152074524Y-91844762D01*
X152169762Y-91892381D01*
X152360239Y-91892381D01*
X152455477Y-91844762D01*
X152503096Y-91797143D01*
X152550715Y-91701905D01*
X152550715Y-91511429D01*
X152503096Y-91416190D01*
X152455477Y-91368571D01*
X152360239Y-91320952D01*
X159289905Y-90860619D02*
X159337524Y-90813000D01*
X159432762Y-90765381D01*
X159670858Y-90765381D01*
X159766096Y-90813000D01*
X159813715Y-90860619D01*
X159861334Y-90955857D01*
X159861334Y-91051095D01*
X159813715Y-91193952D01*
X159242286Y-91765381D01*
X159861334Y-91765381D01*
X160242286Y-90860619D02*
X160289905Y-90813000D01*
X160385143Y-90765381D01*
X160623239Y-90765381D01*
X160718477Y-90813000D01*
X160766096Y-90860619D01*
X160813715Y-90955857D01*
X160813715Y-91051095D01*
X160766096Y-91193952D01*
X160194667Y-91765381D01*
X160813715Y-91765381D01*
X161432762Y-90765381D02*
X161528001Y-90765381D01*
X161623239Y-90813000D01*
X161670858Y-90860619D01*
X161718477Y-90955857D01*
X161766096Y-91146333D01*
X161766096Y-91384429D01*
X161718477Y-91574905D01*
X161670858Y-91670143D01*
X161623239Y-91717762D01*
X161528001Y-91765381D01*
X161432762Y-91765381D01*
X161337524Y-91717762D01*
X161289905Y-91670143D01*
X161242286Y-91574905D01*
X161194667Y-91384429D01*
X161194667Y-91146333D01*
X161242286Y-90955857D01*
X161289905Y-90860619D01*
X161337524Y-90813000D01*
X161432762Y-90765381D01*
X86868095Y-87717381D02*
X86868095Y-88526905D01*
X86915714Y-88622143D01*
X86963333Y-88669762D01*
X87058571Y-88717381D01*
X87249048Y-88717381D01*
X87344286Y-88669762D01*
X87391905Y-88622143D01*
X87439524Y-88526905D01*
X87439524Y-87717381D01*
X88439524Y-88717381D02*
X87868095Y-88717381D01*
X88153809Y-88717381D02*
X88153809Y-87717381D01*
X88058571Y-87860238D01*
X87963333Y-87955476D01*
X87868095Y-88003095D01*
X86829286Y-86526667D02*
X87305477Y-86526667D01*
X86734048Y-86812381D02*
X87067381Y-85812381D01*
X87400715Y-86812381D01*
X87591191Y-85812381D02*
X88162620Y-85812381D01*
X87876905Y-86812381D02*
X87876905Y-85812381D01*
X88495953Y-86812381D02*
X88495953Y-85812381D01*
X88829287Y-86526667D01*
X89162620Y-85812381D01*
X89162620Y-86812381D01*
X89638810Y-86288571D02*
X89972144Y-86288571D01*
X90115001Y-86812381D02*
X89638810Y-86812381D01*
X89638810Y-85812381D01*
X90115001Y-85812381D01*
X91067382Y-85860000D02*
X90972144Y-85812381D01*
X90829287Y-85812381D01*
X90686429Y-85860000D01*
X90591191Y-85955238D01*
X90543572Y-86050476D01*
X90495953Y-86240952D01*
X90495953Y-86383810D01*
X90543572Y-86574286D01*
X90591191Y-86669524D01*
X90686429Y-86764762D01*
X90829287Y-86812381D01*
X90924525Y-86812381D01*
X91067382Y-86764762D01*
X91115001Y-86717143D01*
X91115001Y-86383810D01*
X90924525Y-86383810D01*
X91495953Y-86526667D02*
X91972144Y-86526667D01*
X91400715Y-86812381D02*
X91734048Y-85812381D01*
X92067382Y-86812381D01*
X92924525Y-86812381D02*
X92353096Y-86812381D01*
X92638810Y-86812381D02*
X92638810Y-85812381D01*
X92543572Y-85955238D01*
X92448334Y-86050476D01*
X92353096Y-86098095D01*
X93305477Y-85907619D02*
X93353096Y-85860000D01*
X93448334Y-85812381D01*
X93686430Y-85812381D01*
X93781668Y-85860000D01*
X93829287Y-85907619D01*
X93876906Y-86002857D01*
X93876906Y-86098095D01*
X93829287Y-86240952D01*
X93257858Y-86812381D01*
X93876906Y-86812381D01*
X94448334Y-86240952D02*
X94353096Y-86193333D01*
X94305477Y-86145714D01*
X94257858Y-86050476D01*
X94257858Y-86002857D01*
X94305477Y-85907619D01*
X94353096Y-85860000D01*
X94448334Y-85812381D01*
X94638811Y-85812381D01*
X94734049Y-85860000D01*
X94781668Y-85907619D01*
X94829287Y-86002857D01*
X94829287Y-86050476D01*
X94781668Y-86145714D01*
X94734049Y-86193333D01*
X94638811Y-86240952D01*
X94448334Y-86240952D01*
X94353096Y-86288571D01*
X94305477Y-86336190D01*
X94257858Y-86431429D01*
X94257858Y-86621905D01*
X94305477Y-86717143D01*
X94353096Y-86764762D01*
X94448334Y-86812381D01*
X94638811Y-86812381D01*
X94734049Y-86764762D01*
X94781668Y-86717143D01*
X94829287Y-86621905D01*
X94829287Y-86431429D01*
X94781668Y-86336190D01*
X94734049Y-86288571D01*
X94638811Y-86240952D01*
X95686430Y-86145714D02*
X95686430Y-86812381D01*
X95448334Y-85764762D02*
X95210239Y-86479048D01*
X95829287Y-86479048D01*
X96210239Y-86812381D02*
X96210239Y-85812381D01*
X96591192Y-85812381D01*
X96686430Y-85860000D01*
X96734049Y-85907619D01*
X96781668Y-86002857D01*
X96781668Y-86145714D01*
X96734049Y-86240952D01*
X96686430Y-86288571D01*
X96591192Y-86336190D01*
X96210239Y-86336190D01*
X97210239Y-86431429D02*
X97972144Y-86431429D01*
X98448334Y-86812381D02*
X98448334Y-85812381D01*
X98686429Y-85812381D01*
X98829287Y-85860000D01*
X98924525Y-85955238D01*
X98972144Y-86050476D01*
X99019763Y-86240952D01*
X99019763Y-86383810D01*
X98972144Y-86574286D01*
X98924525Y-86669524D01*
X98829287Y-86764762D01*
X98686429Y-86812381D01*
X98448334Y-86812381D01*
X99448334Y-86812381D02*
X99448334Y-85812381D01*
X99924524Y-86812381D02*
X99924524Y-85812381D01*
X100305477Y-85812381D01*
X100400715Y-85860000D01*
X100448334Y-85907619D01*
X100495953Y-86002857D01*
X100495953Y-86145714D01*
X100448334Y-86240952D01*
X100400715Y-86288571D01*
X100305477Y-86336190D01*
X99924524Y-86336190D01*
X101353096Y-86145714D02*
X101353096Y-86812381D01*
X101115000Y-85764762D02*
X100876905Y-86479048D01*
X101495953Y-86479048D01*
X102067381Y-85812381D02*
X102162620Y-85812381D01*
X102257858Y-85860000D01*
X102305477Y-85907619D01*
X102353096Y-86002857D01*
X102400715Y-86193333D01*
X102400715Y-86431429D01*
X102353096Y-86621905D01*
X102305477Y-86717143D01*
X102257858Y-86764762D01*
X102162620Y-86812381D01*
X102067381Y-86812381D01*
X101972143Y-86764762D01*
X101924524Y-86717143D01*
X101876905Y-86621905D01*
X101829286Y-86431429D01*
X101829286Y-86193333D01*
X101876905Y-86002857D01*
X101924524Y-85907619D01*
X101972143Y-85860000D01*
X102067381Y-85812381D01*
X183896095Y-77176381D02*
X183896095Y-77985905D01*
X183943714Y-78081143D01*
X183991333Y-78128762D01*
X184086571Y-78176381D01*
X184277048Y-78176381D01*
X184372286Y-78128762D01*
X184419905Y-78081143D01*
X184467524Y-77985905D01*
X184467524Y-77176381D01*
X184896095Y-77271619D02*
X184943714Y-77224000D01*
X185038952Y-77176381D01*
X185277048Y-77176381D01*
X185372286Y-77224000D01*
X185419905Y-77271619D01*
X185467524Y-77366857D01*
X185467524Y-77462095D01*
X185419905Y-77604952D01*
X184848476Y-78176381D01*
X185467524Y-78176381D01*
X187547524Y-77922381D02*
X187547524Y-76922381D01*
X187928477Y-76922381D01*
X188023715Y-76970000D01*
X188071334Y-77017619D01*
X188118953Y-77112857D01*
X188118953Y-77255714D01*
X188071334Y-77350952D01*
X188023715Y-77398571D01*
X187928477Y-77446190D01*
X187547524Y-77446190D01*
X189118953Y-77827143D02*
X189071334Y-77874762D01*
X188928477Y-77922381D01*
X188833239Y-77922381D01*
X188690381Y-77874762D01*
X188595143Y-77779524D01*
X188547524Y-77684286D01*
X188499905Y-77493810D01*
X188499905Y-77350952D01*
X188547524Y-77160476D01*
X188595143Y-77065238D01*
X188690381Y-76970000D01*
X188833239Y-76922381D01*
X188928477Y-76922381D01*
X189071334Y-76970000D01*
X189118953Y-77017619D01*
X189595143Y-77922381D02*
X189785619Y-77922381D01*
X189880858Y-77874762D01*
X189928477Y-77827143D01*
X190023715Y-77684286D01*
X190071334Y-77493810D01*
X190071334Y-77112857D01*
X190023715Y-77017619D01*
X189976096Y-76970000D01*
X189880858Y-76922381D01*
X189690381Y-76922381D01*
X189595143Y-76970000D01*
X189547524Y-77017619D01*
X189499905Y-77112857D01*
X189499905Y-77350952D01*
X189547524Y-77446190D01*
X189595143Y-77493810D01*
X189690381Y-77541429D01*
X189880858Y-77541429D01*
X189976096Y-77493810D01*
X190023715Y-77446190D01*
X190071334Y-77350952D01*
X190690381Y-76922381D02*
X190785620Y-76922381D01*
X190880858Y-76970000D01*
X190928477Y-77017619D01*
X190976096Y-77112857D01*
X191023715Y-77303333D01*
X191023715Y-77541429D01*
X190976096Y-77731905D01*
X190928477Y-77827143D01*
X190880858Y-77874762D01*
X190785620Y-77922381D01*
X190690381Y-77922381D01*
X190595143Y-77874762D01*
X190547524Y-77827143D01*
X190499905Y-77731905D01*
X190452286Y-77541429D01*
X190452286Y-77303333D01*
X190499905Y-77112857D01*
X190547524Y-77017619D01*
X190595143Y-76970000D01*
X190690381Y-76922381D01*
X191642762Y-76922381D02*
X191738001Y-76922381D01*
X191833239Y-76970000D01*
X191880858Y-77017619D01*
X191928477Y-77112857D01*
X191976096Y-77303333D01*
X191976096Y-77541429D01*
X191928477Y-77731905D01*
X191880858Y-77827143D01*
X191833239Y-77874762D01*
X191738001Y-77922381D01*
X191642762Y-77922381D01*
X191547524Y-77874762D01*
X191499905Y-77827143D01*
X191452286Y-77731905D01*
X191404667Y-77541429D01*
X191404667Y-77303333D01*
X191452286Y-77112857D01*
X191499905Y-77017619D01*
X191547524Y-76970000D01*
X191642762Y-76922381D01*
X207518095Y-76922381D02*
X207518095Y-77731905D01*
X207565714Y-77827143D01*
X207613333Y-77874762D01*
X207708571Y-77922381D01*
X207899048Y-77922381D01*
X207994286Y-77874762D01*
X208041905Y-77827143D01*
X208089524Y-77731905D01*
X208089524Y-76922381D01*
X208470476Y-76922381D02*
X209089524Y-76922381D01*
X208756190Y-77303333D01*
X208899048Y-77303333D01*
X208994286Y-77350952D01*
X209041905Y-77398571D01*
X209089524Y-77493810D01*
X209089524Y-77731905D01*
X209041905Y-77827143D01*
X208994286Y-77874762D01*
X208899048Y-77922381D01*
X208613333Y-77922381D01*
X208518095Y-77874762D01*
X208470476Y-77827143D01*
X210534524Y-77922381D02*
X210534524Y-76922381D01*
X210915477Y-76922381D01*
X211010715Y-76970000D01*
X211058334Y-77017619D01*
X211105953Y-77112857D01*
X211105953Y-77255714D01*
X211058334Y-77350952D01*
X211010715Y-77398571D01*
X210915477Y-77446190D01*
X210534524Y-77446190D01*
X212105953Y-77827143D02*
X212058334Y-77874762D01*
X211915477Y-77922381D01*
X211820239Y-77922381D01*
X211677381Y-77874762D01*
X211582143Y-77779524D01*
X211534524Y-77684286D01*
X211486905Y-77493810D01*
X211486905Y-77350952D01*
X211534524Y-77160476D01*
X211582143Y-77065238D01*
X211677381Y-76970000D01*
X211820239Y-76922381D01*
X211915477Y-76922381D01*
X212058334Y-76970000D01*
X212105953Y-77017619D01*
X212582143Y-77922381D02*
X212772619Y-77922381D01*
X212867858Y-77874762D01*
X212915477Y-77827143D01*
X213010715Y-77684286D01*
X213058334Y-77493810D01*
X213058334Y-77112857D01*
X213010715Y-77017619D01*
X212963096Y-76970000D01*
X212867858Y-76922381D01*
X212677381Y-76922381D01*
X212582143Y-76970000D01*
X212534524Y-77017619D01*
X212486905Y-77112857D01*
X212486905Y-77350952D01*
X212534524Y-77446190D01*
X212582143Y-77493810D01*
X212677381Y-77541429D01*
X212867858Y-77541429D01*
X212963096Y-77493810D01*
X213010715Y-77446190D01*
X213058334Y-77350952D01*
X213677381Y-76922381D02*
X213772620Y-76922381D01*
X213867858Y-76970000D01*
X213915477Y-77017619D01*
X213963096Y-77112857D01*
X214010715Y-77303333D01*
X214010715Y-77541429D01*
X213963096Y-77731905D01*
X213915477Y-77827143D01*
X213867858Y-77874762D01*
X213772620Y-77922381D01*
X213677381Y-77922381D01*
X213582143Y-77874762D01*
X213534524Y-77827143D01*
X213486905Y-77731905D01*
X213439286Y-77541429D01*
X213439286Y-77303333D01*
X213486905Y-77112857D01*
X213534524Y-77017619D01*
X213582143Y-76970000D01*
X213677381Y-76922381D01*
X214629762Y-76922381D02*
X214725001Y-76922381D01*
X214820239Y-76970000D01*
X214867858Y-77017619D01*
X214915477Y-77112857D01*
X214963096Y-77303333D01*
X214963096Y-77541429D01*
X214915477Y-77731905D01*
X214867858Y-77827143D01*
X214820239Y-77874762D01*
X214725001Y-77922381D01*
X214629762Y-77922381D01*
X214534524Y-77874762D01*
X214486905Y-77827143D01*
X214439286Y-77731905D01*
X214391667Y-77541429D01*
X214391667Y-77303333D01*
X214439286Y-77112857D01*
X214486905Y-77017619D01*
X214534524Y-76970000D01*
X214629762Y-76922381D01*
X151638095Y-76922381D02*
X151638095Y-77731905D01*
X151685714Y-77827143D01*
X151733333Y-77874762D01*
X151828571Y-77922381D01*
X152019048Y-77922381D01*
X152114286Y-77874762D01*
X152161905Y-77827143D01*
X152209524Y-77731905D01*
X152209524Y-76922381D01*
X153114286Y-77255714D02*
X153114286Y-77922381D01*
X152876190Y-76874762D02*
X152638095Y-77589048D01*
X153257143Y-77589048D01*
X159139286Y-76922381D02*
X159805953Y-76922381D01*
X159377381Y-77922381D01*
X160615477Y-77255714D02*
X160615477Y-77922381D01*
X160377381Y-76874762D02*
X160139286Y-77589048D01*
X160758334Y-77589048D01*
X161139286Y-77922381D02*
X161139286Y-76922381D01*
X161139286Y-77398571D02*
X161710715Y-77398571D01*
X161710715Y-77922381D02*
X161710715Y-76922381D01*
X162758334Y-77827143D02*
X162710715Y-77874762D01*
X162567858Y-77922381D01*
X162472620Y-77922381D01*
X162329762Y-77874762D01*
X162234524Y-77779524D01*
X162186905Y-77684286D01*
X162139286Y-77493810D01*
X162139286Y-77350952D01*
X162186905Y-77160476D01*
X162234524Y-77065238D01*
X162329762Y-76970000D01*
X162472620Y-76922381D01*
X162567858Y-76922381D01*
X162710715Y-76970000D01*
X162758334Y-77017619D01*
X163377381Y-76922381D02*
X163472620Y-76922381D01*
X163567858Y-76970000D01*
X163615477Y-77017619D01*
X163663096Y-77112857D01*
X163710715Y-77303333D01*
X163710715Y-77541429D01*
X163663096Y-77731905D01*
X163615477Y-77827143D01*
X163567858Y-77874762D01*
X163472620Y-77922381D01*
X163377381Y-77922381D01*
X163282143Y-77874762D01*
X163234524Y-77827143D01*
X163186905Y-77731905D01*
X163139286Y-77541429D01*
X163139286Y-77303333D01*
X163186905Y-77112857D01*
X163234524Y-77017619D01*
X163282143Y-76970000D01*
X163377381Y-76922381D01*
X164615477Y-76922381D02*
X164139286Y-76922381D01*
X164091667Y-77398571D01*
X164139286Y-77350952D01*
X164234524Y-77303333D01*
X164472620Y-77303333D01*
X164567858Y-77350952D01*
X164615477Y-77398571D01*
X164663096Y-77493810D01*
X164663096Y-77731905D01*
X164615477Y-77827143D01*
X164567858Y-77874762D01*
X164472620Y-77922381D01*
X164234524Y-77922381D01*
X164139286Y-77874762D01*
X164091667Y-77827143D01*
X179093905Y-84526381D02*
X179093905Y-83526381D01*
X179332000Y-83526381D01*
X179474858Y-83574000D01*
X179570096Y-83669238D01*
X179617715Y-83764476D01*
X179665334Y-83954952D01*
X179665334Y-84097810D01*
X179617715Y-84288286D01*
X179570096Y-84383524D01*
X179474858Y-84478762D01*
X179332000Y-84526381D01*
X179093905Y-84526381D01*
X180617715Y-84526381D02*
X180046286Y-84526381D01*
X180332000Y-84526381D02*
X180332000Y-83526381D01*
X180236762Y-83669238D01*
X180141524Y-83764476D01*
X180046286Y-83812095D01*
X186618762Y-84272381D02*
X186047333Y-84272381D01*
X186333047Y-84272381D02*
X186333047Y-83272381D01*
X186237809Y-83415238D01*
X186142571Y-83510476D01*
X186047333Y-83558095D01*
X187047333Y-83605714D02*
X187047333Y-84272381D01*
X187047333Y-83700952D02*
X187094952Y-83653333D01*
X187190190Y-83605714D01*
X187333048Y-83605714D01*
X187428286Y-83653333D01*
X187475905Y-83748571D01*
X187475905Y-84272381D01*
X187999714Y-84272381D02*
X188190190Y-84272381D01*
X188285429Y-84224762D01*
X188333048Y-84177143D01*
X188428286Y-84034286D01*
X188475905Y-83843810D01*
X188475905Y-83462857D01*
X188428286Y-83367619D01*
X188380667Y-83320000D01*
X188285429Y-83272381D01*
X188094952Y-83272381D01*
X187999714Y-83320000D01*
X187952095Y-83367619D01*
X187904476Y-83462857D01*
X187904476Y-83700952D01*
X187952095Y-83796190D01*
X187999714Y-83843810D01*
X188094952Y-83891429D01*
X188285429Y-83891429D01*
X188380667Y-83843810D01*
X188428286Y-83796190D01*
X188475905Y-83700952D01*
X189428286Y-84272381D02*
X188856857Y-84272381D01*
X189142571Y-84272381D02*
X189142571Y-83272381D01*
X189047333Y-83415238D01*
X188952095Y-83510476D01*
X188856857Y-83558095D01*
X190285429Y-83605714D02*
X190285429Y-84272381D01*
X190047333Y-83224762D02*
X189809238Y-83939048D01*
X190428286Y-83939048D01*
X243101905Y-79192381D02*
X243101905Y-78192381D01*
X243340000Y-78192381D01*
X243482858Y-78240000D01*
X243578096Y-78335238D01*
X243625715Y-78430476D01*
X243673334Y-78620952D01*
X243673334Y-78763810D01*
X243625715Y-78954286D01*
X243578096Y-79049524D01*
X243482858Y-79144762D01*
X243340000Y-79192381D01*
X243101905Y-79192381D01*
X244054286Y-78287619D02*
X244101905Y-78240000D01*
X244197143Y-78192381D01*
X244435239Y-78192381D01*
X244530477Y-78240000D01*
X244578096Y-78287619D01*
X244625715Y-78382857D01*
X244625715Y-78478095D01*
X244578096Y-78620952D01*
X244006667Y-79192381D01*
X244625715Y-79192381D01*
X234878762Y-79192381D02*
X234307333Y-79192381D01*
X234593047Y-79192381D02*
X234593047Y-78192381D01*
X234497809Y-78335238D01*
X234402571Y-78430476D01*
X234307333Y-78478095D01*
X235307333Y-78525714D02*
X235307333Y-79192381D01*
X235307333Y-78620952D02*
X235354952Y-78573333D01*
X235450190Y-78525714D01*
X235593048Y-78525714D01*
X235688286Y-78573333D01*
X235735905Y-78668571D01*
X235735905Y-79192381D01*
X236259714Y-79192381D02*
X236450190Y-79192381D01*
X236545429Y-79144762D01*
X236593048Y-79097143D01*
X236688286Y-78954286D01*
X236735905Y-78763810D01*
X236735905Y-78382857D01*
X236688286Y-78287619D01*
X236640667Y-78240000D01*
X236545429Y-78192381D01*
X236354952Y-78192381D01*
X236259714Y-78240000D01*
X236212095Y-78287619D01*
X236164476Y-78382857D01*
X236164476Y-78620952D01*
X236212095Y-78716190D01*
X236259714Y-78763810D01*
X236354952Y-78811429D01*
X236545429Y-78811429D01*
X236640667Y-78763810D01*
X236688286Y-78716190D01*
X236735905Y-78620952D01*
X237688286Y-79192381D02*
X237116857Y-79192381D01*
X237402571Y-79192381D02*
X237402571Y-78192381D01*
X237307333Y-78335238D01*
X237212095Y-78430476D01*
X237116857Y-78478095D01*
X238545429Y-78525714D02*
X238545429Y-79192381D01*
X238307333Y-78144762D02*
X238069238Y-78859048D01*
X238688286Y-78859048D01*
X243736905Y-84272381D02*
X243736905Y-83272381D01*
X243975000Y-83272381D01*
X244117858Y-83320000D01*
X244213096Y-83415238D01*
X244260715Y-83510476D01*
X244308334Y-83700952D01*
X244308334Y-83843810D01*
X244260715Y-84034286D01*
X244213096Y-84129524D01*
X244117858Y-84224762D01*
X243975000Y-84272381D01*
X243736905Y-84272381D01*
X244641667Y-83272381D02*
X245260715Y-83272381D01*
X244927381Y-83653333D01*
X245070239Y-83653333D01*
X245165477Y-83700952D01*
X245213096Y-83748571D01*
X245260715Y-83843810D01*
X245260715Y-84081905D01*
X245213096Y-84177143D01*
X245165477Y-84224762D01*
X245070239Y-84272381D01*
X244784524Y-84272381D01*
X244689286Y-84224762D01*
X244641667Y-84177143D01*
X234878762Y-84272381D02*
X234307333Y-84272381D01*
X234593047Y-84272381D02*
X234593047Y-83272381D01*
X234497809Y-83415238D01*
X234402571Y-83510476D01*
X234307333Y-83558095D01*
X235307333Y-83605714D02*
X235307333Y-84272381D01*
X235307333Y-83700952D02*
X235354952Y-83653333D01*
X235450190Y-83605714D01*
X235593048Y-83605714D01*
X235688286Y-83653333D01*
X235735905Y-83748571D01*
X235735905Y-84272381D01*
X236259714Y-84272381D02*
X236450190Y-84272381D01*
X236545429Y-84224762D01*
X236593048Y-84177143D01*
X236688286Y-84034286D01*
X236735905Y-83843810D01*
X236735905Y-83462857D01*
X236688286Y-83367619D01*
X236640667Y-83320000D01*
X236545429Y-83272381D01*
X236354952Y-83272381D01*
X236259714Y-83320000D01*
X236212095Y-83367619D01*
X236164476Y-83462857D01*
X236164476Y-83700952D01*
X236212095Y-83796190D01*
X236259714Y-83843810D01*
X236354952Y-83891429D01*
X236545429Y-83891429D01*
X236640667Y-83843810D01*
X236688286Y-83796190D01*
X236735905Y-83700952D01*
X237688286Y-84272381D02*
X237116857Y-84272381D01*
X237402571Y-84272381D02*
X237402571Y-83272381D01*
X237307333Y-83415238D01*
X237212095Y-83510476D01*
X237116857Y-83558095D01*
X238545429Y-83605714D02*
X238545429Y-84272381D01*
X238307333Y-83224762D02*
X238069238Y-83939048D01*
X238688286Y-83939048D01*
X201953905Y-84526381D02*
X201953905Y-83526381D01*
X202192000Y-83526381D01*
X202334858Y-83574000D01*
X202430096Y-83669238D01*
X202477715Y-83764476D01*
X202525334Y-83954952D01*
X202525334Y-84097810D01*
X202477715Y-84288286D01*
X202430096Y-84383524D01*
X202334858Y-84478762D01*
X202192000Y-84526381D01*
X201953905Y-84526381D01*
X203382477Y-83859714D02*
X203382477Y-84526381D01*
X203144381Y-83478762D02*
X202906286Y-84193048D01*
X203525334Y-84193048D01*
X209478762Y-84272381D02*
X208907333Y-84272381D01*
X209193047Y-84272381D02*
X209193047Y-83272381D01*
X209097809Y-83415238D01*
X209002571Y-83510476D01*
X208907333Y-83558095D01*
X209907333Y-83605714D02*
X209907333Y-84272381D01*
X209907333Y-83700952D02*
X209954952Y-83653333D01*
X210050190Y-83605714D01*
X210193048Y-83605714D01*
X210288286Y-83653333D01*
X210335905Y-83748571D01*
X210335905Y-84272381D01*
X210859714Y-84272381D02*
X211050190Y-84272381D01*
X211145429Y-84224762D01*
X211193048Y-84177143D01*
X211288286Y-84034286D01*
X211335905Y-83843810D01*
X211335905Y-83462857D01*
X211288286Y-83367619D01*
X211240667Y-83320000D01*
X211145429Y-83272381D01*
X210954952Y-83272381D01*
X210859714Y-83320000D01*
X210812095Y-83367619D01*
X210764476Y-83462857D01*
X210764476Y-83700952D01*
X210812095Y-83796190D01*
X210859714Y-83843810D01*
X210954952Y-83891429D01*
X211145429Y-83891429D01*
X211240667Y-83843810D01*
X211288286Y-83796190D01*
X211335905Y-83700952D01*
X212288286Y-84272381D02*
X211716857Y-84272381D01*
X212002571Y-84272381D02*
X212002571Y-83272381D01*
X211907333Y-83415238D01*
X211812095Y-83510476D01*
X211716857Y-83558095D01*
X213145429Y-83605714D02*
X213145429Y-84272381D01*
X212907333Y-83224762D02*
X212669238Y-83939048D01*
X213288286Y-83939048D01*
X227631667Y-92797381D02*
X227631667Y-93511667D01*
X227584047Y-93654524D01*
X227488809Y-93749762D01*
X227345952Y-93797381D01*
X227250714Y-93797381D01*
X228631667Y-93797381D02*
X228060238Y-93797381D01*
X228345952Y-93797381D02*
X228345952Y-92797381D01*
X228250714Y-92940238D01*
X228155476Y-93035476D01*
X228060238Y-93083095D01*
X227052143Y-113963104D02*
X227099762Y-114010723D01*
X227147381Y-114153580D01*
X227147381Y-114248818D01*
X227099762Y-114391676D01*
X227004524Y-114486914D01*
X226909286Y-114534533D01*
X226718810Y-114582152D01*
X226575952Y-114582152D01*
X226385476Y-114534533D01*
X226290238Y-114486914D01*
X226195000Y-114391676D01*
X226147381Y-114248818D01*
X226147381Y-114153580D01*
X226195000Y-114010723D01*
X226242619Y-113963104D01*
X227147381Y-113058342D02*
X227147381Y-113534533D01*
X226147381Y-113534533D01*
X226147381Y-112534533D02*
X226147381Y-112344056D01*
X226195000Y-112248818D01*
X226290238Y-112153580D01*
X226480714Y-112105961D01*
X226814048Y-112105961D01*
X227004524Y-112153580D01*
X227099762Y-112248818D01*
X227147381Y-112344056D01*
X227147381Y-112534533D01*
X227099762Y-112629771D01*
X227004524Y-112725009D01*
X226814048Y-112772628D01*
X226480714Y-112772628D01*
X226290238Y-112725009D01*
X226195000Y-112629771D01*
X226147381Y-112534533D01*
X227052143Y-111105961D02*
X227099762Y-111153580D01*
X227147381Y-111296437D01*
X227147381Y-111391675D01*
X227099762Y-111534533D01*
X227004524Y-111629771D01*
X226909286Y-111677390D01*
X226718810Y-111725009D01*
X226575952Y-111725009D01*
X226385476Y-111677390D01*
X226290238Y-111629771D01*
X226195000Y-111534533D01*
X226147381Y-111391675D01*
X226147381Y-111296437D01*
X226195000Y-111153580D01*
X226242619Y-111105961D01*
X227147381Y-110677390D02*
X226147381Y-110677390D01*
X227147381Y-110105961D02*
X226575952Y-110534533D01*
X226147381Y-110105961D02*
X226718810Y-110677390D01*
X227147381Y-108915485D02*
X226147381Y-108915485D01*
X227147381Y-108439295D02*
X226147381Y-108439295D01*
X227147381Y-107867866D01*
X226147381Y-107867866D01*
X101266667Y-92162381D02*
X101266667Y-92876667D01*
X101219047Y-93019524D01*
X101123809Y-93114762D01*
X100980952Y-93162381D01*
X100885714Y-93162381D01*
X101695238Y-92257619D02*
X101742857Y-92210000D01*
X101838095Y-92162381D01*
X102076191Y-92162381D01*
X102171429Y-92210000D01*
X102219048Y-92257619D01*
X102266667Y-92352857D01*
X102266667Y-92448095D01*
X102219048Y-92590952D01*
X101647619Y-93162381D01*
X102266667Y-93162381D01*
X99464762Y-115582153D02*
X99512381Y-115439296D01*
X99512381Y-115201200D01*
X99464762Y-115105962D01*
X99417143Y-115058343D01*
X99321905Y-115010724D01*
X99226667Y-115010724D01*
X99131429Y-115058343D01*
X99083810Y-115105962D01*
X99036190Y-115201200D01*
X98988571Y-115391677D01*
X98940952Y-115486915D01*
X98893333Y-115534534D01*
X98798095Y-115582153D01*
X98702857Y-115582153D01*
X98607619Y-115534534D01*
X98560000Y-115486915D01*
X98512381Y-115391677D01*
X98512381Y-115153581D01*
X98560000Y-115010724D01*
X98512381Y-114725010D02*
X98512381Y-114153581D01*
X99512381Y-114439296D02*
X98512381Y-114439296D01*
X99226667Y-113867867D02*
X99226667Y-113391676D01*
X99512381Y-113963105D02*
X98512381Y-113629772D01*
X99512381Y-113296438D01*
X99512381Y-112391676D02*
X99036190Y-112725010D01*
X99512381Y-112963105D02*
X98512381Y-112963105D01*
X98512381Y-112582152D01*
X98560000Y-112486914D01*
X98607619Y-112439295D01*
X98702857Y-112391676D01*
X98845714Y-112391676D01*
X98940952Y-112439295D01*
X98988571Y-112486914D01*
X99036190Y-112582152D01*
X99036190Y-112963105D01*
X98512381Y-112105962D02*
X98512381Y-111534533D01*
X99512381Y-111820248D02*
X98512381Y-111820248D01*
X98464762Y-110486914D02*
X99750476Y-111344057D01*
X99464762Y-110201200D02*
X99512381Y-110058343D01*
X99512381Y-109820247D01*
X99464762Y-109725009D01*
X99417143Y-109677390D01*
X99321905Y-109629771D01*
X99226667Y-109629771D01*
X99131429Y-109677390D01*
X99083810Y-109725009D01*
X99036190Y-109820247D01*
X98988571Y-110010724D01*
X98940952Y-110105962D01*
X98893333Y-110153581D01*
X98798095Y-110201200D01*
X98702857Y-110201200D01*
X98607619Y-110153581D01*
X98560000Y-110105962D01*
X98512381Y-110010724D01*
X98512381Y-109772628D01*
X98560000Y-109629771D01*
X98512381Y-109344057D02*
X98512381Y-108772628D01*
X99512381Y-109058343D02*
X98512381Y-109058343D01*
X98512381Y-108248819D02*
X98512381Y-108058342D01*
X98560000Y-107963104D01*
X98655238Y-107867866D01*
X98845714Y-107820247D01*
X99179048Y-107820247D01*
X99369524Y-107867866D01*
X99464762Y-107963104D01*
X99512381Y-108058342D01*
X99512381Y-108248819D01*
X99464762Y-108344057D01*
X99369524Y-108439295D01*
X99179048Y-108486914D01*
X98845714Y-108486914D01*
X98655238Y-108439295D01*
X98560000Y-108344057D01*
X98512381Y-108248819D01*
X99512381Y-107391676D02*
X98512381Y-107391676D01*
X98512381Y-107010723D01*
X98560000Y-106915485D01*
X98607619Y-106867866D01*
X98702857Y-106820247D01*
X98845714Y-106820247D01*
X98940952Y-106867866D01*
X98988571Y-106915485D01*
X99036190Y-107010723D01*
X99036190Y-107391676D01*
X125182381Y-111534533D02*
X125896667Y-111534533D01*
X126039524Y-111582153D01*
X126134762Y-111677391D01*
X126182381Y-111820248D01*
X126182381Y-111915486D01*
X125182381Y-111153581D02*
X125182381Y-110534533D01*
X125563333Y-110867867D01*
X125563333Y-110725009D01*
X125610952Y-110629771D01*
X125658571Y-110582152D01*
X125753810Y-110534533D01*
X125991905Y-110534533D01*
X126087143Y-110582152D01*
X126134762Y-110629771D01*
X126182381Y-110725009D01*
X126182381Y-111010724D01*
X126134762Y-111105962D01*
X126087143Y-111153581D01*
X75866667Y-92162381D02*
X75866667Y-92876667D01*
X75819047Y-93019524D01*
X75723809Y-93114762D01*
X75580952Y-93162381D01*
X75485714Y-93162381D01*
X76771429Y-92495714D02*
X76771429Y-93162381D01*
X76533333Y-92114762D02*
X76295238Y-92829048D01*
X76914286Y-92829048D01*
X74112381Y-112653581D02*
X73636190Y-112986915D01*
X74112381Y-113225010D02*
X73112381Y-113225010D01*
X73112381Y-112844057D01*
X73160000Y-112748819D01*
X73207619Y-112701200D01*
X73302857Y-112653581D01*
X73445714Y-112653581D01*
X73540952Y-112701200D01*
X73588571Y-112748819D01*
X73636190Y-112844057D01*
X73636190Y-113225010D01*
X73588571Y-112225010D02*
X73588571Y-111891676D01*
X74112381Y-111748819D02*
X74112381Y-112225010D01*
X73112381Y-112225010D01*
X73112381Y-111748819D01*
X74064762Y-111367867D02*
X74112381Y-111225010D01*
X74112381Y-110986914D01*
X74064762Y-110891676D01*
X74017143Y-110844057D01*
X73921905Y-110796438D01*
X73826667Y-110796438D01*
X73731429Y-110844057D01*
X73683810Y-110891676D01*
X73636190Y-110986914D01*
X73588571Y-111177391D01*
X73540952Y-111272629D01*
X73493333Y-111320248D01*
X73398095Y-111367867D01*
X73302857Y-111367867D01*
X73207619Y-111320248D01*
X73160000Y-111272629D01*
X73112381Y-111177391D01*
X73112381Y-110939295D01*
X73160000Y-110796438D01*
X73588571Y-110367867D02*
X73588571Y-110034533D01*
X74112381Y-109891676D02*
X74112381Y-110367867D01*
X73112381Y-110367867D01*
X73112381Y-109891676D01*
X73112381Y-109605962D02*
X73112381Y-109034533D01*
X74112381Y-109320248D02*
X73112381Y-109320248D01*
X218797143Y-64936666D02*
X218844762Y-64984285D01*
X218892381Y-65127142D01*
X218892381Y-65222380D01*
X218844762Y-65365238D01*
X218749524Y-65460476D01*
X218654286Y-65508095D01*
X218463810Y-65555714D01*
X218320952Y-65555714D01*
X218130476Y-65508095D01*
X218035238Y-65460476D01*
X217940000Y-65365238D01*
X217892381Y-65222380D01*
X217892381Y-65127142D01*
X217940000Y-64984285D01*
X217987619Y-64936666D01*
X217892381Y-64603333D02*
X217892381Y-63984285D01*
X218273333Y-64317619D01*
X218273333Y-64174761D01*
X218320952Y-64079523D01*
X218368571Y-64031904D01*
X218463810Y-63984285D01*
X218701905Y-63984285D01*
X218797143Y-64031904D01*
X218844762Y-64079523D01*
X218892381Y-64174761D01*
X218892381Y-64460476D01*
X218844762Y-64555714D01*
X218797143Y-64603333D01*
X217527143Y-72477143D02*
X217574762Y-72429524D01*
X217622381Y-72477143D01*
X217574762Y-72524762D01*
X217527143Y-72477143D01*
X217622381Y-72477143D01*
X217622381Y-71477143D02*
X217622381Y-72048572D01*
X217622381Y-71762858D02*
X216622381Y-71762858D01*
X216765238Y-71858096D01*
X216860476Y-71953334D01*
X216908095Y-72048572D01*
X216955714Y-70620000D02*
X217622381Y-70620000D01*
X216955714Y-71048572D02*
X217479524Y-71048572D01*
X217574762Y-71000953D01*
X217622381Y-70905715D01*
X217622381Y-70762857D01*
X217574762Y-70667619D01*
X217527143Y-70620000D01*
X217098571Y-69810476D02*
X217098571Y-70143810D01*
X217622381Y-70143810D02*
X216622381Y-70143810D01*
X216622381Y-69667619D01*
X201017143Y-78271666D02*
X201064762Y-78319285D01*
X201112381Y-78462142D01*
X201112381Y-78557380D01*
X201064762Y-78700238D01*
X200969524Y-78795476D01*
X200874286Y-78843095D01*
X200683810Y-78890714D01*
X200540952Y-78890714D01*
X200350476Y-78843095D01*
X200255238Y-78795476D01*
X200160000Y-78700238D01*
X200112381Y-78557380D01*
X200112381Y-78462142D01*
X200160000Y-78319285D01*
X200207619Y-78271666D01*
X200445714Y-77414523D02*
X201112381Y-77414523D01*
X200064762Y-77652619D02*
X200779048Y-77890714D01*
X200779048Y-77271666D01*
X199493143Y-72477143D02*
X199540762Y-72429524D01*
X199588381Y-72477143D01*
X199540762Y-72524762D01*
X199493143Y-72477143D01*
X199588381Y-72477143D01*
X199588381Y-71477143D02*
X199588381Y-72048572D01*
X199588381Y-71762858D02*
X198588381Y-71762858D01*
X198731238Y-71858096D01*
X198826476Y-71953334D01*
X198874095Y-72048572D01*
X198921714Y-70620000D02*
X199588381Y-70620000D01*
X198921714Y-71048572D02*
X199445524Y-71048572D01*
X199540762Y-71000953D01*
X199588381Y-70905715D01*
X199588381Y-70762857D01*
X199540762Y-70667619D01*
X199493143Y-70620000D01*
X199064571Y-69810476D02*
X199064571Y-70143810D01*
X199588381Y-70143810D02*
X198588381Y-70143810D01*
X198588381Y-69667619D01*
X179427143Y-78271666D02*
X179474762Y-78319285D01*
X179522381Y-78462142D01*
X179522381Y-78557380D01*
X179474762Y-78700238D01*
X179379524Y-78795476D01*
X179284286Y-78843095D01*
X179093810Y-78890714D01*
X178950952Y-78890714D01*
X178760476Y-78843095D01*
X178665238Y-78795476D01*
X178570000Y-78700238D01*
X178522381Y-78557380D01*
X178522381Y-78462142D01*
X178570000Y-78319285D01*
X178617619Y-78271666D01*
X178522381Y-77366904D02*
X178522381Y-77843095D01*
X178998571Y-77890714D01*
X178950952Y-77843095D01*
X178903333Y-77747857D01*
X178903333Y-77509761D01*
X178950952Y-77414523D01*
X178998571Y-77366904D01*
X179093810Y-77319285D01*
X179331905Y-77319285D01*
X179427143Y-77366904D01*
X179474762Y-77414523D01*
X179522381Y-77509761D01*
X179522381Y-77747857D01*
X179474762Y-77843095D01*
X179427143Y-77890714D01*
X175617143Y-72477143D02*
X175664762Y-72429524D01*
X175712381Y-72477143D01*
X175664762Y-72524762D01*
X175617143Y-72477143D01*
X175712381Y-72477143D01*
X175712381Y-71477143D02*
X175712381Y-72048572D01*
X175712381Y-71762858D02*
X174712381Y-71762858D01*
X174855238Y-71858096D01*
X174950476Y-71953334D01*
X174998095Y-72048572D01*
X175045714Y-70620000D02*
X175712381Y-70620000D01*
X175045714Y-71048572D02*
X175569524Y-71048572D01*
X175664762Y-71000953D01*
X175712381Y-70905715D01*
X175712381Y-70762857D01*
X175664762Y-70667619D01*
X175617143Y-70620000D01*
X175188571Y-69810476D02*
X175188571Y-70143810D01*
X175712381Y-70143810D02*
X174712381Y-70143810D01*
X174712381Y-69667619D01*
X146407143Y-78271666D02*
X146454762Y-78319285D01*
X146502381Y-78462142D01*
X146502381Y-78557380D01*
X146454762Y-78700238D01*
X146359524Y-78795476D01*
X146264286Y-78843095D01*
X146073810Y-78890714D01*
X145930952Y-78890714D01*
X145740476Y-78843095D01*
X145645238Y-78795476D01*
X145550000Y-78700238D01*
X145502381Y-78557380D01*
X145502381Y-78462142D01*
X145550000Y-78319285D01*
X145597619Y-78271666D01*
X145502381Y-77414523D02*
X145502381Y-77605000D01*
X145550000Y-77700238D01*
X145597619Y-77747857D01*
X145740476Y-77843095D01*
X145930952Y-77890714D01*
X146311905Y-77890714D01*
X146407143Y-77843095D01*
X146454762Y-77795476D01*
X146502381Y-77700238D01*
X146502381Y-77509761D01*
X146454762Y-77414523D01*
X146407143Y-77366904D01*
X146311905Y-77319285D01*
X146073810Y-77319285D01*
X145978571Y-77366904D01*
X145930952Y-77414523D01*
X145883333Y-77509761D01*
X145883333Y-77700238D01*
X145930952Y-77795476D01*
X145978571Y-77843095D01*
X146073810Y-77890714D01*
X142597143Y-72477143D02*
X142644762Y-72429524D01*
X142692381Y-72477143D01*
X142644762Y-72524762D01*
X142597143Y-72477143D01*
X142692381Y-72477143D01*
X142692381Y-71477143D02*
X142692381Y-72048572D01*
X142692381Y-71762858D02*
X141692381Y-71762858D01*
X141835238Y-71858096D01*
X141930476Y-71953334D01*
X141978095Y-72048572D01*
X142025714Y-70620000D02*
X142692381Y-70620000D01*
X142025714Y-71048572D02*
X142549524Y-71048572D01*
X142644762Y-71000953D01*
X142692381Y-70905715D01*
X142692381Y-70762857D01*
X142644762Y-70667619D01*
X142597143Y-70620000D01*
X142168571Y-69810476D02*
X142168571Y-70143810D01*
X142692381Y-70143810D02*
X141692381Y-70143810D01*
X141692381Y-69667619D01*
X116038334Y-65127143D02*
X115990715Y-65174762D01*
X115847858Y-65222381D01*
X115752620Y-65222381D01*
X115609762Y-65174762D01*
X115514524Y-65079524D01*
X115466905Y-64984286D01*
X115419286Y-64793810D01*
X115419286Y-64650952D01*
X115466905Y-64460476D01*
X115514524Y-64365238D01*
X115609762Y-64270000D01*
X115752620Y-64222381D01*
X115847858Y-64222381D01*
X115990715Y-64270000D01*
X116038334Y-64317619D01*
X116371667Y-64222381D02*
X117038334Y-64222381D01*
X116609762Y-65222381D01*
X100877857Y-65127143D02*
X100925476Y-65174762D01*
X100877857Y-65222381D01*
X100830238Y-65174762D01*
X100877857Y-65127143D01*
X100877857Y-65222381D01*
X101877857Y-65222381D02*
X101306428Y-65222381D01*
X101592142Y-65222381D02*
X101592142Y-64222381D01*
X101496904Y-64365238D01*
X101401666Y-64460476D01*
X101306428Y-64508095D01*
X102735000Y-64555714D02*
X102735000Y-65222381D01*
X102306428Y-64555714D02*
X102306428Y-65079524D01*
X102354047Y-65174762D01*
X102449285Y-65222381D01*
X102592143Y-65222381D01*
X102687381Y-65174762D01*
X102735000Y-65127143D01*
X103544524Y-64698571D02*
X103211190Y-64698571D01*
X103211190Y-65222381D02*
X103211190Y-64222381D01*
X103687381Y-64222381D01*
X227798334Y-86717143D02*
X227750715Y-86764762D01*
X227607858Y-86812381D01*
X227512620Y-86812381D01*
X227369762Y-86764762D01*
X227274524Y-86669524D01*
X227226905Y-86574286D01*
X227179286Y-86383810D01*
X227179286Y-86240952D01*
X227226905Y-86050476D01*
X227274524Y-85955238D01*
X227369762Y-85860000D01*
X227512620Y-85812381D01*
X227607858Y-85812381D01*
X227750715Y-85860000D01*
X227798334Y-85907619D01*
X228369762Y-86240952D02*
X228274524Y-86193333D01*
X228226905Y-86145714D01*
X228179286Y-86050476D01*
X228179286Y-86002857D01*
X228226905Y-85907619D01*
X228274524Y-85860000D01*
X228369762Y-85812381D01*
X228560239Y-85812381D01*
X228655477Y-85860000D01*
X228703096Y-85907619D01*
X228750715Y-86002857D01*
X228750715Y-86050476D01*
X228703096Y-86145714D01*
X228655477Y-86193333D01*
X228560239Y-86240952D01*
X228369762Y-86240952D01*
X228274524Y-86288571D01*
X228226905Y-86336190D01*
X228179286Y-86431429D01*
X228179286Y-86621905D01*
X228226905Y-86717143D01*
X228274524Y-86764762D01*
X228369762Y-86812381D01*
X228560239Y-86812381D01*
X228655477Y-86764762D01*
X228703096Y-86717143D01*
X228750715Y-86621905D01*
X228750715Y-86431429D01*
X228703096Y-86336190D01*
X228655477Y-86288571D01*
X228560239Y-86240952D01*
X225623572Y-88717381D02*
X225052143Y-88717381D01*
X225337857Y-88717381D02*
X225337857Y-87717381D01*
X225242619Y-87860238D01*
X225147381Y-87955476D01*
X225052143Y-88003095D01*
X226242619Y-87717381D02*
X226337858Y-87717381D01*
X226433096Y-87765000D01*
X226480715Y-87812619D01*
X226528334Y-87907857D01*
X226575953Y-88098333D01*
X226575953Y-88336429D01*
X226528334Y-88526905D01*
X226480715Y-88622143D01*
X226433096Y-88669762D01*
X226337858Y-88717381D01*
X226242619Y-88717381D01*
X226147381Y-88669762D01*
X226099762Y-88622143D01*
X226052143Y-88526905D01*
X226004524Y-88336429D01*
X226004524Y-88098333D01*
X226052143Y-87907857D01*
X226099762Y-87812619D01*
X226147381Y-87765000D01*
X226242619Y-87717381D01*
X227433096Y-88050714D02*
X227433096Y-88717381D01*
X227004524Y-88050714D02*
X227004524Y-88574524D01*
X227052143Y-88669762D01*
X227147381Y-88717381D01*
X227290239Y-88717381D01*
X227385477Y-88669762D01*
X227433096Y-88622143D01*
X228242620Y-88193571D02*
X227909286Y-88193571D01*
X227909286Y-88717381D02*
X227909286Y-87717381D01*
X228385477Y-87717381D01*
X223416905Y-63952381D02*
X223416905Y-62952381D01*
X223797858Y-62952381D01*
X223893096Y-63000000D01*
X223940715Y-63047619D01*
X223988334Y-63142857D01*
X223988334Y-63285714D01*
X223940715Y-63380952D01*
X223893096Y-63428571D01*
X223797858Y-63476190D01*
X223416905Y-63476190D01*
X224464524Y-63952381D02*
X224655000Y-63952381D01*
X224750239Y-63904762D01*
X224797858Y-63857143D01*
X224893096Y-63714286D01*
X224940715Y-63523810D01*
X224940715Y-63142857D01*
X224893096Y-63047619D01*
X224845477Y-63000000D01*
X224750239Y-62952381D01*
X224559762Y-62952381D01*
X224464524Y-63000000D01*
X224416905Y-63047619D01*
X224369286Y-63142857D01*
X224369286Y-63380952D01*
X224416905Y-63476190D01*
X224464524Y-63523810D01*
X224559762Y-63571429D01*
X224750239Y-63571429D01*
X224845477Y-63523810D01*
X224893096Y-63476190D01*
X224940715Y-63380952D01*
X228267382Y-72112143D02*
X228219763Y-72159762D01*
X228076906Y-72207381D01*
X227981668Y-72207381D01*
X227838810Y-72159762D01*
X227743572Y-72064524D01*
X227695953Y-71969286D01*
X227648334Y-71778810D01*
X227648334Y-71635952D01*
X227695953Y-71445476D01*
X227743572Y-71350238D01*
X227838810Y-71255000D01*
X227981668Y-71207381D01*
X228076906Y-71207381D01*
X228219763Y-71255000D01*
X228267382Y-71302619D01*
X228886429Y-71207381D02*
X229076906Y-71207381D01*
X229172144Y-71255000D01*
X229267382Y-71350238D01*
X229315001Y-71540714D01*
X229315001Y-71874048D01*
X229267382Y-72064524D01*
X229172144Y-72159762D01*
X229076906Y-72207381D01*
X228886429Y-72207381D01*
X228791191Y-72159762D01*
X228695953Y-72064524D01*
X228648334Y-71874048D01*
X228648334Y-71540714D01*
X228695953Y-71350238D01*
X228791191Y-71255000D01*
X228886429Y-71207381D01*
X229743572Y-72207381D02*
X229743572Y-71207381D01*
X230315001Y-72207381D01*
X230315001Y-71207381D01*
X230791191Y-72207381D02*
X230791191Y-71207381D01*
X231362620Y-72207381D01*
X231362620Y-71207381D01*
X231838810Y-71826429D02*
X232600715Y-71826429D01*
X233553096Y-71207381D02*
X233076905Y-71207381D01*
X233029286Y-71683571D01*
X233076905Y-71635952D01*
X233172143Y-71588333D01*
X233410239Y-71588333D01*
X233505477Y-71635952D01*
X233553096Y-71683571D01*
X233600715Y-71778810D01*
X233600715Y-72016905D01*
X233553096Y-72112143D01*
X233505477Y-72159762D01*
X233410239Y-72207381D01*
X233172143Y-72207381D01*
X233076905Y-72159762D01*
X233029286Y-72112143D01*
X234029286Y-71207381D02*
X234029286Y-72016905D01*
X234076905Y-72112143D01*
X234124524Y-72159762D01*
X234219762Y-72207381D01*
X234410239Y-72207381D01*
X234505477Y-72159762D01*
X234553096Y-72112143D01*
X234600715Y-72016905D01*
X234600715Y-71207381D01*
X235076905Y-71826429D02*
X235838810Y-71826429D01*
X236315000Y-72207381D02*
X236315000Y-71207381D01*
X236695953Y-71207381D01*
X236791191Y-71255000D01*
X236838810Y-71302619D01*
X236886429Y-71397857D01*
X236886429Y-71540714D01*
X236838810Y-71635952D01*
X236791191Y-71683571D01*
X236695953Y-71731190D01*
X236315000Y-71731190D01*
X237505476Y-71207381D02*
X237695953Y-71207381D01*
X237791191Y-71255000D01*
X237886429Y-71350238D01*
X237934048Y-71540714D01*
X237934048Y-71874048D01*
X237886429Y-72064524D01*
X237791191Y-72159762D01*
X237695953Y-72207381D01*
X237505476Y-72207381D01*
X237410238Y-72159762D01*
X237315000Y-72064524D01*
X237267381Y-71874048D01*
X237267381Y-71540714D01*
X237315000Y-71350238D01*
X237410238Y-71255000D01*
X237505476Y-71207381D01*
X238267381Y-71207381D02*
X238505476Y-72207381D01*
X238695953Y-71493095D01*
X238886429Y-72207381D01*
X239124524Y-71207381D01*
X239505476Y-71683571D02*
X239838810Y-71683571D01*
X239981667Y-72207381D02*
X239505476Y-72207381D01*
X239505476Y-71207381D01*
X239981667Y-71207381D01*
X240981667Y-72207381D02*
X240648333Y-71731190D01*
X240410238Y-72207381D02*
X240410238Y-71207381D01*
X240791191Y-71207381D01*
X240886429Y-71255000D01*
X240934048Y-71302619D01*
X240981667Y-71397857D01*
X240981667Y-71540714D01*
X240934048Y-71635952D01*
X240886429Y-71683571D01*
X240791191Y-71731190D01*
X240410238Y-71731190D01*
X233680096Y-69604000D02*
X233584858Y-69556381D01*
X233442001Y-69556381D01*
X233299143Y-69604000D01*
X233203905Y-69699238D01*
X233156286Y-69794476D01*
X233108667Y-69984952D01*
X233108667Y-70127810D01*
X233156286Y-70318286D01*
X233203905Y-70413524D01*
X233299143Y-70508762D01*
X233442001Y-70556381D01*
X233537239Y-70556381D01*
X233680096Y-70508762D01*
X233727715Y-70461143D01*
X233727715Y-70127810D01*
X233537239Y-70127810D01*
X234156286Y-70556381D02*
X234156286Y-69556381D01*
X234727715Y-70556381D01*
X234727715Y-69556381D01*
X235203905Y-70556381D02*
X235203905Y-69556381D01*
X235442000Y-69556381D01*
X235584858Y-69604000D01*
X235680096Y-69699238D01*
X235727715Y-69794476D01*
X235775334Y-69984952D01*
X235775334Y-70127810D01*
X235727715Y-70318286D01*
X235680096Y-70413524D01*
X235584858Y-70508762D01*
X235442000Y-70556381D01*
X235203905Y-70556381D01*
X238950667Y-70175429D02*
X239712572Y-70175429D01*
X240712572Y-70556381D02*
X240141143Y-70556381D01*
X240426857Y-70556381D02*
X240426857Y-69556381D01*
X240331619Y-69699238D01*
X240236381Y-69794476D01*
X240141143Y-69842095D01*
X241617334Y-69556381D02*
X241141143Y-69556381D01*
X241093524Y-70032571D01*
X241141143Y-69984952D01*
X241236381Y-69937333D01*
X241474477Y-69937333D01*
X241569715Y-69984952D01*
X241617334Y-70032571D01*
X241664953Y-70127810D01*
X241664953Y-70365905D01*
X241617334Y-70461143D01*
X241569715Y-70508762D01*
X241474477Y-70556381D01*
X241236381Y-70556381D01*
X241141143Y-70508762D01*
X241093524Y-70461143D01*
X227012667Y-70048429D02*
X227774572Y-70048429D01*
X227393620Y-70429381D02*
X227393620Y-69667476D01*
X228774572Y-70429381D02*
X228203143Y-70429381D01*
X228488857Y-70429381D02*
X228488857Y-69429381D01*
X228393619Y-69572238D01*
X228298381Y-69667476D01*
X228203143Y-69715095D01*
X229679334Y-69429381D02*
X229203143Y-69429381D01*
X229155524Y-69905571D01*
X229203143Y-69857952D01*
X229298381Y-69810333D01*
X229536477Y-69810333D01*
X229631715Y-69857952D01*
X229679334Y-69905571D01*
X229726953Y-70000810D01*
X229726953Y-70238905D01*
X229679334Y-70334143D01*
X229631715Y-70381762D01*
X229536477Y-70429381D01*
X229298381Y-70429381D01*
X229203143Y-70381762D01*
X229155524Y-70334143D01*
X128103334Y-87987143D02*
X128055715Y-88034762D01*
X127912858Y-88082381D01*
X127817620Y-88082381D01*
X127674762Y-88034762D01*
X127579524Y-87939524D01*
X127531905Y-87844286D01*
X127484286Y-87653810D01*
X127484286Y-87510952D01*
X127531905Y-87320476D01*
X127579524Y-87225238D01*
X127674762Y-87130000D01*
X127817620Y-87082381D01*
X127912858Y-87082381D01*
X128055715Y-87130000D01*
X128103334Y-87177619D01*
X129055715Y-88082381D02*
X128484286Y-88082381D01*
X128770000Y-88082381D02*
X128770000Y-87082381D01*
X128674762Y-87225238D01*
X128579524Y-87320476D01*
X128484286Y-87368095D01*
X122817143Y-89717619D02*
X122864762Y-89670000D01*
X122960000Y-89622381D01*
X123198096Y-89622381D01*
X123293334Y-89670000D01*
X123340953Y-89717619D01*
X123388572Y-89812857D01*
X123388572Y-89908095D01*
X123340953Y-90050952D01*
X122769524Y-90622381D01*
X123388572Y-90622381D01*
X123721905Y-89622381D02*
X124388572Y-89622381D01*
X123960000Y-90622381D01*
X124769524Y-89955714D02*
X124769524Y-90955714D01*
X124769524Y-90003333D02*
X124864762Y-89955714D01*
X125055239Y-89955714D01*
X125150477Y-90003333D01*
X125198096Y-90050952D01*
X125245715Y-90146190D01*
X125245715Y-90431905D01*
X125198096Y-90527143D01*
X125150477Y-90574762D01*
X125055239Y-90622381D01*
X124864762Y-90622381D01*
X124769524Y-90574762D01*
X126007620Y-90098571D02*
X125674286Y-90098571D01*
X125674286Y-90622381D02*
X125674286Y-89622381D01*
X126150477Y-89622381D01*
X109053334Y-90527143D02*
X109005715Y-90574762D01*
X108862858Y-90622381D01*
X108767620Y-90622381D01*
X108624762Y-90574762D01*
X108529524Y-90479524D01*
X108481905Y-90384286D01*
X108434286Y-90193810D01*
X108434286Y-90050952D01*
X108481905Y-89860476D01*
X108529524Y-89765238D01*
X108624762Y-89670000D01*
X108767620Y-89622381D01*
X108862858Y-89622381D01*
X109005715Y-89670000D01*
X109053334Y-89717619D01*
X109434286Y-89717619D02*
X109481905Y-89670000D01*
X109577143Y-89622381D01*
X109815239Y-89622381D01*
X109910477Y-89670000D01*
X109958096Y-89717619D01*
X110005715Y-89812857D01*
X110005715Y-89908095D01*
X109958096Y-90050952D01*
X109386667Y-90622381D01*
X110005715Y-90622381D01*
X102497143Y-87177619D02*
X102544762Y-87130000D01*
X102640000Y-87082381D01*
X102878096Y-87082381D01*
X102973334Y-87130000D01*
X103020953Y-87177619D01*
X103068572Y-87272857D01*
X103068572Y-87368095D01*
X103020953Y-87510952D01*
X102449524Y-88082381D01*
X103068572Y-88082381D01*
X103401905Y-87082381D02*
X104068572Y-87082381D01*
X103640000Y-88082381D01*
X104449524Y-87415714D02*
X104449524Y-88415714D01*
X104449524Y-87463333D02*
X104544762Y-87415714D01*
X104735239Y-87415714D01*
X104830477Y-87463333D01*
X104878096Y-87510952D01*
X104925715Y-87606190D01*
X104925715Y-87891905D01*
X104878096Y-87987143D01*
X104830477Y-88034762D01*
X104735239Y-88082381D01*
X104544762Y-88082381D01*
X104449524Y-88034762D01*
X105687620Y-87558571D02*
X105354286Y-87558571D01*
X105354286Y-88082381D02*
X105354286Y-87082381D01*
X105830477Y-87082381D01*
X117633809Y-92051190D02*
X117633809Y-92527381D01*
X117300476Y-91527381D02*
X117633809Y-92051190D01*
X117967143Y-91527381D01*
X118824286Y-92527381D02*
X118252857Y-92527381D01*
X118538571Y-92527381D02*
X118538571Y-91527381D01*
X118443333Y-91670238D01*
X118348095Y-91765476D01*
X118252857Y-91813095D01*
X115149524Y-90622381D02*
X114578095Y-90622381D01*
X114863809Y-90622381D02*
X114863809Y-89622381D01*
X114768571Y-89765238D01*
X114673333Y-89860476D01*
X114578095Y-89908095D01*
X116006667Y-89622381D02*
X115816190Y-89622381D01*
X115720952Y-89670000D01*
X115673333Y-89717619D01*
X115578095Y-89860476D01*
X115530476Y-90050952D01*
X115530476Y-90431905D01*
X115578095Y-90527143D01*
X115625714Y-90574762D01*
X115720952Y-90622381D01*
X115911429Y-90622381D01*
X116006667Y-90574762D01*
X116054286Y-90527143D01*
X116101905Y-90431905D01*
X116101905Y-90193810D01*
X116054286Y-90098571D01*
X116006667Y-90050952D01*
X115911429Y-90003333D01*
X115720952Y-90003333D01*
X115625714Y-90050952D01*
X115578095Y-90098571D01*
X115530476Y-90193810D01*
X116530476Y-90622381D02*
X116530476Y-89622381D01*
X116863810Y-90336667D01*
X117197143Y-89622381D01*
X117197143Y-90622381D01*
X117673333Y-90622381D02*
X117673333Y-89622381D01*
X117673333Y-90098571D02*
X118244762Y-90098571D01*
X118244762Y-90622381D02*
X118244762Y-89622381D01*
X118625714Y-89955714D02*
X119149524Y-89955714D01*
X118625714Y-90622381D01*
X119149524Y-90622381D01*
X220853095Y-68032381D02*
X220853095Y-68841905D01*
X220900714Y-68937143D01*
X220948333Y-68984762D01*
X221043571Y-69032381D01*
X221234048Y-69032381D01*
X221329286Y-68984762D01*
X221376905Y-68937143D01*
X221424524Y-68841905D01*
X221424524Y-68032381D01*
X222376905Y-68032381D02*
X221900714Y-68032381D01*
X221853095Y-68508571D01*
X221900714Y-68460952D01*
X221995952Y-68413333D01*
X222234048Y-68413333D01*
X222329286Y-68460952D01*
X222376905Y-68508571D01*
X222424524Y-68603810D01*
X222424524Y-68841905D01*
X222376905Y-68937143D01*
X222329286Y-68984762D01*
X222234048Y-69032381D01*
X221995952Y-69032381D01*
X221900714Y-68984762D01*
X221853095Y-68937143D01*
X221353333Y-72612381D02*
X222020000Y-72612381D01*
X221591428Y-73612381D01*
X222543809Y-73040952D02*
X222448571Y-72993333D01*
X222400952Y-72945714D01*
X222353333Y-72850476D01*
X222353333Y-72802857D01*
X222400952Y-72707619D01*
X222448571Y-72660000D01*
X222543809Y-72612381D01*
X222734286Y-72612381D01*
X222829524Y-72660000D01*
X222877143Y-72707619D01*
X222924762Y-72802857D01*
X222924762Y-72850476D01*
X222877143Y-72945714D01*
X222829524Y-72993333D01*
X222734286Y-73040952D01*
X222543809Y-73040952D01*
X222448571Y-73088571D01*
X222400952Y-73136190D01*
X222353333Y-73231429D01*
X222353333Y-73421905D01*
X222400952Y-73517143D01*
X222448571Y-73564762D01*
X222543809Y-73612381D01*
X222734286Y-73612381D01*
X222829524Y-73564762D01*
X222877143Y-73517143D01*
X222924762Y-73421905D01*
X222924762Y-73231429D01*
X222877143Y-73136190D01*
X222829524Y-73088571D01*
X222734286Y-73040952D01*
X223829524Y-73612381D02*
X223353333Y-73612381D01*
X223353333Y-72612381D01*
X224353333Y-72612381D02*
X224448572Y-72612381D01*
X224543810Y-72660000D01*
X224591429Y-72707619D01*
X224639048Y-72802857D01*
X224686667Y-72993333D01*
X224686667Y-73231429D01*
X224639048Y-73421905D01*
X224591429Y-73517143D01*
X224543810Y-73564762D01*
X224448572Y-73612381D01*
X224353333Y-73612381D01*
X224258095Y-73564762D01*
X224210476Y-73517143D01*
X224162857Y-73421905D01*
X224115238Y-73231429D01*
X224115238Y-72993333D01*
X224162857Y-72802857D01*
X224210476Y-72707619D01*
X224258095Y-72660000D01*
X224353333Y-72612381D01*
X225591429Y-72612381D02*
X225115238Y-72612381D01*
X225067619Y-73088571D01*
X225115238Y-73040952D01*
X225210476Y-72993333D01*
X225448572Y-72993333D01*
X225543810Y-73040952D01*
X225591429Y-73088571D01*
X225639048Y-73183810D01*
X225639048Y-73421905D01*
X225591429Y-73517143D01*
X225543810Y-73564762D01*
X225448572Y-73612381D01*
X225210476Y-73612381D01*
X225115238Y-73564762D01*
X225067619Y-73517143D01*
X92098905Y-63571381D02*
X92098905Y-62571381D01*
X92479858Y-62571381D01*
X92575096Y-62619000D01*
X92622715Y-62666619D01*
X92670334Y-62761857D01*
X92670334Y-62904714D01*
X92622715Y-62999952D01*
X92575096Y-63047571D01*
X92479858Y-63095190D01*
X92098905Y-63095190D01*
X93003667Y-62571381D02*
X93670334Y-62571381D01*
X93241762Y-63571381D01*
X95313809Y-55062381D02*
X95313809Y-54062381D01*
X95694762Y-54062381D01*
X95790000Y-54110000D01*
X95837619Y-54157619D01*
X95885238Y-54252857D01*
X95885238Y-54395714D01*
X95837619Y-54490952D01*
X95790000Y-54538571D01*
X95694762Y-54586190D01*
X95313809Y-54586190D01*
X96504285Y-54062381D02*
X96694762Y-54062381D01*
X96790000Y-54110000D01*
X96885238Y-54205238D01*
X96932857Y-54395714D01*
X96932857Y-54729048D01*
X96885238Y-54919524D01*
X96790000Y-55014762D01*
X96694762Y-55062381D01*
X96504285Y-55062381D01*
X96409047Y-55014762D01*
X96313809Y-54919524D01*
X96266190Y-54729048D01*
X96266190Y-54395714D01*
X96313809Y-54205238D01*
X96409047Y-54110000D01*
X96504285Y-54062381D01*
X97932857Y-55062381D02*
X97599523Y-54586190D01*
X97361428Y-55062381D02*
X97361428Y-54062381D01*
X97742381Y-54062381D01*
X97837619Y-54110000D01*
X97885238Y-54157619D01*
X97932857Y-54252857D01*
X97932857Y-54395714D01*
X97885238Y-54490952D01*
X97837619Y-54538571D01*
X97742381Y-54586190D01*
X97361428Y-54586190D01*
X98218571Y-54062381D02*
X98790000Y-54062381D01*
X98504285Y-55062381D02*
X98504285Y-54062381D01*
X99837619Y-54776667D02*
X100313810Y-54776667D01*
X99742381Y-55062381D02*
X100075714Y-54062381D01*
X100409048Y-55062381D01*
X112164905Y-63190381D02*
X112164905Y-62190381D01*
X112545858Y-62190381D01*
X112641096Y-62238000D01*
X112688715Y-62285619D01*
X112736334Y-62380857D01*
X112736334Y-62523714D01*
X112688715Y-62618952D01*
X112641096Y-62666571D01*
X112545858Y-62714190D01*
X112164905Y-62714190D01*
X113593477Y-62190381D02*
X113403000Y-62190381D01*
X113307762Y-62238000D01*
X113260143Y-62285619D01*
X113164905Y-62428476D01*
X113117286Y-62618952D01*
X113117286Y-62999905D01*
X113164905Y-63095143D01*
X113212524Y-63142762D01*
X113307762Y-63190381D01*
X113498239Y-63190381D01*
X113593477Y-63142762D01*
X113641096Y-63095143D01*
X113688715Y-62999905D01*
X113688715Y-62761810D01*
X113641096Y-62666571D01*
X113593477Y-62618952D01*
X113498239Y-62571333D01*
X113307762Y-62571333D01*
X113212524Y-62618952D01*
X113164905Y-62666571D01*
X113117286Y-62761810D01*
X115562381Y-55062381D02*
X115562381Y-54062381D01*
X115943334Y-54062381D01*
X116038572Y-54110000D01*
X116086191Y-54157619D01*
X116133810Y-54252857D01*
X116133810Y-54395714D01*
X116086191Y-54490952D01*
X116038572Y-54538571D01*
X115943334Y-54586190D01*
X115562381Y-54586190D01*
X116752857Y-54062381D02*
X116943334Y-54062381D01*
X117038572Y-54110000D01*
X117133810Y-54205238D01*
X117181429Y-54395714D01*
X117181429Y-54729048D01*
X117133810Y-54919524D01*
X117038572Y-55014762D01*
X116943334Y-55062381D01*
X116752857Y-55062381D01*
X116657619Y-55014762D01*
X116562381Y-54919524D01*
X116514762Y-54729048D01*
X116514762Y-54395714D01*
X116562381Y-54205238D01*
X116657619Y-54110000D01*
X116752857Y-54062381D01*
X118181429Y-55062381D02*
X117848095Y-54586190D01*
X117610000Y-55062381D02*
X117610000Y-54062381D01*
X117990953Y-54062381D01*
X118086191Y-54110000D01*
X118133810Y-54157619D01*
X118181429Y-54252857D01*
X118181429Y-54395714D01*
X118133810Y-54490952D01*
X118086191Y-54538571D01*
X117990953Y-54586190D01*
X117610000Y-54586190D01*
X118467143Y-54062381D02*
X119038572Y-54062381D01*
X118752857Y-55062381D02*
X118752857Y-54062381D01*
X120467144Y-54538571D02*
X120610001Y-54586190D01*
X120657620Y-54633810D01*
X120705239Y-54729048D01*
X120705239Y-54871905D01*
X120657620Y-54967143D01*
X120610001Y-55014762D01*
X120514763Y-55062381D01*
X120133810Y-55062381D01*
X120133810Y-54062381D01*
X120467144Y-54062381D01*
X120562382Y-54110000D01*
X120610001Y-54157619D01*
X120657620Y-54252857D01*
X120657620Y-54348095D01*
X120610001Y-54443333D01*
X120562382Y-54490952D01*
X120467144Y-54538571D01*
X120133810Y-54538571D01*
X132611905Y-63571381D02*
X132611905Y-62571381D01*
X132992858Y-62571381D01*
X133088096Y-62619000D01*
X133135715Y-62666619D01*
X133183334Y-62761857D01*
X133183334Y-62904714D01*
X133135715Y-62999952D01*
X133088096Y-63047571D01*
X132992858Y-63095190D01*
X132611905Y-63095190D01*
X134088096Y-62571381D02*
X133611905Y-62571381D01*
X133564286Y-63047571D01*
X133611905Y-62999952D01*
X133707143Y-62952333D01*
X133945239Y-62952333D01*
X134040477Y-62999952D01*
X134088096Y-63047571D01*
X134135715Y-63142810D01*
X134135715Y-63380905D01*
X134088096Y-63476143D01*
X134040477Y-63523762D01*
X133945239Y-63571381D01*
X133707143Y-63571381D01*
X133611905Y-63523762D01*
X133564286Y-63476143D01*
X135882381Y-55062381D02*
X135882381Y-54062381D01*
X136263334Y-54062381D01*
X136358572Y-54110000D01*
X136406191Y-54157619D01*
X136453810Y-54252857D01*
X136453810Y-54395714D01*
X136406191Y-54490952D01*
X136358572Y-54538571D01*
X136263334Y-54586190D01*
X135882381Y-54586190D01*
X137072857Y-54062381D02*
X137263334Y-54062381D01*
X137358572Y-54110000D01*
X137453810Y-54205238D01*
X137501429Y-54395714D01*
X137501429Y-54729048D01*
X137453810Y-54919524D01*
X137358572Y-55014762D01*
X137263334Y-55062381D01*
X137072857Y-55062381D01*
X136977619Y-55014762D01*
X136882381Y-54919524D01*
X136834762Y-54729048D01*
X136834762Y-54395714D01*
X136882381Y-54205238D01*
X136977619Y-54110000D01*
X137072857Y-54062381D01*
X138501429Y-55062381D02*
X138168095Y-54586190D01*
X137930000Y-55062381D02*
X137930000Y-54062381D01*
X138310953Y-54062381D01*
X138406191Y-54110000D01*
X138453810Y-54157619D01*
X138501429Y-54252857D01*
X138501429Y-54395714D01*
X138453810Y-54490952D01*
X138406191Y-54538571D01*
X138310953Y-54586190D01*
X137930000Y-54586190D01*
X138787143Y-54062381D02*
X139358572Y-54062381D01*
X139072857Y-55062381D02*
X139072857Y-54062381D01*
X141025239Y-54967143D02*
X140977620Y-55014762D01*
X140834763Y-55062381D01*
X140739525Y-55062381D01*
X140596667Y-55014762D01*
X140501429Y-54919524D01*
X140453810Y-54824286D01*
X140406191Y-54633810D01*
X140406191Y-54490952D01*
X140453810Y-54300476D01*
X140501429Y-54205238D01*
X140596667Y-54110000D01*
X140739525Y-54062381D01*
X140834763Y-54062381D01*
X140977620Y-54110000D01*
X141025239Y-54157619D01*
X152423905Y-63444381D02*
X152423905Y-62444381D01*
X152804858Y-62444381D01*
X152900096Y-62492000D01*
X152947715Y-62539619D01*
X152995334Y-62634857D01*
X152995334Y-62777714D01*
X152947715Y-62872952D01*
X152900096Y-62920571D01*
X152804858Y-62968190D01*
X152423905Y-62968190D01*
X153328667Y-62444381D02*
X153947715Y-62444381D01*
X153614381Y-62825333D01*
X153757239Y-62825333D01*
X153852477Y-62872952D01*
X153900096Y-62920571D01*
X153947715Y-63015810D01*
X153947715Y-63253905D01*
X153900096Y-63349143D01*
X153852477Y-63396762D01*
X153757239Y-63444381D01*
X153471524Y-63444381D01*
X153376286Y-63396762D01*
X153328667Y-63349143D01*
X156202381Y-55062381D02*
X156202381Y-54062381D01*
X156583334Y-54062381D01*
X156678572Y-54110000D01*
X156726191Y-54157619D01*
X156773810Y-54252857D01*
X156773810Y-54395714D01*
X156726191Y-54490952D01*
X156678572Y-54538571D01*
X156583334Y-54586190D01*
X156202381Y-54586190D01*
X157392857Y-54062381D02*
X157583334Y-54062381D01*
X157678572Y-54110000D01*
X157773810Y-54205238D01*
X157821429Y-54395714D01*
X157821429Y-54729048D01*
X157773810Y-54919524D01*
X157678572Y-55014762D01*
X157583334Y-55062381D01*
X157392857Y-55062381D01*
X157297619Y-55014762D01*
X157202381Y-54919524D01*
X157154762Y-54729048D01*
X157154762Y-54395714D01*
X157202381Y-54205238D01*
X157297619Y-54110000D01*
X157392857Y-54062381D01*
X158821429Y-55062381D02*
X158488095Y-54586190D01*
X158250000Y-55062381D02*
X158250000Y-54062381D01*
X158630953Y-54062381D01*
X158726191Y-54110000D01*
X158773810Y-54157619D01*
X158821429Y-54252857D01*
X158821429Y-54395714D01*
X158773810Y-54490952D01*
X158726191Y-54538571D01*
X158630953Y-54586190D01*
X158250000Y-54586190D01*
X159107143Y-54062381D02*
X159678572Y-54062381D01*
X159392857Y-55062381D02*
X159392857Y-54062381D01*
X160773810Y-55062381D02*
X160773810Y-54062381D01*
X161011905Y-54062381D01*
X161154763Y-54110000D01*
X161250001Y-54205238D01*
X161297620Y-54300476D01*
X161345239Y-54490952D01*
X161345239Y-54633810D01*
X161297620Y-54824286D01*
X161250001Y-54919524D01*
X161154763Y-55014762D01*
X161011905Y-55062381D01*
X160773810Y-55062381D01*
X82065905Y-80462381D02*
X82065905Y-79462381D01*
X82446858Y-79462381D01*
X82542096Y-79510000D01*
X82589715Y-79557619D01*
X82637334Y-79652857D01*
X82637334Y-79795714D01*
X82589715Y-79890952D01*
X82542096Y-79938571D01*
X82446858Y-79986190D01*
X82065905Y-79986190D01*
X83494477Y-79795714D02*
X83494477Y-80462381D01*
X83256381Y-79414762D02*
X83018286Y-80129048D01*
X83637334Y-80129048D01*
X74382381Y-76096666D02*
X75096667Y-76096666D01*
X75239524Y-76144286D01*
X75334762Y-76239524D01*
X75382381Y-76382381D01*
X75382381Y-76477619D01*
X74382381Y-75763333D02*
X74382381Y-75191904D01*
X75382381Y-75477619D02*
X74382381Y-75477619D01*
X75096667Y-74906190D02*
X75096667Y-74429999D01*
X75382381Y-75001428D02*
X74382381Y-74668095D01*
X75382381Y-74334761D01*
X74430000Y-73477618D02*
X74382381Y-73572856D01*
X74382381Y-73715713D01*
X74430000Y-73858571D01*
X74525238Y-73953809D01*
X74620476Y-74001428D01*
X74810952Y-74049047D01*
X74953810Y-74049047D01*
X75144286Y-74001428D01*
X75239524Y-73953809D01*
X75334762Y-73858571D01*
X75382381Y-73715713D01*
X75382381Y-73620475D01*
X75334762Y-73477618D01*
X75287143Y-73429999D01*
X74953810Y-73429999D01*
X74953810Y-73620475D01*
M02*
