G04 #@! TF.FileFunction,Copper,L2,Bot,Signal*
%FSLAX46Y46*%
G04 Gerber Fmt 4.6, Leading zero omitted, Abs format (unit mm)*
G04 Created by KiCad (PCBNEW (2016-03-22 BZR 6643, Git db8c72c)-product) date 3/23/2016 7:30:48 PM*
%MOMM*%
G01*
G04 APERTURE LIST*
%ADD10C,0.100000*%
%ADD11O,2.540000X2.032000*%
%ADD12C,2.540000*%
%ADD13C,1.574800*%
%ADD14R,1.574800X1.574800*%
%ADD15C,3.810000*%
%ADD16C,3.048000*%
%ADD17R,1.300000X1.300000*%
%ADD18C,1.300000*%
%ADD19C,3.175000*%
%ADD20C,1.397000*%
%ADD21C,1.270000*%
%ADD22C,0.304800*%
G04 APERTURE END LIST*
D10*
D11*
X190500000Y-115570000D03*
X180340000Y-115570000D03*
X185420000Y-115570000D03*
X182880000Y-115570000D03*
X187960000Y-115570000D03*
D12*
X185420000Y-105410000D03*
X177800000Y-105410000D03*
X193040000Y-105410000D03*
X180340000Y-102870000D03*
X190500000Y-102870000D03*
D11*
X215900000Y-115570000D03*
X205740000Y-115570000D03*
X210820000Y-115570000D03*
X208280000Y-115570000D03*
X213360000Y-115570000D03*
D12*
X210820000Y-105410000D03*
X203200000Y-105410000D03*
X218440000Y-105410000D03*
X205740000Y-102870000D03*
X215900000Y-102870000D03*
D11*
X165100000Y-115570000D03*
X154940000Y-115570000D03*
X160020000Y-115570000D03*
X157480000Y-115570000D03*
X162560000Y-115570000D03*
D12*
X160020000Y-105410000D03*
X152400000Y-105410000D03*
X167640000Y-105410000D03*
X154940000Y-102870000D03*
X165100000Y-102870000D03*
D13*
X241300000Y-88900000D03*
X231140000Y-88900000D03*
X193040000Y-88900000D03*
X182880000Y-88900000D03*
X215900000Y-88900000D03*
X205740000Y-88900000D03*
X182880000Y-60960000D03*
X193040000Y-60960000D03*
X205740000Y-60960000D03*
X215900000Y-60960000D03*
X165100000Y-86360000D03*
X154940000Y-86360000D03*
X154940000Y-96520000D03*
X165100000Y-96520000D03*
X165100000Y-91440000D03*
X154940000Y-91440000D03*
X87630000Y-68580000D03*
D14*
X87630000Y-83820000D03*
D13*
X90170000Y-68580000D03*
X90170000Y-83820000D03*
X92710000Y-68580000D03*
X92710000Y-83820000D03*
X95250000Y-68580000D03*
X95250000Y-83820000D03*
X97790000Y-68580000D03*
X97790000Y-83820000D03*
X100330000Y-68580000D03*
X100330000Y-83820000D03*
X102870000Y-68580000D03*
X102870000Y-83820000D03*
X105410000Y-68580000D03*
X105410000Y-83820000D03*
X107950000Y-68580000D03*
X107950000Y-83820000D03*
X110490000Y-68580000D03*
X110490000Y-83820000D03*
X113030000Y-68580000D03*
X113030000Y-83820000D03*
X115570000Y-68580000D03*
X115570000Y-83820000D03*
X118110000Y-68580000D03*
X118110000Y-83820000D03*
X120650000Y-68580000D03*
X120650000Y-83820000D03*
X123190000Y-68580000D03*
X123190000Y-83820000D03*
X125730000Y-68580000D03*
X125730000Y-83820000D03*
X128270000Y-68580000D03*
X128270000Y-83820000D03*
X130810000Y-68580000D03*
X130810000Y-83820000D03*
X133350000Y-68580000D03*
X133350000Y-83820000D03*
X135890000Y-68580000D03*
X135890000Y-83820000D03*
X185420000Y-67310000D03*
D14*
X185420000Y-74930000D03*
D13*
X187960000Y-67310000D03*
X187960000Y-74930000D03*
X190500000Y-67310000D03*
X190500000Y-74930000D03*
X208280000Y-67310000D03*
D14*
X208280000Y-74930000D03*
D13*
X210820000Y-67310000D03*
X210820000Y-74930000D03*
X213360000Y-67310000D03*
X213360000Y-74930000D03*
X152400000Y-67310000D03*
D14*
X152400000Y-74930000D03*
D13*
X154940000Y-67310000D03*
X154940000Y-74930000D03*
X157480000Y-67310000D03*
X157480000Y-74930000D03*
X160020000Y-67310000D03*
X160020000Y-74930000D03*
X162560000Y-67310000D03*
X162560000Y-74930000D03*
X165100000Y-67310000D03*
X165100000Y-74930000D03*
X167640000Y-67310000D03*
X167640000Y-74930000D03*
X182880000Y-83820000D03*
X193040000Y-83820000D03*
X231140000Y-78740000D03*
X241300000Y-78740000D03*
X231140000Y-83820000D03*
X241300000Y-83820000D03*
X205740000Y-83820000D03*
X215900000Y-83820000D03*
D15*
X236220000Y-111201200D03*
D16*
X240030000Y-108661200D03*
D15*
X240030000Y-103581200D03*
X242570000Y-98501200D03*
D16*
X236220000Y-95961200D03*
X232410000Y-108661200D03*
D15*
X109220000Y-111201200D03*
D16*
X113030000Y-108661200D03*
D15*
X113030000Y-103581200D03*
X115570000Y-98501200D03*
D16*
X109220000Y-95961200D03*
X105410000Y-108661200D03*
D15*
X134620000Y-111201200D03*
D16*
X138430000Y-108661200D03*
D15*
X138430000Y-103581200D03*
X140970000Y-98501200D03*
D16*
X134620000Y-95961200D03*
X130810000Y-108661200D03*
D15*
X83820000Y-111201200D03*
D16*
X87630000Y-108661200D03*
D15*
X87630000Y-103581200D03*
X90170000Y-98501200D03*
D16*
X83820000Y-95961200D03*
X80010000Y-108661200D03*
D13*
X218440000Y-67310000D03*
X218440000Y-74930000D03*
X200660000Y-67310000D03*
X200660000Y-74930000D03*
X179070000Y-67310000D03*
X179070000Y-74930000D03*
X146050000Y-67310000D03*
X146050000Y-74930000D03*
X105410000Y-64770000D03*
X113030000Y-64770000D03*
D17*
X223520000Y-78740000D03*
D18*
X223520000Y-83740000D03*
D19*
X229006400Y-67310000D03*
X232968800Y-67310000D03*
X236931200Y-67310000D03*
X240893600Y-67310000D03*
D13*
X123190000Y-87630000D03*
X125730000Y-87630000D03*
X110490000Y-87630000D03*
X107950000Y-87630000D03*
X119380000Y-87630000D03*
X114300000Y-87630000D03*
D20*
X222250000Y-71120000D03*
X223520000Y-69850000D03*
X224790000Y-71120000D03*
D14*
X92710000Y-59690000D03*
D13*
X92710000Y-57150000D03*
X95250000Y-59690000D03*
X95250000Y-57150000D03*
X97790000Y-59690000D03*
X97790000Y-57150000D03*
X100330000Y-59690000D03*
X100330000Y-57150000D03*
X102870000Y-59690000D03*
X102870000Y-57150000D03*
D14*
X113030000Y-59690000D03*
D13*
X113030000Y-57150000D03*
X115570000Y-59690000D03*
X115570000Y-57150000D03*
X118110000Y-59690000D03*
X118110000Y-57150000D03*
X120650000Y-59690000D03*
X120650000Y-57150000D03*
X123190000Y-59690000D03*
X123190000Y-57150000D03*
D14*
X133350000Y-59690000D03*
D13*
X133350000Y-57150000D03*
X135890000Y-59690000D03*
X135890000Y-57150000D03*
X138430000Y-59690000D03*
X138430000Y-57150000D03*
X140970000Y-59690000D03*
X140970000Y-57150000D03*
X143510000Y-59690000D03*
X143510000Y-57150000D03*
D14*
X153670000Y-59690000D03*
D13*
X153670000Y-57150000D03*
X156210000Y-59690000D03*
X156210000Y-57150000D03*
X158750000Y-59690000D03*
X158750000Y-57150000D03*
X161290000Y-59690000D03*
X161290000Y-57150000D03*
X163830000Y-59690000D03*
X163830000Y-57150000D03*
D14*
X80010000Y-80010000D03*
D13*
X77470000Y-80010000D03*
X80010000Y-77470000D03*
X77470000Y-77470000D03*
X80010000Y-74930000D03*
X77470000Y-74930000D03*
X80010000Y-72390000D03*
X77470000Y-72390000D03*
X80010000Y-69850000D03*
X77470000Y-69850000D03*
X90170000Y-91440000D03*
X160020000Y-81280000D03*
X163322000Y-85216998D03*
X158166700Y-81221844D03*
X165280470Y-83725011D03*
X165100000Y-64770000D03*
X125730000Y-78740000D03*
X120691126Y-76241126D03*
X106680000Y-77470000D03*
X140970000Y-66040000D03*
X138430000Y-66040000D03*
X99060000Y-78740000D03*
X115570000Y-77470000D03*
X102870000Y-76200000D03*
X119380000Y-74930000D03*
X105410000Y-72390000D03*
X121920000Y-73660000D03*
X194945000Y-86360000D03*
X218440000Y-90805000D03*
X123190000Y-76835000D03*
D21*
X123190000Y-61595000D02*
X110490000Y-61595000D01*
X110490000Y-61595000D02*
X102870000Y-61595000D01*
X110490000Y-68580000D02*
X110490000Y-61595000D01*
X163830000Y-61595000D02*
X143510000Y-61595000D01*
X163830000Y-59690000D02*
X163830000Y-61595000D01*
X143510000Y-61595000D02*
X123190000Y-61595000D01*
X143510000Y-59690000D02*
X143510000Y-61595000D01*
X123190000Y-59690000D02*
X123190000Y-61595000D01*
X77470000Y-69850000D02*
X74930000Y-69850000D01*
X74930000Y-69850000D02*
X74930000Y-63500000D01*
X74930000Y-63500000D02*
X76835000Y-61595000D01*
X102870000Y-61595000D02*
X102870000Y-59690000D01*
X76835000Y-61595000D02*
X102870000Y-61595000D01*
X223520000Y-69850000D02*
X223520000Y-66040000D01*
X223520000Y-66040000D02*
X226060000Y-63500000D01*
X232968800Y-64058800D02*
X232968800Y-67310000D01*
X226060000Y-63500000D02*
X232410000Y-63500000D01*
X232410000Y-63500000D02*
X232968800Y-64058800D01*
X219075000Y-112395000D02*
X215900000Y-112395000D01*
X215900000Y-112395000D02*
X213360000Y-112395000D01*
X215900000Y-115570000D02*
X215900000Y-112395000D01*
X213360000Y-112395000D02*
X210820000Y-112395000D01*
X213360000Y-115570000D02*
X213360000Y-112395000D01*
X210820000Y-112395000D02*
X208280000Y-112395000D01*
X210820000Y-115570000D02*
X210820000Y-112395000D01*
X208280000Y-112395000D02*
X205740000Y-112395000D01*
X208280000Y-115570000D02*
X208280000Y-112395000D01*
X205740000Y-112395000D02*
X190500000Y-112395000D01*
X205740000Y-115570000D02*
X205740000Y-113284000D01*
X205740000Y-113284000D02*
X205740000Y-112395000D01*
X190500000Y-112395000D02*
X187960000Y-112395000D01*
X190500000Y-115570000D02*
X190500000Y-112395000D01*
X187960000Y-112395000D02*
X185420000Y-112395000D01*
X187960000Y-115570000D02*
X187960000Y-112395000D01*
X185420000Y-112395000D02*
X182880000Y-112395000D01*
X185420000Y-115570000D02*
X185420000Y-112395000D01*
X182880000Y-112395000D02*
X180340000Y-112395000D01*
X182880000Y-115570000D02*
X182880000Y-112395000D01*
X180340000Y-112395000D02*
X165100000Y-112395000D01*
X180340000Y-115570000D02*
X180340000Y-113284000D01*
X180340000Y-113284000D02*
X180340000Y-112395000D01*
X165100000Y-112395000D02*
X162560000Y-112395000D01*
X165100000Y-115570000D02*
X165100000Y-112395000D01*
X162560000Y-112395000D02*
X160020000Y-112395000D01*
X162560000Y-115570000D02*
X162560000Y-112395000D01*
X160020000Y-115570000D02*
X160020000Y-113284000D01*
X160020000Y-113284000D02*
X160020000Y-112395000D01*
X154940000Y-112395000D02*
X157480000Y-112395000D01*
X157480000Y-112395000D02*
X160020000Y-112395000D01*
X157480000Y-115570000D02*
X157480000Y-112395000D01*
X149860000Y-112395000D02*
X154940000Y-112395000D01*
X154940000Y-115570000D02*
X154940000Y-112395000D01*
X146050000Y-74930000D02*
X147955000Y-74930000D01*
X167640000Y-73025000D02*
X167640000Y-74930000D01*
X149860000Y-73025000D02*
X167640000Y-73025000D01*
X147955000Y-74930000D02*
X149860000Y-73025000D01*
X113030000Y-83820000D02*
X113030000Y-85725000D01*
X112395000Y-86360000D02*
X112395000Y-90170000D01*
X113030000Y-85725000D02*
X112395000Y-86360000D01*
X107950000Y-87630000D02*
X107950000Y-89535000D01*
X107950000Y-89535000D02*
X108585000Y-90170000D01*
X108585000Y-90170000D02*
X112395000Y-90170000D01*
X125730000Y-90170000D02*
X125730000Y-87630000D01*
X112395000Y-90170000D02*
X125730000Y-90170000D01*
X179070000Y-74930000D02*
X167640000Y-74930000D01*
X179070000Y-74930000D02*
X180975000Y-74930000D01*
X180975000Y-74930000D02*
X187960000Y-67945000D01*
X187960000Y-67945000D02*
X187960000Y-67310000D01*
X200660000Y-74930000D02*
X194945000Y-74930000D01*
X194945000Y-74930000D02*
X187960000Y-67945000D01*
X187960000Y-67945000D02*
X187960000Y-67310000D01*
X200660000Y-74930000D02*
X204470000Y-74930000D01*
X210820000Y-68580000D02*
X210820000Y-67310000D01*
X204470000Y-74930000D02*
X210820000Y-68580000D01*
X218440000Y-74930000D02*
X217805000Y-74930000D01*
X217805000Y-74930000D02*
X210820000Y-67945000D01*
X210820000Y-67945000D02*
X210820000Y-67310000D01*
X241300000Y-83820000D02*
X236855000Y-83820000D01*
X226695000Y-83820000D02*
X223600000Y-83820000D01*
X229235000Y-86360000D02*
X226695000Y-83820000D01*
X234315000Y-86360000D02*
X229235000Y-86360000D01*
X236855000Y-83820000D02*
X234315000Y-86360000D01*
X223600000Y-83820000D02*
X223520000Y-83740000D01*
X236220000Y-111201200D02*
X236220000Y-114935000D01*
X160020000Y-112395000D02*
X160020000Y-112395000D01*
X221615000Y-114935000D02*
X219075000Y-112395000D01*
X236220000Y-114935000D02*
X221615000Y-114935000D01*
X134620000Y-111201200D02*
X134620000Y-115570000D01*
X134620000Y-115570000D02*
X146685000Y-115570000D01*
X160020000Y-112395000D02*
X160020000Y-105410000D01*
X146685000Y-115570000D02*
X149860000Y-112395000D01*
X109220000Y-111201200D02*
X109220000Y-115570000D01*
X83820000Y-111201200D02*
X83820000Y-114935000D01*
X84455000Y-115570000D02*
X109220000Y-115570000D01*
X109220000Y-115570000D02*
X134620000Y-115570000D01*
X83820000Y-114935000D02*
X84455000Y-115570000D01*
X236931200Y-67310000D02*
X232968800Y-67310000D01*
X232968800Y-67310000D02*
X232410000Y-67868800D01*
D22*
X115570000Y-98501200D02*
X97231200Y-98501200D01*
X97231200Y-98501200D02*
X90170000Y-91440000D01*
X140970000Y-98501200D02*
X123901200Y-98501200D01*
X87630000Y-88900000D02*
X87630000Y-83820000D01*
X88265000Y-89535000D02*
X87630000Y-88900000D01*
X95885000Y-89535000D02*
X88265000Y-89535000D01*
X99695000Y-93345000D02*
X95885000Y-89535000D01*
X118745000Y-93345000D02*
X99695000Y-93345000D01*
X123901200Y-98501200D02*
X118745000Y-93345000D01*
X158742643Y-80002643D02*
X159232601Y-80492601D01*
X128270000Y-83820000D02*
X131394210Y-80695790D01*
X131394210Y-80695790D02*
X156888336Y-80695790D01*
X157581483Y-80002643D02*
X158742643Y-80002643D01*
X156888336Y-80695790D02*
X157581483Y-80002643D01*
X159232601Y-80492601D02*
X160020000Y-81280000D01*
X162208449Y-85216998D02*
X163322000Y-85216998D01*
X130810000Y-83820000D02*
X132080000Y-85090000D01*
X162081451Y-85090000D02*
X162208449Y-85216998D01*
X132080000Y-85090000D02*
X162081451Y-85090000D01*
X133350000Y-83820000D02*
X135890000Y-81280000D01*
X135890000Y-81280000D02*
X158108544Y-81280000D01*
X158108544Y-81280000D02*
X158166700Y-81221844D01*
X136677399Y-83032601D02*
X164588060Y-83032601D01*
X164588060Y-83032601D02*
X165280470Y-83725011D01*
X135890000Y-83820000D02*
X136677399Y-83032601D01*
X135890000Y-68580000D02*
X163094418Y-68580000D01*
X163094418Y-68580000D02*
X163779201Y-67895217D01*
X163779201Y-67895217D02*
X163779201Y-66090799D01*
X163779201Y-66090799D02*
X165100000Y-64770000D01*
D21*
X163830000Y-57150000D02*
X168910000Y-57150000D01*
X168910000Y-57150000D02*
X179070000Y-67310000D01*
X77470000Y-77470000D02*
X72390000Y-77470000D01*
X72390000Y-77470000D02*
X72390000Y-55880000D01*
X72390000Y-55880000D02*
X73660000Y-54610000D01*
X73660000Y-54610000D02*
X102870000Y-54610000D01*
X102870000Y-54610000D02*
X123190000Y-54610000D01*
X102870000Y-57150000D02*
X102870000Y-54610000D01*
X123190000Y-54610000D02*
X143510000Y-54610000D01*
X123190000Y-57150000D02*
X123190000Y-54610000D01*
X163830000Y-57150000D02*
X163830000Y-54610000D01*
X163830000Y-54610000D02*
X143510000Y-54610000D01*
X143510000Y-54610000D02*
X143510000Y-57150000D01*
X182880000Y-57785000D02*
X183515000Y-57150000D01*
X183515000Y-57150000D02*
X204470000Y-57150000D01*
X204470000Y-57150000D02*
X205740000Y-58420000D01*
X218440000Y-67310000D02*
X222250000Y-71120000D01*
X231140000Y-78740000D02*
X236220000Y-78740000D01*
X219075000Y-61595000D02*
X215900000Y-64770000D01*
X245110000Y-61595000D02*
X219075000Y-61595000D01*
X245745000Y-62230000D02*
X245110000Y-61595000D01*
X245745000Y-72390000D02*
X245745000Y-62230000D01*
X243840000Y-74295000D02*
X245745000Y-72390000D01*
X240665000Y-74295000D02*
X243840000Y-74295000D01*
X236220000Y-78740000D02*
X240665000Y-74295000D01*
X146050000Y-67310000D02*
X152400000Y-67310000D01*
X107950000Y-68580000D02*
X107950000Y-66040000D01*
X106680000Y-64770000D02*
X105410000Y-64770000D01*
X107950000Y-66040000D02*
X106680000Y-64770000D01*
X185420000Y-67310000D02*
X185420000Y-65405000D01*
X196850000Y-67310000D02*
X200660000Y-67310000D01*
X194310000Y-64770000D02*
X196850000Y-67310000D01*
X186055000Y-64770000D02*
X194310000Y-64770000D01*
X185420000Y-65405000D02*
X186055000Y-64770000D01*
X218440000Y-67310000D02*
X215900000Y-64770000D01*
X208280000Y-64770000D02*
X208280000Y-67310000D01*
X215900000Y-64770000D02*
X208280000Y-64770000D01*
X185420000Y-67310000D02*
X179070000Y-67310000D01*
X208280000Y-67310000D02*
X200660000Y-67310000D01*
X182880000Y-60960000D02*
X182880000Y-57785000D01*
X205740000Y-58420000D02*
X205740000Y-60325000D01*
X205740000Y-60325000D02*
X205740000Y-60960000D01*
X107950000Y-68580000D02*
X107950000Y-71120000D01*
X113030000Y-71120000D02*
X113030000Y-68580000D01*
X107950000Y-71120000D02*
X113030000Y-71120000D01*
D22*
X124942601Y-79527399D02*
X125730000Y-78740000D01*
X123926587Y-80543413D02*
X124942601Y-79527399D01*
X81635613Y-80543413D02*
X123926587Y-80543413D01*
X81102200Y-80010000D02*
X81635613Y-80543413D01*
X80010000Y-80010000D02*
X81102200Y-80010000D01*
X119903727Y-77028525D02*
X120691126Y-76241126D01*
X116973050Y-79959202D02*
X119903727Y-77028525D01*
X82499202Y-79959202D02*
X116973050Y-79959202D01*
X80010000Y-77470000D02*
X82499202Y-79959202D01*
X125730000Y-71120000D02*
X125730000Y-68580000D01*
X124460000Y-72390000D02*
X125730000Y-71120000D01*
X107675382Y-72390000D02*
X124460000Y-72390000D01*
X80010000Y-74930000D02*
X78790799Y-76149201D01*
X78790799Y-76149201D02*
X76884783Y-76149201D01*
X76884783Y-76149201D02*
X76250799Y-75515217D01*
X76250799Y-75515217D02*
X76250799Y-71804783D01*
X76250799Y-71804783D02*
X76884783Y-71170799D01*
X76884783Y-71170799D02*
X106456181Y-71170799D01*
X106456181Y-71170799D02*
X107675382Y-72390000D01*
X78257399Y-74142601D02*
X77470000Y-74930000D01*
X98576379Y-73710799D02*
X78689201Y-73710799D01*
X78689201Y-73710799D02*
X78257399Y-74142601D01*
X102335580Y-77470000D02*
X98576379Y-73710799D01*
X106680000Y-77470000D02*
X102335580Y-77470000D01*
X109245399Y-69177409D02*
X109917990Y-69850000D01*
X106705399Y-67907409D02*
X104165399Y-65367409D01*
X104812591Y-63525399D02*
X106980017Y-63525399D01*
X113627409Y-67335399D02*
X114350799Y-68058789D01*
X80010000Y-69850000D02*
X105961579Y-69850000D01*
X114350799Y-69165217D02*
X115568994Y-70383412D01*
X105961579Y-69850000D02*
X106705399Y-69106180D01*
X106705399Y-69106180D02*
X106705399Y-67907409D01*
X111112808Y-69850000D02*
X111785399Y-69177409D01*
X104165399Y-64172591D02*
X104812591Y-63525399D01*
X111785399Y-69177409D02*
X111785399Y-67982591D01*
X111785399Y-67982591D02*
X112432591Y-67335399D01*
X112432591Y-67335399D02*
X113627409Y-67335399D01*
X106980017Y-63525399D02*
X109245399Y-65790781D01*
X114350799Y-68058789D02*
X114350799Y-69165217D01*
X109245399Y-65790781D02*
X109245399Y-69177409D01*
X115568994Y-70383412D02*
X119960139Y-70383412D01*
X119960139Y-70383412D02*
X120650000Y-69693551D01*
X120650000Y-69693551D02*
X120650000Y-68580000D01*
X104165399Y-65367409D02*
X104165399Y-64172591D01*
X109917990Y-69850000D02*
X111112808Y-69850000D01*
X140182601Y-65252601D02*
X140970000Y-66040000D01*
X120755651Y-64820798D02*
X139750798Y-64820798D01*
X118110000Y-68580000D02*
X118110000Y-67466449D01*
X139750798Y-64820798D02*
X140182601Y-65252601D01*
X118110000Y-67466449D02*
X120755651Y-64820798D01*
X118695217Y-69799201D02*
X119430799Y-69063619D01*
X121385582Y-66040000D02*
X138430000Y-66040000D01*
X119430799Y-67994783D02*
X121385582Y-66040000D01*
X119430799Y-69063619D02*
X119430799Y-67994783D01*
X115570000Y-68580000D02*
X116789201Y-69799201D01*
X116789201Y-69799201D02*
X118695217Y-69799201D01*
X114249218Y-78790781D02*
X99110781Y-78790781D01*
X99110781Y-78790781D02*
X99060000Y-78740000D01*
X115570000Y-77470000D02*
X114249218Y-78790781D01*
X104140000Y-74930000D02*
X102870000Y-76200000D01*
X119380000Y-74930000D02*
X104140000Y-74930000D01*
X121920000Y-73660000D02*
X106680000Y-73660000D01*
X106680000Y-73660000D02*
X105410000Y-72390000D01*
X165100000Y-96520000D02*
X158750000Y-102870000D01*
X158750000Y-102870000D02*
X154940000Y-102870000D01*
X97790000Y-85725000D02*
X94615000Y-85725000D01*
X94615000Y-85725000D02*
X93497399Y-84607399D01*
X159519048Y-79418432D02*
X157339495Y-79418432D01*
X100330000Y-81915000D02*
X99060000Y-83185000D01*
X231140000Y-83820000D02*
X227330000Y-80010000D01*
X227330000Y-80010000D02*
X160110616Y-80010000D01*
X126365000Y-81280000D02*
X121285000Y-81280000D01*
X93497399Y-84607399D02*
X92710000Y-83820000D01*
X99060000Y-84455000D02*
X97790000Y-85725000D01*
X99060000Y-83185000D02*
X99060000Y-84455000D01*
X116205000Y-82550000D02*
X115570000Y-81915000D01*
X120015000Y-82550000D02*
X116205000Y-82550000D01*
X115570000Y-81915000D02*
X100330000Y-81915000D01*
X127635000Y-80010000D02*
X126365000Y-81280000D01*
X157339495Y-79418432D02*
X156747928Y-80010000D01*
X156747928Y-80010000D02*
X127635000Y-80010000D01*
X121285000Y-81280000D02*
X120015000Y-82550000D01*
X160110616Y-80010000D02*
X159519048Y-79418432D01*
X241300000Y-78740000D02*
X238760000Y-78740000D01*
X233680000Y-83820000D02*
X231140000Y-83820000D01*
X238760000Y-78740000D02*
X233680000Y-83820000D01*
X125730000Y-83820000D02*
X127635000Y-85725000D01*
X193831449Y-86360000D02*
X194945000Y-86360000D01*
X127635000Y-85725000D02*
X128522604Y-85725000D01*
X128522604Y-85725000D02*
X130427604Y-87630000D01*
X130427604Y-87630000D02*
X155236408Y-87630000D01*
X155236408Y-87630000D02*
X155617408Y-88011000D01*
X155617408Y-88011000D02*
X165807116Y-88011000D01*
X165807116Y-88011000D02*
X167458116Y-86360000D01*
X167458116Y-86360000D02*
X193831449Y-86360000D01*
X120650000Y-83820000D02*
X123190000Y-86360000D01*
X128331406Y-86360000D02*
X130871406Y-88900000D01*
X180975000Y-90805000D02*
X217326449Y-90805000D01*
X123190000Y-86360000D02*
X128331406Y-86360000D01*
X130871406Y-88900000D02*
X179070000Y-88900000D01*
X179070000Y-88900000D02*
X180975000Y-90805000D01*
X217326449Y-90805000D02*
X218440000Y-90805000D01*
X154940000Y-74930000D02*
X157480000Y-74930000D01*
X115570000Y-83820000D02*
X115570000Y-86360000D01*
X115570000Y-86360000D02*
X114300000Y-87630000D01*
X118110000Y-83820000D02*
X118110000Y-86360000D01*
X118110000Y-86360000D02*
X119380000Y-87630000D01*
X123190000Y-87630000D02*
X119380000Y-87630000D01*
X152400000Y-74930000D02*
X150495000Y-74930000D01*
X148590000Y-76835000D02*
X123190000Y-76835000D01*
X150495000Y-74930000D02*
X148590000Y-76835000D01*
D21*
X224790000Y-75550000D02*
X224790000Y-71120000D01*
X224790000Y-71120000D02*
X227330000Y-71120000D01*
X227330000Y-71120000D02*
X229235000Y-69215000D01*
X229235000Y-69215000D02*
X229006400Y-68986400D01*
X223520000Y-78740000D02*
X223520000Y-76820000D01*
X223520000Y-76820000D02*
X224790000Y-75550000D01*
X229006400Y-68986400D02*
X229006400Y-67310000D01*
M02*
