G04 #@! TF.FileFunction,Soldermask,Bot*
%FSLAX46Y46*%
G04 Gerber Fmt 4.6, Leading zero omitted, Abs format (unit mm)*
G04 Created by KiCad (PCBNEW (2016-03-22 BZR 6643, Git db8c72c)-product) date 3/23/2016 7:30:48 PM*
%MOMM*%
G01*
G04 APERTURE LIST*
%ADD10C,0.100000*%
%ADD11O,2.940000X2.432000*%
%ADD12C,2.940000*%
%ADD13C,1.974800*%
%ADD14R,1.974800X1.974800*%
%ADD15C,4.210000*%
%ADD16C,3.448000*%
%ADD17R,1.700000X1.700000*%
%ADD18C,1.700000*%
%ADD19C,3.575000*%
%ADD20C,1.797000*%
G04 APERTURE END LIST*
D10*
D11*
X190500000Y-115570000D03*
X180340000Y-115570000D03*
X185420000Y-115570000D03*
X182880000Y-115570000D03*
X187960000Y-115570000D03*
D12*
X185420000Y-105410000D03*
X177800000Y-105410000D03*
X193040000Y-105410000D03*
X180340000Y-102870000D03*
X190500000Y-102870000D03*
D11*
X215900000Y-115570000D03*
X205740000Y-115570000D03*
X210820000Y-115570000D03*
X208280000Y-115570000D03*
X213360000Y-115570000D03*
D12*
X210820000Y-105410000D03*
X203200000Y-105410000D03*
X218440000Y-105410000D03*
X205740000Y-102870000D03*
X215900000Y-102870000D03*
D11*
X165100000Y-115570000D03*
X154940000Y-115570000D03*
X160020000Y-115570000D03*
X157480000Y-115570000D03*
X162560000Y-115570000D03*
D12*
X160020000Y-105410000D03*
X152400000Y-105410000D03*
X167640000Y-105410000D03*
X154940000Y-102870000D03*
X165100000Y-102870000D03*
D13*
X241300000Y-88900000D03*
X231140000Y-88900000D03*
X193040000Y-88900000D03*
X182880000Y-88900000D03*
X215900000Y-88900000D03*
X205740000Y-88900000D03*
X182880000Y-60960000D03*
X193040000Y-60960000D03*
X205740000Y-60960000D03*
X215900000Y-60960000D03*
X165100000Y-86360000D03*
X154940000Y-86360000D03*
X154940000Y-96520000D03*
X165100000Y-96520000D03*
X165100000Y-91440000D03*
X154940000Y-91440000D03*
X87630000Y-68580000D03*
D14*
X87630000Y-83820000D03*
D13*
X90170000Y-68580000D03*
X90170000Y-83820000D03*
X92710000Y-68580000D03*
X92710000Y-83820000D03*
X95250000Y-68580000D03*
X95250000Y-83820000D03*
X97790000Y-68580000D03*
X97790000Y-83820000D03*
X100330000Y-68580000D03*
X100330000Y-83820000D03*
X102870000Y-68580000D03*
X102870000Y-83820000D03*
X105410000Y-68580000D03*
X105410000Y-83820000D03*
X107950000Y-68580000D03*
X107950000Y-83820000D03*
X110490000Y-68580000D03*
X110490000Y-83820000D03*
X113030000Y-68580000D03*
X113030000Y-83820000D03*
X115570000Y-68580000D03*
X115570000Y-83820000D03*
X118110000Y-68580000D03*
X118110000Y-83820000D03*
X120650000Y-68580000D03*
X120650000Y-83820000D03*
X123190000Y-68580000D03*
X123190000Y-83820000D03*
X125730000Y-68580000D03*
X125730000Y-83820000D03*
X128270000Y-68580000D03*
X128270000Y-83820000D03*
X130810000Y-68580000D03*
X130810000Y-83820000D03*
X133350000Y-68580000D03*
X133350000Y-83820000D03*
X135890000Y-68580000D03*
X135890000Y-83820000D03*
X185420000Y-67310000D03*
D14*
X185420000Y-74930000D03*
D13*
X187960000Y-67310000D03*
X187960000Y-74930000D03*
X190500000Y-67310000D03*
X190500000Y-74930000D03*
X208280000Y-67310000D03*
D14*
X208280000Y-74930000D03*
D13*
X210820000Y-67310000D03*
X210820000Y-74930000D03*
X213360000Y-67310000D03*
X213360000Y-74930000D03*
X152400000Y-67310000D03*
D14*
X152400000Y-74930000D03*
D13*
X154940000Y-67310000D03*
X154940000Y-74930000D03*
X157480000Y-67310000D03*
X157480000Y-74930000D03*
X160020000Y-67310000D03*
X160020000Y-74930000D03*
X162560000Y-67310000D03*
X162560000Y-74930000D03*
X165100000Y-67310000D03*
X165100000Y-74930000D03*
X167640000Y-67310000D03*
X167640000Y-74930000D03*
X182880000Y-83820000D03*
X193040000Y-83820000D03*
X231140000Y-78740000D03*
X241300000Y-78740000D03*
X231140000Y-83820000D03*
X241300000Y-83820000D03*
X205740000Y-83820000D03*
X215900000Y-83820000D03*
D15*
X236220000Y-111201200D03*
D16*
X240030000Y-108661200D03*
D15*
X240030000Y-103581200D03*
X242570000Y-98501200D03*
D16*
X236220000Y-95961200D03*
X232410000Y-108661200D03*
D15*
X109220000Y-111201200D03*
D16*
X113030000Y-108661200D03*
D15*
X113030000Y-103581200D03*
X115570000Y-98501200D03*
D16*
X109220000Y-95961200D03*
X105410000Y-108661200D03*
D15*
X134620000Y-111201200D03*
D16*
X138430000Y-108661200D03*
D15*
X138430000Y-103581200D03*
X140970000Y-98501200D03*
D16*
X134620000Y-95961200D03*
X130810000Y-108661200D03*
D15*
X83820000Y-111201200D03*
D16*
X87630000Y-108661200D03*
D15*
X87630000Y-103581200D03*
X90170000Y-98501200D03*
D16*
X83820000Y-95961200D03*
X80010000Y-108661200D03*
D13*
X218440000Y-67310000D03*
X218440000Y-74930000D03*
X200660000Y-67310000D03*
X200660000Y-74930000D03*
X179070000Y-67310000D03*
X179070000Y-74930000D03*
X146050000Y-67310000D03*
X146050000Y-74930000D03*
X105410000Y-64770000D03*
X113030000Y-64770000D03*
D17*
X223520000Y-78740000D03*
D18*
X223520000Y-83740000D03*
D19*
X229006400Y-67310000D03*
X232968800Y-67310000D03*
X236931200Y-67310000D03*
X240893600Y-67310000D03*
D13*
X123190000Y-87630000D03*
X125730000Y-87630000D03*
X110490000Y-87630000D03*
X107950000Y-87630000D03*
X119380000Y-87630000D03*
X114300000Y-87630000D03*
D20*
X222250000Y-71120000D03*
X223520000Y-69850000D03*
X224790000Y-71120000D03*
D14*
X92710000Y-59690000D03*
D13*
X92710000Y-57150000D03*
X95250000Y-59690000D03*
X95250000Y-57150000D03*
X97790000Y-59690000D03*
X97790000Y-57150000D03*
X100330000Y-59690000D03*
X100330000Y-57150000D03*
X102870000Y-59690000D03*
X102870000Y-57150000D03*
D14*
X113030000Y-59690000D03*
D13*
X113030000Y-57150000D03*
X115570000Y-59690000D03*
X115570000Y-57150000D03*
X118110000Y-59690000D03*
X118110000Y-57150000D03*
X120650000Y-59690000D03*
X120650000Y-57150000D03*
X123190000Y-59690000D03*
X123190000Y-57150000D03*
D14*
X133350000Y-59690000D03*
D13*
X133350000Y-57150000D03*
X135890000Y-59690000D03*
X135890000Y-57150000D03*
X138430000Y-59690000D03*
X138430000Y-57150000D03*
X140970000Y-59690000D03*
X140970000Y-57150000D03*
X143510000Y-59690000D03*
X143510000Y-57150000D03*
D14*
X153670000Y-59690000D03*
D13*
X153670000Y-57150000D03*
X156210000Y-59690000D03*
X156210000Y-57150000D03*
X158750000Y-59690000D03*
X158750000Y-57150000D03*
X161290000Y-59690000D03*
X161290000Y-57150000D03*
X163830000Y-59690000D03*
X163830000Y-57150000D03*
D14*
X80010000Y-80010000D03*
D13*
X77470000Y-80010000D03*
X80010000Y-77470000D03*
X77470000Y-77470000D03*
X80010000Y-74930000D03*
X77470000Y-74930000D03*
X80010000Y-72390000D03*
X77470000Y-72390000D03*
X80010000Y-69850000D03*
X77470000Y-69850000D03*
M02*
