G04 #@! TF.FileFunction,Legend,Top*
%FSLAX46Y46*%
G04 Gerber Fmt 4.6, Leading zero omitted, Abs format (unit mm)*
G04 Created by KiCad (PCBNEW (2016-03-22 BZR 6643, Git db8c72c)-product) date 3/23/2016 7:44:00 PM*
%MOMM*%
G01*
G04 APERTURE LIST*
%ADD10C,0.100000*%
%ADD11C,0.300000*%
%ADD12C,0.444500*%
%ADD13C,0.150000*%
G04 APERTURE END LIST*
D10*
D11*
X166581667Y-105373714D02*
X167549286Y-105373714D01*
X168819286Y-105857524D02*
X168093572Y-105857524D01*
X168456429Y-105857524D02*
X168456429Y-104587524D01*
X168335477Y-104768952D01*
X168214524Y-104889905D01*
X168093572Y-104950381D01*
X169303096Y-104708476D02*
X169363572Y-104648000D01*
X169484524Y-104587524D01*
X169786905Y-104587524D01*
X169907858Y-104648000D01*
X169968334Y-104708476D01*
X170028810Y-104829429D01*
X170028810Y-104950381D01*
X169968334Y-105131810D01*
X169242620Y-105857524D01*
X170028810Y-105857524D01*
X167271000Y-101345857D02*
X167199571Y-101488714D01*
X167199571Y-101703000D01*
X167271000Y-101917285D01*
X167413857Y-102060143D01*
X167556714Y-102131571D01*
X167842429Y-102203000D01*
X168056714Y-102203000D01*
X168342429Y-102131571D01*
X168485286Y-102060143D01*
X168628143Y-101917285D01*
X168699571Y-101703000D01*
X168699571Y-101560143D01*
X168628143Y-101345857D01*
X168556714Y-101274428D01*
X168056714Y-101274428D01*
X168056714Y-101560143D01*
X168699571Y-100631571D02*
X167199571Y-100631571D01*
X168699571Y-99774428D01*
X167199571Y-99774428D01*
X168699571Y-99060142D02*
X167199571Y-99060142D01*
X167199571Y-98702999D01*
X167271000Y-98488714D01*
X167413857Y-98345856D01*
X167556714Y-98274428D01*
X167842429Y-98202999D01*
X168056714Y-98202999D01*
X168342429Y-98274428D01*
X168485286Y-98345856D01*
X168628143Y-98488714D01*
X168699571Y-98702999D01*
X168699571Y-99060142D01*
X166545381Y-95340714D02*
X167513000Y-95340714D01*
X167029190Y-95824524D02*
X167029190Y-94856905D01*
X168783000Y-95824524D02*
X168057286Y-95824524D01*
X168420143Y-95824524D02*
X168420143Y-94554524D01*
X168299191Y-94735952D01*
X168178238Y-94856905D01*
X168057286Y-94917381D01*
X169266810Y-94675476D02*
X169327286Y-94615000D01*
X169448238Y-94554524D01*
X169750619Y-94554524D01*
X169871572Y-94615000D01*
X169932048Y-94675476D01*
X169992524Y-94796429D01*
X169992524Y-94917381D01*
X169932048Y-95098810D01*
X169206334Y-95824524D01*
X169992524Y-95824524D01*
D12*
X166391167Y-62568667D02*
X166391167Y-61552667D01*
X166391167Y-62060667D02*
X168169167Y-62060667D01*
X167915167Y-61891333D01*
X167745833Y-61722000D01*
X167661167Y-61552667D01*
X168169167Y-63669333D02*
X168169167Y-63838666D01*
X168084500Y-64008000D01*
X167999833Y-64092666D01*
X167830500Y-64177333D01*
X167491833Y-64262000D01*
X167068500Y-64262000D01*
X166729833Y-64177333D01*
X166560500Y-64092666D01*
X166475833Y-64008000D01*
X166391167Y-63838666D01*
X166391167Y-63669333D01*
X166475833Y-63500000D01*
X166560500Y-63415333D01*
X166729833Y-63330666D01*
X167068500Y-63246000D01*
X167491833Y-63246000D01*
X167830500Y-63330666D01*
X167999833Y-63415333D01*
X168084500Y-63500000D01*
X168169167Y-63669333D01*
X168169167Y-65362666D02*
X168169167Y-65531999D01*
X168084500Y-65701333D01*
X167999833Y-65785999D01*
X167830500Y-65870666D01*
X167491833Y-65955333D01*
X167068500Y-65955333D01*
X166729833Y-65870666D01*
X166560500Y-65785999D01*
X166475833Y-65701333D01*
X166391167Y-65531999D01*
X166391167Y-65362666D01*
X166475833Y-65193333D01*
X166560500Y-65108666D01*
X166729833Y-65023999D01*
X167068500Y-64939333D01*
X167491833Y-64939333D01*
X167830500Y-65023999D01*
X167999833Y-65108666D01*
X168084500Y-65193333D01*
X168169167Y-65362666D01*
X167068500Y-66717332D02*
X167068500Y-68071999D01*
X166391167Y-69849999D02*
X166391167Y-68833999D01*
X166391167Y-69341999D02*
X168169167Y-69341999D01*
X167915167Y-69172665D01*
X167745833Y-69003332D01*
X167661167Y-68833999D01*
X168169167Y-70950665D02*
X168169167Y-71119998D01*
X168084500Y-71289332D01*
X167999833Y-71373998D01*
X167830500Y-71458665D01*
X167491833Y-71543332D01*
X167068500Y-71543332D01*
X166729833Y-71458665D01*
X166560500Y-71373998D01*
X166475833Y-71289332D01*
X166391167Y-71119998D01*
X166391167Y-70950665D01*
X166475833Y-70781332D01*
X166560500Y-70696665D01*
X166729833Y-70611998D01*
X167068500Y-70527332D01*
X167491833Y-70527332D01*
X167830500Y-70611998D01*
X167999833Y-70696665D01*
X168084500Y-70781332D01*
X168169167Y-70950665D01*
X166391167Y-72389998D02*
X166391167Y-72728665D01*
X166475833Y-72897998D01*
X166560500Y-72982665D01*
X166814500Y-73151998D01*
X167153167Y-73236665D01*
X167830500Y-73236665D01*
X167999833Y-73151998D01*
X168084500Y-73067331D01*
X168169167Y-72897998D01*
X168169167Y-72559331D01*
X168084500Y-72389998D01*
X167999833Y-72305331D01*
X167830500Y-72220665D01*
X167407167Y-72220665D01*
X167237833Y-72305331D01*
X167153167Y-72389998D01*
X167068500Y-72559331D01*
X167068500Y-72897998D01*
X167153167Y-73067331D01*
X167237833Y-73151998D01*
X167407167Y-73236665D01*
X168169167Y-73829331D02*
X168169167Y-74929998D01*
X167491833Y-74337331D01*
X167491833Y-74591331D01*
X167407167Y-74760664D01*
X167322500Y-74845331D01*
X167153167Y-74929998D01*
X166729833Y-74929998D01*
X166560500Y-74845331D01*
X166475833Y-74760664D01*
X166391167Y-74591331D01*
X166391167Y-74083331D01*
X166475833Y-73913998D01*
X166560500Y-73829331D01*
X163279667Y-61637333D02*
X165057667Y-61637333D01*
X163787667Y-62230000D01*
X165057667Y-62822667D01*
X163279667Y-62822667D01*
X163279667Y-63669333D02*
X165057667Y-63669333D01*
X163279667Y-64516000D02*
X165057667Y-64516000D01*
X165057667Y-64939334D01*
X164973000Y-65193334D01*
X164803667Y-65362667D01*
X164634333Y-65447334D01*
X164295667Y-65532000D01*
X164041667Y-65532000D01*
X163703000Y-65447334D01*
X163533667Y-65362667D01*
X163364333Y-65193334D01*
X163279667Y-64939334D01*
X163279667Y-64516000D01*
X163279667Y-66294000D02*
X165057667Y-66294000D01*
X163279667Y-68495334D02*
X165057667Y-68495334D01*
X163787667Y-69088001D01*
X165057667Y-69680668D01*
X163279667Y-69680668D01*
X164211000Y-70527334D02*
X164211000Y-71120001D01*
X163279667Y-71374001D02*
X163279667Y-70527334D01*
X165057667Y-70527334D01*
X165057667Y-71374001D01*
X163279667Y-73152001D02*
X164126333Y-72559335D01*
X163279667Y-72136001D02*
X165057667Y-72136001D01*
X165057667Y-72813335D01*
X164973000Y-72982668D01*
X164888333Y-73067335D01*
X164719000Y-73152001D01*
X164465000Y-73152001D01*
X164295667Y-73067335D01*
X164211000Y-72982668D01*
X164126333Y-72813335D01*
X164126333Y-72136001D01*
X164973000Y-74845335D02*
X165057667Y-74676001D01*
X165057667Y-74422001D01*
X164973000Y-74168001D01*
X164803667Y-73998668D01*
X164634333Y-73914001D01*
X164295667Y-73829335D01*
X164041667Y-73829335D01*
X163703000Y-73914001D01*
X163533667Y-73998668D01*
X163364333Y-74168001D01*
X163279667Y-74422001D01*
X163279667Y-74591335D01*
X163364333Y-74845335D01*
X163449000Y-74930001D01*
X164041667Y-74930001D01*
X164041667Y-74591335D01*
X164211000Y-75692001D02*
X164211000Y-76284668D01*
X163279667Y-76538668D02*
X163279667Y-75692001D01*
X165057667Y-75692001D01*
X165057667Y-76538668D01*
X163279667Y-78316668D02*
X164126333Y-77724002D01*
X163279667Y-77300668D02*
X165057667Y-77300668D01*
X165057667Y-77978002D01*
X164973000Y-78147335D01*
X164888333Y-78232002D01*
X164719000Y-78316668D01*
X164465000Y-78316668D01*
X164295667Y-78232002D01*
X164211000Y-78147335D01*
X164126333Y-77978002D01*
X164126333Y-77300668D01*
X160168167Y-61637333D02*
X161946167Y-61637333D01*
X161268833Y-61637333D02*
X161353500Y-61806667D01*
X161353500Y-62145333D01*
X161268833Y-62314667D01*
X161184167Y-62399333D01*
X161014833Y-62484000D01*
X160506833Y-62484000D01*
X160337500Y-62399333D01*
X160252833Y-62314667D01*
X160168167Y-62145333D01*
X160168167Y-61806667D01*
X160252833Y-61637333D01*
X161353500Y-63076667D02*
X160168167Y-63500000D01*
X161353500Y-63923334D02*
X160168167Y-63500000D01*
X159744833Y-63330667D01*
X159660167Y-63246000D01*
X159575500Y-63076667D01*
X161946167Y-66463334D02*
X160676167Y-66463334D01*
X160422167Y-66378668D01*
X160252833Y-66209334D01*
X160168167Y-65955334D01*
X160168167Y-65786001D01*
X160168167Y-67310001D02*
X161353500Y-67310001D01*
X161946167Y-67310001D02*
X161861500Y-67225335D01*
X161776833Y-67310001D01*
X161861500Y-67394668D01*
X161946167Y-67310001D01*
X161776833Y-67310001D01*
X160168167Y-68156668D02*
X161353500Y-68156668D01*
X161184167Y-68156668D02*
X161268833Y-68241335D01*
X161353500Y-68410668D01*
X161353500Y-68664668D01*
X161268833Y-68834002D01*
X161099500Y-68918668D01*
X160168167Y-68918668D01*
X161099500Y-68918668D02*
X161268833Y-69003335D01*
X161353500Y-69172668D01*
X161353500Y-69426668D01*
X161268833Y-69596002D01*
X161099500Y-69680668D01*
X160168167Y-69680668D01*
X160168167Y-71882002D02*
X161946167Y-71882002D01*
X161946167Y-72559336D01*
X161861500Y-72728669D01*
X161776833Y-72813336D01*
X161607500Y-72898002D01*
X161353500Y-72898002D01*
X161184167Y-72813336D01*
X161099500Y-72728669D01*
X161014833Y-72559336D01*
X161014833Y-71882002D01*
X160168167Y-74422002D02*
X161099500Y-74422002D01*
X161268833Y-74337336D01*
X161353500Y-74168002D01*
X161353500Y-73829336D01*
X161268833Y-73660002D01*
X160252833Y-74422002D02*
X160168167Y-74252669D01*
X160168167Y-73829336D01*
X160252833Y-73660002D01*
X160422167Y-73575336D01*
X160591500Y-73575336D01*
X160760833Y-73660002D01*
X160845500Y-73829336D01*
X160845500Y-74252669D01*
X160930167Y-74422002D01*
X161353500Y-75014669D02*
X161353500Y-75692003D01*
X161946167Y-75268669D02*
X160422167Y-75268669D01*
X160252833Y-75353336D01*
X160168167Y-75522669D01*
X160168167Y-75692003D01*
X160252833Y-77046669D02*
X160168167Y-76877336D01*
X160168167Y-76538669D01*
X160252833Y-76369336D01*
X160337500Y-76284669D01*
X160506833Y-76200003D01*
X161014833Y-76200003D01*
X161184167Y-76284669D01*
X161268833Y-76369336D01*
X161353500Y-76538669D01*
X161353500Y-76877336D01*
X161268833Y-77046669D01*
X160168167Y-77808669D02*
X161946167Y-77808669D01*
X160168167Y-78570669D02*
X161099500Y-78570669D01*
X161268833Y-78486003D01*
X161353500Y-78316669D01*
X161353500Y-78062669D01*
X161268833Y-77893336D01*
X161184167Y-77808669D01*
X160252833Y-80094670D02*
X160168167Y-79925336D01*
X160168167Y-79586670D01*
X160252833Y-79417336D01*
X160422167Y-79332670D01*
X161099500Y-79332670D01*
X161268833Y-79417336D01*
X161353500Y-79586670D01*
X161353500Y-79925336D01*
X161268833Y-80094670D01*
X161099500Y-80179336D01*
X160930167Y-80179336D01*
X160760833Y-79332670D01*
X160168167Y-81195336D02*
X160252833Y-81026003D01*
X160422167Y-80941336D01*
X161946167Y-80941336D01*
X160168167Y-82126669D02*
X160252833Y-81957336D01*
X160422167Y-81872669D01*
X161946167Y-81872669D01*
D13*
X108204000Y-102235000D02*
X110236000Y-102235000D01*
X108204000Y-94615000D02*
X110236000Y-94615000D01*
X109220000Y-102235000D02*
X109220000Y-102743000D01*
X109220000Y-93980000D02*
X109220000Y-94615000D01*
X110236000Y-102235000D02*
X110236000Y-94615000D01*
X108204000Y-94615000D02*
X108204000Y-102235000D01*
X154940000Y-83566000D02*
X154940000Y-81534000D01*
X147320000Y-83566000D02*
X147320000Y-81534000D01*
X154940000Y-82550000D02*
X155448000Y-82550000D01*
X146685000Y-82550000D02*
X147320000Y-82550000D01*
X154940000Y-81534000D02*
X147320000Y-81534000D01*
X147320000Y-83566000D02*
X154940000Y-83566000D01*
X142240000Y-111506000D02*
X142240000Y-109474000D01*
X134620000Y-111506000D02*
X134620000Y-109474000D01*
X142240000Y-110490000D02*
X142748000Y-110490000D01*
X133985000Y-110490000D02*
X134620000Y-110490000D01*
X142240000Y-109474000D02*
X134620000Y-109474000D01*
X134620000Y-111506000D02*
X142240000Y-111506000D01*
X123444000Y-102235000D02*
X125476000Y-102235000D01*
X123444000Y-94615000D02*
X125476000Y-94615000D01*
X124460000Y-102235000D02*
X124460000Y-102743000D01*
X124460000Y-93980000D02*
X124460000Y-94615000D01*
X125476000Y-102235000D02*
X125476000Y-94615000D01*
X123444000Y-94615000D02*
X123444000Y-102235000D01*
X119634000Y-102235000D02*
X121666000Y-102235000D01*
X119634000Y-94615000D02*
X121666000Y-94615000D01*
X120650000Y-102235000D02*
X120650000Y-102743000D01*
X120650000Y-93980000D02*
X120650000Y-94615000D01*
X121666000Y-102235000D02*
X121666000Y-94615000D01*
X119634000Y-94615000D02*
X119634000Y-102235000D01*
X82296000Y-90170000D02*
X80264000Y-90170000D01*
X82296000Y-97790000D02*
X80264000Y-97790000D01*
X81280000Y-90170000D02*
X81280000Y-89662000D01*
X81280000Y-98425000D02*
X81280000Y-97790000D01*
X80264000Y-90170000D02*
X80264000Y-97790000D01*
X82296000Y-97790000D02*
X82296000Y-90170000D01*
X92710000Y-103759000D02*
X92710000Y-105791000D01*
X100330000Y-103759000D02*
X100330000Y-105791000D01*
X92710000Y-104775000D02*
X92202000Y-104775000D01*
X100965000Y-104775000D02*
X100330000Y-104775000D01*
X92710000Y-105791000D02*
X100330000Y-105791000D01*
X100330000Y-103759000D02*
X92710000Y-103759000D01*
X83566000Y-104140000D02*
X81534000Y-104140000D01*
X83566000Y-111760000D02*
X81534000Y-111760000D01*
X82550000Y-104140000D02*
X82550000Y-103632000D01*
X82550000Y-112395000D02*
X82550000Y-111760000D01*
X81534000Y-104140000D02*
X81534000Y-111760000D01*
X83566000Y-111760000D02*
X83566000Y-104140000D01*
X86342600Y-85107399D02*
X137177400Y-85107400D01*
X137177400Y-85107400D02*
X137177400Y-67292601D01*
X137177400Y-67292601D02*
X86342600Y-67292600D01*
X86342600Y-67292600D02*
X86342600Y-73230867D01*
X86342600Y-73230867D02*
X86792600Y-73230867D01*
X86792600Y-73230867D02*
X86792600Y-79169133D01*
X86792600Y-79169133D02*
X86342600Y-79169133D01*
X86342600Y-79169133D02*
X86342600Y-85107399D01*
X147302600Y-77487400D02*
X154957399Y-77487400D01*
X154957399Y-77487400D02*
X154957400Y-67292600D01*
X154957400Y-67292600D02*
X147302601Y-67292600D01*
X147302601Y-67292600D02*
X147302600Y-70690867D01*
X147302600Y-70690867D02*
X147752600Y-70690867D01*
X147752600Y-70690867D02*
X147752600Y-74089133D01*
X147752600Y-74089133D02*
X147302600Y-74089133D01*
X147302600Y-74089133D02*
X147302600Y-77487400D01*
X132062600Y-102252400D02*
X139717399Y-102252400D01*
X139717399Y-102252400D02*
X139717400Y-92057600D01*
X139717400Y-92057600D02*
X132062601Y-92057600D01*
X132062601Y-92057600D02*
X132062600Y-95455867D01*
X132062600Y-95455867D02*
X132512600Y-95455867D01*
X132512600Y-95455867D02*
X132512600Y-98854133D01*
X132512600Y-98854133D02*
X132062600Y-98854133D01*
X132062600Y-98854133D02*
X132062600Y-102252400D01*
X85072600Y-99077399D02*
X102887400Y-99077400D01*
X102887400Y-99077400D02*
X102887400Y-88882601D01*
X102887400Y-88882601D02*
X85072600Y-88882600D01*
X85072600Y-88882600D02*
X85072600Y-92280867D01*
X85072600Y-92280867D02*
X85522600Y-92280867D01*
X85522600Y-92280867D02*
X85522600Y-95679133D01*
X85522600Y-95679133D02*
X85072600Y-95679133D01*
X85072600Y-95679133D02*
X85072600Y-99077399D01*
X148082000Y-81026000D02*
X148082000Y-78994000D01*
X147320000Y-78994000D02*
X147320000Y-81026000D01*
X154940000Y-78994000D02*
X154940000Y-81026000D01*
X147320000Y-80010000D02*
X146812000Y-80010000D01*
X155575000Y-80010000D02*
X154940000Y-80010000D01*
X147320000Y-81026000D02*
X154940000Y-81026000D01*
X154940000Y-78994000D02*
X147320000Y-78994000D01*
X117856000Y-101473000D02*
X115824000Y-101473000D01*
X115824000Y-102235000D02*
X117856000Y-102235000D01*
X115824000Y-94615000D02*
X117856000Y-94615000D01*
X116840000Y-102235000D02*
X116840000Y-102743000D01*
X116840000Y-93980000D02*
X116840000Y-94615000D01*
X117856000Y-102235000D02*
X117856000Y-94615000D01*
X115824000Y-94615000D02*
X115824000Y-102235000D01*
X114046000Y-101473000D02*
X112014000Y-101473000D01*
X112014000Y-102235000D02*
X114046000Y-102235000D01*
X112014000Y-94615000D02*
X114046000Y-94615000D01*
X113030000Y-102235000D02*
X113030000Y-102743000D01*
X113030000Y-93980000D02*
X113030000Y-94615000D01*
X114046000Y-102235000D02*
X114046000Y-94615000D01*
X112014000Y-94615000D02*
X112014000Y-102235000D01*
X135382000Y-107696000D02*
X135382000Y-105664000D01*
X134620000Y-105664000D02*
X134620000Y-107696000D01*
X142240000Y-105664000D02*
X142240000Y-107696000D01*
X134620000Y-106680000D02*
X134112000Y-106680000D01*
X142875000Y-106680000D02*
X142240000Y-106680000D01*
X134620000Y-107696000D02*
X142240000Y-107696000D01*
X142240000Y-105664000D02*
X134620000Y-105664000D01*
X150495000Y-84455000D02*
G75*
G03X149860000Y-85090000I0J-635000D01*
G01*
X149860000Y-85090000D02*
G75*
G03X150495000Y-85725000I635000J0D01*
G01*
X152400000Y-85090000D02*
G75*
G03X151765000Y-84455000I-635000J0D01*
G01*
X151765000Y-85725000D02*
G75*
G03X152400000Y-85090000I0J635000D01*
G01*
X151765000Y-84455000D02*
X150495000Y-84455000D01*
X151765000Y-85725000D02*
X150495000Y-85725000D01*
X148590000Y-85090000D02*
X149860000Y-85090000D01*
X153670000Y-85090000D02*
X152400000Y-85090000D01*
X128270000Y-97790000D02*
G75*
G03X128905000Y-98425000I635000J0D01*
G01*
X128905000Y-98425000D02*
G75*
G03X129540000Y-97790000I0J635000D01*
G01*
X128905000Y-95885000D02*
G75*
G03X128270000Y-96520000I0J-635000D01*
G01*
X129540000Y-96520000D02*
G75*
G03X128905000Y-95885000I-635000J0D01*
G01*
X128270000Y-96520000D02*
X128270000Y-97790000D01*
X129540000Y-96520000D02*
X129540000Y-97790000D01*
X128905000Y-99695000D02*
X128905000Y-98425000D01*
X128905000Y-94615000D02*
X128905000Y-95885000D01*
X141605000Y-73025000D02*
G75*
G03X142240000Y-73660000I635000J0D01*
G01*
X142240000Y-73660000D02*
G75*
G03X142875000Y-73025000I0J635000D01*
G01*
X142240000Y-71120000D02*
G75*
G03X141605000Y-71755000I0J-635000D01*
G01*
X142875000Y-71755000D02*
G75*
G03X142240000Y-71120000I-635000J0D01*
G01*
X141605000Y-71755000D02*
X141605000Y-73025000D01*
X142875000Y-71755000D02*
X142875000Y-73025000D01*
X142240000Y-74930000D02*
X142240000Y-73660000D01*
X142240000Y-69850000D02*
X142240000Y-71120000D01*
X104775000Y-94615000D02*
G75*
G03X105410000Y-95250000I635000J0D01*
G01*
X105410000Y-95250000D02*
G75*
G03X106045000Y-94615000I0J635000D01*
G01*
X105410000Y-92710000D02*
G75*
G03X104775000Y-93345000I0J-635000D01*
G01*
X106045000Y-93345000D02*
G75*
G03X105410000Y-92710000I-635000J0D01*
G01*
X104775000Y-93345000D02*
X104775000Y-94615000D01*
X106045000Y-93345000D02*
X106045000Y-94615000D01*
X105410000Y-96520000D02*
X105410000Y-95250000D01*
X105410000Y-91440000D02*
X105410000Y-92710000D01*
X107315000Y-64643000D02*
G75*
G03X107950000Y-64008000I0J635000D01*
G01*
X107950000Y-64008000D02*
G75*
G03X107315000Y-63373000I-635000J0D01*
G01*
X105410000Y-64008000D02*
G75*
G03X106045000Y-64643000I635000J0D01*
G01*
X106045000Y-63373000D02*
G75*
G03X105410000Y-64008000I0J-635000D01*
G01*
X106045000Y-64643000D02*
X107315000Y-64643000D01*
X106045000Y-63373000D02*
X107315000Y-63373000D01*
X109220000Y-64008000D02*
X107950000Y-64008000D01*
X104140000Y-64008000D02*
X105410000Y-64008000D01*
X152954000Y-94015000D02*
X142956000Y-94015000D01*
X152950000Y-94155000D02*
X142960000Y-94155000D01*
X152942000Y-94295000D02*
X142968000Y-94295000D01*
X152930000Y-94435000D02*
X142980000Y-94435000D01*
X152915000Y-94575000D02*
X142995000Y-94575000D01*
X152895000Y-94715000D02*
X143015000Y-94715000D01*
X152871000Y-94855000D02*
X143039000Y-94855000D01*
X152842000Y-94995000D02*
X143068000Y-94995000D01*
X152810000Y-95135000D02*
X143100000Y-95135000D01*
X152773000Y-95275000D02*
X143137000Y-95275000D01*
X152732000Y-95415000D02*
X143178000Y-95415000D01*
X152687000Y-95555000D02*
X148421000Y-95555000D01*
X147489000Y-95555000D02*
X143223000Y-95555000D01*
X152637000Y-95695000D02*
X148622000Y-95695000D01*
X147288000Y-95695000D02*
X143273000Y-95695000D01*
X152582000Y-95835000D02*
X148751000Y-95835000D01*
X147159000Y-95835000D02*
X143328000Y-95835000D01*
X152522000Y-95975000D02*
X148840000Y-95975000D01*
X147070000Y-95975000D02*
X143388000Y-95975000D01*
X152457000Y-96115000D02*
X148901000Y-96115000D01*
X147009000Y-96115000D02*
X143453000Y-96115000D01*
X152387000Y-96255000D02*
X148938000Y-96255000D01*
X146972000Y-96255000D02*
X143523000Y-96255000D01*
X152311000Y-96395000D02*
X148954000Y-96395000D01*
X146956000Y-96395000D02*
X143599000Y-96395000D01*
X152229000Y-96535000D02*
X148950000Y-96535000D01*
X146960000Y-96535000D02*
X143681000Y-96535000D01*
X152141000Y-96675000D02*
X148927000Y-96675000D01*
X146983000Y-96675000D02*
X143769000Y-96675000D01*
X152046000Y-96815000D02*
X148882000Y-96815000D01*
X147028000Y-96815000D02*
X143864000Y-96815000D01*
X151944000Y-96955000D02*
X148812000Y-96955000D01*
X147098000Y-96955000D02*
X143966000Y-96955000D01*
X151834000Y-97095000D02*
X148711000Y-97095000D01*
X147199000Y-97095000D02*
X144076000Y-97095000D01*
X151716000Y-97235000D02*
X148562000Y-97235000D01*
X147348000Y-97235000D02*
X144194000Y-97235000D01*
X151588000Y-97375000D02*
X148310000Y-97375000D01*
X147600000Y-97375000D02*
X144322000Y-97375000D01*
X151451000Y-97515000D02*
X144459000Y-97515000D01*
X151301000Y-97655000D02*
X144609000Y-97655000D01*
X151139000Y-97795000D02*
X144771000Y-97795000D01*
X150962000Y-97935000D02*
X144948000Y-97935000D01*
X150766000Y-98075000D02*
X145144000Y-98075000D01*
X150548000Y-98215000D02*
X145362000Y-98215000D01*
X150302000Y-98355000D02*
X145608000Y-98355000D01*
X150017000Y-98495000D02*
X145893000Y-98495000D01*
X149675000Y-98635000D02*
X146235000Y-98635000D01*
X149229000Y-98775000D02*
X146681000Y-98775000D01*
X148454000Y-98915000D02*
X147456000Y-98915000D01*
X148955000Y-96440000D02*
G75*
G03X148955000Y-96440000I-1000000J0D01*
G01*
X152992500Y-93940000D02*
G75*
G03X152992500Y-93940000I-5037500J0D01*
G01*
X121920000Y-91440000D02*
G75*
G03X123190000Y-90170000I0J1270000D01*
G01*
X123190000Y-90170000D02*
G75*
G03X121920000Y-88900000I-1270000J0D01*
G01*
X119380000Y-88900000D02*
G75*
G03X118110000Y-90170000I0J-1270000D01*
G01*
X118110000Y-90170000D02*
G75*
G03X119380000Y-91440000I1270000J0D01*
G01*
X121920000Y-91440000D02*
X119380000Y-91440000D01*
X119380000Y-88900000D02*
X121920000Y-88900000D01*
X111760000Y-88900000D02*
G75*
G03X110490000Y-90170000I0J-1270000D01*
G01*
X110490000Y-90170000D02*
G75*
G03X111760000Y-91440000I1270000J0D01*
G01*
X114300000Y-91440000D02*
G75*
G03X115570000Y-90170000I0J1270000D01*
G01*
X115570000Y-90170000D02*
G75*
G03X114300000Y-88900000I-1270000J0D01*
G01*
X111760000Y-88900000D02*
X114300000Y-88900000D01*
X114300000Y-91440000D02*
X111760000Y-91440000D01*
X120650000Y-87630000D02*
G75*
G03X119380000Y-86360000I-1270000J0D01*
G01*
X119380000Y-88900000D02*
G75*
G03X120650000Y-87630000I0J1270000D01*
G01*
X114300000Y-86360000D02*
G75*
G03X113030000Y-87630000I0J-1270000D01*
G01*
X113030000Y-87630000D02*
G75*
G03X114300000Y-88900000I1270000J0D01*
G01*
X114300000Y-86360000D02*
X119380000Y-86360000D01*
X119380000Y-88900000D02*
X114300000Y-88900000D01*
X154305000Y-94615000D02*
X154305000Y-112395000D01*
X153670000Y-94615000D02*
X153670000Y-112395000D01*
X153670000Y-112395000D02*
X160020000Y-112395000D01*
X160020000Y-112395000D02*
X160020000Y-94615000D01*
X160020000Y-94615000D02*
X153670000Y-94615000D01*
X158115000Y-88265000D02*
G75*
G03X155575000Y-88265000I-1270000J-1270000D01*
G01*
X158115000Y-90805000D02*
G75*
G03X158115000Y-88265000I-1270000J1270000D01*
G01*
X155575000Y-90805000D02*
G75*
G03X158115000Y-90805000I1270000J1270000D01*
G01*
X155575000Y-88265000D02*
X155575000Y-90805000D01*
X78740000Y-55880000D02*
X96520000Y-55880000D01*
X78740000Y-60960000D02*
X96520000Y-60960000D01*
X96520000Y-55880000D02*
X96520000Y-60960000D01*
X78740000Y-60960000D02*
X78740000Y-55880000D01*
X100330000Y-55880000D02*
X118110000Y-55880000D01*
X100330000Y-60960000D02*
X118110000Y-60960000D01*
X118110000Y-55880000D02*
X118110000Y-60960000D01*
X100330000Y-60960000D02*
X100330000Y-55880000D01*
X121920000Y-55880000D02*
X139700000Y-55880000D01*
X121920000Y-60960000D02*
X139700000Y-60960000D01*
X139700000Y-55880000D02*
X139700000Y-60960000D01*
X121920000Y-60960000D02*
X121920000Y-55880000D01*
X143510000Y-55880000D02*
X161290000Y-55880000D01*
X143510000Y-60960000D02*
X161290000Y-60960000D01*
X161290000Y-55880000D02*
X161290000Y-60960000D01*
X143510000Y-60960000D02*
X143510000Y-55880000D01*
X105410000Y-114300000D02*
X87630000Y-114300000D01*
X105410000Y-109220000D02*
X87630000Y-109220000D01*
X87630000Y-114300000D02*
X87630000Y-109220000D01*
X105410000Y-109220000D02*
X105410000Y-114300000D01*
X128270000Y-114300000D02*
X110490000Y-114300000D01*
X128270000Y-109220000D02*
X110490000Y-109220000D01*
X110490000Y-114300000D02*
X110490000Y-109220000D01*
X128270000Y-109220000D02*
X128270000Y-114300000D01*
X74930000Y-86360000D02*
X74930000Y-68580000D01*
X80010000Y-86360000D02*
X80010000Y-68580000D01*
X74930000Y-68580000D02*
X80010000Y-68580000D01*
X80010000Y-86360000D02*
X74930000Y-86360000D01*
X161290000Y-106680000D02*
X161290000Y-83820000D01*
X161290000Y-83820000D02*
X166370000Y-83820000D01*
X166370000Y-83820000D02*
X166370000Y-109220000D01*
X166370000Y-109220000D02*
X161290000Y-109220000D01*
X161290000Y-109220000D02*
X161290000Y-106680000D01*
X109545381Y-105957666D02*
X109069190Y-106291000D01*
X109545381Y-106529095D02*
X108545381Y-106529095D01*
X108545381Y-106148142D01*
X108593000Y-106052904D01*
X108640619Y-106005285D01*
X108735857Y-105957666D01*
X108878714Y-105957666D01*
X108973952Y-106005285D01*
X109021571Y-106052904D01*
X109069190Y-106148142D01*
X109069190Y-106529095D01*
X109545381Y-105005285D02*
X109545381Y-105576714D01*
X109545381Y-105291000D02*
X108545381Y-105291000D01*
X108688238Y-105386238D01*
X108783476Y-105481476D01*
X108831095Y-105576714D01*
X108799381Y-100480619D02*
X108799381Y-99861571D01*
X109180333Y-100194905D01*
X109180333Y-100052047D01*
X109227952Y-99956809D01*
X109275571Y-99909190D01*
X109370810Y-99861571D01*
X109608905Y-99861571D01*
X109704143Y-99909190D01*
X109751762Y-99956809D01*
X109799381Y-100052047D01*
X109799381Y-100337762D01*
X109751762Y-100433000D01*
X109704143Y-100480619D01*
X109704143Y-99433000D02*
X109751762Y-99385381D01*
X109799381Y-99433000D01*
X109751762Y-99480619D01*
X109704143Y-99433000D01*
X109799381Y-99433000D01*
X108799381Y-99052048D02*
X108799381Y-98433000D01*
X109180333Y-98766334D01*
X109180333Y-98623476D01*
X109227952Y-98528238D01*
X109275571Y-98480619D01*
X109370810Y-98433000D01*
X109608905Y-98433000D01*
X109704143Y-98480619D01*
X109751762Y-98528238D01*
X109799381Y-98623476D01*
X109799381Y-98909191D01*
X109751762Y-99004429D01*
X109704143Y-99052048D01*
X109799381Y-98004429D02*
X108799381Y-98004429D01*
X109799381Y-97433000D02*
X109227952Y-97861572D01*
X108799381Y-97433000D02*
X109370810Y-98004429D01*
X143089334Y-83002381D02*
X142756000Y-82526190D01*
X142517905Y-83002381D02*
X142517905Y-82002381D01*
X142898858Y-82002381D01*
X142994096Y-82050000D01*
X143041715Y-82097619D01*
X143089334Y-82192857D01*
X143089334Y-82335714D01*
X143041715Y-82430952D01*
X142994096Y-82478571D01*
X142898858Y-82526190D01*
X142517905Y-82526190D01*
X143470286Y-82097619D02*
X143517905Y-82050000D01*
X143613143Y-82002381D01*
X143851239Y-82002381D01*
X143946477Y-82050000D01*
X143994096Y-82097619D01*
X144041715Y-82192857D01*
X144041715Y-82288095D01*
X143994096Y-82430952D01*
X143422667Y-83002381D01*
X144041715Y-83002381D01*
X150399905Y-81970619D02*
X150447524Y-81923000D01*
X150542762Y-81875381D01*
X150780858Y-81875381D01*
X150876096Y-81923000D01*
X150923715Y-81970619D01*
X150971334Y-82065857D01*
X150971334Y-82161095D01*
X150923715Y-82303952D01*
X150352286Y-82875381D01*
X150971334Y-82875381D01*
X151304667Y-81875381D02*
X151971334Y-81875381D01*
X151542762Y-82875381D01*
X152542762Y-81875381D02*
X152638001Y-81875381D01*
X152733239Y-81923000D01*
X152780858Y-81970619D01*
X152828477Y-82065857D01*
X152876096Y-82256333D01*
X152876096Y-82494429D01*
X152828477Y-82684905D01*
X152780858Y-82780143D01*
X152733239Y-82827762D01*
X152638001Y-82875381D01*
X152542762Y-82875381D01*
X152447524Y-82827762D01*
X152399905Y-82780143D01*
X152352286Y-82684905D01*
X152304667Y-82494429D01*
X152304667Y-82256333D01*
X152352286Y-82065857D01*
X152399905Y-81970619D01*
X152447524Y-81923000D01*
X152542762Y-81875381D01*
X130135334Y-110688381D02*
X129802000Y-110212190D01*
X129563905Y-110688381D02*
X129563905Y-109688381D01*
X129944858Y-109688381D01*
X130040096Y-109736000D01*
X130087715Y-109783619D01*
X130135334Y-109878857D01*
X130135334Y-110021714D01*
X130087715Y-110116952D01*
X130040096Y-110164571D01*
X129944858Y-110212190D01*
X129563905Y-110212190D01*
X130468667Y-109688381D02*
X131087715Y-109688381D01*
X130754381Y-110069333D01*
X130897239Y-110069333D01*
X130992477Y-110116952D01*
X131040096Y-110164571D01*
X131087715Y-110259810D01*
X131087715Y-110497905D01*
X131040096Y-110593143D01*
X130992477Y-110640762D01*
X130897239Y-110688381D01*
X130611524Y-110688381D01*
X130516286Y-110640762D01*
X130468667Y-110593143D01*
X137699905Y-109910619D02*
X137747524Y-109863000D01*
X137842762Y-109815381D01*
X138080858Y-109815381D01*
X138176096Y-109863000D01*
X138223715Y-109910619D01*
X138271334Y-110005857D01*
X138271334Y-110101095D01*
X138223715Y-110243952D01*
X137652286Y-110815381D01*
X138271334Y-110815381D01*
X138604667Y-109815381D02*
X139271334Y-109815381D01*
X138842762Y-110815381D01*
X139842762Y-109815381D02*
X139938001Y-109815381D01*
X140033239Y-109863000D01*
X140080858Y-109910619D01*
X140128477Y-110005857D01*
X140176096Y-110196333D01*
X140176096Y-110434429D01*
X140128477Y-110624905D01*
X140080858Y-110720143D01*
X140033239Y-110767762D01*
X139938001Y-110815381D01*
X139842762Y-110815381D01*
X139747524Y-110767762D01*
X139699905Y-110720143D01*
X139652286Y-110624905D01*
X139604667Y-110434429D01*
X139604667Y-110196333D01*
X139652286Y-110005857D01*
X139699905Y-109910619D01*
X139747524Y-109863000D01*
X139842762Y-109815381D01*
X124785381Y-105957666D02*
X124309190Y-106291000D01*
X124785381Y-106529095D02*
X123785381Y-106529095D01*
X123785381Y-106148142D01*
X123833000Y-106052904D01*
X123880619Y-106005285D01*
X123975857Y-105957666D01*
X124118714Y-105957666D01*
X124213952Y-106005285D01*
X124261571Y-106052904D01*
X124309190Y-106148142D01*
X124309190Y-106529095D01*
X124118714Y-105100523D02*
X124785381Y-105100523D01*
X123737762Y-105338619D02*
X124452048Y-105576714D01*
X124452048Y-104957666D01*
X124134619Y-100171095D02*
X124087000Y-100123476D01*
X124039381Y-100028238D01*
X124039381Y-99790142D01*
X124087000Y-99694904D01*
X124134619Y-99647285D01*
X124229857Y-99599666D01*
X124325095Y-99599666D01*
X124467952Y-99647285D01*
X125039381Y-100218714D01*
X125039381Y-99599666D01*
X124039381Y-99266333D02*
X124039381Y-98599666D01*
X125039381Y-99028238D01*
X124039381Y-98028238D02*
X124039381Y-97932999D01*
X124087000Y-97837761D01*
X124134619Y-97790142D01*
X124229857Y-97742523D01*
X124420333Y-97694904D01*
X124658429Y-97694904D01*
X124848905Y-97742523D01*
X124944143Y-97790142D01*
X124991762Y-97837761D01*
X125039381Y-97932999D01*
X125039381Y-98028238D01*
X124991762Y-98123476D01*
X124944143Y-98171095D01*
X124848905Y-98218714D01*
X124658429Y-98266333D01*
X124420333Y-98266333D01*
X124229857Y-98218714D01*
X124134619Y-98171095D01*
X124087000Y-98123476D01*
X124039381Y-98028238D01*
X121102381Y-105830666D02*
X120626190Y-106164000D01*
X121102381Y-106402095D02*
X120102381Y-106402095D01*
X120102381Y-106021142D01*
X120150000Y-105925904D01*
X120197619Y-105878285D01*
X120292857Y-105830666D01*
X120435714Y-105830666D01*
X120530952Y-105878285D01*
X120578571Y-105925904D01*
X120626190Y-106021142D01*
X120626190Y-106402095D01*
X120102381Y-104925904D02*
X120102381Y-105402095D01*
X120578571Y-105449714D01*
X120530952Y-105402095D01*
X120483333Y-105306857D01*
X120483333Y-105068761D01*
X120530952Y-104973523D01*
X120578571Y-104925904D01*
X120673810Y-104878285D01*
X120911905Y-104878285D01*
X121007143Y-104925904D01*
X121054762Y-104973523D01*
X121102381Y-105068761D01*
X121102381Y-105306857D01*
X121054762Y-105402095D01*
X121007143Y-105449714D01*
X120324619Y-100171095D02*
X120277000Y-100123476D01*
X120229381Y-100028238D01*
X120229381Y-99790142D01*
X120277000Y-99694904D01*
X120324619Y-99647285D01*
X120419857Y-99599666D01*
X120515095Y-99599666D01*
X120657952Y-99647285D01*
X121229381Y-100218714D01*
X121229381Y-99599666D01*
X120229381Y-99266333D02*
X120229381Y-98599666D01*
X121229381Y-99028238D01*
X120229381Y-98028238D02*
X120229381Y-97932999D01*
X120277000Y-97837761D01*
X120324619Y-97790142D01*
X120419857Y-97742523D01*
X120610333Y-97694904D01*
X120848429Y-97694904D01*
X121038905Y-97742523D01*
X121134143Y-97790142D01*
X121181762Y-97837761D01*
X121229381Y-97932999D01*
X121229381Y-98028238D01*
X121181762Y-98123476D01*
X121134143Y-98171095D01*
X121038905Y-98218714D01*
X120848429Y-98266333D01*
X120610333Y-98266333D01*
X120419857Y-98218714D01*
X120324619Y-98171095D01*
X120277000Y-98123476D01*
X120229381Y-98028238D01*
X79573381Y-99607666D02*
X79097190Y-99941000D01*
X79573381Y-100179095D02*
X78573381Y-100179095D01*
X78573381Y-99798142D01*
X78621000Y-99702904D01*
X78668619Y-99655285D01*
X78763857Y-99607666D01*
X78906714Y-99607666D01*
X79001952Y-99655285D01*
X79049571Y-99702904D01*
X79097190Y-99798142D01*
X79097190Y-100179095D01*
X78573381Y-98750523D02*
X78573381Y-98941000D01*
X78621000Y-99036238D01*
X78668619Y-99083857D01*
X78811476Y-99179095D01*
X79001952Y-99226714D01*
X79382905Y-99226714D01*
X79478143Y-99179095D01*
X79525762Y-99131476D01*
X79573381Y-99036238D01*
X79573381Y-98845761D01*
X79525762Y-98750523D01*
X79478143Y-98702904D01*
X79382905Y-98655285D01*
X79144810Y-98655285D01*
X79049571Y-98702904D01*
X79001952Y-98750523D01*
X78954333Y-98845761D01*
X78954333Y-99036238D01*
X79001952Y-99131476D01*
X79049571Y-99179095D01*
X79144810Y-99226714D01*
X81605381Y-93686285D02*
X81605381Y-94257714D01*
X81605381Y-93972000D02*
X80605381Y-93972000D01*
X80748238Y-94067238D01*
X80843476Y-94162476D01*
X80891095Y-94257714D01*
X81605381Y-93257714D02*
X80605381Y-93257714D01*
X81605381Y-92686285D02*
X81033952Y-93114857D01*
X80605381Y-92686285D02*
X81176810Y-93257714D01*
X88225334Y-105481381D02*
X87892000Y-105005190D01*
X87653905Y-105481381D02*
X87653905Y-104481381D01*
X88034858Y-104481381D01*
X88130096Y-104529000D01*
X88177715Y-104576619D01*
X88225334Y-104671857D01*
X88225334Y-104814714D01*
X88177715Y-104909952D01*
X88130096Y-104957571D01*
X88034858Y-105005190D01*
X87653905Y-105005190D01*
X88558667Y-104481381D02*
X89225334Y-104481381D01*
X88796762Y-105481381D01*
X94773905Y-104449619D02*
X94821524Y-104402000D01*
X94916762Y-104354381D01*
X95154858Y-104354381D01*
X95250096Y-104402000D01*
X95297715Y-104449619D01*
X95345334Y-104544857D01*
X95345334Y-104640095D01*
X95297715Y-104782952D01*
X94726286Y-105354381D01*
X95345334Y-105354381D01*
X95726286Y-104449619D02*
X95773905Y-104402000D01*
X95869143Y-104354381D01*
X96107239Y-104354381D01*
X96202477Y-104402000D01*
X96250096Y-104449619D01*
X96297715Y-104544857D01*
X96297715Y-104640095D01*
X96250096Y-104782952D01*
X95678667Y-105354381D01*
X96297715Y-105354381D01*
X96916762Y-104354381D02*
X97012001Y-104354381D01*
X97107239Y-104402000D01*
X97154858Y-104449619D01*
X97202477Y-104544857D01*
X97250096Y-104735333D01*
X97250096Y-104973429D01*
X97202477Y-105163905D01*
X97154858Y-105259143D01*
X97107239Y-105306762D01*
X97012001Y-105354381D01*
X96916762Y-105354381D01*
X96821524Y-105306762D01*
X96773905Y-105259143D01*
X96726286Y-105163905D01*
X96678667Y-104973429D01*
X96678667Y-104735333D01*
X96726286Y-104544857D01*
X96773905Y-104449619D01*
X96821524Y-104402000D01*
X96916762Y-104354381D01*
X80843381Y-113577666D02*
X80367190Y-113911000D01*
X80843381Y-114149095D02*
X79843381Y-114149095D01*
X79843381Y-113768142D01*
X79891000Y-113672904D01*
X79938619Y-113625285D01*
X80033857Y-113577666D01*
X80176714Y-113577666D01*
X80271952Y-113625285D01*
X80319571Y-113672904D01*
X80367190Y-113768142D01*
X80367190Y-114149095D01*
X80271952Y-113006238D02*
X80224333Y-113101476D01*
X80176714Y-113149095D01*
X80081476Y-113196714D01*
X80033857Y-113196714D01*
X79938619Y-113149095D01*
X79891000Y-113101476D01*
X79843381Y-113006238D01*
X79843381Y-112815761D01*
X79891000Y-112720523D01*
X79938619Y-112672904D01*
X80033857Y-112625285D01*
X80081476Y-112625285D01*
X80176714Y-112672904D01*
X80224333Y-112720523D01*
X80271952Y-112815761D01*
X80271952Y-113006238D01*
X80319571Y-113101476D01*
X80367190Y-113149095D01*
X80462429Y-113196714D01*
X80652905Y-113196714D01*
X80748143Y-113149095D01*
X80795762Y-113101476D01*
X80843381Y-113006238D01*
X80843381Y-112815761D01*
X80795762Y-112720523D01*
X80748143Y-112672904D01*
X80652905Y-112625285D01*
X80462429Y-112625285D01*
X80367190Y-112672904D01*
X80319571Y-112720523D01*
X80271952Y-112815761D01*
X81970619Y-108680095D02*
X81923000Y-108632476D01*
X81875381Y-108537238D01*
X81875381Y-108299142D01*
X81923000Y-108203904D01*
X81970619Y-108156285D01*
X82065857Y-108108666D01*
X82161095Y-108108666D01*
X82303952Y-108156285D01*
X82875381Y-108727714D01*
X82875381Y-108108666D01*
X81970619Y-107727714D02*
X81923000Y-107680095D01*
X81875381Y-107584857D01*
X81875381Y-107346761D01*
X81923000Y-107251523D01*
X81970619Y-107203904D01*
X82065857Y-107156285D01*
X82161095Y-107156285D01*
X82303952Y-107203904D01*
X82875381Y-107775333D01*
X82875381Y-107156285D01*
X81875381Y-106537238D02*
X81875381Y-106441999D01*
X81923000Y-106346761D01*
X81970619Y-106299142D01*
X82065857Y-106251523D01*
X82256333Y-106203904D01*
X82494429Y-106203904D01*
X82684905Y-106251523D01*
X82780143Y-106299142D01*
X82827762Y-106346761D01*
X82875381Y-106441999D01*
X82875381Y-106537238D01*
X82827762Y-106632476D01*
X82780143Y-106680095D01*
X82684905Y-106727714D01*
X82494429Y-106775333D01*
X82256333Y-106775333D01*
X82065857Y-106727714D01*
X81970619Y-106680095D01*
X81923000Y-106632476D01*
X81875381Y-106537238D01*
X86868095Y-85812381D02*
X86868095Y-86621905D01*
X86915714Y-86717143D01*
X86963333Y-86764762D01*
X87058571Y-86812381D01*
X87249048Y-86812381D01*
X87344286Y-86764762D01*
X87391905Y-86717143D01*
X87439524Y-86621905D01*
X87439524Y-85812381D01*
X88439524Y-86812381D02*
X87868095Y-86812381D01*
X88153809Y-86812381D02*
X88153809Y-85812381D01*
X88058571Y-85955238D01*
X87963333Y-86050476D01*
X87868095Y-86098095D01*
X92544286Y-86526667D02*
X93020477Y-86526667D01*
X92449048Y-86812381D02*
X92782381Y-85812381D01*
X93115715Y-86812381D01*
X93306191Y-85812381D02*
X93877620Y-85812381D01*
X93591905Y-86812381D02*
X93591905Y-85812381D01*
X94210953Y-86812381D02*
X94210953Y-85812381D01*
X94544287Y-86526667D01*
X94877620Y-85812381D01*
X94877620Y-86812381D01*
X95353810Y-86288571D02*
X95687144Y-86288571D01*
X95830001Y-86812381D02*
X95353810Y-86812381D01*
X95353810Y-85812381D01*
X95830001Y-85812381D01*
X96782382Y-85860000D02*
X96687144Y-85812381D01*
X96544287Y-85812381D01*
X96401429Y-85860000D01*
X96306191Y-85955238D01*
X96258572Y-86050476D01*
X96210953Y-86240952D01*
X96210953Y-86383810D01*
X96258572Y-86574286D01*
X96306191Y-86669524D01*
X96401429Y-86764762D01*
X96544287Y-86812381D01*
X96639525Y-86812381D01*
X96782382Y-86764762D01*
X96830001Y-86717143D01*
X96830001Y-86383810D01*
X96639525Y-86383810D01*
X97210953Y-86526667D02*
X97687144Y-86526667D01*
X97115715Y-86812381D02*
X97449048Y-85812381D01*
X97782382Y-86812381D01*
X98639525Y-86812381D02*
X98068096Y-86812381D01*
X98353810Y-86812381D02*
X98353810Y-85812381D01*
X98258572Y-85955238D01*
X98163334Y-86050476D01*
X98068096Y-86098095D01*
X99020477Y-85907619D02*
X99068096Y-85860000D01*
X99163334Y-85812381D01*
X99401430Y-85812381D01*
X99496668Y-85860000D01*
X99544287Y-85907619D01*
X99591906Y-86002857D01*
X99591906Y-86098095D01*
X99544287Y-86240952D01*
X98972858Y-86812381D01*
X99591906Y-86812381D01*
X100163334Y-86240952D02*
X100068096Y-86193333D01*
X100020477Y-86145714D01*
X99972858Y-86050476D01*
X99972858Y-86002857D01*
X100020477Y-85907619D01*
X100068096Y-85860000D01*
X100163334Y-85812381D01*
X100353811Y-85812381D01*
X100449049Y-85860000D01*
X100496668Y-85907619D01*
X100544287Y-86002857D01*
X100544287Y-86050476D01*
X100496668Y-86145714D01*
X100449049Y-86193333D01*
X100353811Y-86240952D01*
X100163334Y-86240952D01*
X100068096Y-86288571D01*
X100020477Y-86336190D01*
X99972858Y-86431429D01*
X99972858Y-86621905D01*
X100020477Y-86717143D01*
X100068096Y-86764762D01*
X100163334Y-86812381D01*
X100353811Y-86812381D01*
X100449049Y-86764762D01*
X100496668Y-86717143D01*
X100544287Y-86621905D01*
X100544287Y-86431429D01*
X100496668Y-86336190D01*
X100449049Y-86288571D01*
X100353811Y-86240952D01*
X101401430Y-86145714D02*
X101401430Y-86812381D01*
X101163334Y-85764762D02*
X100925239Y-86479048D01*
X101544287Y-86479048D01*
X101925239Y-86812381D02*
X101925239Y-85812381D01*
X102306192Y-85812381D01*
X102401430Y-85860000D01*
X102449049Y-85907619D01*
X102496668Y-86002857D01*
X102496668Y-86145714D01*
X102449049Y-86240952D01*
X102401430Y-86288571D01*
X102306192Y-86336190D01*
X101925239Y-86336190D01*
X102925239Y-86431429D02*
X103687144Y-86431429D01*
X104163334Y-86812381D02*
X104163334Y-85812381D01*
X104401429Y-85812381D01*
X104544287Y-85860000D01*
X104639525Y-85955238D01*
X104687144Y-86050476D01*
X104734763Y-86240952D01*
X104734763Y-86383810D01*
X104687144Y-86574286D01*
X104639525Y-86669524D01*
X104544287Y-86764762D01*
X104401429Y-86812381D01*
X104163334Y-86812381D01*
X105163334Y-86812381D02*
X105163334Y-85812381D01*
X105639524Y-86812381D02*
X105639524Y-85812381D01*
X106020477Y-85812381D01*
X106115715Y-85860000D01*
X106163334Y-85907619D01*
X106210953Y-86002857D01*
X106210953Y-86145714D01*
X106163334Y-86240952D01*
X106115715Y-86288571D01*
X106020477Y-86336190D01*
X105639524Y-86336190D01*
X107068096Y-86145714D02*
X107068096Y-86812381D01*
X106830000Y-85764762D02*
X106591905Y-86479048D01*
X107210953Y-86479048D01*
X107782381Y-85812381D02*
X107877620Y-85812381D01*
X107972858Y-85860000D01*
X108020477Y-85907619D01*
X108068096Y-86002857D01*
X108115715Y-86193333D01*
X108115715Y-86431429D01*
X108068096Y-86621905D01*
X108020477Y-86717143D01*
X107972858Y-86764762D01*
X107877620Y-86812381D01*
X107782381Y-86812381D01*
X107687143Y-86764762D01*
X107639524Y-86717143D01*
X107591905Y-86621905D01*
X107544286Y-86431429D01*
X107544286Y-86193333D01*
X107591905Y-86002857D01*
X107639524Y-85907619D01*
X107687143Y-85860000D01*
X107782381Y-85812381D01*
X145754981Y-73151905D02*
X146564505Y-73151905D01*
X146659743Y-73104286D01*
X146707362Y-73056667D01*
X146754981Y-72961429D01*
X146754981Y-72770952D01*
X146707362Y-72675714D01*
X146659743Y-72628095D01*
X146564505Y-72580476D01*
X145754981Y-72580476D01*
X145850219Y-72151905D02*
X145802600Y-72104286D01*
X145754981Y-72009048D01*
X145754981Y-71770952D01*
X145802600Y-71675714D01*
X145850219Y-71628095D01*
X145945457Y-71580476D01*
X146040695Y-71580476D01*
X146183552Y-71628095D01*
X146754981Y-72199524D01*
X146754981Y-71580476D01*
X156916381Y-74453476D02*
X155916381Y-74453476D01*
X155916381Y-74072523D01*
X155964000Y-73977285D01*
X156011619Y-73929666D01*
X156106857Y-73882047D01*
X156249714Y-73882047D01*
X156344952Y-73929666D01*
X156392571Y-73977285D01*
X156440190Y-74072523D01*
X156440190Y-74453476D01*
X156821143Y-72882047D02*
X156868762Y-72929666D01*
X156916381Y-73072523D01*
X156916381Y-73167761D01*
X156868762Y-73310619D01*
X156773524Y-73405857D01*
X156678286Y-73453476D01*
X156487810Y-73501095D01*
X156344952Y-73501095D01*
X156154476Y-73453476D01*
X156059238Y-73405857D01*
X155964000Y-73310619D01*
X155916381Y-73167761D01*
X155916381Y-73072523D01*
X155964000Y-72929666D01*
X156011619Y-72882047D01*
X156916381Y-72405857D02*
X156916381Y-72215381D01*
X156868762Y-72120142D01*
X156821143Y-72072523D01*
X156678286Y-71977285D01*
X156487810Y-71929666D01*
X156106857Y-71929666D01*
X156011619Y-71977285D01*
X155964000Y-72024904D01*
X155916381Y-72120142D01*
X155916381Y-72310619D01*
X155964000Y-72405857D01*
X156011619Y-72453476D01*
X156106857Y-72501095D01*
X156344952Y-72501095D01*
X156440190Y-72453476D01*
X156487810Y-72405857D01*
X156535429Y-72310619D01*
X156535429Y-72120142D01*
X156487810Y-72024904D01*
X156440190Y-71977285D01*
X156344952Y-71929666D01*
X155916381Y-71310619D02*
X155916381Y-71215380D01*
X155964000Y-71120142D01*
X156011619Y-71072523D01*
X156106857Y-71024904D01*
X156297333Y-70977285D01*
X156535429Y-70977285D01*
X156725905Y-71024904D01*
X156821143Y-71072523D01*
X156868762Y-71120142D01*
X156916381Y-71215380D01*
X156916381Y-71310619D01*
X156868762Y-71405857D01*
X156821143Y-71453476D01*
X156725905Y-71501095D01*
X156535429Y-71548714D01*
X156297333Y-71548714D01*
X156106857Y-71501095D01*
X156011619Y-71453476D01*
X155964000Y-71405857D01*
X155916381Y-71310619D01*
X155916381Y-70358238D02*
X155916381Y-70262999D01*
X155964000Y-70167761D01*
X156011619Y-70120142D01*
X156106857Y-70072523D01*
X156297333Y-70024904D01*
X156535429Y-70024904D01*
X156725905Y-70072523D01*
X156821143Y-70120142D01*
X156868762Y-70167761D01*
X156916381Y-70262999D01*
X156916381Y-70358238D01*
X156868762Y-70453476D01*
X156821143Y-70501095D01*
X156725905Y-70548714D01*
X156535429Y-70596333D01*
X156297333Y-70596333D01*
X156106857Y-70548714D01*
X156011619Y-70501095D01*
X155964000Y-70453476D01*
X155916381Y-70358238D01*
X132461095Y-102576381D02*
X132461095Y-103385905D01*
X132508714Y-103481143D01*
X132556333Y-103528762D01*
X132651571Y-103576381D01*
X132842048Y-103576381D01*
X132937286Y-103528762D01*
X132984905Y-103481143D01*
X133032524Y-103385905D01*
X133032524Y-102576381D01*
X133413476Y-102576381D02*
X134032524Y-102576381D01*
X133699190Y-102957333D01*
X133842048Y-102957333D01*
X133937286Y-103004952D01*
X133984905Y-103052571D01*
X134032524Y-103147810D01*
X134032524Y-103385905D01*
X133984905Y-103481143D01*
X133937286Y-103528762D01*
X133842048Y-103576381D01*
X133556333Y-103576381D01*
X133461095Y-103528762D01*
X133413476Y-103481143D01*
X141295381Y-100488476D02*
X140295381Y-100488476D01*
X140295381Y-100107523D01*
X140343000Y-100012285D01*
X140390619Y-99964666D01*
X140485857Y-99917047D01*
X140628714Y-99917047D01*
X140723952Y-99964666D01*
X140771571Y-100012285D01*
X140819190Y-100107523D01*
X140819190Y-100488476D01*
X141200143Y-98917047D02*
X141247762Y-98964666D01*
X141295381Y-99107523D01*
X141295381Y-99202761D01*
X141247762Y-99345619D01*
X141152524Y-99440857D01*
X141057286Y-99488476D01*
X140866810Y-99536095D01*
X140723952Y-99536095D01*
X140533476Y-99488476D01*
X140438238Y-99440857D01*
X140343000Y-99345619D01*
X140295381Y-99202761D01*
X140295381Y-99107523D01*
X140343000Y-98964666D01*
X140390619Y-98917047D01*
X141295381Y-98440857D02*
X141295381Y-98250381D01*
X141247762Y-98155142D01*
X141200143Y-98107523D01*
X141057286Y-98012285D01*
X140866810Y-97964666D01*
X140485857Y-97964666D01*
X140390619Y-98012285D01*
X140343000Y-98059904D01*
X140295381Y-98155142D01*
X140295381Y-98345619D01*
X140343000Y-98440857D01*
X140390619Y-98488476D01*
X140485857Y-98536095D01*
X140723952Y-98536095D01*
X140819190Y-98488476D01*
X140866810Y-98440857D01*
X140914429Y-98345619D01*
X140914429Y-98155142D01*
X140866810Y-98059904D01*
X140819190Y-98012285D01*
X140723952Y-97964666D01*
X140295381Y-97345619D02*
X140295381Y-97250380D01*
X140343000Y-97155142D01*
X140390619Y-97107523D01*
X140485857Y-97059904D01*
X140676333Y-97012285D01*
X140914429Y-97012285D01*
X141104905Y-97059904D01*
X141200143Y-97107523D01*
X141247762Y-97155142D01*
X141295381Y-97250380D01*
X141295381Y-97345619D01*
X141247762Y-97440857D01*
X141200143Y-97488476D01*
X141104905Y-97536095D01*
X140914429Y-97583714D01*
X140676333Y-97583714D01*
X140485857Y-97536095D01*
X140390619Y-97488476D01*
X140343000Y-97440857D01*
X140295381Y-97345619D01*
X140295381Y-96393238D02*
X140295381Y-96297999D01*
X140343000Y-96202761D01*
X140390619Y-96155142D01*
X140485857Y-96107523D01*
X140676333Y-96059904D01*
X140914429Y-96059904D01*
X141104905Y-96107523D01*
X141200143Y-96155142D01*
X141247762Y-96202761D01*
X141295381Y-96297999D01*
X141295381Y-96393238D01*
X141247762Y-96488476D01*
X141200143Y-96536095D01*
X141104905Y-96583714D01*
X140914429Y-96631333D01*
X140676333Y-96631333D01*
X140485857Y-96583714D01*
X140390619Y-96536095D01*
X140343000Y-96488476D01*
X140295381Y-96393238D01*
X85598095Y-100036381D02*
X85598095Y-100845905D01*
X85645714Y-100941143D01*
X85693333Y-100988762D01*
X85788571Y-101036381D01*
X85979048Y-101036381D01*
X86074286Y-100988762D01*
X86121905Y-100941143D01*
X86169524Y-100845905D01*
X86169524Y-100036381D01*
X87074286Y-100369714D02*
X87074286Y-101036381D01*
X86836190Y-99988762D02*
X86598095Y-100703048D01*
X87217143Y-100703048D01*
X92210286Y-99655381D02*
X92876953Y-99655381D01*
X92448381Y-100655381D01*
X93686477Y-99988714D02*
X93686477Y-100655381D01*
X93448381Y-99607762D02*
X93210286Y-100322048D01*
X93829334Y-100322048D01*
X94210286Y-100655381D02*
X94210286Y-99655381D01*
X94210286Y-100131571D02*
X94781715Y-100131571D01*
X94781715Y-100655381D02*
X94781715Y-99655381D01*
X95829334Y-100560143D02*
X95781715Y-100607762D01*
X95638858Y-100655381D01*
X95543620Y-100655381D01*
X95400762Y-100607762D01*
X95305524Y-100512524D01*
X95257905Y-100417286D01*
X95210286Y-100226810D01*
X95210286Y-100083952D01*
X95257905Y-99893476D01*
X95305524Y-99798238D01*
X95400762Y-99703000D01*
X95543620Y-99655381D01*
X95638858Y-99655381D01*
X95781715Y-99703000D01*
X95829334Y-99750619D01*
X96448381Y-99655381D02*
X96543620Y-99655381D01*
X96638858Y-99703000D01*
X96686477Y-99750619D01*
X96734096Y-99845857D01*
X96781715Y-100036333D01*
X96781715Y-100274429D01*
X96734096Y-100464905D01*
X96686477Y-100560143D01*
X96638858Y-100607762D01*
X96543620Y-100655381D01*
X96448381Y-100655381D01*
X96353143Y-100607762D01*
X96305524Y-100560143D01*
X96257905Y-100464905D01*
X96210286Y-100274429D01*
X96210286Y-100036333D01*
X96257905Y-99845857D01*
X96305524Y-99750619D01*
X96353143Y-99703000D01*
X96448381Y-99655381D01*
X97686477Y-99655381D02*
X97210286Y-99655381D01*
X97162667Y-100131571D01*
X97210286Y-100083952D01*
X97305524Y-100036333D01*
X97543620Y-100036333D01*
X97638858Y-100083952D01*
X97686477Y-100131571D01*
X97734096Y-100226810D01*
X97734096Y-100464905D01*
X97686477Y-100560143D01*
X97638858Y-100607762D01*
X97543620Y-100655381D01*
X97305524Y-100655381D01*
X97210286Y-100607762D01*
X97162667Y-100560143D01*
X142263905Y-80716381D02*
X142263905Y-79716381D01*
X142502000Y-79716381D01*
X142644858Y-79764000D01*
X142740096Y-79859238D01*
X142787715Y-79954476D01*
X142835334Y-80144952D01*
X142835334Y-80287810D01*
X142787715Y-80478286D01*
X142740096Y-80573524D01*
X142644858Y-80668762D01*
X142502000Y-80716381D01*
X142263905Y-80716381D01*
X143787715Y-80716381D02*
X143216286Y-80716381D01*
X143502000Y-80716381D02*
X143502000Y-79716381D01*
X143406762Y-79859238D01*
X143311524Y-79954476D01*
X143216286Y-80002095D01*
X149788762Y-80462381D02*
X149217333Y-80462381D01*
X149503047Y-80462381D02*
X149503047Y-79462381D01*
X149407809Y-79605238D01*
X149312571Y-79700476D01*
X149217333Y-79748095D01*
X150217333Y-79795714D02*
X150217333Y-80462381D01*
X150217333Y-79890952D02*
X150264952Y-79843333D01*
X150360190Y-79795714D01*
X150503048Y-79795714D01*
X150598286Y-79843333D01*
X150645905Y-79938571D01*
X150645905Y-80462381D01*
X151169714Y-80462381D02*
X151360190Y-80462381D01*
X151455429Y-80414762D01*
X151503048Y-80367143D01*
X151598286Y-80224286D01*
X151645905Y-80033810D01*
X151645905Y-79652857D01*
X151598286Y-79557619D01*
X151550667Y-79510000D01*
X151455429Y-79462381D01*
X151264952Y-79462381D01*
X151169714Y-79510000D01*
X151122095Y-79557619D01*
X151074476Y-79652857D01*
X151074476Y-79890952D01*
X151122095Y-79986190D01*
X151169714Y-80033810D01*
X151264952Y-80081429D01*
X151455429Y-80081429D01*
X151550667Y-80033810D01*
X151598286Y-79986190D01*
X151645905Y-79890952D01*
X152598286Y-80462381D02*
X152026857Y-80462381D01*
X152312571Y-80462381D02*
X152312571Y-79462381D01*
X152217333Y-79605238D01*
X152122095Y-79700476D01*
X152026857Y-79748095D01*
X153455429Y-79795714D02*
X153455429Y-80462381D01*
X153217333Y-79414762D02*
X152979238Y-80129048D01*
X153598286Y-80129048D01*
X117419381Y-106402095D02*
X116419381Y-106402095D01*
X116419381Y-106164000D01*
X116467000Y-106021142D01*
X116562238Y-105925904D01*
X116657476Y-105878285D01*
X116847952Y-105830666D01*
X116990810Y-105830666D01*
X117181286Y-105878285D01*
X117276524Y-105925904D01*
X117371762Y-106021142D01*
X117419381Y-106164000D01*
X117419381Y-106402095D01*
X116514619Y-105449714D02*
X116467000Y-105402095D01*
X116419381Y-105306857D01*
X116419381Y-105068761D01*
X116467000Y-104973523D01*
X116514619Y-104925904D01*
X116609857Y-104878285D01*
X116705095Y-104878285D01*
X116847952Y-104925904D01*
X117419381Y-105497333D01*
X117419381Y-104878285D01*
X117292381Y-99766238D02*
X117292381Y-100337667D01*
X117292381Y-100051953D02*
X116292381Y-100051953D01*
X116435238Y-100147191D01*
X116530476Y-100242429D01*
X116578095Y-100337667D01*
X116625714Y-99337667D02*
X117292381Y-99337667D01*
X116720952Y-99337667D02*
X116673333Y-99290048D01*
X116625714Y-99194810D01*
X116625714Y-99051952D01*
X116673333Y-98956714D01*
X116768571Y-98909095D01*
X117292381Y-98909095D01*
X117292381Y-98385286D02*
X117292381Y-98194810D01*
X117244762Y-98099571D01*
X117197143Y-98051952D01*
X117054286Y-97956714D01*
X116863810Y-97909095D01*
X116482857Y-97909095D01*
X116387619Y-97956714D01*
X116340000Y-98004333D01*
X116292381Y-98099571D01*
X116292381Y-98290048D01*
X116340000Y-98385286D01*
X116387619Y-98432905D01*
X116482857Y-98480524D01*
X116720952Y-98480524D01*
X116816190Y-98432905D01*
X116863810Y-98385286D01*
X116911429Y-98290048D01*
X116911429Y-98099571D01*
X116863810Y-98004333D01*
X116816190Y-97956714D01*
X116720952Y-97909095D01*
X117292381Y-96956714D02*
X117292381Y-97528143D01*
X117292381Y-97242429D02*
X116292381Y-97242429D01*
X116435238Y-97337667D01*
X116530476Y-97432905D01*
X116578095Y-97528143D01*
X116625714Y-96099571D02*
X117292381Y-96099571D01*
X116244762Y-96337667D02*
X116959048Y-96575762D01*
X116959048Y-95956714D01*
X113736381Y-106402095D02*
X112736381Y-106402095D01*
X112736381Y-106164000D01*
X112784000Y-106021142D01*
X112879238Y-105925904D01*
X112974476Y-105878285D01*
X113164952Y-105830666D01*
X113307810Y-105830666D01*
X113498286Y-105878285D01*
X113593524Y-105925904D01*
X113688762Y-106021142D01*
X113736381Y-106164000D01*
X113736381Y-106402095D01*
X112736381Y-105497333D02*
X112736381Y-104878285D01*
X113117333Y-105211619D01*
X113117333Y-105068761D01*
X113164952Y-104973523D01*
X113212571Y-104925904D01*
X113307810Y-104878285D01*
X113545905Y-104878285D01*
X113641143Y-104925904D01*
X113688762Y-104973523D01*
X113736381Y-105068761D01*
X113736381Y-105354476D01*
X113688762Y-105449714D01*
X113641143Y-105497333D01*
X113482381Y-99766238D02*
X113482381Y-100337667D01*
X113482381Y-100051953D02*
X112482381Y-100051953D01*
X112625238Y-100147191D01*
X112720476Y-100242429D01*
X112768095Y-100337667D01*
X112815714Y-99337667D02*
X113482381Y-99337667D01*
X112910952Y-99337667D02*
X112863333Y-99290048D01*
X112815714Y-99194810D01*
X112815714Y-99051952D01*
X112863333Y-98956714D01*
X112958571Y-98909095D01*
X113482381Y-98909095D01*
X113482381Y-98385286D02*
X113482381Y-98194810D01*
X113434762Y-98099571D01*
X113387143Y-98051952D01*
X113244286Y-97956714D01*
X113053810Y-97909095D01*
X112672857Y-97909095D01*
X112577619Y-97956714D01*
X112530000Y-98004333D01*
X112482381Y-98099571D01*
X112482381Y-98290048D01*
X112530000Y-98385286D01*
X112577619Y-98432905D01*
X112672857Y-98480524D01*
X112910952Y-98480524D01*
X113006190Y-98432905D01*
X113053810Y-98385286D01*
X113101429Y-98290048D01*
X113101429Y-98099571D01*
X113053810Y-98004333D01*
X113006190Y-97956714D01*
X112910952Y-97909095D01*
X113482381Y-96956714D02*
X113482381Y-97528143D01*
X113482381Y-97242429D02*
X112482381Y-97242429D01*
X112625238Y-97337667D01*
X112720476Y-97432905D01*
X112768095Y-97528143D01*
X112815714Y-96099571D02*
X113482381Y-96099571D01*
X112434762Y-96337667D02*
X113149048Y-96575762D01*
X113149048Y-95956714D01*
X129563905Y-107386381D02*
X129563905Y-106386381D01*
X129802000Y-106386381D01*
X129944858Y-106434000D01*
X130040096Y-106529238D01*
X130087715Y-106624476D01*
X130135334Y-106814952D01*
X130135334Y-106957810D01*
X130087715Y-107148286D01*
X130040096Y-107243524D01*
X129944858Y-107338762D01*
X129802000Y-107386381D01*
X129563905Y-107386381D01*
X130992477Y-106719714D02*
X130992477Y-107386381D01*
X130754381Y-106338762D02*
X130516286Y-107053048D01*
X131135334Y-107053048D01*
X137088762Y-107132381D02*
X136517333Y-107132381D01*
X136803047Y-107132381D02*
X136803047Y-106132381D01*
X136707809Y-106275238D01*
X136612571Y-106370476D01*
X136517333Y-106418095D01*
X137517333Y-106465714D02*
X137517333Y-107132381D01*
X137517333Y-106560952D02*
X137564952Y-106513333D01*
X137660190Y-106465714D01*
X137803048Y-106465714D01*
X137898286Y-106513333D01*
X137945905Y-106608571D01*
X137945905Y-107132381D01*
X138469714Y-107132381D02*
X138660190Y-107132381D01*
X138755429Y-107084762D01*
X138803048Y-107037143D01*
X138898286Y-106894286D01*
X138945905Y-106703810D01*
X138945905Y-106322857D01*
X138898286Y-106227619D01*
X138850667Y-106180000D01*
X138755429Y-106132381D01*
X138564952Y-106132381D01*
X138469714Y-106180000D01*
X138422095Y-106227619D01*
X138374476Y-106322857D01*
X138374476Y-106560952D01*
X138422095Y-106656190D01*
X138469714Y-106703810D01*
X138564952Y-106751429D01*
X138755429Y-106751429D01*
X138850667Y-106703810D01*
X138898286Y-106656190D01*
X138945905Y-106560952D01*
X139898286Y-107132381D02*
X139326857Y-107132381D01*
X139612571Y-107132381D02*
X139612571Y-106132381D01*
X139517333Y-106275238D01*
X139422095Y-106370476D01*
X139326857Y-106418095D01*
X140755429Y-106465714D02*
X140755429Y-107132381D01*
X140517333Y-106084762D02*
X140279238Y-106799048D01*
X140898286Y-106799048D01*
X143978334Y-85447143D02*
X143930715Y-85494762D01*
X143787858Y-85542381D01*
X143692620Y-85542381D01*
X143549762Y-85494762D01*
X143454524Y-85399524D01*
X143406905Y-85304286D01*
X143359286Y-85113810D01*
X143359286Y-84970952D01*
X143406905Y-84780476D01*
X143454524Y-84685238D01*
X143549762Y-84590000D01*
X143692620Y-84542381D01*
X143787858Y-84542381D01*
X143930715Y-84590000D01*
X143978334Y-84637619D01*
X144311667Y-84542381D02*
X144930715Y-84542381D01*
X144597381Y-84923333D01*
X144740239Y-84923333D01*
X144835477Y-84970952D01*
X144883096Y-85018571D01*
X144930715Y-85113810D01*
X144930715Y-85351905D01*
X144883096Y-85447143D01*
X144835477Y-85494762D01*
X144740239Y-85542381D01*
X144454524Y-85542381D01*
X144359286Y-85494762D01*
X144311667Y-85447143D01*
X156376857Y-85193143D02*
X156424476Y-85240762D01*
X156376857Y-85288381D01*
X156329238Y-85240762D01*
X156376857Y-85193143D01*
X156376857Y-85288381D01*
X157376857Y-85288381D02*
X156805428Y-85288381D01*
X157091142Y-85288381D02*
X157091142Y-84288381D01*
X156995904Y-84431238D01*
X156900666Y-84526476D01*
X156805428Y-84574095D01*
X158234000Y-84621714D02*
X158234000Y-85288381D01*
X157805428Y-84621714D02*
X157805428Y-85145524D01*
X157853047Y-85240762D01*
X157948285Y-85288381D01*
X158091143Y-85288381D01*
X158186381Y-85240762D01*
X158234000Y-85193143D01*
X159043524Y-84764571D02*
X158710190Y-84764571D01*
X158710190Y-85288381D02*
X158710190Y-84288381D01*
X159186381Y-84288381D01*
X129262143Y-104306666D02*
X129309762Y-104354285D01*
X129357381Y-104497142D01*
X129357381Y-104592380D01*
X129309762Y-104735238D01*
X129214524Y-104830476D01*
X129119286Y-104878095D01*
X128928810Y-104925714D01*
X128785952Y-104925714D01*
X128595476Y-104878095D01*
X128500238Y-104830476D01*
X128405000Y-104735238D01*
X128357381Y-104592380D01*
X128357381Y-104497142D01*
X128405000Y-104354285D01*
X128452619Y-104306666D01*
X128690714Y-103449523D02*
X129357381Y-103449523D01*
X128309762Y-103687619D02*
X129024048Y-103925714D01*
X129024048Y-103306666D01*
X127738143Y-98766143D02*
X127785762Y-98718524D01*
X127833381Y-98766143D01*
X127785762Y-98813762D01*
X127738143Y-98766143D01*
X127833381Y-98766143D01*
X127833381Y-97766143D02*
X127833381Y-98337572D01*
X127833381Y-98051858D02*
X126833381Y-98051858D01*
X126976238Y-98147096D01*
X127071476Y-98242334D01*
X127119095Y-98337572D01*
X127166714Y-96909000D02*
X127833381Y-96909000D01*
X127166714Y-97337572D02*
X127690524Y-97337572D01*
X127785762Y-97289953D01*
X127833381Y-97194715D01*
X127833381Y-97051857D01*
X127785762Y-96956619D01*
X127738143Y-96909000D01*
X127309571Y-96099476D02*
X127309571Y-96432810D01*
X127833381Y-96432810D02*
X126833381Y-96432810D01*
X126833381Y-95956619D01*
X141200143Y-75096666D02*
X141247762Y-75144285D01*
X141295381Y-75287142D01*
X141295381Y-75382380D01*
X141247762Y-75525238D01*
X141152524Y-75620476D01*
X141057286Y-75668095D01*
X140866810Y-75715714D01*
X140723952Y-75715714D01*
X140533476Y-75668095D01*
X140438238Y-75620476D01*
X140343000Y-75525238D01*
X140295381Y-75382380D01*
X140295381Y-75287142D01*
X140343000Y-75144285D01*
X140390619Y-75096666D01*
X140295381Y-74191904D02*
X140295381Y-74668095D01*
X140771571Y-74715714D01*
X140723952Y-74668095D01*
X140676333Y-74572857D01*
X140676333Y-74334761D01*
X140723952Y-74239523D01*
X140771571Y-74191904D01*
X140866810Y-74144285D01*
X141104905Y-74144285D01*
X141200143Y-74191904D01*
X141247762Y-74239523D01*
X141295381Y-74334761D01*
X141295381Y-74572857D01*
X141247762Y-74668095D01*
X141200143Y-74715714D01*
X142978143Y-67143143D02*
X143025762Y-67095524D01*
X143073381Y-67143143D01*
X143025762Y-67190762D01*
X142978143Y-67143143D01*
X143073381Y-67143143D01*
X143073381Y-66143143D02*
X143073381Y-66714572D01*
X143073381Y-66428858D02*
X142073381Y-66428858D01*
X142216238Y-66524096D01*
X142311476Y-66619334D01*
X142359095Y-66714572D01*
X142406714Y-65286000D02*
X143073381Y-65286000D01*
X142406714Y-65714572D02*
X142930524Y-65714572D01*
X143025762Y-65666953D01*
X143073381Y-65571715D01*
X143073381Y-65428857D01*
X143025762Y-65333619D01*
X142978143Y-65286000D01*
X142549571Y-64476476D02*
X142549571Y-64809810D01*
X143073381Y-64809810D02*
X142073381Y-64809810D01*
X142073381Y-64333619D01*
X105767143Y-101131666D02*
X105814762Y-101179285D01*
X105862381Y-101322142D01*
X105862381Y-101417380D01*
X105814762Y-101560238D01*
X105719524Y-101655476D01*
X105624286Y-101703095D01*
X105433810Y-101750714D01*
X105290952Y-101750714D01*
X105100476Y-101703095D01*
X105005238Y-101655476D01*
X104910000Y-101560238D01*
X104862381Y-101417380D01*
X104862381Y-101322142D01*
X104910000Y-101179285D01*
X104957619Y-101131666D01*
X104862381Y-100274523D02*
X104862381Y-100465000D01*
X104910000Y-100560238D01*
X104957619Y-100607857D01*
X105100476Y-100703095D01*
X105290952Y-100750714D01*
X105671905Y-100750714D01*
X105767143Y-100703095D01*
X105814762Y-100655476D01*
X105862381Y-100560238D01*
X105862381Y-100369761D01*
X105814762Y-100274523D01*
X105767143Y-100226904D01*
X105671905Y-100179285D01*
X105433810Y-100179285D01*
X105338571Y-100226904D01*
X105290952Y-100274523D01*
X105243333Y-100369761D01*
X105243333Y-100560238D01*
X105290952Y-100655476D01*
X105338571Y-100703095D01*
X105433810Y-100750714D01*
X104497143Y-96861143D02*
X104544762Y-96813524D01*
X104592381Y-96861143D01*
X104544762Y-96908762D01*
X104497143Y-96861143D01*
X104592381Y-96861143D01*
X104592381Y-95861143D02*
X104592381Y-96432572D01*
X104592381Y-96146858D02*
X103592381Y-96146858D01*
X103735238Y-96242096D01*
X103830476Y-96337334D01*
X103878095Y-96432572D01*
X103925714Y-95004000D02*
X104592381Y-95004000D01*
X103925714Y-95432572D02*
X104449524Y-95432572D01*
X104544762Y-95384953D01*
X104592381Y-95289715D01*
X104592381Y-95146857D01*
X104544762Y-95051619D01*
X104497143Y-95004000D01*
X104068571Y-94194476D02*
X104068571Y-94527810D01*
X104592381Y-94527810D02*
X103592381Y-94527810D01*
X103592381Y-94051619D01*
X113498334Y-64365143D02*
X113450715Y-64412762D01*
X113307858Y-64460381D01*
X113212620Y-64460381D01*
X113069762Y-64412762D01*
X112974524Y-64317524D01*
X112926905Y-64222286D01*
X112879286Y-64031810D01*
X112879286Y-63888952D01*
X112926905Y-63698476D01*
X112974524Y-63603238D01*
X113069762Y-63508000D01*
X113212620Y-63460381D01*
X113307858Y-63460381D01*
X113450715Y-63508000D01*
X113498334Y-63555619D01*
X113831667Y-63460381D02*
X114498334Y-63460381D01*
X114069762Y-64460381D01*
X98591857Y-64492143D02*
X98639476Y-64539762D01*
X98591857Y-64587381D01*
X98544238Y-64539762D01*
X98591857Y-64492143D01*
X98591857Y-64587381D01*
X99591857Y-64587381D02*
X99020428Y-64587381D01*
X99306142Y-64587381D02*
X99306142Y-63587381D01*
X99210904Y-63730238D01*
X99115666Y-63825476D01*
X99020428Y-63873095D01*
X100449000Y-63920714D02*
X100449000Y-64587381D01*
X100020428Y-63920714D02*
X100020428Y-64444524D01*
X100068047Y-64539762D01*
X100163285Y-64587381D01*
X100306143Y-64587381D01*
X100401381Y-64539762D01*
X100449000Y-64492143D01*
X101258524Y-64063571D02*
X100925190Y-64063571D01*
X100925190Y-64587381D02*
X100925190Y-63587381D01*
X101401381Y-63587381D01*
X144232334Y-88749143D02*
X144184715Y-88796762D01*
X144041858Y-88844381D01*
X143946620Y-88844381D01*
X143803762Y-88796762D01*
X143708524Y-88701524D01*
X143660905Y-88606286D01*
X143613286Y-88415810D01*
X143613286Y-88272952D01*
X143660905Y-88082476D01*
X143708524Y-87987238D01*
X143803762Y-87892000D01*
X143946620Y-87844381D01*
X144041858Y-87844381D01*
X144184715Y-87892000D01*
X144232334Y-87939619D01*
X144803762Y-88272952D02*
X144708524Y-88225333D01*
X144660905Y-88177714D01*
X144613286Y-88082476D01*
X144613286Y-88034857D01*
X144660905Y-87939619D01*
X144708524Y-87892000D01*
X144803762Y-87844381D01*
X144994239Y-87844381D01*
X145089477Y-87892000D01*
X145137096Y-87939619D01*
X145184715Y-88034857D01*
X145184715Y-88082476D01*
X145137096Y-88177714D01*
X145089477Y-88225333D01*
X144994239Y-88272952D01*
X144803762Y-88272952D01*
X144708524Y-88320571D01*
X144660905Y-88368190D01*
X144613286Y-88463429D01*
X144613286Y-88653905D01*
X144660905Y-88749143D01*
X144708524Y-88796762D01*
X144803762Y-88844381D01*
X144994239Y-88844381D01*
X145089477Y-88796762D01*
X145137096Y-88749143D01*
X145184715Y-88653905D01*
X145184715Y-88463429D01*
X145137096Y-88368190D01*
X145089477Y-88320571D01*
X144994239Y-88272952D01*
X142107381Y-95011428D02*
X142107381Y-95582857D01*
X142107381Y-95297143D02*
X141107381Y-95297143D01*
X141250238Y-95392381D01*
X141345476Y-95487619D01*
X141393095Y-95582857D01*
X141107381Y-94392381D02*
X141107381Y-94297142D01*
X141155000Y-94201904D01*
X141202619Y-94154285D01*
X141297857Y-94106666D01*
X141488333Y-94059047D01*
X141726429Y-94059047D01*
X141916905Y-94106666D01*
X142012143Y-94154285D01*
X142059762Y-94201904D01*
X142107381Y-94297142D01*
X142107381Y-94392381D01*
X142059762Y-94487619D01*
X142012143Y-94535238D01*
X141916905Y-94582857D01*
X141726429Y-94630476D01*
X141488333Y-94630476D01*
X141297857Y-94582857D01*
X141202619Y-94535238D01*
X141155000Y-94487619D01*
X141107381Y-94392381D01*
X141440714Y-93201904D02*
X142107381Y-93201904D01*
X141440714Y-93630476D02*
X141964524Y-93630476D01*
X142059762Y-93582857D01*
X142107381Y-93487619D01*
X142107381Y-93344761D01*
X142059762Y-93249523D01*
X142012143Y-93201904D01*
X141583571Y-92392380D02*
X141583571Y-92725714D01*
X142107381Y-92725714D02*
X141107381Y-92725714D01*
X141107381Y-92249523D01*
X124928334Y-91416143D02*
X124880715Y-91463762D01*
X124737858Y-91511381D01*
X124642620Y-91511381D01*
X124499762Y-91463762D01*
X124404524Y-91368524D01*
X124356905Y-91273286D01*
X124309286Y-91082810D01*
X124309286Y-90939952D01*
X124356905Y-90749476D01*
X124404524Y-90654238D01*
X124499762Y-90559000D01*
X124642620Y-90511381D01*
X124737858Y-90511381D01*
X124880715Y-90559000D01*
X124928334Y-90606619D01*
X125880715Y-91511381D02*
X125309286Y-91511381D01*
X125595000Y-91511381D02*
X125595000Y-90511381D01*
X125499762Y-90654238D01*
X125404524Y-90749476D01*
X125309286Y-90797095D01*
X124468143Y-89209619D02*
X124515762Y-89162000D01*
X124611000Y-89114381D01*
X124849096Y-89114381D01*
X124944334Y-89162000D01*
X124991953Y-89209619D01*
X125039572Y-89304857D01*
X125039572Y-89400095D01*
X124991953Y-89542952D01*
X124420524Y-90114381D01*
X125039572Y-90114381D01*
X125372905Y-89114381D02*
X126039572Y-89114381D01*
X125611000Y-90114381D01*
X126420524Y-89447714D02*
X126420524Y-90447714D01*
X126420524Y-89495333D02*
X126515762Y-89447714D01*
X126706239Y-89447714D01*
X126801477Y-89495333D01*
X126849096Y-89542952D01*
X126896715Y-89638190D01*
X126896715Y-89923905D01*
X126849096Y-90019143D01*
X126801477Y-90066762D01*
X126706239Y-90114381D01*
X126515762Y-90114381D01*
X126420524Y-90066762D01*
X127658620Y-89590571D02*
X127325286Y-89590571D01*
X127325286Y-90114381D02*
X127325286Y-89114381D01*
X127801477Y-89114381D01*
X108926334Y-89003143D02*
X108878715Y-89050762D01*
X108735858Y-89098381D01*
X108640620Y-89098381D01*
X108497762Y-89050762D01*
X108402524Y-88955524D01*
X108354905Y-88860286D01*
X108307286Y-88669810D01*
X108307286Y-88526952D01*
X108354905Y-88336476D01*
X108402524Y-88241238D01*
X108497762Y-88146000D01*
X108640620Y-88098381D01*
X108735858Y-88098381D01*
X108878715Y-88146000D01*
X108926334Y-88193619D01*
X109307286Y-88193619D02*
X109354905Y-88146000D01*
X109450143Y-88098381D01*
X109688239Y-88098381D01*
X109783477Y-88146000D01*
X109831096Y-88193619D01*
X109878715Y-88288857D01*
X109878715Y-88384095D01*
X109831096Y-88526952D01*
X109259667Y-89098381D01*
X109878715Y-89098381D01*
X106561143Y-89844619D02*
X106608762Y-89797000D01*
X106704000Y-89749381D01*
X106942096Y-89749381D01*
X107037334Y-89797000D01*
X107084953Y-89844619D01*
X107132572Y-89939857D01*
X107132572Y-90035095D01*
X107084953Y-90177952D01*
X106513524Y-90749381D01*
X107132572Y-90749381D01*
X107465905Y-89749381D02*
X108132572Y-89749381D01*
X107704000Y-90749381D01*
X108513524Y-90082714D02*
X108513524Y-91082714D01*
X108513524Y-90130333D02*
X108608762Y-90082714D01*
X108799239Y-90082714D01*
X108894477Y-90130333D01*
X108942096Y-90177952D01*
X108989715Y-90273190D01*
X108989715Y-90558905D01*
X108942096Y-90654143D01*
X108894477Y-90701762D01*
X108799239Y-90749381D01*
X108608762Y-90749381D01*
X108513524Y-90701762D01*
X109751620Y-90225571D02*
X109418286Y-90225571D01*
X109418286Y-90749381D02*
X109418286Y-89749381D01*
X109894477Y-89749381D01*
X122205809Y-86717190D02*
X122205809Y-87193381D01*
X121872476Y-86193381D02*
X122205809Y-86717190D01*
X122539143Y-86193381D01*
X123396286Y-87193381D02*
X122824857Y-87193381D01*
X123110571Y-87193381D02*
X123110571Y-86193381D01*
X123015333Y-86336238D01*
X122920095Y-86431476D01*
X122824857Y-86479095D01*
X122769524Y-88590381D02*
X122198095Y-88590381D01*
X122483809Y-88590381D02*
X122483809Y-87590381D01*
X122388571Y-87733238D01*
X122293333Y-87828476D01*
X122198095Y-87876095D01*
X123626667Y-87590381D02*
X123436190Y-87590381D01*
X123340952Y-87638000D01*
X123293333Y-87685619D01*
X123198095Y-87828476D01*
X123150476Y-88018952D01*
X123150476Y-88399905D01*
X123198095Y-88495143D01*
X123245714Y-88542762D01*
X123340952Y-88590381D01*
X123531429Y-88590381D01*
X123626667Y-88542762D01*
X123674286Y-88495143D01*
X123721905Y-88399905D01*
X123721905Y-88161810D01*
X123674286Y-88066571D01*
X123626667Y-88018952D01*
X123531429Y-87971333D01*
X123340952Y-87971333D01*
X123245714Y-88018952D01*
X123198095Y-88066571D01*
X123150476Y-88161810D01*
X124150476Y-88590381D02*
X124150476Y-87590381D01*
X124483810Y-88304667D01*
X124817143Y-87590381D01*
X124817143Y-88590381D01*
X125293333Y-88590381D02*
X125293333Y-87590381D01*
X125293333Y-88066571D02*
X125864762Y-88066571D01*
X125864762Y-88590381D02*
X125864762Y-87590381D01*
X126245714Y-87923714D02*
X126769524Y-87923714D01*
X126245714Y-88590381D01*
X126769524Y-88590381D01*
X157297381Y-92813095D02*
X156297381Y-92813095D01*
X156297381Y-92432142D01*
X156345000Y-92336904D01*
X156392619Y-92289285D01*
X156487857Y-92241666D01*
X156630714Y-92241666D01*
X156725952Y-92289285D01*
X156773571Y-92336904D01*
X156821190Y-92432142D01*
X156821190Y-92813095D01*
X157297381Y-91765476D02*
X157297381Y-91575000D01*
X157249762Y-91479761D01*
X157202143Y-91432142D01*
X157059286Y-91336904D01*
X156868810Y-91289285D01*
X156487857Y-91289285D01*
X156392619Y-91336904D01*
X156345000Y-91384523D01*
X156297381Y-91479761D01*
X156297381Y-91670238D01*
X156345000Y-91765476D01*
X156392619Y-91813095D01*
X156487857Y-91860714D01*
X156725952Y-91860714D01*
X156821190Y-91813095D01*
X156868810Y-91765476D01*
X156916429Y-91670238D01*
X156916429Y-91479761D01*
X156868810Y-91384523D01*
X156821190Y-91336904D01*
X156725952Y-91289285D01*
X151487143Y-110473571D02*
X151534762Y-110521190D01*
X151582381Y-110664047D01*
X151582381Y-110759285D01*
X151534762Y-110902143D01*
X151439524Y-110997381D01*
X151344286Y-111045000D01*
X151153810Y-111092619D01*
X151010952Y-111092619D01*
X150820476Y-111045000D01*
X150725238Y-110997381D01*
X150630000Y-110902143D01*
X150582381Y-110759285D01*
X150582381Y-110664047D01*
X150630000Y-110521190D01*
X150677619Y-110473571D01*
X150582381Y-109854524D02*
X150582381Y-109664047D01*
X150630000Y-109568809D01*
X150725238Y-109473571D01*
X150915714Y-109425952D01*
X151249048Y-109425952D01*
X151439524Y-109473571D01*
X151534762Y-109568809D01*
X151582381Y-109664047D01*
X151582381Y-109854524D01*
X151534762Y-109949762D01*
X151439524Y-110045000D01*
X151249048Y-110092619D01*
X150915714Y-110092619D01*
X150725238Y-110045000D01*
X150630000Y-109949762D01*
X150582381Y-109854524D01*
X151582381Y-108997381D02*
X150582381Y-108997381D01*
X151582381Y-108425952D01*
X150582381Y-108425952D01*
X151582381Y-107949762D02*
X150582381Y-107949762D01*
X151582381Y-107378333D01*
X150582381Y-107378333D01*
X151201429Y-106902143D02*
X151201429Y-106140238D01*
X151582381Y-105664048D02*
X150582381Y-105664048D01*
X150582381Y-105283095D01*
X150630000Y-105187857D01*
X150677619Y-105140238D01*
X150772857Y-105092619D01*
X150915714Y-105092619D01*
X151010952Y-105140238D01*
X151058571Y-105187857D01*
X151106190Y-105283095D01*
X151106190Y-105664048D01*
X150582381Y-104473572D02*
X150582381Y-104283095D01*
X150630000Y-104187857D01*
X150725238Y-104092619D01*
X150915714Y-104045000D01*
X151249048Y-104045000D01*
X151439524Y-104092619D01*
X151534762Y-104187857D01*
X151582381Y-104283095D01*
X151582381Y-104473572D01*
X151534762Y-104568810D01*
X151439524Y-104664048D01*
X151249048Y-104711667D01*
X150915714Y-104711667D01*
X150725238Y-104664048D01*
X150630000Y-104568810D01*
X150582381Y-104473572D01*
X150582381Y-103711667D02*
X151582381Y-103473572D01*
X150868095Y-103283095D01*
X151582381Y-103092619D01*
X150582381Y-102854524D01*
X151058571Y-102473572D02*
X151058571Y-102140238D01*
X151582381Y-101997381D02*
X151582381Y-102473572D01*
X150582381Y-102473572D01*
X150582381Y-101997381D01*
X151582381Y-100997381D02*
X151106190Y-101330715D01*
X151582381Y-101568810D02*
X150582381Y-101568810D01*
X150582381Y-101187857D01*
X150630000Y-101092619D01*
X150677619Y-101045000D01*
X150772857Y-100997381D01*
X150915714Y-100997381D01*
X151010952Y-101045000D01*
X151058571Y-101092619D01*
X151106190Y-101187857D01*
X151106190Y-101568810D01*
X151900000Y-104266904D02*
X151852381Y-104362142D01*
X151852381Y-104504999D01*
X151900000Y-104647857D01*
X151995238Y-104743095D01*
X152090476Y-104790714D01*
X152280952Y-104838333D01*
X152423810Y-104838333D01*
X152614286Y-104790714D01*
X152709524Y-104743095D01*
X152804762Y-104647857D01*
X152852381Y-104504999D01*
X152852381Y-104409761D01*
X152804762Y-104266904D01*
X152757143Y-104219285D01*
X152423810Y-104219285D01*
X152423810Y-104409761D01*
X152852381Y-103790714D02*
X151852381Y-103790714D01*
X152852381Y-103219285D01*
X151852381Y-103219285D01*
X152852381Y-102743095D02*
X151852381Y-102743095D01*
X151852381Y-102505000D01*
X151900000Y-102362142D01*
X151995238Y-102266904D01*
X152090476Y-102219285D01*
X152280952Y-102171666D01*
X152423810Y-102171666D01*
X152614286Y-102219285D01*
X152709524Y-102266904D01*
X152804762Y-102362142D01*
X152852381Y-102505000D01*
X152852381Y-102743095D01*
X152471429Y-109918333D02*
X152471429Y-109156428D01*
X152852381Y-108156428D02*
X152852381Y-108727857D01*
X152852381Y-108442143D02*
X151852381Y-108442143D01*
X151995238Y-108537381D01*
X152090476Y-108632619D01*
X152138095Y-108727857D01*
X151852381Y-107251666D02*
X151852381Y-107727857D01*
X152328571Y-107775476D01*
X152280952Y-107727857D01*
X152233333Y-107632619D01*
X152233333Y-107394523D01*
X152280952Y-107299285D01*
X152328571Y-107251666D01*
X152423810Y-107204047D01*
X152661905Y-107204047D01*
X152757143Y-107251666D01*
X152804762Y-107299285D01*
X152852381Y-107394523D01*
X152852381Y-107632619D01*
X152804762Y-107727857D01*
X152757143Y-107775476D01*
X153106429Y-99758333D02*
X153106429Y-98996428D01*
X153487381Y-99377380D02*
X152725476Y-99377380D01*
X153487381Y-97996428D02*
X153487381Y-98567857D01*
X153487381Y-98282143D02*
X152487381Y-98282143D01*
X152630238Y-98377381D01*
X152725476Y-98472619D01*
X152773095Y-98567857D01*
X152487381Y-97091666D02*
X152487381Y-97567857D01*
X152963571Y-97615476D01*
X152915952Y-97567857D01*
X152868333Y-97472619D01*
X152868333Y-97234523D01*
X152915952Y-97139285D01*
X152963571Y-97091666D01*
X153058810Y-97044047D01*
X153296905Y-97044047D01*
X153392143Y-97091666D01*
X153439762Y-97139285D01*
X153487381Y-97234523D01*
X153487381Y-97472619D01*
X153439762Y-97567857D01*
X153392143Y-97615476D01*
X158837381Y-88391905D02*
X159646905Y-88391905D01*
X159742143Y-88344286D01*
X159789762Y-88296667D01*
X159837381Y-88201429D01*
X159837381Y-88010952D01*
X159789762Y-87915714D01*
X159742143Y-87868095D01*
X159646905Y-87820476D01*
X158837381Y-87820476D01*
X158837381Y-86868095D02*
X158837381Y-87344286D01*
X159313571Y-87391905D01*
X159265952Y-87344286D01*
X159218333Y-87249048D01*
X159218333Y-87010952D01*
X159265952Y-86915714D01*
X159313571Y-86868095D01*
X159408810Y-86820476D01*
X159646905Y-86820476D01*
X159742143Y-86868095D01*
X159789762Y-86915714D01*
X159837381Y-87010952D01*
X159837381Y-87249048D01*
X159789762Y-87344286D01*
X159742143Y-87391905D01*
X154257381Y-91701667D02*
X154257381Y-91035000D01*
X155257381Y-91463572D01*
X154685952Y-90511191D02*
X154638333Y-90606429D01*
X154590714Y-90654048D01*
X154495476Y-90701667D01*
X154447857Y-90701667D01*
X154352619Y-90654048D01*
X154305000Y-90606429D01*
X154257381Y-90511191D01*
X154257381Y-90320714D01*
X154305000Y-90225476D01*
X154352619Y-90177857D01*
X154447857Y-90130238D01*
X154495476Y-90130238D01*
X154590714Y-90177857D01*
X154638333Y-90225476D01*
X154685952Y-90320714D01*
X154685952Y-90511191D01*
X154733571Y-90606429D01*
X154781190Y-90654048D01*
X154876429Y-90701667D01*
X155066905Y-90701667D01*
X155162143Y-90654048D01*
X155209762Y-90606429D01*
X155257381Y-90511191D01*
X155257381Y-90320714D01*
X155209762Y-90225476D01*
X155162143Y-90177857D01*
X155066905Y-90130238D01*
X154876429Y-90130238D01*
X154781190Y-90177857D01*
X154733571Y-90225476D01*
X154685952Y-90320714D01*
X155257381Y-89225476D02*
X155257381Y-89701667D01*
X154257381Y-89701667D01*
X154257381Y-88701667D02*
X154257381Y-88606428D01*
X154305000Y-88511190D01*
X154352619Y-88463571D01*
X154447857Y-88415952D01*
X154638333Y-88368333D01*
X154876429Y-88368333D01*
X155066905Y-88415952D01*
X155162143Y-88463571D01*
X155209762Y-88511190D01*
X155257381Y-88606428D01*
X155257381Y-88701667D01*
X155209762Y-88796905D01*
X155162143Y-88844524D01*
X155066905Y-88892143D01*
X154876429Y-88939762D01*
X154638333Y-88939762D01*
X154447857Y-88892143D01*
X154352619Y-88844524D01*
X154305000Y-88796905D01*
X154257381Y-88701667D01*
X154257381Y-87463571D02*
X154257381Y-87939762D01*
X154733571Y-87987381D01*
X154685952Y-87939762D01*
X154638333Y-87844524D01*
X154638333Y-87606428D01*
X154685952Y-87511190D01*
X154733571Y-87463571D01*
X154828810Y-87415952D01*
X155066905Y-87415952D01*
X155162143Y-87463571D01*
X155209762Y-87511190D01*
X155257381Y-87606428D01*
X155257381Y-87844524D01*
X155209762Y-87939762D01*
X155162143Y-87987381D01*
X79271905Y-63317381D02*
X79271905Y-62317381D01*
X79652858Y-62317381D01*
X79748096Y-62365000D01*
X79795715Y-62412619D01*
X79843334Y-62507857D01*
X79843334Y-62650714D01*
X79795715Y-62745952D01*
X79748096Y-62793571D01*
X79652858Y-62841190D01*
X79271905Y-62841190D01*
X80176667Y-62317381D02*
X80843334Y-62317381D01*
X80414762Y-63317381D01*
X85153809Y-55062381D02*
X85153809Y-54062381D01*
X85534762Y-54062381D01*
X85630000Y-54110000D01*
X85677619Y-54157619D01*
X85725238Y-54252857D01*
X85725238Y-54395714D01*
X85677619Y-54490952D01*
X85630000Y-54538571D01*
X85534762Y-54586190D01*
X85153809Y-54586190D01*
X86344285Y-54062381D02*
X86534762Y-54062381D01*
X86630000Y-54110000D01*
X86725238Y-54205238D01*
X86772857Y-54395714D01*
X86772857Y-54729048D01*
X86725238Y-54919524D01*
X86630000Y-55014762D01*
X86534762Y-55062381D01*
X86344285Y-55062381D01*
X86249047Y-55014762D01*
X86153809Y-54919524D01*
X86106190Y-54729048D01*
X86106190Y-54395714D01*
X86153809Y-54205238D01*
X86249047Y-54110000D01*
X86344285Y-54062381D01*
X87772857Y-55062381D02*
X87439523Y-54586190D01*
X87201428Y-55062381D02*
X87201428Y-54062381D01*
X87582381Y-54062381D01*
X87677619Y-54110000D01*
X87725238Y-54157619D01*
X87772857Y-54252857D01*
X87772857Y-54395714D01*
X87725238Y-54490952D01*
X87677619Y-54538571D01*
X87582381Y-54586190D01*
X87201428Y-54586190D01*
X88058571Y-54062381D02*
X88630000Y-54062381D01*
X88344285Y-55062381D02*
X88344285Y-54062381D01*
X89677619Y-54776667D02*
X90153810Y-54776667D01*
X89582381Y-55062381D02*
X89915714Y-54062381D01*
X90249048Y-55062381D01*
X102131905Y-62682381D02*
X102131905Y-61682381D01*
X102512858Y-61682381D01*
X102608096Y-61730000D01*
X102655715Y-61777619D01*
X102703334Y-61872857D01*
X102703334Y-62015714D01*
X102655715Y-62110952D01*
X102608096Y-62158571D01*
X102512858Y-62206190D01*
X102131905Y-62206190D01*
X103560477Y-61682381D02*
X103370000Y-61682381D01*
X103274762Y-61730000D01*
X103227143Y-61777619D01*
X103131905Y-61920476D01*
X103084286Y-62110952D01*
X103084286Y-62491905D01*
X103131905Y-62587143D01*
X103179524Y-62634762D01*
X103274762Y-62682381D01*
X103465239Y-62682381D01*
X103560477Y-62634762D01*
X103608096Y-62587143D01*
X103655715Y-62491905D01*
X103655715Y-62253810D01*
X103608096Y-62158571D01*
X103560477Y-62110952D01*
X103465239Y-62063333D01*
X103274762Y-62063333D01*
X103179524Y-62110952D01*
X103131905Y-62158571D01*
X103084286Y-62253810D01*
X106672381Y-55062381D02*
X106672381Y-54062381D01*
X107053334Y-54062381D01*
X107148572Y-54110000D01*
X107196191Y-54157619D01*
X107243810Y-54252857D01*
X107243810Y-54395714D01*
X107196191Y-54490952D01*
X107148572Y-54538571D01*
X107053334Y-54586190D01*
X106672381Y-54586190D01*
X107862857Y-54062381D02*
X108053334Y-54062381D01*
X108148572Y-54110000D01*
X108243810Y-54205238D01*
X108291429Y-54395714D01*
X108291429Y-54729048D01*
X108243810Y-54919524D01*
X108148572Y-55014762D01*
X108053334Y-55062381D01*
X107862857Y-55062381D01*
X107767619Y-55014762D01*
X107672381Y-54919524D01*
X107624762Y-54729048D01*
X107624762Y-54395714D01*
X107672381Y-54205238D01*
X107767619Y-54110000D01*
X107862857Y-54062381D01*
X109291429Y-55062381D02*
X108958095Y-54586190D01*
X108720000Y-55062381D02*
X108720000Y-54062381D01*
X109100953Y-54062381D01*
X109196191Y-54110000D01*
X109243810Y-54157619D01*
X109291429Y-54252857D01*
X109291429Y-54395714D01*
X109243810Y-54490952D01*
X109196191Y-54538571D01*
X109100953Y-54586190D01*
X108720000Y-54586190D01*
X109577143Y-54062381D02*
X110148572Y-54062381D01*
X109862857Y-55062381D02*
X109862857Y-54062381D01*
X111577144Y-54538571D02*
X111720001Y-54586190D01*
X111767620Y-54633810D01*
X111815239Y-54729048D01*
X111815239Y-54871905D01*
X111767620Y-54967143D01*
X111720001Y-55014762D01*
X111624763Y-55062381D01*
X111243810Y-55062381D01*
X111243810Y-54062381D01*
X111577144Y-54062381D01*
X111672382Y-54110000D01*
X111720001Y-54157619D01*
X111767620Y-54252857D01*
X111767620Y-54348095D01*
X111720001Y-54443333D01*
X111672382Y-54490952D01*
X111577144Y-54538571D01*
X111243810Y-54538571D01*
X123086905Y-62682381D02*
X123086905Y-61682381D01*
X123467858Y-61682381D01*
X123563096Y-61730000D01*
X123610715Y-61777619D01*
X123658334Y-61872857D01*
X123658334Y-62015714D01*
X123610715Y-62110952D01*
X123563096Y-62158571D01*
X123467858Y-62206190D01*
X123086905Y-62206190D01*
X124563096Y-61682381D02*
X124086905Y-61682381D01*
X124039286Y-62158571D01*
X124086905Y-62110952D01*
X124182143Y-62063333D01*
X124420239Y-62063333D01*
X124515477Y-62110952D01*
X124563096Y-62158571D01*
X124610715Y-62253810D01*
X124610715Y-62491905D01*
X124563096Y-62587143D01*
X124515477Y-62634762D01*
X124420239Y-62682381D01*
X124182143Y-62682381D01*
X124086905Y-62634762D01*
X124039286Y-62587143D01*
X128262381Y-55062381D02*
X128262381Y-54062381D01*
X128643334Y-54062381D01*
X128738572Y-54110000D01*
X128786191Y-54157619D01*
X128833810Y-54252857D01*
X128833810Y-54395714D01*
X128786191Y-54490952D01*
X128738572Y-54538571D01*
X128643334Y-54586190D01*
X128262381Y-54586190D01*
X129452857Y-54062381D02*
X129643334Y-54062381D01*
X129738572Y-54110000D01*
X129833810Y-54205238D01*
X129881429Y-54395714D01*
X129881429Y-54729048D01*
X129833810Y-54919524D01*
X129738572Y-55014762D01*
X129643334Y-55062381D01*
X129452857Y-55062381D01*
X129357619Y-55014762D01*
X129262381Y-54919524D01*
X129214762Y-54729048D01*
X129214762Y-54395714D01*
X129262381Y-54205238D01*
X129357619Y-54110000D01*
X129452857Y-54062381D01*
X130881429Y-55062381D02*
X130548095Y-54586190D01*
X130310000Y-55062381D02*
X130310000Y-54062381D01*
X130690953Y-54062381D01*
X130786191Y-54110000D01*
X130833810Y-54157619D01*
X130881429Y-54252857D01*
X130881429Y-54395714D01*
X130833810Y-54490952D01*
X130786191Y-54538571D01*
X130690953Y-54586190D01*
X130310000Y-54586190D01*
X131167143Y-54062381D02*
X131738572Y-54062381D01*
X131452857Y-55062381D02*
X131452857Y-54062381D01*
X133405239Y-54967143D02*
X133357620Y-55014762D01*
X133214763Y-55062381D01*
X133119525Y-55062381D01*
X132976667Y-55014762D01*
X132881429Y-54919524D01*
X132833810Y-54824286D01*
X132786191Y-54633810D01*
X132786191Y-54490952D01*
X132833810Y-54300476D01*
X132881429Y-54205238D01*
X132976667Y-54110000D01*
X133119525Y-54062381D01*
X133214763Y-54062381D01*
X133357620Y-54110000D01*
X133405239Y-54157619D01*
X145946905Y-62682381D02*
X145946905Y-61682381D01*
X146327858Y-61682381D01*
X146423096Y-61730000D01*
X146470715Y-61777619D01*
X146518334Y-61872857D01*
X146518334Y-62015714D01*
X146470715Y-62110952D01*
X146423096Y-62158571D01*
X146327858Y-62206190D01*
X145946905Y-62206190D01*
X146851667Y-61682381D02*
X147470715Y-61682381D01*
X147137381Y-62063333D01*
X147280239Y-62063333D01*
X147375477Y-62110952D01*
X147423096Y-62158571D01*
X147470715Y-62253810D01*
X147470715Y-62491905D01*
X147423096Y-62587143D01*
X147375477Y-62634762D01*
X147280239Y-62682381D01*
X146994524Y-62682381D01*
X146899286Y-62634762D01*
X146851667Y-62587143D01*
X149852381Y-55062381D02*
X149852381Y-54062381D01*
X150233334Y-54062381D01*
X150328572Y-54110000D01*
X150376191Y-54157619D01*
X150423810Y-54252857D01*
X150423810Y-54395714D01*
X150376191Y-54490952D01*
X150328572Y-54538571D01*
X150233334Y-54586190D01*
X149852381Y-54586190D01*
X151042857Y-54062381D02*
X151233334Y-54062381D01*
X151328572Y-54110000D01*
X151423810Y-54205238D01*
X151471429Y-54395714D01*
X151471429Y-54729048D01*
X151423810Y-54919524D01*
X151328572Y-55014762D01*
X151233334Y-55062381D01*
X151042857Y-55062381D01*
X150947619Y-55014762D01*
X150852381Y-54919524D01*
X150804762Y-54729048D01*
X150804762Y-54395714D01*
X150852381Y-54205238D01*
X150947619Y-54110000D01*
X151042857Y-54062381D01*
X152471429Y-55062381D02*
X152138095Y-54586190D01*
X151900000Y-55062381D02*
X151900000Y-54062381D01*
X152280953Y-54062381D01*
X152376191Y-54110000D01*
X152423810Y-54157619D01*
X152471429Y-54252857D01*
X152471429Y-54395714D01*
X152423810Y-54490952D01*
X152376191Y-54538571D01*
X152280953Y-54586190D01*
X151900000Y-54586190D01*
X152757143Y-54062381D02*
X153328572Y-54062381D01*
X153042857Y-55062381D02*
X153042857Y-54062381D01*
X154423810Y-55062381D02*
X154423810Y-54062381D01*
X154661905Y-54062381D01*
X154804763Y-54110000D01*
X154900001Y-54205238D01*
X154947620Y-54300476D01*
X154995239Y-54490952D01*
X154995239Y-54633810D01*
X154947620Y-54824286D01*
X154900001Y-54919524D01*
X154804763Y-55014762D01*
X154661905Y-55062381D01*
X154423810Y-55062381D01*
X103401905Y-108402381D02*
X103401905Y-107402381D01*
X103782858Y-107402381D01*
X103878096Y-107450000D01*
X103925715Y-107497619D01*
X103973334Y-107592857D01*
X103973334Y-107735714D01*
X103925715Y-107830952D01*
X103878096Y-107878571D01*
X103782858Y-107926190D01*
X103401905Y-107926190D01*
X104354286Y-107497619D02*
X104401905Y-107450000D01*
X104497143Y-107402381D01*
X104735239Y-107402381D01*
X104830477Y-107450000D01*
X104878096Y-107497619D01*
X104925715Y-107592857D01*
X104925715Y-107688095D01*
X104878096Y-107830952D01*
X104306667Y-108402381D01*
X104925715Y-108402381D01*
X93639047Y-115022381D02*
X93829524Y-115022381D01*
X93924762Y-115070000D01*
X94020000Y-115165238D01*
X94067619Y-115355714D01*
X94067619Y-115689048D01*
X94020000Y-115879524D01*
X93924762Y-115974762D01*
X93829524Y-116022381D01*
X93639047Y-116022381D01*
X93543809Y-115974762D01*
X93448571Y-115879524D01*
X93400952Y-115689048D01*
X93400952Y-115355714D01*
X93448571Y-115165238D01*
X93543809Y-115070000D01*
X93639047Y-115022381D01*
X94496190Y-115022381D02*
X94496190Y-115831905D01*
X94543809Y-115927143D01*
X94591428Y-115974762D01*
X94686666Y-116022381D01*
X94877143Y-116022381D01*
X94972381Y-115974762D01*
X95020000Y-115927143D01*
X95067619Y-115831905D01*
X95067619Y-115022381D01*
X95400952Y-115022381D02*
X95972381Y-115022381D01*
X95686666Y-116022381D02*
X95686666Y-115022381D01*
X96305714Y-116022381D02*
X96305714Y-115022381D01*
X96686667Y-115022381D01*
X96781905Y-115070000D01*
X96829524Y-115117619D01*
X96877143Y-115212857D01*
X96877143Y-115355714D01*
X96829524Y-115450952D01*
X96781905Y-115498571D01*
X96686667Y-115546190D01*
X96305714Y-115546190D01*
X97305714Y-115022381D02*
X97305714Y-115831905D01*
X97353333Y-115927143D01*
X97400952Y-115974762D01*
X97496190Y-116022381D01*
X97686667Y-116022381D01*
X97781905Y-115974762D01*
X97829524Y-115927143D01*
X97877143Y-115831905D01*
X97877143Y-115022381D01*
X98210476Y-115022381D02*
X98781905Y-115022381D01*
X98496190Y-116022381D02*
X98496190Y-115022381D01*
X99067619Y-115974762D02*
X99210476Y-116022381D01*
X99448572Y-116022381D01*
X99543810Y-115974762D01*
X99591429Y-115927143D01*
X99639048Y-115831905D01*
X99639048Y-115736667D01*
X99591429Y-115641429D01*
X99543810Y-115593810D01*
X99448572Y-115546190D01*
X99258095Y-115498571D01*
X99162857Y-115450952D01*
X99115238Y-115403333D01*
X99067619Y-115308095D01*
X99067619Y-115212857D01*
X99115238Y-115117619D01*
X99162857Y-115070000D01*
X99258095Y-115022381D01*
X99496191Y-115022381D01*
X99639048Y-115070000D01*
X125626905Y-108402381D02*
X125626905Y-107402381D01*
X126007858Y-107402381D01*
X126103096Y-107450000D01*
X126150715Y-107497619D01*
X126198334Y-107592857D01*
X126198334Y-107735714D01*
X126150715Y-107830952D01*
X126103096Y-107878571D01*
X126007858Y-107926190D01*
X125626905Y-107926190D01*
X127150715Y-108402381D02*
X126579286Y-108402381D01*
X126865000Y-108402381D02*
X126865000Y-107402381D01*
X126769762Y-107545238D01*
X126674524Y-107640476D01*
X126579286Y-107688095D01*
X116975238Y-116022381D02*
X116975238Y-115022381D01*
X117451428Y-116022381D02*
X117451428Y-115022381D01*
X118022857Y-116022381D01*
X118022857Y-115022381D01*
X118499047Y-116022381D02*
X118499047Y-115022381D01*
X118880000Y-115022381D01*
X118975238Y-115070000D01*
X119022857Y-115117619D01*
X119070476Y-115212857D01*
X119070476Y-115355714D01*
X119022857Y-115450952D01*
X118975238Y-115498571D01*
X118880000Y-115546190D01*
X118499047Y-115546190D01*
X119499047Y-115022381D02*
X119499047Y-115831905D01*
X119546666Y-115927143D01*
X119594285Y-115974762D01*
X119689523Y-116022381D01*
X119880000Y-116022381D01*
X119975238Y-115974762D01*
X120022857Y-115927143D01*
X120070476Y-115831905D01*
X120070476Y-115022381D01*
X120403809Y-115022381D02*
X120975238Y-115022381D01*
X120689523Y-116022381D02*
X120689523Y-115022381D01*
X121260952Y-115974762D02*
X121403809Y-116022381D01*
X121641905Y-116022381D01*
X121737143Y-115974762D01*
X121784762Y-115927143D01*
X121832381Y-115831905D01*
X121832381Y-115736667D01*
X121784762Y-115641429D01*
X121737143Y-115593810D01*
X121641905Y-115546190D01*
X121451428Y-115498571D01*
X121356190Y-115450952D01*
X121308571Y-115403333D01*
X121260952Y-115308095D01*
X121260952Y-115212857D01*
X121308571Y-115117619D01*
X121356190Y-115070000D01*
X121451428Y-115022381D01*
X121689524Y-115022381D01*
X121832381Y-115070000D01*
X82367381Y-84558095D02*
X81367381Y-84558095D01*
X81367381Y-84177142D01*
X81415000Y-84081904D01*
X81462619Y-84034285D01*
X81557857Y-83986666D01*
X81700714Y-83986666D01*
X81795952Y-84034285D01*
X81843571Y-84081904D01*
X81891190Y-84177142D01*
X81891190Y-84558095D01*
X81700714Y-83129523D02*
X82367381Y-83129523D01*
X81319762Y-83367619D02*
X82034048Y-83605714D01*
X82034048Y-82986666D01*
X73112381Y-78636666D02*
X73826667Y-78636666D01*
X73969524Y-78684286D01*
X74064762Y-78779524D01*
X74112381Y-78922381D01*
X74112381Y-79017619D01*
X73112381Y-78303333D02*
X73112381Y-77731904D01*
X74112381Y-78017619D02*
X73112381Y-78017619D01*
X73826667Y-77446190D02*
X73826667Y-76969999D01*
X74112381Y-77541428D02*
X73112381Y-77208095D01*
X74112381Y-76874761D01*
X73160000Y-76017618D02*
X73112381Y-76112856D01*
X73112381Y-76255713D01*
X73160000Y-76398571D01*
X73255238Y-76493809D01*
X73350476Y-76541428D01*
X73540952Y-76589047D01*
X73683810Y-76589047D01*
X73874286Y-76541428D01*
X73969524Y-76493809D01*
X74064762Y-76398571D01*
X74112381Y-76255713D01*
X74112381Y-76160475D01*
X74064762Y-76017618D01*
X74017143Y-75969999D01*
X73683810Y-75969999D01*
X73683810Y-76160475D01*
X168727381Y-108688095D02*
X167727381Y-108688095D01*
X167727381Y-108307142D01*
X167775000Y-108211904D01*
X167822619Y-108164285D01*
X167917857Y-108116666D01*
X168060714Y-108116666D01*
X168155952Y-108164285D01*
X168203571Y-108211904D01*
X168251190Y-108307142D01*
X168251190Y-108688095D01*
X168155952Y-107545238D02*
X168108333Y-107640476D01*
X168060714Y-107688095D01*
X167965476Y-107735714D01*
X167917857Y-107735714D01*
X167822619Y-107688095D01*
X167775000Y-107640476D01*
X167727381Y-107545238D01*
X167727381Y-107354761D01*
X167775000Y-107259523D01*
X167822619Y-107211904D01*
X167917857Y-107164285D01*
X167965476Y-107164285D01*
X168060714Y-107211904D01*
X168108333Y-107259523D01*
X168155952Y-107354761D01*
X168155952Y-107545238D01*
X168203571Y-107640476D01*
X168251190Y-107688095D01*
X168346429Y-107735714D01*
X168536905Y-107735714D01*
X168632143Y-107688095D01*
X168679762Y-107640476D01*
X168727381Y-107545238D01*
X168727381Y-107354761D01*
X168679762Y-107259523D01*
X168632143Y-107211904D01*
X168536905Y-107164285D01*
X168346429Y-107164285D01*
X168251190Y-107211904D01*
X168203571Y-107259523D01*
X168155952Y-107354761D01*
X168203571Y-91598096D02*
X168203571Y-91264762D01*
X168727381Y-91121905D02*
X168727381Y-91598096D01*
X167727381Y-91598096D01*
X167727381Y-91121905D01*
X168060714Y-90264762D02*
X168727381Y-90264762D01*
X168060714Y-90693334D02*
X168584524Y-90693334D01*
X168679762Y-90645715D01*
X168727381Y-90550477D01*
X168727381Y-90407619D01*
X168679762Y-90312381D01*
X168632143Y-90264762D01*
X168727381Y-89788572D02*
X168060714Y-89788572D01*
X168251190Y-89788572D02*
X168155952Y-89740953D01*
X168108333Y-89693334D01*
X168060714Y-89598096D01*
X168060714Y-89502857D01*
X168727381Y-89026667D02*
X168679762Y-89121905D01*
X168632143Y-89169524D01*
X168536905Y-89217143D01*
X168251190Y-89217143D01*
X168155952Y-89169524D01*
X168108333Y-89121905D01*
X168060714Y-89026667D01*
X168060714Y-88883809D01*
X168108333Y-88788571D01*
X168155952Y-88740952D01*
X168251190Y-88693333D01*
X168536905Y-88693333D01*
X168632143Y-88740952D01*
X168679762Y-88788571D01*
X168727381Y-88883809D01*
X168727381Y-89026667D01*
X168727381Y-88264762D02*
X168060714Y-88264762D01*
X168251190Y-88264762D02*
X168155952Y-88217143D01*
X168108333Y-88169524D01*
X168060714Y-88074286D01*
X168060714Y-87979047D01*
X168727381Y-87217142D02*
X168203571Y-87217142D01*
X168108333Y-87264761D01*
X168060714Y-87359999D01*
X168060714Y-87550476D01*
X168108333Y-87645714D01*
X168679762Y-87217142D02*
X168727381Y-87312380D01*
X168727381Y-87550476D01*
X168679762Y-87645714D01*
X168584524Y-87693333D01*
X168489286Y-87693333D01*
X168394048Y-87645714D01*
X168346429Y-87550476D01*
X168346429Y-87312380D01*
X168298810Y-87217142D01*
X168679762Y-86312380D02*
X168727381Y-86407618D01*
X168727381Y-86598095D01*
X168679762Y-86693333D01*
X168632143Y-86740952D01*
X168536905Y-86788571D01*
X168251190Y-86788571D01*
X168155952Y-86740952D01*
X168108333Y-86693333D01*
X168060714Y-86598095D01*
X168060714Y-86407618D01*
X168108333Y-86312380D01*
X168727381Y-85883809D02*
X167727381Y-85883809D01*
X168346429Y-85788571D02*
X168727381Y-85502856D01*
X168060714Y-85502856D02*
X168441667Y-85883809D01*
X168727381Y-85074285D02*
X167727381Y-85074285D01*
X167727381Y-84693332D01*
X167775000Y-84598094D01*
X167822619Y-84550475D01*
X167917857Y-84502856D01*
X168060714Y-84502856D01*
X168155952Y-84550475D01*
X168203571Y-84598094D01*
X168251190Y-84693332D01*
X168251190Y-85074285D01*
X168727381Y-83931428D02*
X168679762Y-84026666D01*
X168632143Y-84074285D01*
X168536905Y-84121904D01*
X168251190Y-84121904D01*
X168155952Y-84074285D01*
X168108333Y-84026666D01*
X168060714Y-83931428D01*
X168060714Y-83788570D01*
X168108333Y-83693332D01*
X168155952Y-83645713D01*
X168251190Y-83598094D01*
X168536905Y-83598094D01*
X168632143Y-83645713D01*
X168679762Y-83693332D01*
X168727381Y-83788570D01*
X168727381Y-83931428D01*
X168060714Y-83264761D02*
X168727381Y-83074285D01*
X168251190Y-82883808D01*
X168727381Y-82693332D01*
X168060714Y-82502856D01*
X168679762Y-81740951D02*
X168727381Y-81836189D01*
X168727381Y-82026666D01*
X168679762Y-82121904D01*
X168584524Y-82169523D01*
X168203571Y-82169523D01*
X168108333Y-82121904D01*
X168060714Y-82026666D01*
X168060714Y-81836189D01*
X168108333Y-81740951D01*
X168203571Y-81693332D01*
X168298810Y-81693332D01*
X168394048Y-82169523D01*
X168727381Y-81264761D02*
X168060714Y-81264761D01*
X168251190Y-81264761D02*
X168155952Y-81217142D01*
X168108333Y-81169523D01*
X168060714Y-81074285D01*
X168060714Y-80979046D01*
M02*
