G04 #@! TF.FileFunction,Soldermask,Bot*
%FSLAX46Y46*%
G04 Gerber Fmt 4.6, Leading zero omitted, Abs format (unit mm)*
G04 Created by KiCad (PCBNEW (2016-03-22 BZR 6643, Git db8c72c)-product) date 3/23/2016 7:44:00 PM*
%MOMM*%
G01*
G04 APERTURE LIST*
%ADD10C,0.100000*%
%ADD11C,6.750000*%
%ADD12C,1.974800*%
%ADD13R,1.974800X1.974800*%
%ADD14R,1.700000X1.700000*%
%ADD15C,1.700000*%
%ADD16C,3.575000*%
%ADD17C,1.797000*%
G04 APERTURE END LIST*
D10*
D11*
X166370000Y-57150000D03*
X166370000Y-113030000D03*
X74930000Y-113030000D03*
D12*
X109220000Y-103505000D03*
X109220000Y-93345000D03*
X156210000Y-82550000D03*
X146050000Y-82550000D03*
X143510000Y-110490000D03*
X133350000Y-110490000D03*
X124460000Y-103505000D03*
X124460000Y-93345000D03*
X120650000Y-103505000D03*
X120650000Y-93345000D03*
X81280000Y-88900000D03*
X81280000Y-99060000D03*
X91440000Y-104775000D03*
X101600000Y-104775000D03*
X82550000Y-102870000D03*
X82550000Y-113030000D03*
X87630000Y-68580000D03*
D13*
X87630000Y-83820000D03*
D12*
X90170000Y-68580000D03*
X90170000Y-83820000D03*
X92710000Y-68580000D03*
X92710000Y-83820000D03*
X95250000Y-68580000D03*
X95250000Y-83820000D03*
X97790000Y-68580000D03*
X97790000Y-83820000D03*
X100330000Y-68580000D03*
X100330000Y-83820000D03*
X102870000Y-68580000D03*
X102870000Y-83820000D03*
X105410000Y-68580000D03*
X105410000Y-83820000D03*
X107950000Y-68580000D03*
X107950000Y-83820000D03*
X110490000Y-68580000D03*
X110490000Y-83820000D03*
X113030000Y-68580000D03*
X113030000Y-83820000D03*
X115570000Y-68580000D03*
X115570000Y-83820000D03*
X118110000Y-68580000D03*
X118110000Y-83820000D03*
X120650000Y-68580000D03*
X120650000Y-83820000D03*
X123190000Y-68580000D03*
X123190000Y-83820000D03*
X125730000Y-68580000D03*
X125730000Y-83820000D03*
X128270000Y-68580000D03*
X128270000Y-83820000D03*
X130810000Y-68580000D03*
X130810000Y-83820000D03*
X133350000Y-68580000D03*
X133350000Y-83820000D03*
X135890000Y-68580000D03*
X135890000Y-83820000D03*
X148590000Y-68580000D03*
D13*
X148590000Y-76200000D03*
D12*
X151130000Y-68580000D03*
X151130000Y-76200000D03*
X153670000Y-68580000D03*
X153670000Y-76200000D03*
X133350000Y-93345000D03*
D13*
X133350000Y-100965000D03*
D12*
X135890000Y-93345000D03*
X135890000Y-100965000D03*
X138430000Y-93345000D03*
X138430000Y-100965000D03*
X86360000Y-90170000D03*
D13*
X86360000Y-97790000D03*
D12*
X88900000Y-90170000D03*
X88900000Y-97790000D03*
X91440000Y-90170000D03*
X91440000Y-97790000D03*
X93980000Y-90170000D03*
X93980000Y-97790000D03*
X96520000Y-90170000D03*
X96520000Y-97790000D03*
X99060000Y-90170000D03*
X99060000Y-97790000D03*
X101600000Y-90170000D03*
X101600000Y-97790000D03*
X146050000Y-80010000D03*
X156210000Y-80010000D03*
X116840000Y-103505000D03*
X116840000Y-93345000D03*
X113030000Y-103505000D03*
X113030000Y-93345000D03*
X133350000Y-106680000D03*
X143510000Y-106680000D03*
X154940000Y-85090000D03*
X147320000Y-85090000D03*
X128905000Y-93345000D03*
X128905000Y-100965000D03*
X142240000Y-68580000D03*
X142240000Y-76200000D03*
X105410000Y-90170000D03*
X105410000Y-97790000D03*
X102870000Y-64008000D03*
X110490000Y-64008000D03*
D14*
X147955000Y-91440000D03*
D15*
X147955000Y-96440000D03*
D11*
X74930000Y-57150000D03*
D12*
X119380000Y-90170000D03*
X121920000Y-90170000D03*
X114300000Y-90170000D03*
X111760000Y-90170000D03*
X119380000Y-87630000D03*
X114300000Y-87630000D03*
D16*
X156845000Y-97561400D03*
X156845000Y-101523800D03*
X156845000Y-105486200D03*
X156845000Y-109448600D03*
D17*
X156845000Y-88265000D03*
X158115000Y-89535000D03*
X156845000Y-90805000D03*
D13*
X82550000Y-59690000D03*
D12*
X82550000Y-57150000D03*
X85090000Y-59690000D03*
X85090000Y-57150000D03*
X87630000Y-59690000D03*
X87630000Y-57150000D03*
X90170000Y-59690000D03*
X90170000Y-57150000D03*
X92710000Y-59690000D03*
X92710000Y-57150000D03*
D13*
X104140000Y-59690000D03*
D12*
X104140000Y-57150000D03*
X106680000Y-59690000D03*
X106680000Y-57150000D03*
X109220000Y-59690000D03*
X109220000Y-57150000D03*
X111760000Y-59690000D03*
X111760000Y-57150000D03*
X114300000Y-59690000D03*
X114300000Y-57150000D03*
D13*
X125730000Y-59690000D03*
D12*
X125730000Y-57150000D03*
X128270000Y-59690000D03*
X128270000Y-57150000D03*
X130810000Y-59690000D03*
X130810000Y-57150000D03*
X133350000Y-59690000D03*
X133350000Y-57150000D03*
X135890000Y-59690000D03*
X135890000Y-57150000D03*
D13*
X147320000Y-59690000D03*
D12*
X147320000Y-57150000D03*
X149860000Y-59690000D03*
X149860000Y-57150000D03*
X152400000Y-59690000D03*
X152400000Y-57150000D03*
X154940000Y-59690000D03*
X154940000Y-57150000D03*
X157480000Y-59690000D03*
X157480000Y-57150000D03*
D13*
X101600000Y-110490000D03*
D12*
X101600000Y-113030000D03*
X99060000Y-110490000D03*
X99060000Y-113030000D03*
X96520000Y-110490000D03*
X96520000Y-113030000D03*
X93980000Y-110490000D03*
X93980000Y-113030000D03*
X91440000Y-110490000D03*
X91440000Y-113030000D03*
D13*
X124460000Y-110490000D03*
D12*
X124460000Y-113030000D03*
X121920000Y-110490000D03*
X121920000Y-113030000D03*
X119380000Y-110490000D03*
X119380000Y-113030000D03*
X116840000Y-110490000D03*
X116840000Y-113030000D03*
X114300000Y-110490000D03*
X114300000Y-113030000D03*
D13*
X78740000Y-82550000D03*
D12*
X76200000Y-82550000D03*
X78740000Y-80010000D03*
X76200000Y-80010000D03*
X78740000Y-77470000D03*
X76200000Y-77470000D03*
X78740000Y-74930000D03*
X76200000Y-74930000D03*
X78740000Y-72390000D03*
X76200000Y-72390000D03*
D13*
X165100000Y-105410000D03*
D12*
X162560000Y-105410000D03*
X165100000Y-102870000D03*
X162560000Y-102870000D03*
X165100000Y-100330000D03*
X162560000Y-100330000D03*
X165100000Y-97790000D03*
X162560000Y-97790000D03*
X165100000Y-95250000D03*
X162560000Y-95250000D03*
X165100000Y-92710000D03*
X162560000Y-92710000D03*
X165100000Y-90170000D03*
X162560000Y-90170000D03*
X165100000Y-87630000D03*
X162560000Y-87630000D03*
M02*
