M48
;DRILL file {KiCad (2016-03-22 BZR 6643, Git db8c72c)-product} date 3/23/2016 7:43:55 PM
;FORMAT={2:4/ absolute / inch / keep zeros}
FMAT,2
INCH,TZ
T1C0.032
T2C0.036
T3C0.070
T4C0.140
%
G90
G05
M72
T1
X058250Y-036000
X058250Y-037969
X061750Y-034750
X061750Y-035750
X062250Y-035250
T2
X030000Y-028500
X030000Y-029500
X030000Y-030500
X030000Y-031500
X030000Y-032500
X031000Y-028500
X031000Y-029500
X031000Y-030500
X031000Y-031500
X031000Y-032500
X032000Y-035000
X032000Y-039000
X032500Y-022500
X032500Y-023500
X032500Y-040500
X032500Y-044500
X033250Y-031500
X033500Y-022500
X033500Y-023500
X034000Y-035500
X034000Y-038500
X034500Y-022500
X034500Y-023500
X034500Y-027000
X034500Y-033000
X035000Y-035500
X035000Y-038500
X035500Y-022500
X035500Y-023500
X035500Y-027000
X035500Y-033000
X036000Y-035500
X036000Y-038500
X036000Y-041250
X036000Y-043500
X036000Y-044500
X036500Y-022500
X036500Y-023500
X036500Y-027000
X036500Y-033000
X036750Y-036750
X037000Y-035500
X037000Y-038500
X037000Y-043500
X037000Y-044500
X037500Y-027000
X037500Y-033000
X038000Y-035500
X038000Y-038500
X038000Y-043500
X038000Y-044500
X038500Y-027000
X038500Y-029250
X038500Y-033000
X039000Y-035500
X039000Y-038500
X039000Y-043500
X039000Y-044500
X039500Y-027000
X039500Y-033000
X040000Y-035500
X040000Y-038500
X040000Y-041250
X040000Y-043500
X040000Y-044500
X040500Y-025200
X040500Y-027000
X040500Y-033000
X041000Y-022500
X041000Y-023500
X041500Y-027000
X041500Y-033000
X041500Y-035500
X041500Y-038500
X041750Y-030000
X042000Y-022500
X042000Y-023500
X042500Y-027000
X042500Y-033000
X043000Y-022500
X043000Y-023500
X043000Y-036750
X043000Y-040750
X043250Y-029250
X043500Y-025200
X043500Y-027000
X043500Y-033000
X044000Y-022500
X044000Y-023500
X044000Y-035500
X044500Y-027000
X044500Y-033000
X044500Y-036750
X044500Y-040750
X045000Y-022500
X045000Y-023500
X045000Y-034500
X045000Y-035500
X045000Y-043500
X045000Y-044500
X045500Y-027000
X045500Y-032250
X045500Y-033000
X046000Y-033750
X046000Y-036750
X046000Y-040750
X046000Y-043500
X046000Y-044500
X046500Y-027000
X046500Y-033000
X047000Y-034500
X047000Y-035500
X047000Y-043500
X047000Y-044500
X047500Y-027000
X047500Y-033000
X047500Y-036750
X047500Y-040750
X048000Y-035500
X048000Y-043500
X048000Y-044500
X048500Y-027000
X048500Y-031000
X048500Y-033000
X048980Y-031750
X049000Y-028000
X049000Y-036750
X049000Y-040750
X049000Y-043500
X049000Y-044500
X049500Y-022500
X049500Y-023500
X049500Y-027000
X049500Y-033000
X049529Y-030279
X050009Y-028500
X050500Y-022500
X050500Y-023500
X050500Y-027000
X050500Y-033000
X050750Y-036750
X050750Y-039750
X051500Y-022500
X051500Y-023500
X051500Y-027000
X051500Y-033000
X051750Y-025500
X052500Y-022500
X052500Y-023500
X052500Y-026000
X052500Y-027000
X052500Y-033000
X052500Y-036750
X052500Y-039750
X052500Y-042000
X052500Y-043500
X053500Y-022500
X053500Y-023500
X053500Y-027000
X053500Y-033000
X053500Y-036750
X053500Y-039750
X054500Y-036750
X054500Y-039750
X056000Y-027000
X056000Y-030000
X056500Y-042000
X056500Y-043500
X057500Y-031500
X057500Y-032500
X058000Y-022500
X058000Y-023500
X058000Y-033500
X058000Y-045250
X058500Y-027000
X058500Y-030000
X059000Y-022500
X059000Y-023500
X059500Y-027000
X059500Y-030000
X059500Y-040500
X060000Y-022500
X060000Y-023500
X060500Y-027000
X060500Y-030000
X061000Y-022500
X061000Y-023500
X061000Y-033500
X061500Y-031500
X061500Y-032500
X062000Y-022500
X062000Y-023500
X062500Y-031250
X063000Y-032000
X064000Y-034500
X064000Y-035500
X064000Y-036500
X064000Y-037500
X064000Y-038500
X064000Y-039500
X064000Y-040500
X064000Y-041500
X065000Y-034500
X065000Y-035500
X065000Y-036500
X065000Y-037500
X065000Y-038500
X065000Y-039500
X065000Y-040500
X065000Y-041500
T3
X061750Y-038410
X061750Y-039970
X061750Y-041530
X061750Y-043090
T4
X029500Y-022500
X029500Y-044500
X065500Y-022500
X065500Y-044500
T0
M30
