G04 #@! TF.FileFunction,Soldermask,Top*
%FSLAX46Y46*%
G04 Gerber Fmt 4.6, Leading zero omitted, Abs format (unit mm)*
G04 Created by KiCad (PCBNEW (2016-02-24 BZR 6585, Git 0829446)-product) date 3/13/2016 10:01:12 PM*
%MOMM*%
G01*
G04 APERTURE LIST*
%ADD10C,0.100000*%
%ADD11C,1.974800*%
%ADD12C,4.210000*%
%ADD13C,3.448000*%
%ADD14C,3.575000*%
%ADD15C,2.940000*%
%ADD16C,1.797000*%
G04 APERTURE END LIST*
D10*
D11*
X130810000Y-110490000D03*
X130810000Y-100330000D03*
D12*
X101600000Y-121361200D03*
D13*
X105410000Y-118821200D03*
D12*
X105410000Y-113741200D03*
X107950000Y-108661200D03*
D13*
X101600000Y-106121200D03*
X97790000Y-118821200D03*
D12*
X177800000Y-121361200D03*
D13*
X181610000Y-118821200D03*
D12*
X181610000Y-113741200D03*
X184150000Y-108661200D03*
D13*
X177800000Y-106121200D03*
X173990000Y-118821200D03*
D12*
X203200000Y-121361200D03*
D13*
X207010000Y-118821200D03*
D12*
X207010000Y-113741200D03*
X209550000Y-108661200D03*
D13*
X203200000Y-106121200D03*
X199390000Y-118821200D03*
D12*
X152400000Y-121361200D03*
D13*
X156210000Y-118821200D03*
D12*
X156210000Y-113741200D03*
X158750000Y-108661200D03*
D13*
X152400000Y-106121200D03*
X148590000Y-118821200D03*
D12*
X228600000Y-121361200D03*
D13*
X232410000Y-118821200D03*
D12*
X232410000Y-113741200D03*
X234950000Y-108661200D03*
D13*
X228600000Y-106121200D03*
X224790000Y-118821200D03*
D14*
X221945200Y-96520000D03*
X225907600Y-96520000D03*
X229870000Y-96520000D03*
X233832400Y-96520000D03*
D11*
X115570000Y-110490000D03*
X115570000Y-100330000D03*
X133350000Y-100330000D03*
X133350000Y-110490000D03*
X135890000Y-100330000D03*
X135890000Y-110490000D03*
X138430000Y-100330000D03*
X138430000Y-110490000D03*
X118110000Y-110490000D03*
X118110000Y-100330000D03*
X120650000Y-100330000D03*
X120650000Y-110490000D03*
X125730000Y-100330000D03*
X125730000Y-110490000D03*
X123190000Y-110490000D03*
X123190000Y-100330000D03*
X113030000Y-100330000D03*
X113030000Y-110490000D03*
X128270000Y-110490000D03*
X128270000Y-100330000D03*
D15*
X127000000Y-125000000D03*
X119300000Y-122500000D03*
X134700000Y-122500000D03*
D11*
X140970000Y-100330000D03*
X140970000Y-110490000D03*
X214630000Y-104775000D03*
X217170000Y-104775000D03*
X113030000Y-92710000D03*
X113030000Y-95250000D03*
X109220000Y-99060000D03*
X106680000Y-99060000D03*
D16*
X116840000Y-95250000D03*
X118110000Y-93980000D03*
X119380000Y-95250000D03*
X139700000Y-93980000D03*
X140970000Y-92710000D03*
X142240000Y-93980000D03*
D11*
X125730000Y-96520000D03*
X125730000Y-91440000D03*
X128270000Y-96520000D03*
X128270000Y-91440000D03*
X130810000Y-96520000D03*
X130810000Y-91440000D03*
X133350000Y-96520000D03*
X133350000Y-91440000D03*
M02*
