G04 #@! TF.FileFunction,Copper,L1,Top,Signal*
%FSLAX46Y46*%
G04 Gerber Fmt 4.6, Leading zero omitted, Abs format (unit mm)*
G04 Created by KiCad (PCBNEW (2016-02-24 BZR 6585, Git 0829446)-product) date 3/13/2016 10:01:12 PM*
%MOMM*%
G01*
G04 APERTURE LIST*
%ADD10C,0.100000*%
%ADD11C,1.574800*%
%ADD12C,3.810000*%
%ADD13C,3.048000*%
%ADD14C,3.175000*%
%ADD15C,2.540000*%
%ADD16C,1.397000*%
%ADD17C,0.304800*%
%ADD18C,1.270000*%
G04 APERTURE END LIST*
D10*
D11*
X130810000Y-110490000D03*
X130810000Y-100330000D03*
D12*
X101600000Y-121361200D03*
D13*
X105410000Y-118821200D03*
D12*
X105410000Y-113741200D03*
X107950000Y-108661200D03*
D13*
X101600000Y-106121200D03*
X97790000Y-118821200D03*
D12*
X177800000Y-121361200D03*
D13*
X181610000Y-118821200D03*
D12*
X181610000Y-113741200D03*
X184150000Y-108661200D03*
D13*
X177800000Y-106121200D03*
X173990000Y-118821200D03*
D12*
X203200000Y-121361200D03*
D13*
X207010000Y-118821200D03*
D12*
X207010000Y-113741200D03*
X209550000Y-108661200D03*
D13*
X203200000Y-106121200D03*
X199390000Y-118821200D03*
D12*
X152400000Y-121361200D03*
D13*
X156210000Y-118821200D03*
D12*
X156210000Y-113741200D03*
X158750000Y-108661200D03*
D13*
X152400000Y-106121200D03*
X148590000Y-118821200D03*
D12*
X228600000Y-121361200D03*
D13*
X232410000Y-118821200D03*
D12*
X232410000Y-113741200D03*
X234950000Y-108661200D03*
D13*
X228600000Y-106121200D03*
X224790000Y-118821200D03*
D14*
X221945200Y-96520000D03*
X225907600Y-96520000D03*
X229870000Y-96520000D03*
X233832400Y-96520000D03*
D11*
X115570000Y-110490000D03*
X115570000Y-100330000D03*
X133350000Y-100330000D03*
X133350000Y-110490000D03*
X135890000Y-100330000D03*
X135890000Y-110490000D03*
X138430000Y-100330000D03*
X138430000Y-110490000D03*
X118110000Y-110490000D03*
X118110000Y-100330000D03*
X120650000Y-100330000D03*
X120650000Y-110490000D03*
X125730000Y-100330000D03*
X125730000Y-110490000D03*
X123190000Y-110490000D03*
X123190000Y-100330000D03*
X113030000Y-100330000D03*
X113030000Y-110490000D03*
X128270000Y-110490000D03*
X128270000Y-100330000D03*
D15*
X127000000Y-125000000D03*
X119300000Y-122500000D03*
X134700000Y-122500000D03*
D11*
X140970000Y-100330000D03*
X140970000Y-110490000D03*
X214630000Y-104775000D03*
X217170000Y-104775000D03*
X113030000Y-92710000D03*
X113030000Y-95250000D03*
X109220000Y-99060000D03*
X106680000Y-99060000D03*
D16*
X116840000Y-95250000D03*
X118110000Y-93980000D03*
X119380000Y-95250000D03*
X139700000Y-93980000D03*
X140970000Y-92710000D03*
X142240000Y-93980000D03*
D11*
X125730000Y-96520000D03*
X125730000Y-91440000D03*
X128270000Y-96520000D03*
X128270000Y-91440000D03*
X130810000Y-96520000D03*
X130810000Y-91440000D03*
X133350000Y-96520000D03*
X133350000Y-91440000D03*
D17*
X107950000Y-108661200D02*
X107950000Y-100330000D01*
X107950000Y-100330000D02*
X106680000Y-99060000D01*
X115570000Y-110490000D02*
X109220000Y-104140000D01*
X109220000Y-104140000D02*
X109220000Y-100173551D01*
X109220000Y-100173551D02*
X109220000Y-99060000D01*
X118110000Y-100330000D02*
X118897399Y-99542601D01*
X118897399Y-97386651D02*
X120497601Y-95786449D01*
X118897399Y-99542601D02*
X118897399Y-97386651D01*
X120497601Y-95786449D02*
X120497601Y-94713551D01*
X120497601Y-94713551D02*
X119764050Y-93980000D01*
X119764050Y-93980000D02*
X119187630Y-93980000D01*
X119187630Y-93980000D02*
X118110000Y-93980000D01*
X133350000Y-110490000D02*
X133350000Y-102870000D01*
X133350000Y-102870000D02*
X130810000Y-100330000D01*
X130810000Y-96520000D02*
X130810000Y-93980000D01*
X130810000Y-93980000D02*
X133350000Y-91440000D01*
X130810000Y-100330000D02*
X130810000Y-96520000D01*
X125730000Y-96520000D02*
X124652370Y-96520000D01*
X124652370Y-96520000D02*
X124586999Y-96585371D01*
X124586999Y-96585371D02*
X124586999Y-109346999D01*
X124586999Y-109346999D02*
X124942601Y-109702601D01*
X124942601Y-109702601D02*
X125730000Y-110490000D01*
D18*
X113030000Y-110490000D02*
X107772201Y-115747799D01*
X107772201Y-115747799D02*
X107772201Y-119955057D01*
X107772201Y-119955057D02*
X106366058Y-121361200D01*
X106366058Y-121361200D02*
X104294076Y-121361200D01*
X104294076Y-121361200D02*
X101600000Y-121361200D01*
X228600000Y-121361200D02*
X228600000Y-109617258D01*
X230962201Y-101574601D02*
X227495099Y-98107499D01*
X228600000Y-109617258D02*
X230962201Y-107255057D01*
X227495099Y-98107499D02*
X225907600Y-96520000D01*
X230962201Y-107255057D02*
X230962201Y-101574601D01*
D17*
X113030000Y-95250000D02*
X111886999Y-96393001D01*
X111886999Y-96393001D02*
X111886999Y-105115357D01*
X111886999Y-105115357D02*
X116966999Y-110195357D01*
X116966999Y-110195357D02*
X116966999Y-120166999D01*
X116966999Y-120166999D02*
X118030001Y-121230001D01*
X118030001Y-121230001D02*
X119300000Y-122500000D01*
X113030000Y-100330000D02*
X116840000Y-96520000D01*
X116840000Y-96520000D02*
X116840000Y-95250000D01*
X128270000Y-96520000D02*
X129031999Y-95758001D01*
X129031999Y-95758001D02*
X129031999Y-93218001D01*
X129031999Y-93218001D02*
X130048001Y-92201999D01*
X130048001Y-92201999D02*
X130810000Y-91440000D01*
X128270000Y-100330000D02*
X128270000Y-96520000D01*
X123190000Y-100330000D02*
X123190000Y-96520000D01*
X123190000Y-96520000D02*
X128270000Y-91440000D01*
X123190000Y-100330000D02*
X122046999Y-101473001D01*
X122046999Y-101473001D02*
X117561359Y-101473001D01*
X117561359Y-101473001D02*
X116966999Y-100878641D01*
X116966999Y-100878641D02*
X116966999Y-97663001D01*
X116966999Y-97663001D02*
X118618001Y-96011999D01*
X118618001Y-96011999D02*
X119380000Y-95250000D01*
X139700000Y-93980000D02*
X139700000Y-99060000D01*
X139700000Y-99060000D02*
X140970000Y-100330000D01*
D18*
X163656262Y-99695000D02*
X218770200Y-99695000D01*
X218770200Y-99695000D02*
X221945200Y-96520000D01*
X123190000Y-110490000D02*
X123190000Y-111603551D01*
X123190000Y-111603551D02*
X124010912Y-112424463D01*
X124010912Y-112424463D02*
X150926799Y-112424463D01*
X150926799Y-112424463D02*
X163656262Y-99695000D01*
X118110000Y-110490000D02*
X118110000Y-111603551D01*
X118110000Y-111603551D02*
X118622050Y-112115601D01*
X118622050Y-112115601D02*
X121564399Y-112115601D01*
X121564399Y-112115601D02*
X122402601Y-111277399D01*
X122402601Y-111277399D02*
X123190000Y-110490000D01*
M02*
