M48
;DRILL file {KiCad (2016-02-24 BZR 6585, Git 0829446)-product} date 3/13/2016 10:01:17 PM
;FORMAT={2:4/ absolute / inch / keep zeros}
FMAT,2
INCH,TZ
T1C0.032
T2C0.036
T3C0.060
T4C0.065
T5C0.070
T6C0.095
%
G90
G05
M72
T1
X046000Y-037500
X046500Y-037000
X047000Y-037500
X055000Y-037000
X055500Y-036500
X056000Y-037000
T2
X042000Y-039000
X043000Y-039000
X044500Y-036500
X044500Y-037500
X044500Y-039500
X044500Y-043500
X045500Y-039500
X045500Y-043500
X046500Y-039500
X046500Y-043500
X047500Y-039500
X047500Y-043500
X048500Y-039500
X048500Y-043500
X049500Y-036000
X049500Y-038000
X049500Y-039500
X049500Y-043500
X050500Y-036000
X050500Y-038000
X050500Y-039500
X050500Y-043500
X051500Y-036000
X051500Y-038000
X051500Y-039500
X051500Y-043500
X052500Y-036000
X052500Y-038000
X052500Y-039500
X052500Y-043500
X053500Y-039500
X053500Y-043500
X054500Y-039500
X054500Y-043500
X055500Y-039500
X055500Y-043500
X084500Y-041250
X085500Y-041250
T3
X040000Y-047780
X041500Y-044780
X042500Y-042780
X060000Y-047780
X061500Y-044780
X062500Y-042780
X070000Y-047780
X071500Y-044780
X072500Y-042780
X080000Y-047780
X081500Y-044780
X082500Y-042780
X090000Y-047780
X091500Y-044780
X092500Y-042780
T4
X046969Y-048228
X050000Y-049213
X053031Y-048228
T5
X087380Y-038000
X088940Y-038000
X090500Y-038000
X092060Y-038000
T6
X038500Y-046780
X040000Y-041780
X041500Y-046780
X058500Y-046780
X060000Y-041780
X061500Y-046780
X068500Y-046780
X070000Y-041780
X071500Y-046780
X078500Y-046780
X080000Y-041780
X081500Y-046780
X088500Y-046780
X090000Y-041780
X091500Y-046780
T0
M30
