G04 #@! TF.FileFunction,Legend,Top*
%FSLAX46Y46*%
G04 Gerber Fmt 4.6, Leading zero omitted, Abs format (unit mm)*
G04 Created by KiCad (PCBNEW (2016-02-24 BZR 6585, Git 0829446)-product) date 3/13/2016 10:01:12 PM*
%MOMM*%
G01*
G04 APERTURE LIST*
%ADD10C,0.100000*%
%ADD11C,0.508000*%
%ADD12C,0.150000*%
G04 APERTURE END LIST*
D10*
D11*
X162965191Y-90276438D02*
X161997572Y-90276438D01*
X161900810Y-91244057D01*
X161997572Y-91147295D01*
X162191095Y-91050533D01*
X162674905Y-91050533D01*
X162868429Y-91147295D01*
X162965191Y-91244057D01*
X163061952Y-91437581D01*
X163061952Y-91921390D01*
X162965191Y-92114914D01*
X162868429Y-92211676D01*
X162674905Y-92308438D01*
X162191095Y-92308438D01*
X161997572Y-92211676D01*
X161900810Y-92114914D01*
X164319857Y-90276438D02*
X164513381Y-90276438D01*
X164706905Y-90373200D01*
X164803667Y-90469962D01*
X164900429Y-90663486D01*
X164997190Y-91050533D01*
X164997190Y-91534343D01*
X164900429Y-91921390D01*
X164803667Y-92114914D01*
X164706905Y-92211676D01*
X164513381Y-92308438D01*
X164319857Y-92308438D01*
X164126333Y-92211676D01*
X164029571Y-92114914D01*
X163932810Y-91921390D01*
X163836048Y-91534343D01*
X163836048Y-91050533D01*
X163932810Y-90663486D01*
X164029571Y-90469962D01*
X164126333Y-90373200D01*
X164319857Y-90276438D01*
X166255095Y-90276438D02*
X166448619Y-90276438D01*
X166642143Y-90373200D01*
X166738905Y-90469962D01*
X166835667Y-90663486D01*
X166932428Y-91050533D01*
X166932428Y-91534343D01*
X166835667Y-91921390D01*
X166738905Y-92114914D01*
X166642143Y-92211676D01*
X166448619Y-92308438D01*
X166255095Y-92308438D01*
X166061571Y-92211676D01*
X165964809Y-92114914D01*
X165868048Y-91921390D01*
X165771286Y-91534343D01*
X165771286Y-91050533D01*
X165868048Y-90663486D01*
X165964809Y-90469962D01*
X166061571Y-90373200D01*
X166255095Y-90276438D01*
X167803286Y-91534343D02*
X169351476Y-91534343D01*
X171383476Y-92308438D02*
X170222334Y-92308438D01*
X170802905Y-92308438D02*
X170802905Y-90276438D01*
X170609381Y-90566724D01*
X170415857Y-90760248D01*
X170222334Y-90857010D01*
X172641381Y-90276438D02*
X172834905Y-90276438D01*
X173028429Y-90373200D01*
X173125191Y-90469962D01*
X173221953Y-90663486D01*
X173318714Y-91050533D01*
X173318714Y-91534343D01*
X173221953Y-91921390D01*
X173125191Y-92114914D01*
X173028429Y-92211676D01*
X172834905Y-92308438D01*
X172641381Y-92308438D01*
X172447857Y-92211676D01*
X172351095Y-92114914D01*
X172254334Y-91921390D01*
X172157572Y-91534343D01*
X172157572Y-91050533D01*
X172254334Y-90663486D01*
X172351095Y-90469962D01*
X172447857Y-90373200D01*
X172641381Y-90276438D01*
X174286333Y-92308438D02*
X174673381Y-92308438D01*
X174866905Y-92211676D01*
X174963667Y-92114914D01*
X175157191Y-91824629D01*
X175253952Y-91437581D01*
X175253952Y-90663486D01*
X175157191Y-90469962D01*
X175060429Y-90373200D01*
X174866905Y-90276438D01*
X174479857Y-90276438D01*
X174286333Y-90373200D01*
X174189572Y-90469962D01*
X174092810Y-90663486D01*
X174092810Y-91147295D01*
X174189572Y-91340819D01*
X174286333Y-91437581D01*
X174479857Y-91534343D01*
X174866905Y-91534343D01*
X175060429Y-91437581D01*
X175157191Y-91340819D01*
X175253952Y-91147295D01*
X177092429Y-90276438D02*
X176124810Y-90276438D01*
X176028048Y-91244057D01*
X176124810Y-91147295D01*
X176318333Y-91050533D01*
X176802143Y-91050533D01*
X176995667Y-91147295D01*
X177092429Y-91244057D01*
X177189190Y-91437581D01*
X177189190Y-91921390D01*
X177092429Y-92114914D01*
X176995667Y-92211676D01*
X176802143Y-92308438D01*
X176318333Y-92308438D01*
X176124810Y-92211676D01*
X176028048Y-92114914D01*
X150289384Y-95661238D02*
X150289384Y-93629238D01*
X150289384Y-94403333D02*
X150482907Y-94306571D01*
X150869955Y-94306571D01*
X151063479Y-94403333D01*
X151160241Y-94500095D01*
X151257003Y-94693619D01*
X151257003Y-95274190D01*
X151160241Y-95467714D01*
X151063479Y-95564476D01*
X150869955Y-95661238D01*
X150482907Y-95661238D01*
X150289384Y-95564476D01*
X151934336Y-94306571D02*
X152418145Y-95661238D01*
X152901955Y-94306571D02*
X152418145Y-95661238D01*
X152224621Y-96145048D01*
X152127860Y-96241810D01*
X151934336Y-96338571D01*
X155804811Y-93629238D02*
X155804811Y-95080667D01*
X155708049Y-95370952D01*
X155514525Y-95564476D01*
X155224240Y-95661238D01*
X155030716Y-95661238D01*
X156772430Y-95661238D02*
X156772430Y-94306571D01*
X156772430Y-93629238D02*
X156675668Y-93726000D01*
X156772430Y-93822762D01*
X156869191Y-93726000D01*
X156772430Y-93629238D01*
X156772430Y-93822762D01*
X157740049Y-95661238D02*
X157740049Y-94306571D01*
X157740049Y-94500095D02*
X157836810Y-94403333D01*
X158030334Y-94306571D01*
X158320620Y-94306571D01*
X158514144Y-94403333D01*
X158610906Y-94596857D01*
X158610906Y-95661238D01*
X158610906Y-94596857D02*
X158707668Y-94403333D01*
X158901191Y-94306571D01*
X159191477Y-94306571D01*
X159385001Y-94403333D01*
X159481763Y-94596857D01*
X159481763Y-95661238D01*
X161997572Y-95661238D02*
X161997572Y-93629238D01*
X162771667Y-93629238D01*
X162965191Y-93726000D01*
X163061952Y-93822762D01*
X163158714Y-94016286D01*
X163158714Y-94306571D01*
X163061952Y-94500095D01*
X162965191Y-94596857D01*
X162771667Y-94693619D01*
X161997572Y-94693619D01*
X164900429Y-95661238D02*
X164900429Y-94596857D01*
X164803667Y-94403333D01*
X164610143Y-94306571D01*
X164223095Y-94306571D01*
X164029572Y-94403333D01*
X164900429Y-95564476D02*
X164706905Y-95661238D01*
X164223095Y-95661238D01*
X164029572Y-95564476D01*
X163932810Y-95370952D01*
X163932810Y-95177429D01*
X164029572Y-94983905D01*
X164223095Y-94887143D01*
X164706905Y-94887143D01*
X164900429Y-94790381D01*
X165577762Y-94306571D02*
X166351857Y-94306571D01*
X165868048Y-93629238D02*
X165868048Y-95370952D01*
X165964809Y-95564476D01*
X166158333Y-95661238D01*
X166351857Y-95661238D01*
X167900048Y-95564476D02*
X167706524Y-95661238D01*
X167319476Y-95661238D01*
X167125952Y-95564476D01*
X167029191Y-95467714D01*
X166932429Y-95274190D01*
X166932429Y-94693619D01*
X167029191Y-94500095D01*
X167125952Y-94403333D01*
X167319476Y-94306571D01*
X167706524Y-94306571D01*
X167900048Y-94403333D01*
X168770905Y-95661238D02*
X168770905Y-93629238D01*
X169641762Y-95661238D02*
X169641762Y-94596857D01*
X169545000Y-94403333D01*
X169351476Y-94306571D01*
X169061190Y-94306571D01*
X168867666Y-94403333D01*
X168770905Y-94500095D01*
X171383476Y-95564476D02*
X171189952Y-95661238D01*
X170802904Y-95661238D01*
X170609381Y-95564476D01*
X170512619Y-95370952D01*
X170512619Y-94596857D01*
X170609381Y-94403333D01*
X170802904Y-94306571D01*
X171189952Y-94306571D01*
X171383476Y-94403333D01*
X171480238Y-94596857D01*
X171480238Y-94790381D01*
X170512619Y-94983905D01*
X172641380Y-95661238D02*
X172447856Y-95564476D01*
X172351095Y-95370952D01*
X172351095Y-93629238D01*
X173705761Y-95661238D02*
X173512237Y-95564476D01*
X173415476Y-95370952D01*
X173415476Y-93629238D01*
X176608618Y-96435333D02*
X176511856Y-96338571D01*
X176318332Y-96048286D01*
X176221570Y-95854762D01*
X176124808Y-95564476D01*
X176028047Y-95080667D01*
X176028047Y-94693619D01*
X176124808Y-94209810D01*
X176221570Y-93919524D01*
X176318332Y-93726000D01*
X176511856Y-93435714D01*
X176608618Y-93338952D01*
X178253571Y-95564476D02*
X178060047Y-95661238D01*
X177672999Y-95661238D01*
X177479475Y-95564476D01*
X177382714Y-95467714D01*
X177285952Y-95274190D01*
X177285952Y-94693619D01*
X177382714Y-94500095D01*
X177479475Y-94403333D01*
X177672999Y-94306571D01*
X178060047Y-94306571D01*
X178253571Y-94403333D01*
X178930904Y-96435333D02*
X179027666Y-96338571D01*
X179221189Y-96048286D01*
X179317951Y-95854762D01*
X179414713Y-95564476D01*
X179511475Y-95080667D01*
X179511475Y-94693619D01*
X179414713Y-94209810D01*
X179317951Y-93919524D01*
X179221189Y-93726000D01*
X179027666Y-93435714D01*
X178930904Y-93338952D01*
X181930523Y-93822762D02*
X182027285Y-93726000D01*
X182220808Y-93629238D01*
X182704618Y-93629238D01*
X182898142Y-93726000D01*
X182994904Y-93822762D01*
X183091665Y-94016286D01*
X183091665Y-94209810D01*
X182994904Y-94500095D01*
X181833761Y-95661238D01*
X183091665Y-95661238D01*
X184349570Y-93629238D02*
X184543094Y-93629238D01*
X184736618Y-93726000D01*
X184833380Y-93822762D01*
X184930142Y-94016286D01*
X185026903Y-94403333D01*
X185026903Y-94887143D01*
X184930142Y-95274190D01*
X184833380Y-95467714D01*
X184736618Y-95564476D01*
X184543094Y-95661238D01*
X184349570Y-95661238D01*
X184156046Y-95564476D01*
X184059284Y-95467714D01*
X183962523Y-95274190D01*
X183865761Y-94887143D01*
X183865761Y-94403333D01*
X183962523Y-94016286D01*
X184059284Y-93822762D01*
X184156046Y-93726000D01*
X184349570Y-93629238D01*
X186962141Y-95661238D02*
X185800999Y-95661238D01*
X186381570Y-95661238D02*
X186381570Y-93629238D01*
X186188046Y-93919524D01*
X185994522Y-94113048D01*
X185800999Y-94209810D01*
X188703856Y-93629238D02*
X188316808Y-93629238D01*
X188123284Y-93726000D01*
X188026522Y-93822762D01*
X187832999Y-94113048D01*
X187736237Y-94500095D01*
X187736237Y-95274190D01*
X187832999Y-95467714D01*
X187929760Y-95564476D01*
X188123284Y-95661238D01*
X188510332Y-95661238D01*
X188703856Y-95564476D01*
X188800618Y-95467714D01*
X188897379Y-95274190D01*
X188897379Y-94790381D01*
X188800618Y-94596857D01*
X188703856Y-94500095D01*
X188510332Y-94403333D01*
X188123284Y-94403333D01*
X187929760Y-94500095D01*
X187832999Y-94596857D01*
X187736237Y-94790381D01*
X148354145Y-98820514D02*
X148257383Y-98917276D01*
X147967098Y-99014038D01*
X147773574Y-99014038D01*
X147483288Y-98917276D01*
X147289764Y-98723752D01*
X147193003Y-98530229D01*
X147096241Y-98143181D01*
X147096241Y-97852895D01*
X147193003Y-97465848D01*
X147289764Y-97272324D01*
X147483288Y-97078800D01*
X147773574Y-96982038D01*
X147967098Y-96982038D01*
X148257383Y-97078800D01*
X148354145Y-97175562D01*
X149515288Y-99014038D02*
X149321764Y-98917276D01*
X149225003Y-98723752D01*
X149225003Y-96982038D01*
X150579669Y-99014038D02*
X150386145Y-98917276D01*
X150289384Y-98820514D01*
X150192622Y-98626990D01*
X150192622Y-98046419D01*
X150289384Y-97852895D01*
X150386145Y-97756133D01*
X150579669Y-97659371D01*
X150869955Y-97659371D01*
X151063479Y-97756133D01*
X151160241Y-97852895D01*
X151257003Y-98046419D01*
X151257003Y-98626990D01*
X151160241Y-98820514D01*
X151063479Y-98917276D01*
X150869955Y-99014038D01*
X150579669Y-99014038D01*
X152127860Y-97659371D02*
X152127860Y-99014038D01*
X152127860Y-97852895D02*
X152224621Y-97756133D01*
X152418145Y-97659371D01*
X152708431Y-97659371D01*
X152901955Y-97756133D01*
X152998717Y-97949657D01*
X152998717Y-99014038D01*
X154740431Y-98917276D02*
X154546907Y-99014038D01*
X154159859Y-99014038D01*
X153966336Y-98917276D01*
X153869574Y-98723752D01*
X153869574Y-97949657D01*
X153966336Y-97756133D01*
X154159859Y-97659371D01*
X154546907Y-97659371D01*
X154740431Y-97756133D01*
X154837193Y-97949657D01*
X154837193Y-98143181D01*
X153869574Y-98336705D01*
X157546525Y-99014038D02*
X157353001Y-98917276D01*
X157256240Y-98820514D01*
X157159478Y-98626990D01*
X157159478Y-98046419D01*
X157256240Y-97852895D01*
X157353001Y-97756133D01*
X157546525Y-97659371D01*
X157836811Y-97659371D01*
X158030335Y-97756133D01*
X158127097Y-97852895D01*
X158223859Y-98046419D01*
X158223859Y-98626990D01*
X158127097Y-98820514D01*
X158030335Y-98917276D01*
X157836811Y-99014038D01*
X157546525Y-99014038D01*
X158804430Y-97659371D02*
X159578525Y-97659371D01*
X159094716Y-99014038D02*
X159094716Y-97272324D01*
X159191477Y-97078800D01*
X159385001Y-96982038D01*
X159578525Y-96982038D01*
X161804049Y-99014038D02*
X161804049Y-96982038D01*
X162578144Y-96982038D01*
X162771668Y-97078800D01*
X162868429Y-97175562D01*
X162965191Y-97369086D01*
X162965191Y-97659371D01*
X162868429Y-97852895D01*
X162771668Y-97949657D01*
X162578144Y-98046419D01*
X161804049Y-98046419D01*
X164706906Y-99014038D02*
X164706906Y-97949657D01*
X164610144Y-97756133D01*
X164416620Y-97659371D01*
X164029572Y-97659371D01*
X163836049Y-97756133D01*
X164706906Y-98917276D02*
X164513382Y-99014038D01*
X164029572Y-99014038D01*
X163836049Y-98917276D01*
X163739287Y-98723752D01*
X163739287Y-98530229D01*
X163836049Y-98336705D01*
X164029572Y-98239943D01*
X164513382Y-98239943D01*
X164706906Y-98143181D01*
X165674525Y-99014038D02*
X165674525Y-97659371D01*
X165674525Y-96982038D02*
X165577763Y-97078800D01*
X165674525Y-97175562D01*
X165771286Y-97078800D01*
X165674525Y-96982038D01*
X165674525Y-97175562D01*
X167513001Y-99014038D02*
X167513001Y-97949657D01*
X167416239Y-97756133D01*
X167222715Y-97659371D01*
X166835667Y-97659371D01*
X166642144Y-97756133D01*
X167513001Y-98917276D02*
X167319477Y-99014038D01*
X166835667Y-99014038D01*
X166642144Y-98917276D01*
X166545382Y-98723752D01*
X166545382Y-98530229D01*
X166642144Y-98336705D01*
X166835667Y-98239943D01*
X167319477Y-98239943D01*
X167513001Y-98143181D01*
X169932048Y-97175562D02*
X170028810Y-97078800D01*
X170222333Y-96982038D01*
X170706143Y-96982038D01*
X170899667Y-97078800D01*
X170996429Y-97175562D01*
X171093190Y-97369086D01*
X171093190Y-97562610D01*
X170996429Y-97852895D01*
X169835286Y-99014038D01*
X171093190Y-99014038D01*
X171770524Y-96982038D02*
X173125190Y-96982038D01*
X172254333Y-99014038D01*
X173802524Y-97175562D02*
X173899286Y-97078800D01*
X174092809Y-96982038D01*
X174576619Y-96982038D01*
X174770143Y-97078800D01*
X174866905Y-97175562D01*
X174963666Y-97369086D01*
X174963666Y-97562610D01*
X174866905Y-97852895D01*
X173705762Y-99014038D01*
X174963666Y-99014038D01*
X176221571Y-96982038D02*
X176415095Y-96982038D01*
X176608619Y-97078800D01*
X176705381Y-97175562D01*
X176802143Y-97369086D01*
X176898904Y-97756133D01*
X176898904Y-98239943D01*
X176802143Y-98626990D01*
X176705381Y-98820514D01*
X176608619Y-98917276D01*
X176415095Y-99014038D01*
X176221571Y-99014038D01*
X176028047Y-98917276D01*
X175931285Y-98820514D01*
X175834524Y-98626990D01*
X175737762Y-98239943D01*
X175737762Y-97756133D01*
X175834524Y-97369086D01*
X175931285Y-97175562D01*
X176028047Y-97078800D01*
X176221571Y-96982038D01*
X179995285Y-97949657D02*
X180285571Y-98046419D01*
X180382332Y-98143181D01*
X180479094Y-98336705D01*
X180479094Y-98626990D01*
X180382332Y-98820514D01*
X180285571Y-98917276D01*
X180092047Y-99014038D01*
X179317952Y-99014038D01*
X179317952Y-96982038D01*
X179995285Y-96982038D01*
X180188809Y-97078800D01*
X180285571Y-97175562D01*
X180382332Y-97369086D01*
X180382332Y-97562610D01*
X180285571Y-97756133D01*
X180188809Y-97852895D01*
X179995285Y-97949657D01*
X179317952Y-97949657D01*
X181349952Y-99014038D02*
X181349952Y-96982038D01*
X182124047Y-96982038D01*
X182317571Y-97078800D01*
X182414332Y-97175562D01*
X182511094Y-97369086D01*
X182511094Y-97659371D01*
X182414332Y-97852895D01*
X182317571Y-97949657D01*
X182124047Y-98046419D01*
X181349952Y-98046419D01*
X185607475Y-97949657D02*
X184930142Y-97949657D01*
X184930142Y-99014038D02*
X184930142Y-96982038D01*
X185897761Y-96982038D01*
X186671856Y-99014038D02*
X186671856Y-97659371D01*
X186671856Y-96982038D02*
X186575094Y-97078800D01*
X186671856Y-97175562D01*
X186768617Y-97078800D01*
X186671856Y-96982038D01*
X186671856Y-97175562D01*
X187929760Y-99014038D02*
X187736236Y-98917276D01*
X187639475Y-98723752D01*
X187639475Y-96982038D01*
X188413570Y-97659371D02*
X189187665Y-97659371D01*
X188703856Y-96982038D02*
X188703856Y-98723752D01*
X188800617Y-98917276D01*
X188994141Y-99014038D01*
X189187665Y-99014038D01*
X190639094Y-98917276D02*
X190445570Y-99014038D01*
X190058522Y-99014038D01*
X189864999Y-98917276D01*
X189768237Y-98723752D01*
X189768237Y-97949657D01*
X189864999Y-97756133D01*
X190058522Y-97659371D01*
X190445570Y-97659371D01*
X190639094Y-97756133D01*
X190735856Y-97949657D01*
X190735856Y-98143181D01*
X189768237Y-98336705D01*
X191606713Y-99014038D02*
X191606713Y-97659371D01*
X191606713Y-98046419D02*
X191703474Y-97852895D01*
X191800236Y-97756133D01*
X191993760Y-97659371D01*
X192187284Y-97659371D01*
D12*
X131826000Y-108458000D02*
X129794000Y-108458000D01*
X129794000Y-109220000D02*
X131826000Y-109220000D01*
X129794000Y-101600000D02*
X131826000Y-101600000D01*
X130810000Y-109220000D02*
X130810000Y-109728000D01*
X130810000Y-100965000D02*
X130810000Y-101600000D01*
X131826000Y-109220000D02*
X131826000Y-101600000D01*
X129794000Y-101600000D02*
X129794000Y-109220000D01*
X106299000Y-127000000D02*
X106299000Y-134188200D01*
X106299000Y-134188200D02*
X96901000Y-134188200D01*
X96901000Y-134188200D02*
X96901000Y-127000000D01*
X97155000Y-102311200D02*
X106045000Y-102311200D01*
X106045000Y-102311200D02*
X109855000Y-106121200D01*
X109855000Y-106121200D02*
X109855000Y-127000000D01*
X109855000Y-127000000D02*
X93345000Y-127000000D01*
X93345000Y-127000000D02*
X93345000Y-106121200D01*
X93345000Y-106121200D02*
X97155000Y-102311200D01*
X182499000Y-127000000D02*
X182499000Y-134188200D01*
X182499000Y-134188200D02*
X173101000Y-134188200D01*
X173101000Y-134188200D02*
X173101000Y-127000000D01*
X173355000Y-102311200D02*
X182245000Y-102311200D01*
X182245000Y-102311200D02*
X186055000Y-106121200D01*
X186055000Y-106121200D02*
X186055000Y-127000000D01*
X186055000Y-127000000D02*
X169545000Y-127000000D01*
X169545000Y-127000000D02*
X169545000Y-106121200D01*
X169545000Y-106121200D02*
X173355000Y-102311200D01*
X207899000Y-127000000D02*
X207899000Y-134188200D01*
X207899000Y-134188200D02*
X198501000Y-134188200D01*
X198501000Y-134188200D02*
X198501000Y-127000000D01*
X198755000Y-102311200D02*
X207645000Y-102311200D01*
X207645000Y-102311200D02*
X211455000Y-106121200D01*
X211455000Y-106121200D02*
X211455000Y-127000000D01*
X211455000Y-127000000D02*
X194945000Y-127000000D01*
X194945000Y-127000000D02*
X194945000Y-106121200D01*
X194945000Y-106121200D02*
X198755000Y-102311200D01*
X157099000Y-127000000D02*
X157099000Y-134188200D01*
X157099000Y-134188200D02*
X147701000Y-134188200D01*
X147701000Y-134188200D02*
X147701000Y-127000000D01*
X147955000Y-102311200D02*
X156845000Y-102311200D01*
X156845000Y-102311200D02*
X160655000Y-106121200D01*
X160655000Y-106121200D02*
X160655000Y-127000000D01*
X160655000Y-127000000D02*
X144145000Y-127000000D01*
X144145000Y-127000000D02*
X144145000Y-106121200D01*
X144145000Y-106121200D02*
X147955000Y-102311200D01*
X233299000Y-127000000D02*
X233299000Y-134188200D01*
X233299000Y-134188200D02*
X223901000Y-134188200D01*
X223901000Y-134188200D02*
X223901000Y-127000000D01*
X224155000Y-102311200D02*
X233045000Y-102311200D01*
X233045000Y-102311200D02*
X236855000Y-106121200D01*
X236855000Y-106121200D02*
X236855000Y-127000000D01*
X236855000Y-127000000D02*
X220345000Y-127000000D01*
X220345000Y-127000000D02*
X220345000Y-106121200D01*
X220345000Y-106121200D02*
X224155000Y-102311200D01*
X218998800Y-94615000D02*
X236778800Y-94615000D01*
X236778800Y-94615000D02*
X236778800Y-83820000D01*
X236778800Y-83820000D02*
X218998800Y-83820000D01*
X218998800Y-83820000D02*
X218998800Y-94615000D01*
X114554000Y-109220000D02*
X116586000Y-109220000D01*
X114554000Y-101600000D02*
X116586000Y-101600000D01*
X115570000Y-109220000D02*
X115570000Y-109728000D01*
X115570000Y-100965000D02*
X115570000Y-101600000D01*
X116586000Y-109220000D02*
X116586000Y-101600000D01*
X114554000Y-101600000D02*
X114554000Y-109220000D01*
X134366000Y-101600000D02*
X132334000Y-101600000D01*
X134366000Y-109220000D02*
X132334000Y-109220000D01*
X133350000Y-101600000D02*
X133350000Y-101092000D01*
X133350000Y-109855000D02*
X133350000Y-109220000D01*
X132334000Y-101600000D02*
X132334000Y-109220000D01*
X134366000Y-109220000D02*
X134366000Y-101600000D01*
X136906000Y-101600000D02*
X134874000Y-101600000D01*
X136906000Y-109220000D02*
X134874000Y-109220000D01*
X135890000Y-101600000D02*
X135890000Y-101092000D01*
X135890000Y-109855000D02*
X135890000Y-109220000D01*
X134874000Y-101600000D02*
X134874000Y-109220000D01*
X136906000Y-109220000D02*
X136906000Y-101600000D01*
X139446000Y-101600000D02*
X137414000Y-101600000D01*
X139446000Y-109220000D02*
X137414000Y-109220000D01*
X138430000Y-101600000D02*
X138430000Y-101092000D01*
X138430000Y-109855000D02*
X138430000Y-109220000D01*
X137414000Y-101600000D02*
X137414000Y-109220000D01*
X139446000Y-109220000D02*
X139446000Y-101600000D01*
X117094000Y-109220000D02*
X119126000Y-109220000D01*
X117094000Y-101600000D02*
X119126000Y-101600000D01*
X118110000Y-109220000D02*
X118110000Y-109728000D01*
X118110000Y-100965000D02*
X118110000Y-101600000D01*
X119126000Y-109220000D02*
X119126000Y-101600000D01*
X117094000Y-101600000D02*
X117094000Y-109220000D01*
X121666000Y-101600000D02*
X119634000Y-101600000D01*
X121666000Y-109220000D02*
X119634000Y-109220000D01*
X120650000Y-101600000D02*
X120650000Y-101092000D01*
X120650000Y-109855000D02*
X120650000Y-109220000D01*
X119634000Y-101600000D02*
X119634000Y-109220000D01*
X121666000Y-109220000D02*
X121666000Y-101600000D01*
X126746000Y-101600000D02*
X124714000Y-101600000D01*
X126746000Y-109220000D02*
X124714000Y-109220000D01*
X125730000Y-101600000D02*
X125730000Y-101092000D01*
X125730000Y-109855000D02*
X125730000Y-109220000D01*
X124714000Y-101600000D02*
X124714000Y-109220000D01*
X126746000Y-109220000D02*
X126746000Y-101600000D01*
X122174000Y-109220000D02*
X124206000Y-109220000D01*
X122174000Y-101600000D02*
X124206000Y-101600000D01*
X123190000Y-109220000D02*
X123190000Y-109728000D01*
X123190000Y-100965000D02*
X123190000Y-101600000D01*
X124206000Y-109220000D02*
X124206000Y-101600000D01*
X122174000Y-101600000D02*
X122174000Y-109220000D01*
X114046000Y-101600000D02*
X112014000Y-101600000D01*
X114046000Y-109220000D02*
X112014000Y-109220000D01*
X113030000Y-101600000D02*
X113030000Y-101092000D01*
X113030000Y-109855000D02*
X113030000Y-109220000D01*
X112014000Y-101600000D02*
X112014000Y-109220000D01*
X114046000Y-109220000D02*
X114046000Y-101600000D01*
X127254000Y-109220000D02*
X129286000Y-109220000D01*
X127254000Y-101600000D02*
X129286000Y-101600000D01*
X128270000Y-109220000D02*
X128270000Y-109728000D01*
X128270000Y-100965000D02*
X128270000Y-101600000D01*
X129286000Y-109220000D02*
X129286000Y-101600000D01*
X127254000Y-101600000D02*
X127254000Y-109220000D01*
X130000000Y-127000000D02*
X130000000Y-131000000D01*
X130000000Y-131000000D02*
X124000000Y-131000000D01*
X124000000Y-131000000D02*
X124000000Y-127000000D01*
X122000000Y-125000000D02*
X115000000Y-125000000D01*
X115000000Y-125000000D02*
X115000000Y-114000000D01*
X115000000Y-114000000D02*
X139000000Y-114000000D01*
X139000000Y-114000000D02*
X139000000Y-125000000D01*
X139000000Y-125000000D02*
X132000000Y-125000000D01*
X127000000Y-127000000D02*
X122000000Y-127000000D01*
X122000000Y-127000000D02*
X122000000Y-125000000D01*
X127000000Y-127000000D02*
X132000000Y-127000000D01*
X132000000Y-127000000D02*
X132000000Y-125000000D01*
X141986000Y-101600000D02*
X139954000Y-101600000D01*
X141986000Y-109220000D02*
X139954000Y-109220000D01*
X140970000Y-101600000D02*
X140970000Y-101092000D01*
X140970000Y-109855000D02*
X140970000Y-109220000D01*
X139954000Y-101600000D02*
X139954000Y-109220000D01*
X141986000Y-109220000D02*
X141986000Y-101600000D01*
X218440000Y-104775000D02*
G75*
G03X218440000Y-104775000I-2540000J0D01*
G01*
X115570000Y-93980000D02*
G75*
G03X115570000Y-93980000I-2540000J0D01*
G01*
X110490000Y-99060000D02*
G75*
G03X110490000Y-99060000I-2540000J0D01*
G01*
X116840000Y-93980000D02*
G75*
G03X116840000Y-96520000I1270000J-1270000D01*
G01*
X119380000Y-93980000D02*
G75*
G03X116840000Y-93980000I-1270000J-1270000D01*
G01*
X119380000Y-96520000D02*
G75*
G03X119380000Y-93980000I-1270000J1270000D01*
G01*
X116840000Y-96520000D02*
X119380000Y-96520000D01*
X139700000Y-92710000D02*
G75*
G03X139700000Y-95250000I1270000J-1270000D01*
G01*
X142240000Y-92710000D02*
G75*
G03X139700000Y-92710000I-1270000J-1270000D01*
G01*
X142240000Y-95250000D02*
G75*
G03X142240000Y-92710000I-1270000J1270000D01*
G01*
X139700000Y-95250000D02*
X142240000Y-95250000D01*
X126492000Y-92710000D02*
G75*
G03X126238000Y-92456000I-254000J0D01*
G01*
X126238000Y-95504000D02*
G75*
G03X126492000Y-95250000I0J254000D01*
G01*
X124968000Y-95250000D02*
G75*
G03X125222000Y-95504000I254000J0D01*
G01*
X125222000Y-92456000D02*
G75*
G03X124968000Y-92710000I0J-254000D01*
G01*
X124968000Y-92710000D02*
X124968000Y-95250000D01*
X126492000Y-95250000D02*
X126492000Y-92710000D01*
X125222000Y-95504000D02*
X126238000Y-95504000D01*
X125730000Y-92456000D02*
X126238000Y-92456000D01*
X125730000Y-92456000D02*
X125222000Y-92456000D01*
X129032000Y-92710000D02*
G75*
G03X128778000Y-92456000I-254000J0D01*
G01*
X128778000Y-95504000D02*
G75*
G03X129032000Y-95250000I0J254000D01*
G01*
X127508000Y-95250000D02*
G75*
G03X127762000Y-95504000I254000J0D01*
G01*
X127762000Y-92456000D02*
G75*
G03X127508000Y-92710000I0J-254000D01*
G01*
X127508000Y-92710000D02*
X127508000Y-95250000D01*
X129032000Y-95250000D02*
X129032000Y-92710000D01*
X127762000Y-95504000D02*
X128778000Y-95504000D01*
X128270000Y-92456000D02*
X128778000Y-92456000D01*
X128270000Y-92456000D02*
X127762000Y-92456000D01*
X131572000Y-92710000D02*
G75*
G03X131318000Y-92456000I-254000J0D01*
G01*
X131318000Y-95504000D02*
G75*
G03X131572000Y-95250000I0J254000D01*
G01*
X130048000Y-95250000D02*
G75*
G03X130302000Y-95504000I254000J0D01*
G01*
X130302000Y-92456000D02*
G75*
G03X130048000Y-92710000I0J-254000D01*
G01*
X130048000Y-92710000D02*
X130048000Y-95250000D01*
X131572000Y-95250000D02*
X131572000Y-92710000D01*
X130302000Y-95504000D02*
X131318000Y-95504000D01*
X130810000Y-92456000D02*
X131318000Y-92456000D01*
X130810000Y-92456000D02*
X130302000Y-92456000D01*
X134112000Y-92710000D02*
G75*
G03X133858000Y-92456000I-254000J0D01*
G01*
X133858000Y-95504000D02*
G75*
G03X134112000Y-95250000I0J254000D01*
G01*
X132588000Y-95250000D02*
G75*
G03X132842000Y-95504000I254000J0D01*
G01*
X132842000Y-92456000D02*
G75*
G03X132588000Y-92710000I0J-254000D01*
G01*
X132588000Y-92710000D02*
X132588000Y-95250000D01*
X134112000Y-95250000D02*
X134112000Y-92710000D01*
X132842000Y-95504000D02*
X133858000Y-95504000D01*
X133350000Y-92456000D02*
X133858000Y-92456000D01*
X133350000Y-92456000D02*
X132842000Y-92456000D01*
X131262381Y-113387095D02*
X130262381Y-113387095D01*
X130262381Y-113149000D01*
X130310000Y-113006142D01*
X130405238Y-112910904D01*
X130500476Y-112863285D01*
X130690952Y-112815666D01*
X130833810Y-112815666D01*
X131024286Y-112863285D01*
X131119524Y-112910904D01*
X131214762Y-113006142D01*
X131262381Y-113149000D01*
X131262381Y-113387095D01*
X131262381Y-111863285D02*
X131262381Y-112434714D01*
X131262381Y-112149000D02*
X130262381Y-112149000D01*
X130405238Y-112244238D01*
X130500476Y-112339476D01*
X130548095Y-112434714D01*
X131262381Y-106751238D02*
X131262381Y-107322667D01*
X131262381Y-107036953D02*
X130262381Y-107036953D01*
X130405238Y-107132191D01*
X130500476Y-107227429D01*
X130548095Y-107322667D01*
X130595714Y-106322667D02*
X131262381Y-106322667D01*
X130690952Y-106322667D02*
X130643333Y-106275048D01*
X130595714Y-106179810D01*
X130595714Y-106036952D01*
X130643333Y-105941714D01*
X130738571Y-105894095D01*
X131262381Y-105894095D01*
X131262381Y-105370286D02*
X131262381Y-105179810D01*
X131214762Y-105084571D01*
X131167143Y-105036952D01*
X131024286Y-104941714D01*
X130833810Y-104894095D01*
X130452857Y-104894095D01*
X130357619Y-104941714D01*
X130310000Y-104989333D01*
X130262381Y-105084571D01*
X130262381Y-105275048D01*
X130310000Y-105370286D01*
X130357619Y-105417905D01*
X130452857Y-105465524D01*
X130690952Y-105465524D01*
X130786190Y-105417905D01*
X130833810Y-105370286D01*
X130881429Y-105275048D01*
X130881429Y-105084571D01*
X130833810Y-104989333D01*
X130786190Y-104941714D01*
X130690952Y-104894095D01*
X131262381Y-103941714D02*
X131262381Y-104513143D01*
X131262381Y-104227429D02*
X130262381Y-104227429D01*
X130405238Y-104322667D01*
X130500476Y-104417905D01*
X130548095Y-104513143D01*
X130595714Y-103084571D02*
X131262381Y-103084571D01*
X130214762Y-103322667D02*
X130929048Y-103560762D01*
X130929048Y-102941714D01*
X92162381Y-121694533D02*
X92876667Y-121694533D01*
X93019524Y-121742153D01*
X93114762Y-121837391D01*
X93162381Y-121980248D01*
X93162381Y-122075486D01*
X93162381Y-120694533D02*
X93162381Y-121265962D01*
X93162381Y-120980248D02*
X92162381Y-120980248D01*
X92305238Y-121075486D01*
X92400476Y-121170724D01*
X92448095Y-121265962D01*
X90892381Y-122385009D02*
X91892381Y-122051676D01*
X90892381Y-121718342D01*
X91892381Y-121385009D02*
X91225714Y-121385009D01*
X90892381Y-121385009D02*
X90940000Y-121432628D01*
X90987619Y-121385009D01*
X90940000Y-121337390D01*
X90892381Y-121385009D01*
X90987619Y-121385009D01*
X91225714Y-120908819D02*
X91892381Y-120908819D01*
X91320952Y-120908819D02*
X91273333Y-120861200D01*
X91225714Y-120765962D01*
X91225714Y-120623104D01*
X91273333Y-120527866D01*
X91368571Y-120480247D01*
X91892381Y-120480247D01*
X168362381Y-121694533D02*
X169076667Y-121694533D01*
X169219524Y-121742153D01*
X169314762Y-121837391D01*
X169362381Y-121980248D01*
X169362381Y-122075486D01*
X168457619Y-121265962D02*
X168410000Y-121218343D01*
X168362381Y-121123105D01*
X168362381Y-120885009D01*
X168410000Y-120789771D01*
X168457619Y-120742152D01*
X168552857Y-120694533D01*
X168648095Y-120694533D01*
X168790952Y-120742152D01*
X169362381Y-121313581D01*
X169362381Y-120694533D01*
X167997143Y-121956438D02*
X168044762Y-122004057D01*
X168092381Y-122146914D01*
X168092381Y-122242152D01*
X168044762Y-122385010D01*
X167949524Y-122480248D01*
X167854286Y-122527867D01*
X167663810Y-122575486D01*
X167520952Y-122575486D01*
X167330476Y-122527867D01*
X167235238Y-122480248D01*
X167140000Y-122385010D01*
X167092381Y-122242152D01*
X167092381Y-122146914D01*
X167140000Y-122004057D01*
X167187619Y-121956438D01*
X167092381Y-121670724D02*
X168092381Y-121337391D01*
X167092381Y-121004057D01*
X167187619Y-120718343D02*
X167140000Y-120670724D01*
X167092381Y-120575486D01*
X167092381Y-120337390D01*
X167140000Y-120242152D01*
X167187619Y-120194533D01*
X167282857Y-120146914D01*
X167378095Y-120146914D01*
X167520952Y-120194533D01*
X168092381Y-120765962D01*
X168092381Y-120146914D01*
X193762381Y-121694533D02*
X194476667Y-121694533D01*
X194619524Y-121742153D01*
X194714762Y-121837391D01*
X194762381Y-121980248D01*
X194762381Y-122075486D01*
X193762381Y-121313581D02*
X193762381Y-120694533D01*
X194143333Y-121027867D01*
X194143333Y-120885009D01*
X194190952Y-120789771D01*
X194238571Y-120742152D01*
X194333810Y-120694533D01*
X194571905Y-120694533D01*
X194667143Y-120742152D01*
X194714762Y-120789771D01*
X194762381Y-120885009D01*
X194762381Y-121170724D01*
X194714762Y-121265962D01*
X194667143Y-121313581D01*
X193397143Y-121956438D02*
X193444762Y-122004057D01*
X193492381Y-122146914D01*
X193492381Y-122242152D01*
X193444762Y-122385010D01*
X193349524Y-122480248D01*
X193254286Y-122527867D01*
X193063810Y-122575486D01*
X192920952Y-122575486D01*
X192730476Y-122527867D01*
X192635238Y-122480248D01*
X192540000Y-122385010D01*
X192492381Y-122242152D01*
X192492381Y-122146914D01*
X192540000Y-122004057D01*
X192587619Y-121956438D01*
X192492381Y-121670724D02*
X193492381Y-121337391D01*
X192492381Y-121004057D01*
X192492381Y-120765962D02*
X192492381Y-120146914D01*
X192873333Y-120480248D01*
X192873333Y-120337390D01*
X192920952Y-120242152D01*
X192968571Y-120194533D01*
X193063810Y-120146914D01*
X193301905Y-120146914D01*
X193397143Y-120194533D01*
X193444762Y-120242152D01*
X193492381Y-120337390D01*
X193492381Y-120623105D01*
X193444762Y-120718343D01*
X193397143Y-120765962D01*
X142962381Y-121694533D02*
X143676667Y-121694533D01*
X143819524Y-121742153D01*
X143914762Y-121837391D01*
X143962381Y-121980248D01*
X143962381Y-122075486D01*
X143295714Y-120789771D02*
X143962381Y-120789771D01*
X142914762Y-121027867D02*
X143629048Y-121265962D01*
X143629048Y-120646914D01*
X142597143Y-121956438D02*
X142644762Y-122004057D01*
X142692381Y-122146914D01*
X142692381Y-122242152D01*
X142644762Y-122385010D01*
X142549524Y-122480248D01*
X142454286Y-122527867D01*
X142263810Y-122575486D01*
X142120952Y-122575486D01*
X141930476Y-122527867D01*
X141835238Y-122480248D01*
X141740000Y-122385010D01*
X141692381Y-122242152D01*
X141692381Y-122146914D01*
X141740000Y-122004057D01*
X141787619Y-121956438D01*
X141692381Y-121670724D02*
X142692381Y-121337391D01*
X141692381Y-121004057D01*
X142692381Y-120146914D02*
X142692381Y-120718343D01*
X142692381Y-120432629D02*
X141692381Y-120432629D01*
X141835238Y-120527867D01*
X141930476Y-120623105D01*
X141978095Y-120718343D01*
X219162381Y-121694533D02*
X219876667Y-121694533D01*
X220019524Y-121742153D01*
X220114762Y-121837391D01*
X220162381Y-121980248D01*
X220162381Y-122075486D01*
X219162381Y-120742152D02*
X219162381Y-121218343D01*
X219638571Y-121265962D01*
X219590952Y-121218343D01*
X219543333Y-121123105D01*
X219543333Y-120885009D01*
X219590952Y-120789771D01*
X219638571Y-120742152D01*
X219733810Y-120694533D01*
X219971905Y-120694533D01*
X220067143Y-120742152D01*
X220114762Y-120789771D01*
X220162381Y-120885009D01*
X220162381Y-121123105D01*
X220114762Y-121218343D01*
X220067143Y-121265962D01*
X217892381Y-122885010D02*
X218892381Y-122551677D01*
X217892381Y-122218343D01*
X218892381Y-121742153D02*
X218844762Y-121837391D01*
X218797143Y-121885010D01*
X218701905Y-121932629D01*
X218416190Y-121932629D01*
X218320952Y-121885010D01*
X218273333Y-121837391D01*
X218225714Y-121742153D01*
X218225714Y-121599295D01*
X218273333Y-121504057D01*
X218320952Y-121456438D01*
X218416190Y-121408819D01*
X218701905Y-121408819D01*
X218797143Y-121456438D01*
X218844762Y-121504057D01*
X218892381Y-121599295D01*
X218892381Y-121742153D01*
X218225714Y-120551676D02*
X218892381Y-120551676D01*
X218225714Y-120980248D02*
X218749524Y-120980248D01*
X218844762Y-120932629D01*
X218892381Y-120837391D01*
X218892381Y-120694533D01*
X218844762Y-120599295D01*
X218797143Y-120551676D01*
X218225714Y-120218343D02*
X218225714Y-119837391D01*
X217892381Y-120075486D02*
X218749524Y-120075486D01*
X218844762Y-120027867D01*
X218892381Y-119932629D01*
X218892381Y-119837391D01*
X216355705Y-96972381D02*
X216355705Y-95972381D01*
X216736658Y-95972381D01*
X216831896Y-96020000D01*
X216879515Y-96067619D01*
X216927134Y-96162857D01*
X216927134Y-96305714D01*
X216879515Y-96400952D01*
X216831896Y-96448571D01*
X216736658Y-96496190D01*
X216355705Y-96496190D01*
X217879515Y-96972381D02*
X217308086Y-96972381D01*
X217593800Y-96972381D02*
X217593800Y-95972381D01*
X217498562Y-96115238D01*
X217403324Y-96210476D01*
X217308086Y-96258095D01*
X221206182Y-101322143D02*
X221158563Y-101369762D01*
X221015706Y-101417381D01*
X220920468Y-101417381D01*
X220777610Y-101369762D01*
X220682372Y-101274524D01*
X220634753Y-101179286D01*
X220587134Y-100988810D01*
X220587134Y-100845952D01*
X220634753Y-100655476D01*
X220682372Y-100560238D01*
X220777610Y-100465000D01*
X220920468Y-100417381D01*
X221015706Y-100417381D01*
X221158563Y-100465000D01*
X221206182Y-100512619D01*
X221825229Y-100417381D02*
X222015706Y-100417381D01*
X222110944Y-100465000D01*
X222206182Y-100560238D01*
X222253801Y-100750714D01*
X222253801Y-101084048D01*
X222206182Y-101274524D01*
X222110944Y-101369762D01*
X222015706Y-101417381D01*
X221825229Y-101417381D01*
X221729991Y-101369762D01*
X221634753Y-101274524D01*
X221587134Y-101084048D01*
X221587134Y-100750714D01*
X221634753Y-100560238D01*
X221729991Y-100465000D01*
X221825229Y-100417381D01*
X222682372Y-101417381D02*
X222682372Y-100417381D01*
X223253801Y-101417381D01*
X223253801Y-100417381D01*
X223729991Y-101417381D02*
X223729991Y-100417381D01*
X224301420Y-101417381D01*
X224301420Y-100417381D01*
X224777610Y-101036429D02*
X225539515Y-101036429D01*
X226491896Y-100417381D02*
X226015705Y-100417381D01*
X225968086Y-100893571D01*
X226015705Y-100845952D01*
X226110943Y-100798333D01*
X226349039Y-100798333D01*
X226444277Y-100845952D01*
X226491896Y-100893571D01*
X226539515Y-100988810D01*
X226539515Y-101226905D01*
X226491896Y-101322143D01*
X226444277Y-101369762D01*
X226349039Y-101417381D01*
X226110943Y-101417381D01*
X226015705Y-101369762D01*
X225968086Y-101322143D01*
X226968086Y-100417381D02*
X226968086Y-101226905D01*
X227015705Y-101322143D01*
X227063324Y-101369762D01*
X227158562Y-101417381D01*
X227349039Y-101417381D01*
X227444277Y-101369762D01*
X227491896Y-101322143D01*
X227539515Y-101226905D01*
X227539515Y-100417381D01*
X228015705Y-101036429D02*
X228777610Y-101036429D01*
X229253800Y-101417381D02*
X229253800Y-100417381D01*
X229634753Y-100417381D01*
X229729991Y-100465000D01*
X229777610Y-100512619D01*
X229825229Y-100607857D01*
X229825229Y-100750714D01*
X229777610Y-100845952D01*
X229729991Y-100893571D01*
X229634753Y-100941190D01*
X229253800Y-100941190D01*
X230444276Y-100417381D02*
X230634753Y-100417381D01*
X230729991Y-100465000D01*
X230825229Y-100560238D01*
X230872848Y-100750714D01*
X230872848Y-101084048D01*
X230825229Y-101274524D01*
X230729991Y-101369762D01*
X230634753Y-101417381D01*
X230444276Y-101417381D01*
X230349038Y-101369762D01*
X230253800Y-101274524D01*
X230206181Y-101084048D01*
X230206181Y-100750714D01*
X230253800Y-100560238D01*
X230349038Y-100465000D01*
X230444276Y-100417381D01*
X231206181Y-100417381D02*
X231444276Y-101417381D01*
X231634753Y-100703095D01*
X231825229Y-101417381D01*
X232063324Y-100417381D01*
X232444276Y-100893571D02*
X232777610Y-100893571D01*
X232920467Y-101417381D02*
X232444276Y-101417381D01*
X232444276Y-100417381D01*
X232920467Y-100417381D01*
X233920467Y-101417381D02*
X233587133Y-100941190D01*
X233349038Y-101417381D02*
X233349038Y-100417381D01*
X233729991Y-100417381D01*
X233825229Y-100465000D01*
X233872848Y-100512619D01*
X233920467Y-100607857D01*
X233920467Y-100750714D01*
X233872848Y-100845952D01*
X233825229Y-100893571D01*
X233729991Y-100941190D01*
X233349038Y-100941190D01*
X226618896Y-98814000D02*
X226523658Y-98766381D01*
X226380801Y-98766381D01*
X226237943Y-98814000D01*
X226142705Y-98909238D01*
X226095086Y-99004476D01*
X226047467Y-99194952D01*
X226047467Y-99337810D01*
X226095086Y-99528286D01*
X226142705Y-99623524D01*
X226237943Y-99718762D01*
X226380801Y-99766381D01*
X226476039Y-99766381D01*
X226618896Y-99718762D01*
X226666515Y-99671143D01*
X226666515Y-99337810D01*
X226476039Y-99337810D01*
X227095086Y-99766381D02*
X227095086Y-98766381D01*
X227666515Y-99766381D01*
X227666515Y-98766381D01*
X228142705Y-99766381D02*
X228142705Y-98766381D01*
X228380800Y-98766381D01*
X228523658Y-98814000D01*
X228618896Y-98909238D01*
X228666515Y-99004476D01*
X228714134Y-99194952D01*
X228714134Y-99337810D01*
X228666515Y-99528286D01*
X228618896Y-99623524D01*
X228523658Y-99718762D01*
X228380800Y-99766381D01*
X228142705Y-99766381D01*
X231889467Y-99385429D02*
X232651372Y-99385429D01*
X233651372Y-99766381D02*
X233079943Y-99766381D01*
X233365657Y-99766381D02*
X233365657Y-98766381D01*
X233270419Y-98909238D01*
X233175181Y-99004476D01*
X233079943Y-99052095D01*
X234556134Y-98766381D02*
X234079943Y-98766381D01*
X234032324Y-99242571D01*
X234079943Y-99194952D01*
X234175181Y-99147333D01*
X234413277Y-99147333D01*
X234508515Y-99194952D01*
X234556134Y-99242571D01*
X234603753Y-99337810D01*
X234603753Y-99575905D01*
X234556134Y-99671143D01*
X234508515Y-99718762D01*
X234413277Y-99766381D01*
X234175181Y-99766381D01*
X234079943Y-99718762D01*
X234032324Y-99671143D01*
X219951467Y-99258429D02*
X220713372Y-99258429D01*
X220332420Y-99639381D02*
X220332420Y-98877476D01*
X221713372Y-99639381D02*
X221141943Y-99639381D01*
X221427657Y-99639381D02*
X221427657Y-98639381D01*
X221332419Y-98782238D01*
X221237181Y-98877476D01*
X221141943Y-98925095D01*
X222618134Y-98639381D02*
X222141943Y-98639381D01*
X222094324Y-99115571D01*
X222141943Y-99067952D01*
X222237181Y-99020333D01*
X222475277Y-99020333D01*
X222570515Y-99067952D01*
X222618134Y-99115571D01*
X222665753Y-99210810D01*
X222665753Y-99448905D01*
X222618134Y-99544143D01*
X222570515Y-99591762D01*
X222475277Y-99639381D01*
X222237181Y-99639381D01*
X222141943Y-99591762D01*
X222094324Y-99544143D01*
X116022381Y-112561666D02*
X115546190Y-112895000D01*
X116022381Y-113133095D02*
X115022381Y-113133095D01*
X115022381Y-112752142D01*
X115070000Y-112656904D01*
X115117619Y-112609285D01*
X115212857Y-112561666D01*
X115355714Y-112561666D01*
X115450952Y-112609285D01*
X115498571Y-112656904D01*
X115546190Y-112752142D01*
X115546190Y-113133095D01*
X116022381Y-111609285D02*
X116022381Y-112180714D01*
X116022381Y-111895000D02*
X115022381Y-111895000D01*
X115165238Y-111990238D01*
X115260476Y-112085476D01*
X115308095Y-112180714D01*
X115149381Y-107179904D02*
X115149381Y-107370381D01*
X115197000Y-107465619D01*
X115244619Y-107513238D01*
X115387476Y-107608476D01*
X115577952Y-107656095D01*
X115958905Y-107656095D01*
X116054143Y-107608476D01*
X116101762Y-107560857D01*
X116149381Y-107465619D01*
X116149381Y-107275142D01*
X116101762Y-107179904D01*
X116054143Y-107132285D01*
X115958905Y-107084666D01*
X115720810Y-107084666D01*
X115625571Y-107132285D01*
X115577952Y-107179904D01*
X115530333Y-107275142D01*
X115530333Y-107465619D01*
X115577952Y-107560857D01*
X115625571Y-107608476D01*
X115720810Y-107656095D01*
X115577952Y-106513238D02*
X115530333Y-106608476D01*
X115482714Y-106656095D01*
X115387476Y-106703714D01*
X115339857Y-106703714D01*
X115244619Y-106656095D01*
X115197000Y-106608476D01*
X115149381Y-106513238D01*
X115149381Y-106322761D01*
X115197000Y-106227523D01*
X115244619Y-106179904D01*
X115339857Y-106132285D01*
X115387476Y-106132285D01*
X115482714Y-106179904D01*
X115530333Y-106227523D01*
X115577952Y-106322761D01*
X115577952Y-106513238D01*
X115625571Y-106608476D01*
X115673190Y-106656095D01*
X115768429Y-106703714D01*
X115958905Y-106703714D01*
X116054143Y-106656095D01*
X116101762Y-106608476D01*
X116149381Y-106513238D01*
X116149381Y-106322761D01*
X116101762Y-106227523D01*
X116054143Y-106179904D01*
X115958905Y-106132285D01*
X115768429Y-106132285D01*
X115673190Y-106179904D01*
X115625571Y-106227523D01*
X115577952Y-106322761D01*
X115149381Y-105513238D02*
X115149381Y-105417999D01*
X115197000Y-105322761D01*
X115244619Y-105275142D01*
X115339857Y-105227523D01*
X115530333Y-105179904D01*
X115768429Y-105179904D01*
X115958905Y-105227523D01*
X116054143Y-105275142D01*
X116101762Y-105322761D01*
X116149381Y-105417999D01*
X116149381Y-105513238D01*
X116101762Y-105608476D01*
X116054143Y-105656095D01*
X115958905Y-105703714D01*
X115768429Y-105751333D01*
X115530333Y-105751333D01*
X115339857Y-105703714D01*
X115244619Y-105656095D01*
X115197000Y-105608476D01*
X115149381Y-105513238D01*
X116149381Y-104751333D02*
X115149381Y-104751333D01*
X116149381Y-104179904D02*
X115577952Y-104608476D01*
X115149381Y-104179904D02*
X115720810Y-104751333D01*
X133548381Y-112815666D02*
X133072190Y-113149000D01*
X133548381Y-113387095D02*
X132548381Y-113387095D01*
X132548381Y-113006142D01*
X132596000Y-112910904D01*
X132643619Y-112863285D01*
X132738857Y-112815666D01*
X132881714Y-112815666D01*
X132976952Y-112863285D01*
X133024571Y-112910904D01*
X133072190Y-113006142D01*
X133072190Y-113387095D01*
X132643619Y-112434714D02*
X132596000Y-112387095D01*
X132548381Y-112291857D01*
X132548381Y-112053761D01*
X132596000Y-111958523D01*
X132643619Y-111910904D01*
X132738857Y-111863285D01*
X132834095Y-111863285D01*
X132976952Y-111910904D01*
X133548381Y-112482333D01*
X133548381Y-111863285D01*
X132770619Y-106640095D02*
X132723000Y-106592476D01*
X132675381Y-106497238D01*
X132675381Y-106259142D01*
X132723000Y-106163904D01*
X132770619Y-106116285D01*
X132865857Y-106068666D01*
X132961095Y-106068666D01*
X133103952Y-106116285D01*
X133675381Y-106687714D01*
X133675381Y-106068666D01*
X132770619Y-105687714D02*
X132723000Y-105640095D01*
X132675381Y-105544857D01*
X132675381Y-105306761D01*
X132723000Y-105211523D01*
X132770619Y-105163904D01*
X132865857Y-105116285D01*
X132961095Y-105116285D01*
X133103952Y-105163904D01*
X133675381Y-105735333D01*
X133675381Y-105116285D01*
X132675381Y-104497238D02*
X132675381Y-104401999D01*
X132723000Y-104306761D01*
X132770619Y-104259142D01*
X132865857Y-104211523D01*
X133056333Y-104163904D01*
X133294429Y-104163904D01*
X133484905Y-104211523D01*
X133580143Y-104259142D01*
X133627762Y-104306761D01*
X133675381Y-104401999D01*
X133675381Y-104497238D01*
X133627762Y-104592476D01*
X133580143Y-104640095D01*
X133484905Y-104687714D01*
X133294429Y-104735333D01*
X133056333Y-104735333D01*
X132865857Y-104687714D01*
X132770619Y-104640095D01*
X132723000Y-104592476D01*
X132675381Y-104497238D01*
X133675381Y-103735333D02*
X132675381Y-103735333D01*
X133675381Y-103163904D02*
X133103952Y-103592476D01*
X132675381Y-103163904D02*
X133246810Y-103735333D01*
X136469381Y-112815666D02*
X135993190Y-113149000D01*
X136469381Y-113387095D02*
X135469381Y-113387095D01*
X135469381Y-113006142D01*
X135517000Y-112910904D01*
X135564619Y-112863285D01*
X135659857Y-112815666D01*
X135802714Y-112815666D01*
X135897952Y-112863285D01*
X135945571Y-112910904D01*
X135993190Y-113006142D01*
X135993190Y-113387095D01*
X135469381Y-112482333D02*
X135469381Y-111863285D01*
X135850333Y-112196619D01*
X135850333Y-112053761D01*
X135897952Y-111958523D01*
X135945571Y-111910904D01*
X136040810Y-111863285D01*
X136278905Y-111863285D01*
X136374143Y-111910904D01*
X136421762Y-111958523D01*
X136469381Y-112053761D01*
X136469381Y-112339476D01*
X136421762Y-112434714D01*
X136374143Y-112482333D01*
X135310619Y-106640095D02*
X135263000Y-106592476D01*
X135215381Y-106497238D01*
X135215381Y-106259142D01*
X135263000Y-106163904D01*
X135310619Y-106116285D01*
X135405857Y-106068666D01*
X135501095Y-106068666D01*
X135643952Y-106116285D01*
X136215381Y-106687714D01*
X136215381Y-106068666D01*
X135310619Y-105687714D02*
X135263000Y-105640095D01*
X135215381Y-105544857D01*
X135215381Y-105306761D01*
X135263000Y-105211523D01*
X135310619Y-105163904D01*
X135405857Y-105116285D01*
X135501095Y-105116285D01*
X135643952Y-105163904D01*
X136215381Y-105735333D01*
X136215381Y-105116285D01*
X135215381Y-104497238D02*
X135215381Y-104401999D01*
X135263000Y-104306761D01*
X135310619Y-104259142D01*
X135405857Y-104211523D01*
X135596333Y-104163904D01*
X135834429Y-104163904D01*
X136024905Y-104211523D01*
X136120143Y-104259142D01*
X136167762Y-104306761D01*
X136215381Y-104401999D01*
X136215381Y-104497238D01*
X136167762Y-104592476D01*
X136120143Y-104640095D01*
X136024905Y-104687714D01*
X135834429Y-104735333D01*
X135596333Y-104735333D01*
X135405857Y-104687714D01*
X135310619Y-104640095D01*
X135263000Y-104592476D01*
X135215381Y-104497238D01*
X136215381Y-103735333D02*
X135215381Y-103735333D01*
X136215381Y-103163904D02*
X135643952Y-103592476D01*
X135215381Y-103163904D02*
X135786810Y-103735333D01*
X139009381Y-112815666D02*
X138533190Y-113149000D01*
X139009381Y-113387095D02*
X138009381Y-113387095D01*
X138009381Y-113006142D01*
X138057000Y-112910904D01*
X138104619Y-112863285D01*
X138199857Y-112815666D01*
X138342714Y-112815666D01*
X138437952Y-112863285D01*
X138485571Y-112910904D01*
X138533190Y-113006142D01*
X138533190Y-113387095D01*
X138342714Y-111958523D02*
X139009381Y-111958523D01*
X137961762Y-112196619D02*
X138676048Y-112434714D01*
X138676048Y-111815666D01*
X137850619Y-106640095D02*
X137803000Y-106592476D01*
X137755381Y-106497238D01*
X137755381Y-106259142D01*
X137803000Y-106163904D01*
X137850619Y-106116285D01*
X137945857Y-106068666D01*
X138041095Y-106068666D01*
X138183952Y-106116285D01*
X138755381Y-106687714D01*
X138755381Y-106068666D01*
X137850619Y-105687714D02*
X137803000Y-105640095D01*
X137755381Y-105544857D01*
X137755381Y-105306761D01*
X137803000Y-105211523D01*
X137850619Y-105163904D01*
X137945857Y-105116285D01*
X138041095Y-105116285D01*
X138183952Y-105163904D01*
X138755381Y-105735333D01*
X138755381Y-105116285D01*
X137755381Y-104497238D02*
X137755381Y-104401999D01*
X137803000Y-104306761D01*
X137850619Y-104259142D01*
X137945857Y-104211523D01*
X138136333Y-104163904D01*
X138374429Y-104163904D01*
X138564905Y-104211523D01*
X138660143Y-104259142D01*
X138707762Y-104306761D01*
X138755381Y-104401999D01*
X138755381Y-104497238D01*
X138707762Y-104592476D01*
X138660143Y-104640095D01*
X138564905Y-104687714D01*
X138374429Y-104735333D01*
X138136333Y-104735333D01*
X137945857Y-104687714D01*
X137850619Y-104640095D01*
X137803000Y-104592476D01*
X137755381Y-104497238D01*
X138755381Y-103735333D02*
X137755381Y-103735333D01*
X138755381Y-103163904D02*
X138183952Y-103592476D01*
X137755381Y-103163904D02*
X138326810Y-103735333D01*
X118562381Y-112815666D02*
X118086190Y-113149000D01*
X118562381Y-113387095D02*
X117562381Y-113387095D01*
X117562381Y-113006142D01*
X117610000Y-112910904D01*
X117657619Y-112863285D01*
X117752857Y-112815666D01*
X117895714Y-112815666D01*
X117990952Y-112863285D01*
X118038571Y-112910904D01*
X118086190Y-113006142D01*
X118086190Y-113387095D01*
X117562381Y-111910904D02*
X117562381Y-112387095D01*
X118038571Y-112434714D01*
X117990952Y-112387095D01*
X117943333Y-112291857D01*
X117943333Y-112053761D01*
X117990952Y-111958523D01*
X118038571Y-111910904D01*
X118133810Y-111863285D01*
X118371905Y-111863285D01*
X118467143Y-111910904D01*
X118514762Y-111958523D01*
X118562381Y-112053761D01*
X118562381Y-112291857D01*
X118514762Y-112387095D01*
X118467143Y-112434714D01*
X118689381Y-107084666D02*
X118689381Y-107656095D01*
X118689381Y-107370381D02*
X117689381Y-107370381D01*
X117832238Y-107465619D01*
X117927476Y-107560857D01*
X117975095Y-107656095D01*
X117689381Y-106179904D02*
X117689381Y-106656095D01*
X118165571Y-106703714D01*
X118117952Y-106656095D01*
X118070333Y-106560857D01*
X118070333Y-106322761D01*
X118117952Y-106227523D01*
X118165571Y-106179904D01*
X118260810Y-106132285D01*
X118498905Y-106132285D01*
X118594143Y-106179904D01*
X118641762Y-106227523D01*
X118689381Y-106322761D01*
X118689381Y-106560857D01*
X118641762Y-106656095D01*
X118594143Y-106703714D01*
X117689381Y-105513238D02*
X117689381Y-105417999D01*
X117737000Y-105322761D01*
X117784619Y-105275142D01*
X117879857Y-105227523D01*
X118070333Y-105179904D01*
X118308429Y-105179904D01*
X118498905Y-105227523D01*
X118594143Y-105275142D01*
X118641762Y-105322761D01*
X118689381Y-105417999D01*
X118689381Y-105513238D01*
X118641762Y-105608476D01*
X118594143Y-105656095D01*
X118498905Y-105703714D01*
X118308429Y-105751333D01*
X118070333Y-105751333D01*
X117879857Y-105703714D01*
X117784619Y-105656095D01*
X117737000Y-105608476D01*
X117689381Y-105513238D01*
X118689381Y-104751333D02*
X117689381Y-104751333D01*
X118689381Y-104179904D02*
X118117952Y-104608476D01*
X117689381Y-104179904D02*
X118260810Y-104751333D01*
X121102381Y-112942666D02*
X120626190Y-113276000D01*
X121102381Y-113514095D02*
X120102381Y-113514095D01*
X120102381Y-113133142D01*
X120150000Y-113037904D01*
X120197619Y-112990285D01*
X120292857Y-112942666D01*
X120435714Y-112942666D01*
X120530952Y-112990285D01*
X120578571Y-113037904D01*
X120626190Y-113133142D01*
X120626190Y-113514095D01*
X120102381Y-112085523D02*
X120102381Y-112276000D01*
X120150000Y-112371238D01*
X120197619Y-112418857D01*
X120340476Y-112514095D01*
X120530952Y-112561714D01*
X120911905Y-112561714D01*
X121007143Y-112514095D01*
X121054762Y-112466476D01*
X121102381Y-112371238D01*
X121102381Y-112180761D01*
X121054762Y-112085523D01*
X121007143Y-112037904D01*
X120911905Y-111990285D01*
X120673810Y-111990285D01*
X120578571Y-112037904D01*
X120530952Y-112085523D01*
X120483333Y-112180761D01*
X120483333Y-112371238D01*
X120530952Y-112466476D01*
X120578571Y-112514095D01*
X120673810Y-112561714D01*
X120070619Y-106163905D02*
X120023000Y-106116286D01*
X119975381Y-106021048D01*
X119975381Y-105782952D01*
X120023000Y-105687714D01*
X120070619Y-105640095D01*
X120165857Y-105592476D01*
X120261095Y-105592476D01*
X120403952Y-105640095D01*
X120975381Y-106211524D01*
X120975381Y-105592476D01*
X119975381Y-105259143D02*
X119975381Y-104592476D01*
X120975381Y-105021048D01*
X120975381Y-104211524D02*
X119975381Y-104211524D01*
X120975381Y-103640095D02*
X120403952Y-104068667D01*
X119975381Y-103640095D02*
X120546810Y-104211524D01*
X126563381Y-113069666D02*
X126087190Y-113403000D01*
X126563381Y-113641095D02*
X125563381Y-113641095D01*
X125563381Y-113260142D01*
X125611000Y-113164904D01*
X125658619Y-113117285D01*
X125753857Y-113069666D01*
X125896714Y-113069666D01*
X125991952Y-113117285D01*
X126039571Y-113164904D01*
X126087190Y-113260142D01*
X126087190Y-113641095D01*
X125563381Y-112736333D02*
X125563381Y-112069666D01*
X126563381Y-112498238D01*
X125055381Y-105687714D02*
X125055381Y-105878191D01*
X125103000Y-105973429D01*
X125150619Y-106021048D01*
X125293476Y-106116286D01*
X125483952Y-106163905D01*
X125864905Y-106163905D01*
X125960143Y-106116286D01*
X126007762Y-106068667D01*
X126055381Y-105973429D01*
X126055381Y-105782952D01*
X126007762Y-105687714D01*
X125960143Y-105640095D01*
X125864905Y-105592476D01*
X125626810Y-105592476D01*
X125531571Y-105640095D01*
X125483952Y-105687714D01*
X125436333Y-105782952D01*
X125436333Y-105973429D01*
X125483952Y-106068667D01*
X125531571Y-106116286D01*
X125626810Y-106163905D01*
X125483952Y-105021048D02*
X125436333Y-105116286D01*
X125388714Y-105163905D01*
X125293476Y-105211524D01*
X125245857Y-105211524D01*
X125150619Y-105163905D01*
X125103000Y-105116286D01*
X125055381Y-105021048D01*
X125055381Y-104830571D01*
X125103000Y-104735333D01*
X125150619Y-104687714D01*
X125245857Y-104640095D01*
X125293476Y-104640095D01*
X125388714Y-104687714D01*
X125436333Y-104735333D01*
X125483952Y-104830571D01*
X125483952Y-105021048D01*
X125531571Y-105116286D01*
X125579190Y-105163905D01*
X125674429Y-105211524D01*
X125864905Y-105211524D01*
X125960143Y-105163905D01*
X126007762Y-105116286D01*
X126055381Y-105021048D01*
X126055381Y-104830571D01*
X126007762Y-104735333D01*
X125960143Y-104687714D01*
X125864905Y-104640095D01*
X125674429Y-104640095D01*
X125579190Y-104687714D01*
X125531571Y-104735333D01*
X125483952Y-104830571D01*
X126055381Y-104211524D02*
X125055381Y-104211524D01*
X126055381Y-103640095D02*
X125483952Y-104068667D01*
X125055381Y-103640095D02*
X125626810Y-104211524D01*
X123642381Y-112942666D02*
X123166190Y-113276000D01*
X123642381Y-113514095D02*
X122642381Y-113514095D01*
X122642381Y-113133142D01*
X122690000Y-113037904D01*
X122737619Y-112990285D01*
X122832857Y-112942666D01*
X122975714Y-112942666D01*
X123070952Y-112990285D01*
X123118571Y-113037904D01*
X123166190Y-113133142D01*
X123166190Y-113514095D01*
X123070952Y-112371238D02*
X123023333Y-112466476D01*
X122975714Y-112514095D01*
X122880476Y-112561714D01*
X122832857Y-112561714D01*
X122737619Y-112514095D01*
X122690000Y-112466476D01*
X122642381Y-112371238D01*
X122642381Y-112180761D01*
X122690000Y-112085523D01*
X122737619Y-112037904D01*
X122832857Y-111990285D01*
X122880476Y-111990285D01*
X122975714Y-112037904D01*
X123023333Y-112085523D01*
X123070952Y-112180761D01*
X123070952Y-112371238D01*
X123118571Y-112466476D01*
X123166190Y-112514095D01*
X123261429Y-112561714D01*
X123451905Y-112561714D01*
X123547143Y-112514095D01*
X123594762Y-112466476D01*
X123642381Y-112371238D01*
X123642381Y-112180761D01*
X123594762Y-112085523D01*
X123547143Y-112037904D01*
X123451905Y-111990285D01*
X123261429Y-111990285D01*
X123166190Y-112037904D01*
X123118571Y-112085523D01*
X123070952Y-112180761D01*
X122769381Y-106941809D02*
X122769381Y-107132286D01*
X122817000Y-107227524D01*
X122864619Y-107275143D01*
X123007476Y-107370381D01*
X123197952Y-107418000D01*
X123578905Y-107418000D01*
X123674143Y-107370381D01*
X123721762Y-107322762D01*
X123769381Y-107227524D01*
X123769381Y-107037047D01*
X123721762Y-106941809D01*
X123674143Y-106894190D01*
X123578905Y-106846571D01*
X123340810Y-106846571D01*
X123245571Y-106894190D01*
X123197952Y-106941809D01*
X123150333Y-107037047D01*
X123150333Y-107227524D01*
X123197952Y-107322762D01*
X123245571Y-107370381D01*
X123340810Y-107418000D01*
X123674143Y-106418000D02*
X123721762Y-106370381D01*
X123769381Y-106418000D01*
X123721762Y-106465619D01*
X123674143Y-106418000D01*
X123769381Y-106418000D01*
X123197952Y-105798953D02*
X123150333Y-105894191D01*
X123102714Y-105941810D01*
X123007476Y-105989429D01*
X122959857Y-105989429D01*
X122864619Y-105941810D01*
X122817000Y-105894191D01*
X122769381Y-105798953D01*
X122769381Y-105608476D01*
X122817000Y-105513238D01*
X122864619Y-105465619D01*
X122959857Y-105418000D01*
X123007476Y-105418000D01*
X123102714Y-105465619D01*
X123150333Y-105513238D01*
X123197952Y-105608476D01*
X123197952Y-105798953D01*
X123245571Y-105894191D01*
X123293190Y-105941810D01*
X123388429Y-105989429D01*
X123578905Y-105989429D01*
X123674143Y-105941810D01*
X123721762Y-105894191D01*
X123769381Y-105798953D01*
X123769381Y-105608476D01*
X123721762Y-105513238D01*
X123674143Y-105465619D01*
X123578905Y-105418000D01*
X123388429Y-105418000D01*
X123293190Y-105465619D01*
X123245571Y-105513238D01*
X123197952Y-105608476D01*
X123769381Y-104989429D02*
X122769381Y-104989429D01*
X123769381Y-104418000D02*
X123197952Y-104846572D01*
X122769381Y-104418000D02*
X123340810Y-104989429D01*
X113482381Y-112561666D02*
X113006190Y-112895000D01*
X113482381Y-113133095D02*
X112482381Y-113133095D01*
X112482381Y-112752142D01*
X112530000Y-112656904D01*
X112577619Y-112609285D01*
X112672857Y-112561666D01*
X112815714Y-112561666D01*
X112910952Y-112609285D01*
X112958571Y-112656904D01*
X113006190Y-112752142D01*
X113006190Y-113133095D01*
X113482381Y-112085476D02*
X113482381Y-111895000D01*
X113434762Y-111799761D01*
X113387143Y-111752142D01*
X113244286Y-111656904D01*
X113053810Y-111609285D01*
X112672857Y-111609285D01*
X112577619Y-111656904D01*
X112530000Y-111704523D01*
X112482381Y-111799761D01*
X112482381Y-111990238D01*
X112530000Y-112085476D01*
X112577619Y-112133095D01*
X112672857Y-112180714D01*
X112910952Y-112180714D01*
X113006190Y-112133095D01*
X113053810Y-112085476D01*
X113101429Y-111990238D01*
X113101429Y-111799761D01*
X113053810Y-111704523D01*
X113006190Y-111656904D01*
X112910952Y-111609285D01*
X112450619Y-106402000D02*
X112403000Y-106354381D01*
X112355381Y-106259143D01*
X112355381Y-106021047D01*
X112403000Y-105925809D01*
X112450619Y-105878190D01*
X112545857Y-105830571D01*
X112641095Y-105830571D01*
X112783952Y-105878190D01*
X113355381Y-106449619D01*
X113355381Y-105830571D01*
X113260143Y-105402000D02*
X113307762Y-105354381D01*
X113355381Y-105402000D01*
X113307762Y-105449619D01*
X113260143Y-105402000D01*
X113355381Y-105402000D01*
X112450619Y-104973429D02*
X112403000Y-104925810D01*
X112355381Y-104830572D01*
X112355381Y-104592476D01*
X112403000Y-104497238D01*
X112450619Y-104449619D01*
X112545857Y-104402000D01*
X112641095Y-104402000D01*
X112783952Y-104449619D01*
X113355381Y-105021048D01*
X113355381Y-104402000D01*
X113355381Y-103973429D02*
X112355381Y-103973429D01*
X113355381Y-103402000D02*
X112783952Y-103830572D01*
X112355381Y-103402000D02*
X112926810Y-103973429D01*
X128722381Y-114053857D02*
X128246190Y-114387191D01*
X128722381Y-114625286D02*
X127722381Y-114625286D01*
X127722381Y-114244333D01*
X127770000Y-114149095D01*
X127817619Y-114101476D01*
X127912857Y-114053857D01*
X128055714Y-114053857D01*
X128150952Y-114101476D01*
X128198571Y-114149095D01*
X128246190Y-114244333D01*
X128246190Y-114625286D01*
X128722381Y-113101476D02*
X128722381Y-113672905D01*
X128722381Y-113387191D02*
X127722381Y-113387191D01*
X127865238Y-113482429D01*
X127960476Y-113577667D01*
X128008095Y-113672905D01*
X127722381Y-112482429D02*
X127722381Y-112387190D01*
X127770000Y-112291952D01*
X127817619Y-112244333D01*
X127912857Y-112196714D01*
X128103333Y-112149095D01*
X128341429Y-112149095D01*
X128531905Y-112196714D01*
X128627143Y-112244333D01*
X128674762Y-112291952D01*
X128722381Y-112387190D01*
X128722381Y-112482429D01*
X128674762Y-112577667D01*
X128627143Y-112625286D01*
X128531905Y-112672905D01*
X128341429Y-112720524D01*
X128103333Y-112720524D01*
X127912857Y-112672905D01*
X127817619Y-112625286D01*
X127770000Y-112577667D01*
X127722381Y-112482429D01*
X127849381Y-106703714D02*
X127849381Y-106894191D01*
X127897000Y-106989429D01*
X127944619Y-107037048D01*
X128087476Y-107132286D01*
X128277952Y-107179905D01*
X128658905Y-107179905D01*
X128754143Y-107132286D01*
X128801762Y-107084667D01*
X128849381Y-106989429D01*
X128849381Y-106798952D01*
X128801762Y-106703714D01*
X128754143Y-106656095D01*
X128658905Y-106608476D01*
X128420810Y-106608476D01*
X128325571Y-106656095D01*
X128277952Y-106703714D01*
X128230333Y-106798952D01*
X128230333Y-106989429D01*
X128277952Y-107084667D01*
X128325571Y-107132286D01*
X128420810Y-107179905D01*
X128277952Y-106037048D02*
X128230333Y-106132286D01*
X128182714Y-106179905D01*
X128087476Y-106227524D01*
X128039857Y-106227524D01*
X127944619Y-106179905D01*
X127897000Y-106132286D01*
X127849381Y-106037048D01*
X127849381Y-105846571D01*
X127897000Y-105751333D01*
X127944619Y-105703714D01*
X128039857Y-105656095D01*
X128087476Y-105656095D01*
X128182714Y-105703714D01*
X128230333Y-105751333D01*
X128277952Y-105846571D01*
X128277952Y-106037048D01*
X128325571Y-106132286D01*
X128373190Y-106179905D01*
X128468429Y-106227524D01*
X128658905Y-106227524D01*
X128754143Y-106179905D01*
X128801762Y-106132286D01*
X128849381Y-106037048D01*
X128849381Y-105846571D01*
X128801762Y-105751333D01*
X128754143Y-105703714D01*
X128658905Y-105656095D01*
X128468429Y-105656095D01*
X128373190Y-105703714D01*
X128325571Y-105751333D01*
X128277952Y-105846571D01*
X128849381Y-105227524D02*
X127849381Y-105227524D01*
X128849381Y-104656095D02*
X128277952Y-105084667D01*
X127849381Y-104656095D02*
X128420810Y-105227524D01*
X112895143Y-118308381D02*
X112561809Y-117832190D01*
X112323714Y-118308381D02*
X112323714Y-117308381D01*
X112704667Y-117308381D01*
X112799905Y-117356000D01*
X112847524Y-117403619D01*
X112895143Y-117498857D01*
X112895143Y-117641714D01*
X112847524Y-117736952D01*
X112799905Y-117784571D01*
X112704667Y-117832190D01*
X112323714Y-117832190D01*
X113847524Y-118308381D02*
X113276095Y-118308381D01*
X113561809Y-118308381D02*
X113561809Y-117308381D01*
X113466571Y-117451238D01*
X113371333Y-117546476D01*
X113276095Y-117594095D01*
X114799905Y-118308381D02*
X114228476Y-118308381D01*
X114514190Y-118308381D02*
X114514190Y-117308381D01*
X114418952Y-117451238D01*
X114323714Y-117546476D01*
X114228476Y-117594095D01*
X113323715Y-119832381D02*
X112752286Y-119832381D01*
X113038000Y-119832381D02*
X113038000Y-118832381D01*
X112942762Y-118975238D01*
X112847524Y-119070476D01*
X112752286Y-119118095D01*
X113752286Y-119832381D02*
X113752286Y-118832381D01*
X114323715Y-119832381D02*
X113895143Y-119260952D01*
X114323715Y-118832381D02*
X113752286Y-119403810D01*
X141549381Y-113926857D02*
X141073190Y-114260191D01*
X141549381Y-114498286D02*
X140549381Y-114498286D01*
X140549381Y-114117333D01*
X140597000Y-114022095D01*
X140644619Y-113974476D01*
X140739857Y-113926857D01*
X140882714Y-113926857D01*
X140977952Y-113974476D01*
X141025571Y-114022095D01*
X141073190Y-114117333D01*
X141073190Y-114498286D01*
X141549381Y-112974476D02*
X141549381Y-113545905D01*
X141549381Y-113260191D02*
X140549381Y-113260191D01*
X140692238Y-113355429D01*
X140787476Y-113450667D01*
X140835095Y-113545905D01*
X140644619Y-112593524D02*
X140597000Y-112545905D01*
X140549381Y-112450667D01*
X140549381Y-112212571D01*
X140597000Y-112117333D01*
X140644619Y-112069714D01*
X140739857Y-112022095D01*
X140835095Y-112022095D01*
X140977952Y-112069714D01*
X141549381Y-112641143D01*
X141549381Y-112022095D01*
X140628714Y-105925809D02*
X141295381Y-105925809D01*
X140247762Y-106163905D02*
X140962048Y-106402000D01*
X140962048Y-105782952D01*
X141200143Y-105402000D02*
X141247762Y-105354381D01*
X141295381Y-105402000D01*
X141247762Y-105449619D01*
X141200143Y-105402000D01*
X141295381Y-105402000D01*
X140295381Y-105021048D02*
X140295381Y-104354381D01*
X141295381Y-104782953D01*
X141295381Y-103973429D02*
X140295381Y-103973429D01*
X141295381Y-103402000D02*
X140723952Y-103830572D01*
X140295381Y-103402000D02*
X140866810Y-103973429D01*
X216368334Y-101957143D02*
X216320715Y-102004762D01*
X216177858Y-102052381D01*
X216082620Y-102052381D01*
X215939762Y-102004762D01*
X215844524Y-101909524D01*
X215796905Y-101814286D01*
X215749286Y-101623810D01*
X215749286Y-101480952D01*
X215796905Y-101290476D01*
X215844524Y-101195238D01*
X215939762Y-101100000D01*
X216082620Y-101052381D01*
X216177858Y-101052381D01*
X216320715Y-101100000D01*
X216368334Y-101147619D01*
X216701667Y-101052381D02*
X217368334Y-101052381D01*
X216939762Y-102052381D01*
X216098572Y-108402381D02*
X215527143Y-108402381D01*
X215812857Y-108402381D02*
X215812857Y-107402381D01*
X215717619Y-107545238D01*
X215622381Y-107640476D01*
X215527143Y-107688095D01*
X216717619Y-107402381D02*
X216812858Y-107402381D01*
X216908096Y-107450000D01*
X216955715Y-107497619D01*
X217003334Y-107592857D01*
X217050953Y-107783333D01*
X217050953Y-108021429D01*
X217003334Y-108211905D01*
X216955715Y-108307143D01*
X216908096Y-108354762D01*
X216812858Y-108402381D01*
X216717619Y-108402381D01*
X216622381Y-108354762D01*
X216574762Y-108307143D01*
X216527143Y-108211905D01*
X216479524Y-108021429D01*
X216479524Y-107783333D01*
X216527143Y-107592857D01*
X216574762Y-107497619D01*
X216622381Y-107450000D01*
X216717619Y-107402381D01*
X217908096Y-107735714D02*
X217908096Y-108402381D01*
X217479524Y-107735714D02*
X217479524Y-108259524D01*
X217527143Y-108354762D01*
X217622381Y-108402381D01*
X217765239Y-108402381D01*
X217860477Y-108354762D01*
X217908096Y-108307143D01*
X218717620Y-107878571D02*
X218384286Y-107878571D01*
X218384286Y-108402381D02*
X218384286Y-107402381D01*
X218860477Y-107402381D01*
X212344048Y-104846429D02*
X213105953Y-104846429D01*
X212725001Y-105227381D02*
X212725001Y-104465476D01*
X108164334Y-94591143D02*
X108116715Y-94638762D01*
X107973858Y-94686381D01*
X107878620Y-94686381D01*
X107735762Y-94638762D01*
X107640524Y-94543524D01*
X107592905Y-94448286D01*
X107545286Y-94257810D01*
X107545286Y-94114952D01*
X107592905Y-93924476D01*
X107640524Y-93829238D01*
X107735762Y-93734000D01*
X107878620Y-93686381D01*
X107973858Y-93686381D01*
X108116715Y-93734000D01*
X108164334Y-93781619D01*
X109021477Y-94019714D02*
X109021477Y-94686381D01*
X108783381Y-93638762D02*
X108545286Y-94353048D01*
X109164334Y-94353048D01*
X106640524Y-92162381D02*
X107259572Y-92162381D01*
X106926238Y-92543333D01*
X107069096Y-92543333D01*
X107164334Y-92590952D01*
X107211953Y-92638571D01*
X107259572Y-92733810D01*
X107259572Y-92971905D01*
X107211953Y-93067143D01*
X107164334Y-93114762D01*
X107069096Y-93162381D01*
X106783381Y-93162381D01*
X106688143Y-93114762D01*
X106640524Y-93067143D01*
X107592905Y-92162381D02*
X108211953Y-92162381D01*
X107878619Y-92543333D01*
X108021477Y-92543333D01*
X108116715Y-92590952D01*
X108164334Y-92638571D01*
X108211953Y-92733810D01*
X108211953Y-92971905D01*
X108164334Y-93067143D01*
X108116715Y-93114762D01*
X108021477Y-93162381D01*
X107735762Y-93162381D01*
X107640524Y-93114762D01*
X107592905Y-93067143D01*
X109069096Y-92495714D02*
X109069096Y-93162381D01*
X108640524Y-92495714D02*
X108640524Y-93019524D01*
X108688143Y-93114762D01*
X108783381Y-93162381D01*
X108926239Y-93162381D01*
X109021477Y-93114762D01*
X109069096Y-93067143D01*
X109878620Y-92638571D02*
X109545286Y-92638571D01*
X109545286Y-93162381D02*
X109545286Y-92162381D01*
X110021477Y-92162381D01*
X113101429Y-91185952D02*
X113101429Y-90424047D01*
X113482381Y-90804999D02*
X112720476Y-90804999D01*
X103592334Y-101195143D02*
X103544715Y-101242762D01*
X103401858Y-101290381D01*
X103306620Y-101290381D01*
X103163762Y-101242762D01*
X103068524Y-101147524D01*
X103020905Y-101052286D01*
X102973286Y-100861810D01*
X102973286Y-100718952D01*
X103020905Y-100528476D01*
X103068524Y-100433238D01*
X103163762Y-100338000D01*
X103306620Y-100290381D01*
X103401858Y-100290381D01*
X103544715Y-100338000D01*
X103592334Y-100385619D01*
X104544715Y-101290381D02*
X103973286Y-101290381D01*
X104259000Y-101290381D02*
X104259000Y-100290381D01*
X104163762Y-100433238D01*
X104068524Y-100528476D01*
X103973286Y-100576095D01*
X102179572Y-99766381D02*
X101608143Y-99766381D01*
X101893857Y-99766381D02*
X101893857Y-98766381D01*
X101798619Y-98909238D01*
X101703381Y-99004476D01*
X101608143Y-99052095D01*
X102798619Y-98766381D02*
X102893858Y-98766381D01*
X102989096Y-98814000D01*
X103036715Y-98861619D01*
X103084334Y-98956857D01*
X103131953Y-99147333D01*
X103131953Y-99385429D01*
X103084334Y-99575905D01*
X103036715Y-99671143D01*
X102989096Y-99718762D01*
X102893858Y-99766381D01*
X102798619Y-99766381D01*
X102703381Y-99718762D01*
X102655762Y-99671143D01*
X102608143Y-99575905D01*
X102560524Y-99385429D01*
X102560524Y-99147333D01*
X102608143Y-98956857D01*
X102655762Y-98861619D01*
X102703381Y-98814000D01*
X102798619Y-98766381D01*
X103989096Y-99099714D02*
X103989096Y-99766381D01*
X103560524Y-99099714D02*
X103560524Y-99623524D01*
X103608143Y-99718762D01*
X103703381Y-99766381D01*
X103846239Y-99766381D01*
X103941477Y-99718762D01*
X103989096Y-99671143D01*
X104798620Y-99242571D02*
X104465286Y-99242571D01*
X104465286Y-99766381D02*
X104465286Y-98766381D01*
X104941477Y-98766381D01*
X110744048Y-99131429D02*
X111505953Y-99131429D01*
X111125001Y-99512381D02*
X111125001Y-98750476D01*
X116109762Y-93257619D02*
X116014524Y-93210000D01*
X115919286Y-93114762D01*
X115776429Y-92971905D01*
X115681190Y-92924286D01*
X115585952Y-92924286D01*
X115633571Y-93162381D02*
X115538333Y-93114762D01*
X115443095Y-93019524D01*
X115395476Y-92829048D01*
X115395476Y-92495714D01*
X115443095Y-92305238D01*
X115538333Y-92210000D01*
X115633571Y-92162381D01*
X115824048Y-92162381D01*
X115919286Y-92210000D01*
X116014524Y-92305238D01*
X116062143Y-92495714D01*
X116062143Y-92829048D01*
X116014524Y-93019524D01*
X115919286Y-93114762D01*
X115824048Y-93162381D01*
X115633571Y-93162381D01*
X117014524Y-93162381D02*
X116443095Y-93162381D01*
X116728809Y-93162381D02*
X116728809Y-92162381D01*
X116633571Y-92305238D01*
X116538333Y-92400476D01*
X116443095Y-92448095D01*
X115395714Y-96837619D02*
X115443333Y-96790000D01*
X115538571Y-96742381D01*
X115776667Y-96742381D01*
X115871905Y-96790000D01*
X115919524Y-96837619D01*
X115967143Y-96932857D01*
X115967143Y-97028095D01*
X115919524Y-97170952D01*
X115348095Y-97742381D01*
X115967143Y-97742381D01*
X116395714Y-97742381D02*
X116395714Y-96742381D01*
X116967143Y-97742381D01*
X116967143Y-96742381D01*
X117348095Y-96742381D02*
X117967143Y-96742381D01*
X117633809Y-97123333D01*
X117776667Y-97123333D01*
X117871905Y-97170952D01*
X117919524Y-97218571D01*
X117967143Y-97313810D01*
X117967143Y-97551905D01*
X117919524Y-97647143D01*
X117871905Y-97694762D01*
X117776667Y-97742381D01*
X117490952Y-97742381D01*
X117395714Y-97694762D01*
X117348095Y-97647143D01*
X118443333Y-97742381D02*
X118633809Y-97742381D01*
X118729048Y-97694762D01*
X118776667Y-97647143D01*
X118871905Y-97504286D01*
X118919524Y-97313810D01*
X118919524Y-96932857D01*
X118871905Y-96837619D01*
X118824286Y-96790000D01*
X118729048Y-96742381D01*
X118538571Y-96742381D01*
X118443333Y-96790000D01*
X118395714Y-96837619D01*
X118348095Y-96932857D01*
X118348095Y-97170952D01*
X118395714Y-97266190D01*
X118443333Y-97313810D01*
X118538571Y-97361429D01*
X118729048Y-97361429D01*
X118824286Y-97313810D01*
X118871905Y-97266190D01*
X118919524Y-97170952D01*
X119538571Y-96742381D02*
X119633810Y-96742381D01*
X119729048Y-96790000D01*
X119776667Y-96837619D01*
X119824286Y-96932857D01*
X119871905Y-97123333D01*
X119871905Y-97361429D01*
X119824286Y-97551905D01*
X119776667Y-97647143D01*
X119729048Y-97694762D01*
X119633810Y-97742381D01*
X119538571Y-97742381D01*
X119443333Y-97694762D01*
X119395714Y-97647143D01*
X119348095Y-97551905D01*
X119300476Y-97361429D01*
X119300476Y-97123333D01*
X119348095Y-96932857D01*
X119395714Y-96837619D01*
X119443333Y-96790000D01*
X119538571Y-96742381D01*
X120729048Y-97075714D02*
X120729048Y-97742381D01*
X120490952Y-96694762D02*
X120252857Y-97409048D01*
X120871905Y-97409048D01*
X138969762Y-91987619D02*
X138874524Y-91940000D01*
X138779286Y-91844762D01*
X138636429Y-91701905D01*
X138541190Y-91654286D01*
X138445952Y-91654286D01*
X138493571Y-91892381D02*
X138398333Y-91844762D01*
X138303095Y-91749524D01*
X138255476Y-91559048D01*
X138255476Y-91225714D01*
X138303095Y-91035238D01*
X138398333Y-90940000D01*
X138493571Y-90892381D01*
X138684048Y-90892381D01*
X138779286Y-90940000D01*
X138874524Y-91035238D01*
X138922143Y-91225714D01*
X138922143Y-91559048D01*
X138874524Y-91749524D01*
X138779286Y-91844762D01*
X138684048Y-91892381D01*
X138493571Y-91892381D01*
X139303095Y-90987619D02*
X139350714Y-90940000D01*
X139445952Y-90892381D01*
X139684048Y-90892381D01*
X139779286Y-90940000D01*
X139826905Y-90987619D01*
X139874524Y-91082857D01*
X139874524Y-91178095D01*
X139826905Y-91320952D01*
X139255476Y-91892381D01*
X139874524Y-91892381D01*
X138327143Y-95567619D02*
X138374762Y-95520000D01*
X138470000Y-95472381D01*
X138708096Y-95472381D01*
X138803334Y-95520000D01*
X138850953Y-95567619D01*
X138898572Y-95662857D01*
X138898572Y-95758095D01*
X138850953Y-95900952D01*
X138279524Y-96472381D01*
X138898572Y-96472381D01*
X139327143Y-95805714D02*
X139327143Y-96472381D01*
X139327143Y-95900952D02*
X139374762Y-95853333D01*
X139470000Y-95805714D01*
X139612858Y-95805714D01*
X139708096Y-95853333D01*
X139755715Y-95948571D01*
X139755715Y-96472381D01*
X140136667Y-95472381D02*
X140755715Y-95472381D01*
X140422381Y-95853333D01*
X140565239Y-95853333D01*
X140660477Y-95900952D01*
X140708096Y-95948571D01*
X140755715Y-96043810D01*
X140755715Y-96281905D01*
X140708096Y-96377143D01*
X140660477Y-96424762D01*
X140565239Y-96472381D01*
X140279524Y-96472381D01*
X140184286Y-96424762D01*
X140136667Y-96377143D01*
X141231905Y-96472381D02*
X141422381Y-96472381D01*
X141517620Y-96424762D01*
X141565239Y-96377143D01*
X141660477Y-96234286D01*
X141708096Y-96043810D01*
X141708096Y-95662857D01*
X141660477Y-95567619D01*
X141612858Y-95520000D01*
X141517620Y-95472381D01*
X141327143Y-95472381D01*
X141231905Y-95520000D01*
X141184286Y-95567619D01*
X141136667Y-95662857D01*
X141136667Y-95900952D01*
X141184286Y-95996190D01*
X141231905Y-96043810D01*
X141327143Y-96091429D01*
X141517620Y-96091429D01*
X141612858Y-96043810D01*
X141660477Y-95996190D01*
X141708096Y-95900952D01*
X142327143Y-95472381D02*
X142422382Y-95472381D01*
X142517620Y-95520000D01*
X142565239Y-95567619D01*
X142612858Y-95662857D01*
X142660477Y-95853333D01*
X142660477Y-96091429D01*
X142612858Y-96281905D01*
X142565239Y-96377143D01*
X142517620Y-96424762D01*
X142422382Y-96472381D01*
X142327143Y-96472381D01*
X142231905Y-96424762D01*
X142184286Y-96377143D01*
X142136667Y-96281905D01*
X142089048Y-96091429D01*
X142089048Y-95853333D01*
X142136667Y-95662857D01*
X142184286Y-95567619D01*
X142231905Y-95520000D01*
X142327143Y-95472381D01*
X143517620Y-95805714D02*
X143517620Y-96472381D01*
X143279524Y-95424762D02*
X143041429Y-96139048D01*
X143660477Y-96139048D01*
X124309143Y-93765666D02*
X124356762Y-93813285D01*
X124404381Y-93956142D01*
X124404381Y-94051380D01*
X124356762Y-94194238D01*
X124261524Y-94289476D01*
X124166286Y-94337095D01*
X123975810Y-94384714D01*
X123832952Y-94384714D01*
X123642476Y-94337095D01*
X123547238Y-94289476D01*
X123452000Y-94194238D01*
X123404381Y-94051380D01*
X123404381Y-93956142D01*
X123452000Y-93813285D01*
X123499619Y-93765666D01*
X123404381Y-93432333D02*
X123404381Y-92813285D01*
X123785333Y-93146619D01*
X123785333Y-93003761D01*
X123832952Y-92908523D01*
X123880571Y-92860904D01*
X123975810Y-92813285D01*
X124213905Y-92813285D01*
X124309143Y-92860904D01*
X124356762Y-92908523D01*
X124404381Y-93003761D01*
X124404381Y-93289476D01*
X124356762Y-93384714D01*
X124309143Y-93432333D01*
X122912143Y-95940333D02*
X122959762Y-95892714D01*
X123007381Y-95940333D01*
X122959762Y-95987952D01*
X122912143Y-95940333D01*
X123007381Y-95940333D01*
X122102619Y-95511762D02*
X122055000Y-95464143D01*
X122007381Y-95368905D01*
X122007381Y-95130809D01*
X122055000Y-95035571D01*
X122102619Y-94987952D01*
X122197857Y-94940333D01*
X122293095Y-94940333D01*
X122435952Y-94987952D01*
X123007381Y-95559381D01*
X123007381Y-94940333D01*
X122102619Y-94559381D02*
X122055000Y-94511762D01*
X122007381Y-94416524D01*
X122007381Y-94178428D01*
X122055000Y-94083190D01*
X122102619Y-94035571D01*
X122197857Y-93987952D01*
X122293095Y-93987952D01*
X122435952Y-94035571D01*
X123007381Y-94607000D01*
X123007381Y-93987952D01*
X122340714Y-93130809D02*
X123007381Y-93130809D01*
X122340714Y-93559381D02*
X122864524Y-93559381D01*
X122959762Y-93511762D01*
X123007381Y-93416524D01*
X123007381Y-93273666D01*
X122959762Y-93178428D01*
X122912143Y-93130809D01*
X122483571Y-92321285D02*
X122483571Y-92654619D01*
X123007381Y-92654619D02*
X122007381Y-92654619D01*
X122007381Y-92178428D01*
X128103334Y-98782143D02*
X128055715Y-98829762D01*
X127912858Y-98877381D01*
X127817620Y-98877381D01*
X127674762Y-98829762D01*
X127579524Y-98734524D01*
X127531905Y-98639286D01*
X127484286Y-98448810D01*
X127484286Y-98305952D01*
X127531905Y-98115476D01*
X127579524Y-98020238D01*
X127674762Y-97925000D01*
X127817620Y-97877381D01*
X127912858Y-97877381D01*
X128055715Y-97925000D01*
X128103334Y-97972619D01*
X128960477Y-97877381D02*
X128770000Y-97877381D01*
X128674762Y-97925000D01*
X128627143Y-97972619D01*
X128531905Y-98115476D01*
X128484286Y-98305952D01*
X128484286Y-98686905D01*
X128531905Y-98782143D01*
X128579524Y-98829762D01*
X128674762Y-98877381D01*
X128865239Y-98877381D01*
X128960477Y-98829762D01*
X129008096Y-98782143D01*
X129055715Y-98686905D01*
X129055715Y-98448810D01*
X129008096Y-98353571D01*
X128960477Y-98305952D01*
X128865239Y-98258333D01*
X128674762Y-98258333D01*
X128579524Y-98305952D01*
X128531905Y-98353571D01*
X128484286Y-98448810D01*
X126912857Y-89892143D02*
X126960476Y-89939762D01*
X126912857Y-89987381D01*
X126865238Y-89939762D01*
X126912857Y-89892143D01*
X126912857Y-89987381D01*
X127912857Y-89987381D02*
X127341428Y-89987381D01*
X127627142Y-89987381D02*
X127627142Y-88987381D01*
X127531904Y-89130238D01*
X127436666Y-89225476D01*
X127341428Y-89273095D01*
X128770000Y-89320714D02*
X128770000Y-89987381D01*
X128341428Y-89320714D02*
X128341428Y-89844524D01*
X128389047Y-89939762D01*
X128484285Y-89987381D01*
X128627143Y-89987381D01*
X128722381Y-89939762D01*
X128770000Y-89892143D01*
X129579524Y-89463571D02*
X129246190Y-89463571D01*
X129246190Y-89987381D02*
X129246190Y-88987381D01*
X129722381Y-88987381D01*
X130516334Y-98782143D02*
X130468715Y-98829762D01*
X130325858Y-98877381D01*
X130230620Y-98877381D01*
X130087762Y-98829762D01*
X129992524Y-98734524D01*
X129944905Y-98639286D01*
X129897286Y-98448810D01*
X129897286Y-98305952D01*
X129944905Y-98115476D01*
X129992524Y-98020238D01*
X130087762Y-97925000D01*
X130230620Y-97877381D01*
X130325858Y-97877381D01*
X130468715Y-97925000D01*
X130516334Y-97972619D01*
X131421096Y-97877381D02*
X130944905Y-97877381D01*
X130897286Y-98353571D01*
X130944905Y-98305952D01*
X131040143Y-98258333D01*
X131278239Y-98258333D01*
X131373477Y-98305952D01*
X131421096Y-98353571D01*
X131468715Y-98448810D01*
X131468715Y-98686905D01*
X131421096Y-98782143D01*
X131373477Y-98829762D01*
X131278239Y-98877381D01*
X131040143Y-98877381D01*
X130944905Y-98829762D01*
X130897286Y-98782143D01*
X130278476Y-90019143D02*
X130326095Y-90066762D01*
X130278476Y-90114381D01*
X130230857Y-90066762D01*
X130278476Y-90019143D01*
X130278476Y-90114381D01*
X130945142Y-89114381D02*
X131040381Y-89114381D01*
X131135619Y-89162000D01*
X131183238Y-89209619D01*
X131230857Y-89304857D01*
X131278476Y-89495333D01*
X131278476Y-89733429D01*
X131230857Y-89923905D01*
X131183238Y-90019143D01*
X131135619Y-90066762D01*
X131040381Y-90114381D01*
X130945142Y-90114381D01*
X130849904Y-90066762D01*
X130802285Y-90019143D01*
X130754666Y-89923905D01*
X130707047Y-89733429D01*
X130707047Y-89495333D01*
X130754666Y-89304857D01*
X130802285Y-89209619D01*
X130849904Y-89162000D01*
X130945142Y-89114381D01*
X131897523Y-89114381D02*
X131992762Y-89114381D01*
X132088000Y-89162000D01*
X132135619Y-89209619D01*
X132183238Y-89304857D01*
X132230857Y-89495333D01*
X132230857Y-89733429D01*
X132183238Y-89923905D01*
X132135619Y-90019143D01*
X132088000Y-90066762D01*
X131992762Y-90114381D01*
X131897523Y-90114381D01*
X131802285Y-90066762D01*
X131754666Y-90019143D01*
X131707047Y-89923905D01*
X131659428Y-89733429D01*
X131659428Y-89495333D01*
X131707047Y-89304857D01*
X131754666Y-89209619D01*
X131802285Y-89162000D01*
X131897523Y-89114381D01*
X133183238Y-90114381D02*
X132611809Y-90114381D01*
X132897523Y-90114381D02*
X132897523Y-89114381D01*
X132802285Y-89257238D01*
X132707047Y-89352476D01*
X132611809Y-89400095D01*
X134040381Y-89447714D02*
X134040381Y-90114381D01*
X133611809Y-89447714D02*
X133611809Y-89971524D01*
X133659428Y-90066762D01*
X133754666Y-90114381D01*
X133897524Y-90114381D01*
X133992762Y-90066762D01*
X134040381Y-90019143D01*
X134849905Y-89590571D02*
X134516571Y-89590571D01*
X134516571Y-90114381D02*
X134516571Y-89114381D01*
X134992762Y-89114381D01*
X136501143Y-93892666D02*
X136548762Y-93940285D01*
X136596381Y-94083142D01*
X136596381Y-94178380D01*
X136548762Y-94321238D01*
X136453524Y-94416476D01*
X136358286Y-94464095D01*
X136167810Y-94511714D01*
X136024952Y-94511714D01*
X135834476Y-94464095D01*
X135739238Y-94416476D01*
X135644000Y-94321238D01*
X135596381Y-94178380D01*
X135596381Y-94083142D01*
X135644000Y-93940285D01*
X135691619Y-93892666D01*
X135691619Y-93511714D02*
X135644000Y-93464095D01*
X135596381Y-93368857D01*
X135596381Y-93130761D01*
X135644000Y-93035523D01*
X135691619Y-92987904D01*
X135786857Y-92940285D01*
X135882095Y-92940285D01*
X136024952Y-92987904D01*
X136596381Y-93559333D01*
X136596381Y-92940285D01*
X135231143Y-96035524D02*
X135278762Y-95987905D01*
X135326381Y-96035524D01*
X135278762Y-96083143D01*
X135231143Y-96035524D01*
X135326381Y-96035524D01*
X134326381Y-95368858D02*
X134326381Y-95273619D01*
X134374000Y-95178381D01*
X134421619Y-95130762D01*
X134516857Y-95083143D01*
X134707333Y-95035524D01*
X134945429Y-95035524D01*
X135135905Y-95083143D01*
X135231143Y-95130762D01*
X135278762Y-95178381D01*
X135326381Y-95273619D01*
X135326381Y-95368858D01*
X135278762Y-95464096D01*
X135231143Y-95511715D01*
X135135905Y-95559334D01*
X134945429Y-95606953D01*
X134707333Y-95606953D01*
X134516857Y-95559334D01*
X134421619Y-95511715D01*
X134374000Y-95464096D01*
X134326381Y-95368858D01*
X134326381Y-94416477D02*
X134326381Y-94321238D01*
X134374000Y-94226000D01*
X134421619Y-94178381D01*
X134516857Y-94130762D01*
X134707333Y-94083143D01*
X134945429Y-94083143D01*
X135135905Y-94130762D01*
X135231143Y-94178381D01*
X135278762Y-94226000D01*
X135326381Y-94321238D01*
X135326381Y-94416477D01*
X135278762Y-94511715D01*
X135231143Y-94559334D01*
X135135905Y-94606953D01*
X134945429Y-94654572D01*
X134707333Y-94654572D01*
X134516857Y-94606953D01*
X134421619Y-94559334D01*
X134374000Y-94511715D01*
X134326381Y-94416477D01*
X135326381Y-93130762D02*
X135326381Y-93702191D01*
X135326381Y-93416477D02*
X134326381Y-93416477D01*
X134469238Y-93511715D01*
X134564476Y-93606953D01*
X134612095Y-93702191D01*
X134659714Y-92273619D02*
X135326381Y-92273619D01*
X134659714Y-92702191D02*
X135183524Y-92702191D01*
X135278762Y-92654572D01*
X135326381Y-92559334D01*
X135326381Y-92416476D01*
X135278762Y-92321238D01*
X135231143Y-92273619D01*
X134802571Y-91464095D02*
X134802571Y-91797429D01*
X135326381Y-91797429D02*
X134326381Y-91797429D01*
X134326381Y-91321238D01*
M02*
